<svg width="323" height="300" viewBox="0 0 323 300" fill="none" xmlns="http://www.w3.org/2000/svg">
<rect x="2.5" y="2.5" width="295" height="295" rx="95.7599" stroke="black" stroke-width="5"/>
<path d="M62.1868 196.742V120.072L64.4035 122.028C63.0996 124.723 61.2306 127.244 58.7967 129.591C56.3627 131.851 53.4941 133.807 50.1909 135.459C46.9746 137.023 43.3671 138.197 39.3684 138.979V119.421C42.5847 118.986 45.9314 117.943 49.4085 116.291C52.8856 114.553 56.015 112.51 58.7967 110.163C61.6653 107.729 63.7081 105.295 64.925 102.861H81.7455V196.742H62.1868ZM136.746 196.742V171.968L137.789 169.36V115.77L145.743 120.072L107.669 170.534L98.4111 163.623H166.475V179.009H91.1092V163.623L137.268 102.861H157.087V196.742H136.746ZM187.868 196.742V181.095H211.6C218.38 181.095 224.117 179.748 228.811 177.053C233.592 174.272 237.2 170.49 239.634 165.709C242.155 160.928 243.415 155.452 243.415 149.28C243.415 143.195 242.198 137.849 239.764 133.242C237.33 128.635 233.723 125.027 228.942 122.42C224.248 119.812 218.467 118.508 211.6 118.508H188.26V102.861H211.6C222.118 102.861 231.289 104.773 239.112 108.598C246.936 112.336 252.977 117.725 257.236 124.767C261.583 131.721 263.756 139.979 263.756 149.541C263.756 159.103 261.583 167.448 257.236 174.576C252.89 181.617 246.805 187.093 238.982 191.005C231.245 194.83 222.161 196.742 211.73 196.742H187.868ZM175.612 196.742V102.861H195.692V196.742H175.612Z" fill="black"/>
<path d="M323 59.4651C323 53.1138 317.851 47.9651 311.5 47.9651C305.149 47.9651 300 53.1138 300 59.4651C300 65.8164 305.149 70.9651 311.5 70.9651C317.851 70.9651 323 65.8164 323 59.4651ZM301.84 59.4651C301.84 54.13 306.165 49.8051 311.5 49.8051C316.835 49.8051 321.16 54.13 321.16 59.4651C321.16 64.8002 316.835 69.1251 311.5 69.1251C306.165 69.1251 301.84 64.8002 301.84 59.4651Z" fill="black"/>
<path d="M308.865 63V54.3936H312.261C312.911 54.3936 313.465 54.5099 313.925 54.7424C314.387 54.9721 314.739 55.2985 314.979 55.7215C315.223 56.1418 315.345 56.6362 315.345 57.205C315.345 57.7765 315.222 58.2682 314.975 58.68C314.729 59.089 314.372 59.4028 313.904 59.6213C313.439 59.8398 312.875 59.9491 312.214 59.9491H309.941V58.4867H311.92C312.268 58.4867 312.556 58.4391 312.786 58.3438C313.016 58.2485 313.186 58.1057 313.299 57.9152C313.413 57.7247 313.471 57.4879 313.471 57.205C313.471 56.9192 313.413 56.6783 313.299 56.4822C313.186 56.2861 313.014 56.1376 312.782 56.0367C312.552 55.9331 312.262 55.8812 311.912 55.8812H310.685V63H308.865ZM313.513 59.0834L315.652 63H313.643L311.55 59.0834H313.513Z" fill="black"/>
</svg>
