<?xml version="1.0" encoding="UTF-8"?>
<svg version="1.1" xmlns="http://www.w3.org/2000/svg" width="400" height="361">
<path d="M0 0 C0.69197707 -0.00297112 1.38395415 -0.00594224 2.09690022 -0.0090034 C4.41513733 -0.01767352 6.73332268 -0.01919722 9.05157471 -0.02069092 C10.71404124 -0.02532031 12.37650671 -0.03034513 14.03897095 -0.03573608 C18.55565571 -0.04885094 23.07232562 -0.05530333 27.58902645 -0.05974674 C30.41198615 -0.06267911 33.23494181 -0.06678425 36.05789948 -0.07125092 C44.89347462 -0.08492381 53.72904051 -0.09459133 62.5646255 -0.09845281 C72.75797517 -0.10293235 82.95119067 -0.12047631 93.14449954 -0.1494534 C101.02744532 -0.17108342 108.91035339 -0.1811578 116.79332852 -0.18249393 C121.49962858 -0.18354106 126.20580246 -0.18942936 130.91207123 -0.20731354 C135.34112251 -0.2238169 139.76995309 -0.22593875 144.1990242 -0.21717453 C145.82113105 -0.21640535 147.44324988 -0.22073113 149.06532669 -0.23063278 C159.63568415 -0.29135342 168.35727098 -0.13770368 176.51348877 7.32794189 C181.58832399 13.05719626 184.23270125 19.3969007 184.25939941 27.00267029 C184.26510956 27.97961853 184.2708197 28.95656677 184.27670288 29.96311951 C184.27837967 31.56139336 184.27837967 31.56139336 184.28009033 33.19195557 C184.28505524 34.31925079 184.29002014 35.44654602 184.2951355 36.60800171 C184.30975302 40.34147755 184.31655899 44.07491088 184.32208252 47.80841064 C184.32783494 50.40430197 184.33359267 53.00019329 184.33935547 55.59608459 C184.34852159 60.34650113 184.35482193 65.0969007 184.35785222 69.84732455 C184.36232693 76.82249237 184.3798497 83.79746365 184.40885282 90.77257174 C184.43314858 96.82739612 184.4408002 102.88212815 184.44252777 108.937006 C184.44554993 111.50575136 184.45356364 114.07449598 184.46671295 116.64320946 C184.48382247 120.2429416 184.48188072 123.84219894 184.47540283 127.44195557 C184.48461761 128.49735031 184.4938324 129.55274506 184.50332642 130.64012146 C184.44657144 140.73983919 182.31453279 147.80955562 175.30645752 155.19122314 C168.79301214 160.99516823 161.90117818 162.25956268 153.35890198 162.28088379 C152.69198292 162.28385491 152.02506387 162.28682603 151.33793515 162.28988719 C149.11038874 162.29853631 146.88289632 162.30007922 144.65533447 162.30157471 C143.05507798 162.30620561 141.4548226 162.31123064 139.85456848 162.31661987 C135.51135684 162.32972077 131.16816064 162.33618447 126.82493234 162.34063053 C124.10865526 162.34356536 121.39238237 162.34767098 118.67610741 162.3521347 C110.16943612 162.36580438 101.66277445 162.37547328 93.15609294 162.3793366 C83.35160447 162.38381431 73.54725562 162.40135112 63.74280959 162.43033719 C56.154502 162.45198902 48.56623358 162.46204277 40.97789544 162.46337771 C36.45039667 162.46442336 31.92302924 162.47027963 27.39556313 162.48819733 C23.13310732 162.50473836 18.87088073 162.50680441 14.60840416 162.49805832 C13.05002603 162.49729113 11.49163527 162.50158844 9.93328857 162.51151657 C-2.18873629 162.58417283 -11.91384588 162.01709871 -20.96697998 153.33184814 C-25.83212876 147.76174924 -27.99113567 141.62612291 -28.0282135 134.28494263 C-28.0353688 133.30943954 -28.04252411 132.33393646 -28.04989624 131.32887268 C-28.05258514 130.26492783 -28.05527405 129.20098297 -28.05804443 128.10479736 C-28.06461563 126.97910843 -28.07118683 125.85341949 -28.07795715 124.69361877 C-28.09768125 120.96495496 -28.10935163 117.23633144 -28.11932373 113.50762939 C-28.12339926 112.2329694 -28.12747478 110.9583094 -28.13167381 109.64502335 C-28.15038209 103.59231713 -28.16494753 97.53963525 -28.17328578 91.48690784 C-28.18304365 84.5201818 -28.2093285 77.55377471 -28.24978667 70.58716094 C-28.28370204 64.53767516 -28.2954404 58.48834298 -28.29948997 52.43875504 C-28.30435271 49.87361617 -28.31595766 47.30848064 -28.33452797 44.74340439 C-28.35894943 41.14616484 -28.35794814 37.54975118 -28.35101318 33.95245361 C-28.36382324 32.90065414 -28.3766333 31.84885468 -28.38983154 30.7651825 C-28.32483837 21.47624956 -25.95107918 13.50644332 -19.52557373 6.60919189 C-13.57331452 1.29315992 -7.78830016 0.01869014 0 0 Z " fill="#ECCADA" transform="translate(188.88104248046875,147.85955810546875)"/>
<path d="M0 0 C1.68311413 0.71064819 3.34223452 1.47760498 4.99609375 2.25390625 C5.32609375 1.26390625 5.65609375 0.27390625 5.99609375 -0.74609375 C9.31902199 -1.79044262 10.56368276 -1.96229925 13.74609375 -0.37109375 C15.99609375 1.25390625 15.99609375 1.25390625 16.99609375 2.25390625 C17.03690158 4.25348989 17.03863731 6.25435879 16.99609375 8.25390625 C16.00609375 8.58390625 15.01609375 8.91390625 13.99609375 9.25390625 C14.03686035 9.81899902 14.07762695 10.3840918 14.11962891 10.96630859 C14.29771196 13.51988297 14.45959135 16.07423195 14.62109375 18.62890625 C14.68554688 19.51835938 14.75 20.4078125 14.81640625 21.32421875 C14.86796875 22.175 14.91953125 23.02578125 14.97265625 23.90234375 C15.02502441 24.68786621 15.07739258 25.47338867 15.13134766 26.28271484 C14.99609375 28.25390625 14.99609375 28.25390625 12.99609375 30.25390625 C10.72187265 33.89426723 8.8832174 36.89939008 9.24609375 41.25390625 C9.49359375 41.91390625 9.74109375 42.57390625 9.99609375 43.25390625 C10.57617188 43.43566406 11.15625 43.61742187 11.75390625 43.8046875 C19.76320065 46.3819357 26.35394098 48.84460704 30.99609375 56.25390625 C31.49109375 58.72890625 31.49109375 58.72890625 31.99609375 61.25390625 C45.19609375 61.25390625 58.39609375 61.25390625 71.99609375 61.25390625 C73.09232502 65.63883132 72.69644292 69.03342123 72.0703125 73.4140625 C71.90883476 74.59348671 71.90883476 74.59348671 71.74409485 75.79673767 C71.51487675 77.45559159 71.28181224 79.11391796 71.04516602 80.77172852 C70.68460949 83.30925767 70.34053576 85.84864844 69.99804688 88.38867188 C69.77312329 90.00144016 69.54724408 91.61407553 69.3203125 93.2265625 C69.21812912 93.98598648 69.11594574 94.74541046 69.01066589 95.52784729 C68.49196248 99.08510823 68.02231191 101.21457901 65.99609375 104.25390625 C63.36912311 104.47528018 60.98715411 104.5355265 58.37109375 104.44140625 C57.6646875 104.42787109 56.95828125 104.41433594 56.23046875 104.40039062 C54.48535247 104.36501665 52.74062767 104.31120846 50.99609375 104.25390625 C50.70734375 104.87265625 50.41859375 105.49140625 50.12109375 106.12890625 C48.99609375 108.25390625 48.99609375 108.25390625 46.99609375 110.25390625 C42.63563999 110.75703553 40.44593442 110.49927389 36.55859375 108.37890625 C35.29015625 107.32703125 35.29015625 107.32703125 33.99609375 106.25390625 C33.99609375 105.59390625 33.99609375 104.93390625 33.99609375 104.25390625 C31.35609375 104.25390625 28.71609375 104.25390625 25.99609375 104.25390625 C26.26407048 116.70344771 28.60597844 128.59696402 31.06082153 140.77334595 C32.23042239 146.60718274 33.34945723 152.45080177 34.4765625 158.29296875 C36.17790476 167.10512712 36.17790476 167.10512712 37.93994141 175.90527344 C42.2736914 197.20523458 42.6188583 218.20096927 42.63305664 239.88793945 C42.63812729 241.06216461 42.64319794 242.23638977 42.64842224 243.44619751 C42.65606864 245.67037387 42.65097191 247.89464191 42.63124084 250.1187439 C42.56136027 257.21745383 42.56136027 257.21745383 45.99609375 263.25390625 C48.91083803 265.27138035 48.91083803 265.27138035 52.18359375 266.94140625 C54.14992087 267.9933796 56.09696047 269.08498236 57.99609375 270.25390625 C57.99609375 270.91390625 57.99609375 271.57390625 57.99609375 272.25390625 C59.11646027 272.25168564 60.23682678 272.24946503 61.3911438 272.24717712 C181.26829356 272.01717028 181.26829356 272.01717028 237.62109375 274.19140625 C238.62094299 274.22893005 239.62079224 274.26645386 240.65093994 274.30511475 C274.04001964 275.58831821 274.04001964 275.58831821 283.99609375 278.25390625 C283.66609375 279.24390625 283.33609375 280.23390625 282.99609375 281.25390625 C274.34304822 282.93806984 265.74220734 283.7465088 256.94995117 284.2043457 C254.88341257 284.31249087 252.81776719 284.4316255 250.75195312 284.55273438 C223.97346981 286.06185986 197.12286697 286.44388006 170.30859375 286.81640625 C169.5778363 286.82674644 168.84707886 286.83708664 168.09417725 286.84774017 C103.28399745 287.76353619 38.4022559 287.7012348 -26.37890625 285.31640625 C-27.9580632 285.26012054 -27.9580632 285.26012054 -29.56912231 285.20269775 C-40.6204988 284.79945957 -51.64493549 284.20956136 -62.66796875 283.3125 C-64.11434219 283.20084251 -64.11434219 283.20084251 -65.5899353 283.08692932 C-70.05669347 282.69752053 -73.93474786 282.30348893 -78.00390625 280.25390625 C-78.00390625 279.59390625 -78.00390625 278.93390625 -78.00390625 278.25390625 C-70.25115555 276.73853439 -62.90347687 275.9740002 -55.00390625 276.25390625 C-55.06578125 274.95453125 -55.12765625 273.65515625 -55.19140625 272.31640625 C-55.21166063 268.00222427 -54.35096874 264.73038538 -52.66015625 260.78515625 C-51.83205651 258.06369275 -51.83205651 258.06369275 -52.08911133 254.37509155 C-52.12576283 248.38323691 -51.0504171 242.66375358 -49.984375 236.78369141 C-49.76979645 235.5644397 -49.5552179 234.34518799 -49.33413696 233.08898926 C-48.8691898 230.45135888 -48.4015904 227.81436016 -47.92959595 225.17799759 C-47.1804003 220.98996204 -46.44488357 216.79959315 -45.71166992 212.60873413 C-43.62547961 200.6963358 -41.52231586 188.78697701 -39.40332031 176.88037109 C-38.23108754 170.2929175 -37.07076054 163.70347114 -35.92263126 157.11177289 C-35.31683415 153.63709387 -34.70513159 150.16370441 -34.07821655 146.6927681 C-31.38532186 131.76853947 -29.17956941 117.44451309 -30.00390625 102.25390625 C-30.94363281 102.30611328 -30.94363281 102.30611328 -31.90234375 102.359375 C-32.71960938 102.38644531 -33.536875 102.41351563 -34.37890625 102.44140625 C-35.19101562 102.47621094 -36.003125 102.51101562 -36.83984375 102.546875 C-37.55398437 102.45019531 -38.268125 102.35351562 -39.00390625 102.25390625 C-39.66390625 101.26390625 -40.32390625 100.27390625 -41.00390625 99.25390625 C-41.89078125 100.09953125 -42.77765625 100.94515625 -43.69140625 101.81640625 C-46.61663735 104.2449 -46.61663735 104.2449 -49.69140625 104.31640625 C-52.61124948 102.97485666 -53.53032034 102.12739877 -55.00390625 99.25390625 C-56.26441294 92.95818637 -55.68508385 88.61227408 -53.69140625 82.56640625 C-53.35206055 81.4671582 -53.35206055 81.4671582 -53.00585938 80.34570312 C-50.60416297 72.66996448 -50.60416297 72.66996448 -49.00390625 69.25390625 C-48.01390625 68.75890625 -48.01390625 68.75890625 -47.00390625 68.25390625 C-46.08348703 66.42186163 -45.21724031 64.56243673 -44.37890625 62.69140625 C-38.27386325 50.45231768 -30.22552797 46.43742891 -17.89160156 41.76953125 C-16.00390625 41.25390625 -16.00390625 41.25390625 -12.00390625 41.25390625 C-10.54327775 38.60651709 -10.00390625 37.35942291 -10.00390625 34.25390625 C-10.78765625 34.91390625 -11.57140625 35.57390625 -12.37890625 36.25390625 C-15.00390625 38.25390625 -15.00390625 38.25390625 -17.00390625 38.25390625 C-16.00390625 35.25390625 -16.00390625 35.25390625 -14.44140625 33.87890625 C-12.747001 32.28470359 -12.747001 32.28470359 -12.75390625 29.62890625 C-12.74713786 27.3009419 -12.74713786 27.3009419 -14.00390625 26.25390625 C-14.34021939 22.13726312 -14.32888999 18.00752136 -14.37890625 13.87890625 C-14.43498047 12.13480469 -14.43498047 12.13480469 -14.4921875 10.35546875 C-14.50378906 9.24171875 -14.51539063 8.12796875 -14.52734375 6.98046875 C-14.55707275 5.44253662 -14.55707275 5.44253662 -14.58740234 3.87353516 C-14.00390625 1.25390625 -14.00390625 1.25390625 -11.68212891 -0.61181641 C-7.51500267 -2.37667224 -4.16788998 -1.5517875 0 0 Z M-30.00390625 76.25390625 C-30.33390625 77.90390625 -30.66390625 79.55390625 -31.00390625 81.25390625 C-29.51890625 82.24390625 -29.51890625 82.24390625 -28.00390625 83.25390625 C-28.00390625 81.27390625 -28.00390625 79.29390625 -28.00390625 77.25390625 C-28.66390625 76.92390625 -29.32390625 76.59390625 -30.00390625 76.25390625 Z M-0.00390625 155.25390625 C-0.21370117 155.94387695 -0.42349609 156.63384766 -0.63964844 157.34472656 C-5.20511276 172.31338184 -9.92687432 187.22113238 -14.87890625 202.06640625 C-15.1275946 202.81386108 -15.37628296 203.56131592 -15.63250732 204.3314209 C-18.4377464 212.75506829 -21.30619787 221.15176356 -24.28515625 229.515625 C-24.81029973 231.00080994 -25.33520656 232.48607858 -25.85986328 233.97143555 C-26.8492523 236.7722812 -27.85805804 239.56504681 -28.87841797 242.35473633 C-29.3246441 243.61252683 -29.77016055 244.87056942 -30.21484375 246.12890625 C-30.60978027 247.21945312 -31.0047168 248.31 -31.41162109 249.43359375 C-32.24718499 252.18356924 -32.24718499 252.18356924 -31.20947266 254.453125 C-30.81163574 255.04738281 -30.41379883 255.64164062 -30.00390625 256.25390625 C-29.50890625 257.22328125 -29.01390625 258.19265625 -28.50390625 259.19140625 C-24.4896512 264.10886869 -18.94380999 266.27393834 -13.00390625 268.25390625 C-12.67390625 270.23390625 -12.34390625 272.21390625 -12.00390625 274.25390625 C-3.09390625 273.92390625 5.81609375 273.59390625 14.99609375 273.25390625 C15.95515625 270.16015625 15.95515625 270.16015625 16.93359375 267.00390625 C17.29324219 265.84375 17.65289062 264.68359375 18.0234375 263.48828125 C18.34441406 262.4209375 18.66539063 261.35359375 18.99609375 260.25390625 C19.2087085 259.61646484 19.42132324 258.97902344 19.64038086 258.32226562 C20.08372363 255.74436584 19.55974093 254.37134616 18.66015625 251.92578125 C16.50448191 245.23068347 15.98767809 238.48251996 15.37109375 231.50390625 C15.18933594 229.60125 15.18933594 229.60125 15.00390625 227.66015625 C14.04277926 217.42206436 14.04277926 217.42206436 13.86206055 212.90014648 C13.3985757 202.15629923 10.76466678 192.16937885 8.05859375 181.81640625 C7.59722703 180.01264576 7.13693401 178.20861028 6.67773438 176.40429688 C4.86907672 169.32825036 3.03115138 162.2685956 0.99609375 155.25390625 C0.66609375 155.25390625 0.33609375 155.25390625 -0.00390625 155.25390625 Z " fill="#000000" transform="translate(97.00390625,55.74609375)"/>
<path d="M0 0 C1.68311413 0.71064819 3.34223452 1.47760498 4.99609375 2.25390625 C5.32609375 1.26390625 5.65609375 0.27390625 5.99609375 -0.74609375 C9.31902199 -1.79044262 10.56368276 -1.96229925 13.74609375 -0.37109375 C15.99609375 1.25390625 15.99609375 1.25390625 16.99609375 2.25390625 C17.03690158 4.25348989 17.03863731 6.25435879 16.99609375 8.25390625 C16.00609375 8.58390625 15.01609375 8.91390625 13.99609375 9.25390625 C14.03686035 9.81899902 14.07762695 10.3840918 14.11962891 10.96630859 C14.29771196 13.51988297 14.45959135 16.07423195 14.62109375 18.62890625 C14.68554688 19.51835938 14.75 20.4078125 14.81640625 21.32421875 C14.86796875 22.175 14.91953125 23.02578125 14.97265625 23.90234375 C15.02502441 24.68786621 15.07739258 25.47338867 15.13134766 26.28271484 C14.99609375 28.25390625 14.99609375 28.25390625 12.99609375 30.25390625 C10.72187265 33.89426723 8.8832174 36.89939008 9.24609375 41.25390625 C9.49359375 41.91390625 9.74109375 42.57390625 9.99609375 43.25390625 C10.57617188 43.43566406 11.15625 43.61742187 11.75390625 43.8046875 C19.76320065 46.3819357 26.35394098 48.84460704 30.99609375 56.25390625 C31.49109375 58.72890625 31.49109375 58.72890625 31.99609375 61.25390625 C45.19609375 61.25390625 58.39609375 61.25390625 71.99609375 61.25390625 C73.09232502 65.63883132 72.69644292 69.03342123 72.0703125 73.4140625 C71.96266068 74.20034531 71.85500885 74.98662811 71.74409485 75.79673767 C71.51487675 77.45559159 71.28181224 79.11391796 71.04516602 80.77172852 C70.68460949 83.30925767 70.34053576 85.84864844 69.99804688 88.38867188 C69.77312329 90.00144016 69.54724408 91.61407553 69.3203125 93.2265625 C69.21812912 93.98598648 69.11594574 94.74541046 69.01066589 95.52784729 C68.49196248 99.08510823 68.02231191 101.21457901 65.99609375 104.25390625 C63.36912311 104.47528018 60.98715411 104.5355265 58.37109375 104.44140625 C57.6646875 104.42787109 56.95828125 104.41433594 56.23046875 104.40039062 C54.48535247 104.36501665 52.74062767 104.31120846 50.99609375 104.25390625 C50.70734375 104.87265625 50.41859375 105.49140625 50.12109375 106.12890625 C48.99609375 108.25390625 48.99609375 108.25390625 46.99609375 110.25390625 C42.63563999 110.75703553 40.44593442 110.49927389 36.55859375 108.37890625 C35.29015625 107.32703125 35.29015625 107.32703125 33.99609375 106.25390625 C33.99609375 105.59390625 33.99609375 104.93390625 33.99609375 104.25390625 C31.35609375 104.25390625 28.71609375 104.25390625 25.99609375 104.25390625 C26.05410156 105.0015625 26.11210938 105.74921875 26.171875 106.51953125 C26.53778164 114.50675054 26.53778164 114.50675054 24.18359375 117.75390625 C15.9428195 121.63191766 8.40821634 122.52529967 -0.62890625 122.56640625 C-1.95245117 122.57462402 -1.95245117 122.57462402 -3.30273438 122.58300781 C-8.41970593 122.52759625 -13.07738086 121.95453624 -18.04394531 120.72827148 C-20.37439632 120.16423731 -22.68096727 119.85609091 -25.06640625 119.62890625 C-27.01546875 119.44328125 -27.01546875 119.44328125 -29.00390625 119.25390625 C-29.33390625 113.64390625 -29.66390625 108.03390625 -30.00390625 102.25390625 C-31.44765625 102.31578125 -32.89140625 102.37765625 -34.37890625 102.44140625 C-36.83984375 102.546875 -36.83984375 102.546875 -39.00390625 102.25390625 C-39.66390625 101.26390625 -40.32390625 100.27390625 -41.00390625 99.25390625 C-42.33421875 100.52234375 -42.33421875 100.52234375 -43.69140625 101.81640625 C-46.61663735 104.2449 -46.61663735 104.2449 -49.69140625 104.31640625 C-52.61124948 102.97485666 -53.53032034 102.12739877 -55.00390625 99.25390625 C-56.26441294 92.95818637 -55.68508385 88.61227408 -53.69140625 82.56640625 C-53.35206055 81.4671582 -53.35206055 81.4671582 -53.00585938 80.34570312 C-50.60416297 72.66996448 -50.60416297 72.66996448 -49.00390625 69.25390625 C-48.01390625 68.75890625 -48.01390625 68.75890625 -47.00390625 68.25390625 C-46.08348703 66.42186163 -45.21724031 64.56243673 -44.37890625 62.69140625 C-38.27386325 50.45231768 -30.22552797 46.43742891 -17.89160156 41.76953125 C-16.00390625 41.25390625 -16.00390625 41.25390625 -12.00390625 41.25390625 C-10.54327775 38.60651709 -10.00390625 37.35942291 -10.00390625 34.25390625 C-11.17953125 35.24390625 -11.17953125 35.24390625 -12.37890625 36.25390625 C-15.00390625 38.25390625 -15.00390625 38.25390625 -17.00390625 38.25390625 C-16.00390625 35.25390625 -16.00390625 35.25390625 -14.44140625 33.87890625 C-12.747001 32.28470359 -12.747001 32.28470359 -12.75390625 29.62890625 C-12.74713786 27.3009419 -12.74713786 27.3009419 -14.00390625 26.25390625 C-14.34021939 22.13726312 -14.32888999 18.00752136 -14.37890625 13.87890625 C-14.43498047 12.13480469 -14.43498047 12.13480469 -14.4921875 10.35546875 C-14.50378906 9.24171875 -14.51539063 8.12796875 -14.52734375 6.98046875 C-14.55707275 5.44253662 -14.55707275 5.44253662 -14.58740234 3.87353516 C-14.00390625 1.25390625 -14.00390625 1.25390625 -11.68212891 -0.61181641 C-7.51500267 -2.37667224 -4.16788998 -1.5517875 0 0 Z M-30.00390625 76.25390625 C-30.33390625 77.90390625 -30.66390625 79.55390625 -31.00390625 81.25390625 C-29.51890625 82.24390625 -29.51890625 82.24390625 -28.00390625 83.25390625 C-28.00390625 81.27390625 -28.00390625 79.29390625 -28.00390625 77.25390625 C-28.66390625 76.92390625 -29.32390625 76.59390625 -30.00390625 76.25390625 Z " fill="#1BBED5" transform="translate(97.00390625,55.74609375)"/>
<path d="M0 0 C2.89987498 0.00602259 5.7891132 0.05349007 8.6875 0.125 C9.91243164 0.12113281 9.91243164 0.12113281 11.16210938 0.1171875 C15.78206317 0.26682163 17.42347694 0.42904337 20.83203125 3.8046875 C21.90517578 5.38636719 21.90517578 5.38636719 23 7 C26.67927931 11.17866253 30.50931788 12.60950229 35.63671875 14.55859375 C36.41660156 15.03425781 37.19648437 15.50992187 38 16 C38.495 18.475 38.495 18.475 39 21 C47.58 21 56.16 21 65 21 C65.33 18.36 65.66 15.72 66 13 C66.81187522 10.50968844 67.86318192 8.37248991 69 6 C69.66 6 70.32 6 71 6 C71 5.34 71 4.68 71 4 C77.93 4 84.86 4 92 4 C92.99 5.98 93.98 7.96 95 10 C96.80374465 11.62347402 96.80374465 11.62347402 98.875 12.6875 C99.57367188 13.0896875 100.27234375 13.491875 100.9921875 13.90625 C101.65476563 14.2671875 102.31734375 14.628125 103 15 C104.69403834 15.95289657 106.37501495 16.93360356 108 18 C108 18.66 108 19.32 108 20 C109.12036652 19.99777939 110.24073303 19.99555878 111.39505005 19.99327087 C231.27219981 19.76326403 231.27219981 19.76326403 287.625 21.9375 C288.62484924 21.9750238 289.62469849 22.01254761 290.65484619 22.0512085 C324.04392589 23.33441196 324.04392589 23.33441196 334 26 C333.67 26.99 333.34 27.98 333 29 C324.34695447 30.68416359 315.74611359 31.49260255 306.95385742 31.95043945 C304.88731882 32.05858462 302.82167344 32.17771925 300.75585938 32.29882812 C273.97737606 33.80795361 247.12677322 34.18997381 220.3125 34.5625 C219.58174255 34.57284019 218.85098511 34.58318039 218.0980835 34.59383392 C153.2879037 35.50962994 88.40616215 35.44732855 23.625 33.0625 C22.5722287 33.0249762 21.5194574 32.98745239 20.43478394 32.9487915 C9.38340745 32.54555332 -1.64102924 31.95565511 -12.6640625 31.05859375 C-13.62831146 30.98415543 -14.59256042 30.9097171 -15.58602905 30.83302307 C-20.05278722 30.44361428 -23.93084161 30.04958268 -28 28 C-28 27.34 -28 26.68 -28 26 C-20.2472493 24.48462814 -12.89957062 23.72009395 -5 24 C-5.05220703 23.1646875 -5.05220703 23.1646875 -5.10546875 22.3125 C-5.31304595 16.46079988 -4.47168027 12.32361903 -2 7 C-1.34 6.67 -0.68 6.34 0 6 C0 4.02 0 2.04 0 0 Z " fill="#D4EAFE" transform="translate(47,308)"/>
<path d="M0 0 C2.20285076 1.429857 4.28904564 2.94019011 6.37109375 4.5390625 C7.23734375 5.1165625 8.10359375 5.6940625 8.99609375 6.2890625 C17.94915903 14.77091382 23.50167879 26.62438807 24.57421875 38.85546875 C24.86115175 52.6043417 20.52144345 64.9800003 11.30859375 75.2890625 C0.04334599 85.68578776 -12.95761666 89.17135751 -27.88671875 88.84765625 C-41.17592238 88.21345861 -51.76811001 81.25024523 -60.80859375 71.84375 C-69.91532826 60.31376425 -72.11724494 46.76367655 -70.62890625 32.5390625 C-68.17023475 19.50065302 -60.19692893 9.22184724 -49.62890625 1.5390625 C-34.07095814 -7.09450307 -15.9030621 -8.83766007 0 0 Z M-41.94140625 24.9140625 C-46.68225446 30.98183289 -49.22388563 37.06339291 -48.37890625 44.83984375 C-46.97721115 52.28634897 -43.47250259 57.47429794 -37.6015625 62.2109375 C-31.60369207 66.24910769 -25.51401891 67.16538154 -18.40625 66.23828125 C-11.32012452 64.45429185 -5.37900874 60.4897584 -1.5234375 54.25 C1.76191481 47.96622572 2.47028805 41.84369167 0.71875 34.984375 C-1.93945102 27.47752404 -6.0090481 22.82917684 -12.69140625 18.6015625 C-23.17039071 14.80826496 -34.49578174 16.743803 -41.94140625 24.9140625 Z " fill="#EECBDB" transform="translate(348.62890625,30.4609375)"/>
<path d="M0 0 C1.51840048 4.05549152 0.6693708 7.99625113 0.07421875 12.16015625 C-0.03343307 12.94643906 -0.1410849 13.73272186 -0.2519989 14.54283142 C-0.481217 16.20168534 -0.71428151 17.86001171 -0.95092773 19.51782227 C-1.31148426 22.05535142 -1.65555799 24.59474219 -1.99804688 27.13476562 C-2.22297046 28.74753391 -2.44884967 30.36016928 -2.67578125 31.97265625 C-2.77796463 32.73208023 -2.88014801 33.49150421 -2.98542786 34.27394104 C-3.50413127 37.83120198 -3.97378184 39.96067276 -6 43 C-8.62697064 43.22137393 -11.00893964 43.28162025 -13.625 43.1875 C-14.33140625 43.17396484 -15.0378125 43.16042969 -15.765625 43.14648438 C-17.51074128 43.1111104 -19.25546608 43.05730221 -21 43 C-21.28875 43.61875 -21.5775 44.2375 -21.875 44.875 C-23 47 -23 47 -25 49 C-29.36045376 49.50312928 -31.55015933 49.24536764 -35.4375 47.125 C-36.7059375 46.073125 -36.7059375 46.073125 -38 45 C-38 44.34 -38 43.68 -38 43 C-38.81452637 42.99589111 -39.62905273 42.99178223 -40.46826172 42.98754883 C-56.25617514 42.84835506 -70.99709577 42.50919654 -86 37 C-86 36.34 -86 35.68 -86 35 C-79.4 35 -72.8 35 -66 35 C-65.23829298 28.16322839 -65.23829298 28.16322839 -64.5 21.32421875 C-64.33333333 19.77864583 -64.16666667 18.23307292 -64 16.6875 C-63.9175 15.90310547 -63.835 15.11871094 -63.75 14.31054688 C-63.6675 13.55193359 -63.585 12.79332031 -63.5 12.01171875 C-63.4278125 11.33584717 -63.355625 10.65997559 -63.28125 9.96362305 C-62.98961357 7.92748432 -62.53209625 5.98566128 -62 4 C-63.65 4 -65.3 4 -67 4 C-67 3.34 -67 2.68 -67 2 C-62.21875548 1.10257398 -57.47670546 0.67696291 -52.625 0.4375 C-51.7688208 0.3950415 -50.9126416 0.35258301 -50.03051758 0.30883789 C-33.37418016 -0.38581678 -16.66700153 -0.07922158 0 0 Z " fill="#3167C7" transform="translate(169,117)"/>
<path d="M0 0 C6.48822847 5.75529896 10.6735873 12.98115033 11.4453125 21.640625 C11.70137088 33.04711624 9.90466905 40.63961609 1.9453125 49.0859375 C-4.771834 55.61729059 -12.02787369 58.61766866 -21.53515625 58.96875 C-30.42292868 58.39489383 -38.54821449 55.17473199 -45.06640625 49.06640625 C-50.98460518 41.94429105 -54.27547915 33.35783467 -54.1015625 24.10546875 C-53.26644662 15.25942644 -49.48879447 7.15150354 -42.96875 1.08203125 C-29.72235774 -9.3405177 -13.78931408 -9.80410452 0 0 Z M-34.265625 15.30859375 C-37.47529622 20.36999836 -38.28150909 23.73891303 -37.42578125 29.66015625 C-36.2832886 34.38023538 -33.77865824 37.12433853 -30.140625 40.18359375 C-24.90932514 42.8998456 -20.3785717 43.58320022 -14.765625 41.93359375 C-9.98962289 39.81931614 -6.97885298 36.64963005 -4.890625 31.87109375 C-3.93052854 26.23606607 -4.09886051 21.57643266 -6.515625 16.37109375 C-11.03018145 11.61892906 -15.04136386 9.17028257 -21.58203125 8.70703125 C-26.86185218 9.08224695 -30.64846776 11.59624816 -34.265625 15.30859375 Z " fill="#EECBDC" transform="translate(228.890625,24.12890625)"/>
<path d="M0 0 C2.20285076 1.429857 4.28904564 2.94019011 6.37109375 4.5390625 C7.23734375 5.1165625 8.10359375 5.6940625 8.99609375 6.2890625 C17.94915903 14.77091382 23.50167879 26.62438807 24.57421875 38.85546875 C24.82433115 50.84002104 21.74014957 61.95136621 14.37109375 71.5390625 C12.1484375 72.87109375 12.1484375 72.87109375 10.37109375 73.5390625 C9.70722656 72.86359375 9.04335938 72.188125 8.359375 71.4921875 C7.47636719 70.60015625 6.59335937 69.708125 5.68359375 68.7890625 C4.81347656 67.90734375 3.94335938 67.025625 3.046875 66.1171875 C0.59106907 63.75100952 -1.93031673 61.62013694 -4.62890625 59.5390625 C-4.36078125 58.8790625 -4.09265625 58.2190625 -3.81640625 57.5390625 C-3.42453125 56.5490625 -3.03265625 55.5590625 -2.62890625 54.5390625 C-2.23251953 53.64960937 -2.23251953 53.64960937 -1.828125 52.7421875 C1.14556628 45.69552569 1.34829616 39.6805229 -1.12890625 32.4140625 C-3.77391992 26.37100635 -8.0750898 22.41537818 -13.86328125 19.359375 C-17.56714937 18.26077005 -21.11918748 18.32525313 -24.94140625 18.4140625 C-26.05225586 18.42759766 -26.05225586 18.42759766 -27.18554688 18.44140625 C-29.00014092 18.46482037 -30.81456696 18.50068635 -32.62890625 18.5390625 C-40.62890625 3.11049107 -40.62890625 3.11049107 -40.62890625 -2.4609375 C-27.6269612 -8.03319966 -12.33864142 -6.85683788 0 0 Z " fill="#EDCCDC" transform="translate(348.62890625,30.4609375)"/>
<path d="M0 0 C1.68311413 0.71064819 3.34223452 1.47760498 4.99609375 2.25390625 C5.32609375 1.26390625 5.65609375 0.27390625 5.99609375 -0.74609375 C9.31902199 -1.79044262 10.56368276 -1.96229925 13.74609375 -0.37109375 C15.99609375 1.25390625 15.99609375 1.25390625 16.99609375 2.25390625 C17.03690158 4.25348989 17.03863731 6.25435879 16.99609375 8.25390625 C16.00609375 8.58390625 15.01609375 8.91390625 13.99609375 9.25390625 C14.03686035 9.81899902 14.07762695 10.3840918 14.11962891 10.96630859 C14.29771196 13.51988297 14.45959135 16.07423195 14.62109375 18.62890625 C14.68554688 19.51835938 14.75 20.4078125 14.81640625 21.32421875 C14.89375 22.60039063 14.89375 22.60039063 14.97265625 23.90234375 C15.02502441 24.68786621 15.07739258 25.47338867 15.13134766 26.28271484 C14.99609375 28.25390625 14.99609375 28.25390625 12.99609375 30.25390625 C10.47048688 34.13602281 8.54544416 37.54131792 9.24609375 42.25390625 C9.49359375 43.24390625 9.74109375 44.23390625 9.99609375 45.25390625 C8.01609375 45.25390625 6.03609375 45.25390625 3.99609375 45.25390625 C3.00609375 48.88390625 2.01609375 52.51390625 0.99609375 56.25390625 C-2.00390625 52.25390625 -2.00390625 52.25390625 -3.81640625 49.19140625 C-6.2549815 45.91674806 -8.26793474 44.78225823 -12.00390625 43.25390625 C-11.34390625 40.28390625 -10.68390625 37.31390625 -10.00390625 34.25390625 C-10.78765625 34.91390625 -11.57140625 35.57390625 -12.37890625 36.25390625 C-15.00390625 38.25390625 -15.00390625 38.25390625 -17.00390625 38.25390625 C-16.00390625 35.25390625 -16.00390625 35.25390625 -14.44140625 33.87890625 C-12.747001 32.28470359 -12.747001 32.28470359 -12.75390625 29.62890625 C-12.74713786 27.3009419 -12.74713786 27.3009419 -14.00390625 26.25390625 C-14.34021939 22.13726312 -14.32888999 18.00752136 -14.37890625 13.87890625 C-14.41628906 12.71617188 -14.45367187 11.5534375 -14.4921875 10.35546875 C-14.50378906 9.24171875 -14.51539062 8.12796875 -14.52734375 6.98046875 C-14.54716309 5.95518066 -14.56698242 4.92989258 -14.58740234 3.87353516 C-14.00390625 1.25390625 -14.00390625 1.25390625 -11.68212891 -0.61181641 C-7.51500267 -2.37667224 -4.16788998 -1.5517875 0 0 Z " fill="#858282" transform="translate(97.00390625,55.74609375)"/>
<path d="M0 0 C0.71037057 9.45187503 -1.2338325 15.93917017 -7.3125 23.25 C-14.50021232 30.87746687 -21.9128526 34.70136088 -32.64453125 35.09765625 C-41.88708165 34.50089315 -49.4119387 31.05252999 -56.30859375 24.9765625 C-58.40633539 22.52516003 -59.65512782 19.92005886 -61 17 C-58.87767021 15.82823482 -56.75242209 14.66245215 -54.625 13.5 C-54.02171875 13.16613281 -53.4184375 12.83226562 -52.796875 12.48828125 C-48.2265625 10 -48.2265625 10 -46 10 C-45.46375 10.763125 -44.9275 11.52625 -44.375 12.3125 C-41.30282953 15.78890342 -38.51014919 17.07336935 -34 18 C-28.40060412 18.262144 -24.28275227 16.58556004 -20 13 C-17.02289945 9.20163033 -16.46604349 5.75364364 -16 1 C-10.65097076 0.40801257 -5.39115154 -0.14187241 0 0 Z " fill="#EDCBDC" transform="translate(240,48)"/>
<path d="M0 0 C4.36193299 3.87442283 8.05904876 8.11905474 9 14 C9.07911937 21.92512341 7.4221964 27.48002656 1.8125 33.25 C-3.74426355 36.70754176 -8.60579026 38.55758012 -15.1875 37.4375 C-21.69037914 35.78405476 -26.31645596 32.65687121 -30 27 C-32.46991738 20.88401412 -32.52069875 15.26664619 -30.31640625 9.08203125 C-27.8294978 4.07505557 -23.78349903 0.78414592 -19 -2 C-12.47999762 -4.06549694 -5.87888963 -3.4696976 0 0 Z M-19 10 C-21.45665197 13.68497796 -21.70086491 16.71971786 -21 21 C-19.20636089 23.8100346 -17.98119065 25.50940468 -15 27 C-10.60065519 27.50761671 -8.45774614 27.25800237 -4.5625 25.0625 C-1.56441546 21.47942335 -1.15821423 19.70408243 -1.4765625 15.15625 C-2.33606478 11.61561373 -4.09146185 10.0682938 -7 8 C-11.61483128 6.05691314 -14.73732756 7.74802211 -19 10 Z " fill="#ECC9DA" transform="translate(260,93)"/>
<path d="M0 0 C2.89987498 0.00602259 5.7891132 0.05349007 8.6875 0.125 C9.91243164 0.12113281 9.91243164 0.12113281 11.16210938 0.1171875 C15.78206317 0.26682163 17.42347694 0.42904337 20.83203125 3.8046875 C21.54746094 4.85914063 22.26289062 5.91359375 23 7 C26.67927931 11.17866253 30.50931788 12.60950229 35.63671875 14.55859375 C38 16 38 16 38.83203125 18.66015625 C38.88746094 19.43230469 38.94289062 20.20445312 39 21 C32.7634678 26.50282253 27.1946339 27.31719782 19.1875 27.1875 C18.02444336 27.1865332 18.02444336 27.1865332 16.83789062 27.18554688 C11.140687 27.140687 11.140687 27.140687 10 26 C8.989375 26.020625 7.97875 26.04125 6.9375 26.0625 C2.57487957 25.99325206 -0.81669833 25.17426012 -5 24 C-5.40195304 17.56875142 -4.72643749 12.87232691 -2 7 C-1.34 6.67 -0.68 6.34 0 6 C0 4.02 0 2.04 0 0 Z " fill="#F3F3F5" transform="translate(47,308)"/>
<path d="M0 0 C1.32 0 2.64 0 4 0 C3.39306705 3.13545976 2.39584191 5.14388978 0.48046875 7.6875 C-0.0412793 8.38069336 -0.56302734 9.07388672 -1.10058594 9.78808594 C-1.66551758 10.51801758 -2.23044922 11.24794922 -2.8125 12 C-3.68503418 13.12970215 -3.68503418 13.12970215 -4.57519531 14.28222656 C-22.62598878 37.25862907 -22.62598878 37.25862907 -35.1875 38.875 C-41.68377251 38.49087258 -47.00818603 33.86681941 -52.16845703 30.2578125 C-55.11196506 28.23635777 -58.14420793 26.36641422 -61.1875 24.5 C-62.23292969 23.8503125 -63.27835937 23.200625 -64.35546875 22.53125 C-69.36751636 19.62914858 -74.00948376 19.21676956 -79.625 20.6875 C-84.73967341 23.51403004 -87.95375269 28.1747955 -91.25 32.875 C-97.57593397 41.37580053 -104.27324898 47.38954944 -115 49 C-124.90719832 49.84496361 -132.99055145 48.7220711 -142.5234375 45.90234375 C-150.2957031 43.88504785 -157.90938806 44.04894607 -165 48 C-172.25199792 52.63106146 -178.52075036 58.14211953 -184.6875 64.09375 C-187 66 -187 66 -190 66 C-189.1500568 61.3833754 -186.38274009 59.14658673 -183 56.125 C-182.41057617 55.59197266 -181.82115234 55.05894531 -181.21386719 54.50976562 C-176.74861484 50.53362266 -172.2279737 46.93466182 -167 44 C-166.28585938 43.59007812 -165.57171875 43.18015625 -164.8359375 42.7578125 C-156.53631794 38.50535725 -149.03120657 39.18581573 -140.3125 41.9375 C-139.21808594 42.30230469 -138.12367188 42.66710937 -136.99609375 43.04296875 C-133.20117507 44.25516572 -129.98152398 44.74312748 -126 45 C-124.70642578 45.09474609 -124.70642578 45.09474609 -123.38671875 45.19140625 C-116.6294294 45.48113788 -111.83217444 44.41290208 -106 41 C-105.34515625 40.63390625 -104.6903125 40.2678125 -104.015625 39.890625 C-98.55844638 36.35437325 -95.23106952 31.50166982 -91.76391602 26.11376953 C-88.23081732 20.77555055 -84.29644611 16.74221868 -77.89453125 15.30078125 C-64.43830282 15.35194562 -55.24459986 22.20673034 -44.8359375 29.92578125 C-40.81766906 32.86476271 -38.4054425 33.47698708 -33.49609375 33.3984375 C-19.79745341 31.21180008 -9.60428176 13.86263237 -2.07226562 3.55297852 C-0.92891474 1.97464781 -0.92891474 1.97464781 0 0 Z " fill="#EA4243" transform="translate(361,212)"/>
<path d="M0 0 C6.93 0 13.86 0 21 0 C21.99 1.98 22.98 3.96 24 6 C25.80374465 7.62347402 25.80374465 7.62347402 27.875 8.6875 C28.57367188 9.09355469 29.27234375 9.49960937 29.9921875 9.91796875 C31.64548342 10.80894729 33.32018331 11.66009165 35 12.5 C37 14 37 14 37.6875 16.375 C36.85868255 19.53957572 35.38738814 20.93055363 32.85717773 22.93945312 C29.44064876 24.89047217 26.03289814 24.69172737 22.1875 24.5625 C21.36523926 24.54952881 20.54297852 24.53655762 19.69580078 24.52319336 C-1.1779241 23.8220759 -1.1779241 23.8220759 -6 19 C-6.68330794 12.57690535 -4.61688508 7.80621378 -2 2 C-1.34 2 -0.68 2 0 2 C0 1.34 0 0.68 0 0 Z " fill="#E7DFE1" transform="translate(118,312)"/>
<path d="M0 0 C2.45041203 3.67561805 3.96046944 7.4857534 5.625 11.5625 C6.11226563 12.73329102 6.11226563 12.73329102 6.609375 13.92773438 C6.91617188 14.67474609 7.22296875 15.42175781 7.5390625 16.19140625 C7.95986084 17.21536499 7.95986084 17.21536499 8.38916016 18.26000977 C9 20 9 20 9 22 C7.9275 22.556875 6.855 23.11375 5.75 23.6875 C0.00729741 26.98723838 -2.0299668 31.0599336 -5 37 C-11.6 35.02 -18.2 33.04 -25 31 C-26.16370566 25.18147169 -25.13254198 22.72758961 -22 18 C-15.84278709 10.04846956 -9.02220182 4.37931594 0 0 Z " fill="#EA4646" transform="translate(307,28)"/>
<path d="M0 0 C5.91345056 0.1137202 8.86330984 1.86330984 13 6 C15.83878583 9.89414621 16.34531035 12.52558595 16.1875 17.3125 C16.16042969 18.38113281 16.13335937 19.44976562 16.10546875 20.55078125 C16.07066406 21.35902344 16.03585938 22.16726562 16 23 C12.66403613 24.48199457 9.96708685 25.29388581 6.3125 25.3125 C5.54550781 25.32925781 4.77851562 25.34601563 3.98828125 25.36328125 C3.33214844 25.24339844 2.67601563 25.12351563 2 25 C1.34 24.01 0.68 23.02 0 22 C-0.886875 22.845625 -1.77375 23.69125 -2.6875 24.5625 C-5.6127311 26.99099375 -5.6127311 26.99099375 -8.6875 27.0625 C-11.60734323 25.72095041 -12.52641409 24.87349252 -14 22 C-15.60409934 15.35444559 -14.48828931 10.31926938 -12 4 C-10.09576534 2.09576534 -6.71526887 2.5740251 -4.12890625 2.37890625 C-1.79072597 2.17223364 -1.79072597 2.17223364 0 0 Z " fill="#EAAEA2" transform="translate(56,133)"/>
<path d="M0 0 C0.99 0.33 1.98 0.66 3 1 C-1.88391648 16.39565725 -8.38537952 31.53773843 -15.9375 45.8125 C-16.29021973 46.48023438 -16.64293945 47.14796875 -17.00634766 47.8359375 C-19.02001761 51.52622122 -21.11110774 54.93446936 -24 58 C-27.75 58.8125 -27.75 58.8125 -31 59 C-33.34241481 54.21332626 -34.40472444 50.23464525 -34.7890625 44.91796875 C-34.89692242 42.91719347 -34.89692242 42.91719347 -36 41 C-39.51240072 40.67326505 -41.41650422 40.61131959 -44.3984375 42.59765625 C-47.3774378 45.34853491 -49.65333526 48.36548524 -51.9375 51.6875 C-52.3720752 52.30383301 -52.80665039 52.92016602 -53.25439453 53.55517578 C-56.21651216 57.77842574 -59.0174791 62.084704 -61.6484375 66.5234375 C-62.09445312 67.01070313 -62.54046875 67.49796875 -63 68 C-64.32 68 -65.64 68 -67 68 C-62.95555532 56.78585793 -52.96057182 41.48028591 -42 36 C-38.26040339 35.50138712 -36.49185893 35.69817747 -33.25 37.6875 C-29.38617691 41.93646301 -29.53456733 48.55060467 -29 54 C-24.47087772 52.52663266 -22.8832182 48.97684337 -20.75 45.02734375 C-20.36086426 44.3203685 -19.97172852 43.61339325 -19.57080078 42.88499451 C-15.15333017 34.68898485 -11.5641162 26.15434096 -8 17.5625 C-7.00336572 15.18266835 -6.00403883 12.80400118 -5.00244141 10.42625427 C-4.38800511 8.9653422 -3.77685993 7.50304042 -3.16943359 6.03919983 C-1.10961817 1.10961817 -1.10961817 1.10961817 0 0 Z " fill="#63AEF5" transform="translate(362,162)"/>
<path d="M0 0 C1.875 0.3125 1.875 0.3125 4 1 C4.66 1.99 5.32 2.98 6 4 C8.76276177 3.47731534 11.3260876 2.89130413 14 2 C14.99 3.485 14.99 3.485 16 5 C19.08365871 5.2502157 19.08365871 5.2502157 22 5 C21.61102006 8.34522749 21.26215568 10.60676649 19.375 13.4375 C17.5023201 16.92749435 18.18415115 19.21742807 19 23 C17.02 23 15.04 23 13 23 C11.515 28.445 11.515 28.445 10 34 C7 30 7 30 5.1875 26.9375 C2.74892475 23.66284181 0.73597151 22.52835198 -3 21 C-2.690625 19.7625 -2.38125 18.525 -2.0625 17.25 C-0.78031188 11.54835497 -0.37429453 5.82126496 0 0 Z " fill="#E6ABA0" transform="translate(88,78)"/>
<path d="M0 0 C-0.85346339 3.90752357 -1.99734441 6.23439617 -5 9 C-8.3125 8.6875 -8.3125 8.6875 -12 8 C-15.81496448 8.61228587 -15.81496448 8.61228587 -19 10 C-20.01669583 13.0500875 -19.90513699 14.28599579 -19.5625 17.375 C-19.51171875 19.76953125 -19.51171875 19.76953125 -20 22 C-22.71814157 24.70570157 -26.07411279 27 -30 27 C-32.25298494 20.77115927 -32.570041 15.40508646 -30.31640625 9.08203125 C-27.8294978 4.07505557 -23.78349903 0.78414592 -19 -2 C-12.04377191 -4.20369058 -6.49211527 -2.73352222 0 0 Z " fill="#EDCBDB" transform="translate(260,93)"/>
<path d="M0 0 C7.40774509 1.39304941 14.70170537 3.11899623 22 5 C21.46397588 9.77418812 20.11267482 13.11629731 17.6875 17.25 C17.09324219 18.28640625 16.49898438 19.3228125 15.88671875 20.390625 C14.02481684 22.96567774 12.93866531 23.93611234 10 25 C9.33613281 24.32453125 8.67226563 23.6490625 7.98828125 22.953125 C7.10527344 22.06109375 6.22226562 21.1690625 5.3125 20.25 C4.44238281 19.36828125 3.57226562 18.4865625 2.67578125 17.578125 C0.21997532 15.21194702 -2.30141048 13.08107444 -5 11 C-3.55049545 7.2089881 -1.84827434 3.6125362 0 0 Z " fill="#58ACF5" transform="translate(349,79)"/>
<path d="M0 0 C6.42791059 3.85674635 9.43335562 8.36823348 12.375 15.1875 C13.04651941 18.20933734 13.14695577 20.91392893 13 24 C7.63904667 25.12862175 2.44693314 25.09688221 -3 25 C-3.18175781 24.39671875 -3.36351562 23.7934375 -3.55078125 23.171875 C-3.80214844 22.37265625 -4.05351562 21.5734375 -4.3125 20.75 C-4.67794922 19.56664062 -4.67794922 19.56664062 -5.05078125 18.359375 C-6.05672035 15.56597699 -6.05672035 15.56597699 -9 12 C-6.03 8.04 -3.06 4.08 0 0 Z " fill="#EA4646" transform="translate(227,24)"/>
<path d="M0 0 C2.89987498 0.00602259 5.7891132 0.05349007 8.6875 0.125 C9.91243164 0.12113281 9.91243164 0.12113281 11.16210938 0.1171875 C17.14635018 0.31100906 17.14635018 0.31100906 19.6340332 2.31884766 C20.96875 3.921875 20.96875 3.921875 23 7 C26.3927871 10.9777504 30.32039853 12.86464787 35 15 C35 15.33 35 15.66 35 16 C31.7 16 28.4 16 25 16 C25.66 16.66 26.32 17.32 27 18 C21.26366982 18.40973787 18.01321373 17.81621087 13.0234375 15.015625 C10.89502634 13.94731052 8.9441491 13.39408753 6.625 12.875 C3 12 3 12 1 10 C0.5859375 7.6171875 0.5859375 7.6171875 0.375 4.875 C0.30023438 3.96492188 0.22546875 3.05484375 0.1484375 2.1171875 C0.09945312 1.41851562 0.05046875 0.71984375 0 0 Z " fill="#EDE6E8" transform="translate(47,308)"/>
<path d="M0 0 C9.32071719 4.04483954 13.28601353 15.20804087 17 24 C14.75390625 23.9609375 14.75390625 23.9609375 12 23 C10.41431429 20.52550348 9.16260545 18.26671034 7.9375 15.625 C5.16611596 9.29249272 5.16611596 9.29249272 0 5 C-4.52879543 4.09283445 -9.05002546 4.04532497 -13.25 6.1015625 C-15.32348743 7.61618027 -17.15553145 9.21402411 -19 11 C-19.96099609 11.91652344 -19.96099609 11.91652344 -20.94140625 12.8515625 C-23.19337 15.06121378 -25.37319987 17.3316264 -27.53125 19.6328125 C-29.4693162 21.43686348 -31.52417999 22.13011729 -34 23 C-27.78346451 9.1746841 -15.3524066 -1.4807995 0 0 Z " fill="#64AEF4" transform="translate(230,233)"/>
<path d="M0 0 C1.32 0 2.64 0 4 0 C-0.6393442 13.14076027 -13.25883445 28.64235895 -25.5 35.375 C-31.59539387 36.89884847 -35.7841364 35.9966808 -41.203125 33.16796875 C-43.09168979 31.94040163 -44.54088669 30.71580917 -46 29 C-46 28.34 -46 27.68 -46 27 C-42.85993993 27.47576668 -40.48103847 28.2358916 -37.5625 29.5625 C-33.32875701 31.27085244 -30.53298749 32.03846992 -26.19921875 30.26171875 C-16.03524711 24.66033157 -9.24679645 14.48972541 -3.39892578 4.77587891 C-2.2265625 2.89453125 -2.2265625 2.89453125 0 0 Z " fill="#65AEF4" transform="translate(292,233)"/>
<path d="M0 0 C0.33 0 0.66 0 1 0 C1 2.97 1 5.94 1 9 C1.83402344 9.01417969 2.66804688 9.02835937 3.52734375 9.04296875 C11.25521187 9.37049581 16.63504859 10.54288932 23 15 C23 15.66 23 16.32 23 17 C26.63 17 30.26 17 34 17 C34 17.66 34 18.32 34 19 C25.39915665 22.82259704 16.05605864 21.38560218 7.27734375 18.94921875 C4.87711554 17.94878057 3.59776556 17.03780592 2 15 C2 14.34 2 13.68 2 13 C-0.475 12.01 -0.475 12.01 -3 11 C-2.53199289 6.94393835 -2.12046792 3.53411321 0 0 Z " fill="#F5F5F6" transform="translate(116,314)"/>
<path d="M0 0 C1.65 0.33 3.3 0.66 5 1 C5 2.32 5 3.64 5 5 C6.32 5 7.64 5 9 5 C10.49821059 8.37097383 11 10.20442119 11 14 C11.66 14 12.32 14 13 14 C12.61502006 16.23288365 12.10506663 17.83656302 10.875 19.75 C7.84516263 21.76989158 5.55092138 21.42129576 2 21 C-1.4375 19 -1.4375 19 -4 17 C-3.91227545 15.10333474 -3.80408699 13.20761007 -3.6875 11.3125 C-3.62949219 10.25675781 -3.57148438 9.20101562 -3.51171875 8.11328125 C-2.96217936 4.76990036 -1.91325982 2.76473738 0 0 Z " fill="#EAAEA3" transform="translate(135,145)"/>
<path d="M0 0 C2.67673362 1.1662296 4.541884 1.25899293 7.4296875 1.05859375 C6.7696875 0.39859375 6.1096875 -0.26140625 5.4296875 -0.94140625 C7.40878148 -0.96827178 9.38797721 -0.98774 11.3671875 -1.00390625 C12.46933594 -1.01550781 13.57148438 -1.02710938 14.70703125 -1.0390625 C17.4296875 -0.94140625 17.4296875 -0.94140625 18.4296875 0.05859375 C18.8671875 2.30859375 18.8671875 2.30859375 18.4296875 5.05859375 C15.21662033 8.47944602 13.0229049 10.32816273 8.28515625 10.6875 C6.72903827 10.69700683 5.17245655 10.67335969 3.6171875 10.62109375 C2.79492676 10.60812256 1.97266602 10.59515137 1.12548828 10.58178711 C-19.7482366 9.88066965 -19.7482366 9.88066965 -24.5703125 5.05859375 C-24.61124187 2.72561942 -24.61272973 0.3915415 -24.5703125 -1.94140625 C-21.13434377 -0.42318751 -18.79581119 0.80871683 -16.2578125 3.62109375 C-10.49676603 8.84622892 -2.75330934 8.31865628 4.67578125 8.1953125 C7.65438051 8.04743878 10.51676905 7.70590896 13.4296875 7.05859375 C13.4296875 6.39859375 13.4296875 5.73859375 13.4296875 5.05859375 C9.7996875 5.05859375 6.1696875 5.05859375 2.4296875 5.05859375 C2.4296875 4.39859375 2.4296875 3.73859375 2.4296875 3.05859375 C1.5015625 2.76984375 0.5734375 2.48109375 -0.3828125 2.18359375 C-3.5703125 1.05859375 -3.5703125 1.05859375 -6.5703125 -0.94140625 C-9.43942457 -1.31161426 -12.28364335 -1.44604304 -15.171875 -1.59765625 C-15.96335937 -1.71109375 -16.75484375 -1.82453125 -17.5703125 -1.94140625 C-17.9003125 -2.60140625 -18.2303125 -3.26140625 -18.5703125 -3.94140625 C-11.70823665 -6.41175356 -5.91238354 -3.33397986 0 0 Z " fill="#363055" transform="translate(136.5703125,325.94140625)"/>
<path d="M0 0 C1.38232443 1.62626404 2.71937515 3.2925002 4 5 C2.6744419 8.62276315 1.05653045 11.63505348 -1.125 14.8125 C-1.93324219 15.99779297 -1.93324219 15.99779297 -2.7578125 17.20703125 C-3.16773438 17.79871094 -3.57765625 18.39039062 -4 19 C-9.12779375 16.01872456 -11.75269769 12.96646236 -15 8 C-11.0826156 4.57228865 -5.47848189 0 0 0 Z " fill="#59ADF5" transform="translate(194,58)"/>
<path d="M0 0 C0.66 0.33 1.32 0.66 2 1 C1.56574707 1.59353271 1.13149414 2.18706543 0.68408203 2.79858398 C-3.75958602 8.99068905 -7.55317281 15.33602753 -11.125 22.0625 C-12.12730403 23.92854666 -13.12990491 25.79443391 -14.1328125 27.66015625 C-14.60879883 28.54977051 -15.08478516 29.43938477 -15.57519531 30.35595703 C-17.67832894 34.25879069 -19.83377397 38.13190955 -22 42 C-22.99 42 -23.98 42 -25 42 C-24.49081826 36.2323596 -22.15240791 31.93167014 -19.4375 26.9375 C-18.98858398 26.10275146 -18.53966797 25.26800293 -18.07714844 24.40795898 C-16.7332429 21.9299248 -15.37165036 19.46277052 -14 17 C-13.6179541 16.31196289 -13.2359082 15.62392578 -12.84228516 14.91503906 C-9.20482312 8.44807196 -6.47982245 3.87141934 0 0 Z " fill="#66AEF4" transform="translate(196,259)"/>
<path d="M0 0 C2.875 1.625 2.875 1.625 5 4 C5.8125 7.25 5.8125 7.25 6 10 C-0.625 12 -0.625 12 -4 12 C-4.33 11.01 -4.66 10.02 -5 9 C-7.97 9.66 -10.94 10.32 -14 11 C-14.8125 8.8125 -14.8125 8.8125 -15 6 C-10.55691594 0.56956393 -6.92240875 -0.59675938 0 0 Z " fill="#E6AB9F" transform="translate(104,66)"/>
<path d="M0 0 C2.70817997 1.22512904 5.0460412 1.18289588 7.96875 0.890625 C7.63875 0.230625 7.30875 -0.429375 6.96875 -1.109375 C9.09313339 -1.19016141 11.2183823 -1.24846641 13.34375 -1.296875 C14.52710937 -1.33167969 15.71046875 -1.36648438 16.9296875 -1.40234375 C18.43402344 -1.25732422 18.43402344 -1.25732422 19.96875 -1.109375 C21.96875 1.890625 21.96875 1.890625 21.96875 3.828125 C20.41842311 7.02567421 18.0012006 8.16629034 14.96875 9.890625 C12.20591712 10.75427072 9.74600873 11.01014969 6.859375 10.98828125 C6.10527344 10.98505859 5.35117188 10.98183594 4.57421875 10.97851562 C3.79691406 10.97013672 3.01960938 10.96175781 2.21875 10.953125 C1.42597656 10.94861328 0.63320312 10.94410156 -0.18359375 10.93945312 C-2.13284508 10.92771065 -4.08205738 10.90977646 -6.03125 10.890625 C-6.03125 10.560625 -6.03125 10.230625 -6.03125 9.890625 C-4.51144531 9.81714844 -4.51144531 9.81714844 -2.9609375 9.7421875 C-1.60935089 9.66709936 -0.25778962 9.59155419 1.09375 9.515625 C1.75890625 9.4846875 2.4240625 9.45375 3.109375 9.421875 C7.35891506 9.17190206 11.03931679 8.55078067 14.96875 6.890625 C15.29875 6.230625 15.62875 5.570625 15.96875 4.890625 C14.95167969 4.97763672 14.95167969 4.97763672 13.9140625 5.06640625 C7.1823374 5.39273641 3.33696952 4.3130011 -2.4609375 1.00390625 C-6.87621446 -0.90848575 -11.31617405 -0.51275602 -16.03125 -0.109375 C-16.36125 -0.769375 -16.69125 -1.429375 -17.03125 -2.109375 C-10.16441633 -3.72510057 -6.10781713 -3.33580782 0 0 Z " fill="#2C244E" transform="translate(64.03125,324.109375)"/>
<path d="M0 0 C6.83728664 0.71711144 11.71481346 1.75759265 16.85546875 6.46484375 C18 8 18 8 18 11 C17.278125 10.67 16.55625 10.34 15.8125 10 C12.94141078 8.97916828 11.01521279 8.67403105 8 9 C7.34 9.66 6.68 10.32 6 11 C3.8359375 11.1953125 3.8359375 11.1953125 1.375 11.125 C0.55773438 11.10695312 -0.25953125 11.08890625 -1.1015625 11.0703125 C-1.72804687 11.04710937 -2.35453125 11.02390625 -3 11 C-2.69078116 9.54096742 -2.37751201 8.08279278 -2.0625 6.625 C-1.88847656 5.81289062 -1.71445312 5.00078125 -1.53515625 4.1640625 C-1 2 -1 2 0 0 Z " fill="#237978" transform="translate(48,125)"/>
<path d="M0 0 C2.89987498 0.00602259 5.7891132 0.05349007 8.6875 0.125 C9.91243164 0.12113281 9.91243164 0.12113281 11.16210938 0.1171875 C17.12345372 0.31026748 17.12345372 0.31026748 19.59228516 2.25292969 C20.89453125 3.8046875 20.89453125 3.8046875 23 7 C23.8971875 8.175625 23.8971875 8.175625 24.8125 9.375 C25.204375 9.91125 25.59625 10.4475 26 11 C14.11024527 11.56221257 14.11024527 11.56221257 10 8 C9.67 7.34 9.34 6.68 9 6 C7.35 6 5.7 6 4 6 C3.896875 5.38125 3.79375 4.7625 3.6875 4.125 C3.12474627 1.63473516 3.12474627 1.63473516 0 0 Z " fill="#E06CAE" transform="translate(47,308)"/>
<path d="M0 0 C5.36452173 3.81477101 7.13499245 6.67969662 9 13 C9 13.66 9 14.32 9 15 C5.37 15 1.74 15 -2 15 C-3.625 12.25 -3.625 12.25 -5 9 C-4.375 6.9375 -4.375 6.9375 -3 5 C-2.195625 3.63875 -2.195625 3.63875 -1.375 2.25 C-0.92125 1.5075 -0.4675 0.765 0 0 Z " fill="#2350B3" transform="translate(260,94)"/>
<path d="M0 0 C6.93 0 13.86 0 21 0 C22.33333333 2.66666667 23.66666667 5.33333333 25 8 C21.7 8 18.4 8 15 8 C14.67 7.01 14.34 6.02 14 5 C12.67696283 4.6278958 11.34262065 4.29369827 10 4 C9.67 3.34 9.34 2.68 9 2 C6.69 2 4.38 2 2 2 C2.57452746 5.93075644 2.57452746 5.93075644 5 9 C3.02 9.66 1.04 10.32 -1 11 C-1.0270043 9.54176788 -1.04639787 8.08339325 -1.0625 6.625 C-1.07410156 5.81289063 -1.08570312 5.00078125 -1.09765625 4.1640625 C-1 2 -1 2 0 0 Z " fill="#C7679E" transform="translate(118,312)"/>
<path d="M0 0 C1.9375 0.375 1.9375 0.375 4 1 C4.33 1.66 4.66 2.32 5 3 C4.67 3.66 4.34 4.32 4 5 C5.65 4.67 7.3 4.34 9 4 C9.33 4.99 9.66 5.98 10 7 C10.99 7.33 11.98 7.66 13 8 C12.67 9.32 12.34 10.64 12 12 C8.59235886 12.19659468 5.82789108 12.32679911 2.625 11.0625 C0.03972967 7.78119536 0.17081544 4.07394831 0 0 Z " fill="#F3E4DF" transform="translate(47,309)"/>
<path d="M0 0 C0.928125 0.37125 1.85625 0.7425 2.8125 1.125 C3.534375 1.41375 4.25625 1.7025 5 2 C4.67 3.98 4.34 5.96 4 8 C3.01 8.33 2.02 8.66 1 9 C-1.69921875 7.63671875 -1.69921875 7.63671875 -4.6875 5.6875 C-5.68136719 5.05199219 -6.67523438 4.41648437 -7.69921875 3.76171875 C-8.45847656 3.18035156 -9.21773438 2.59898438 -10 2 C-10 1.34 -10 0.68 -10 0 C-5.85231218 -2.13309659 -4.13750828 -2.06875414 0 0 Z " fill="#217877" transform="translate(86,99)"/>
<path d="M0 0 C1.4375 2.0625 1.4375 2.0625 2 4 C-2.92984325 6.03993514 -6.57960425 7.40652968 -12 7 C-12.33 4.69 -12.66 2.38 -13 0 C-8.38819892 -1.01234658 -4.60497127 -1.15124282 0 0 Z " fill="#207A79" transform="translate(114,101)"/>
<path d="M0 0 C6.6 0 13.2 0 20 0 C19.67 1.98 19.34 3.96 19 6 C14.28347435 6.22937511 10.6025727 5.46206455 6.125 4 C4.39636719 3.443125 4.39636719 3.443125 2.6328125 2.875 C1.76398438 2.58625 0.89515625 2.2975 0 2 C0 1.34 0 0.68 0 0 Z " fill="#1F50B2" transform="translate(83,152)"/>
<path d="M0 0 C2.625 0.3125 2.625 0.3125 4.5 2.0625 C5.625 4.3125 5.625 4.3125 5.3125 6.5625 C4.9721875 7.42875 4.9721875 7.42875 4.625 8.3125 C2.315 8.3125 0.005 8.3125 -2.375 8.3125 C-3.035 6.9925 -3.695 5.6725 -4.375 4.3125 C-6.355 5.3025 -6.355 5.3025 -8.375 6.3125 C-8.375 5.6525 -8.375 4.9925 -8.375 4.3125 C-9.365 3.9825 -10.355 3.6525 -11.375 3.3125 C-10.055 3.3125 -8.735 3.3125 -7.375 3.3125 C-7.045 2.6525 -6.715 1.9925 -6.375 1.3125 C-5.385 1.3125 -4.395 1.3125 -3.375 1.3125 C-2.375 0.3125 -2.375 0.3125 0 0 Z " fill="#523C38" transform="translate(106.375,75.6875)"/>
<path d="M0 0 C1.134375 0.020625 2.26875 0.04125 3.4375 0.0625 C3.7675 1.0525 4.0975 2.0425 4.4375 3.0625 C5.0975 3.0625 5.7575 3.0625 6.4375 3.0625 C6.4375 4.7125 6.4375 6.3625 6.4375 8.0625 C3.4375 9.0625 3.4375 9.0625 -0.1875 7.9375 C-3.5625 6.0625 -3.5625 6.0625 -4.5625 3.4375 C-4.5625 -0.41780234 -3.97938473 0.06981377 0 0 Z " fill="#F2DBD5" transform="translate(123.5625,312.9375)"/>
<path d="M0 0 C1.32 1.32 2.64 2.64 4 4 C2.02 6.64 0.04 9.28 -2 12 C-6.875 8.375 -6.875 8.375 -8 5 C-4.04 2.525 -4.04 2.525 0 0 Z " fill="#EA4444" transform="translate(239,115)"/>
<path d="M0 0 C4.69834359 2.27525804 8.43293169 3.26860934 13.625 3.5625 C13.625 2.9025 13.625 2.2425 13.625 1.5625 C14.615 1.8925 15.605 2.2225 16.625 2.5625 C16.625 3.2225 16.625 3.8825 16.625 4.5625 C13.1059335 6.32203325 9.46634735 6.11462026 5.625 5.5625 C3.1953125 4.4453125 3.1953125 4.4453125 0.75 3.0625 C-4.65627337 0.04484741 -9.3070837 0.04338168 -15.375 0.5625 C-15.705 -0.0975 -16.035 -0.7575 -16.375 -1.4375 C-10.19233201 -2.89224541 -5.70239756 -2.95153422 0 0 Z " fill="#06062D" transform="translate(63.375,323.4375)"/>
<path d="M0 0 C7.71243399 -0.90734518 7.71243399 -0.90734518 10.74609375 1.23046875 C12.125 2.8125 12.125 2.8125 14 6 C13.67 6.99 13.34 7.98 13 9 C9.6108429 8.39479338 7.69569871 7.08699255 5 5 C4.01 4.67 3.02 4.34 2 4 C2 3.34 2 2.68 2 2 C1.34 2 0.68 2 0 2 C0 1.34 0 0.68 0 0 Z " fill="#E1D4ED" transform="translate(56,309)"/>
<path d="M0 0 C1.32 0.33 2.64 0.66 4 1 C4 5.62 4 10.24 4 15 C3.34 14.34 2.68 13.68 2 13 C-0.60280568 13.32041397 -0.60280568 13.32041397 -3 14 C-3.32374517 8.49633208 -3.53286034 4.56327794 0 0 Z " fill="#CC9A99" transform="translate(135,145)"/>
<path d="M0 0 C5.26290722 2.801486 10.37409851 3.81404867 16.25 4.5625 C16.25 4.8925 16.25 5.2225 16.25 5.5625 C9.05183498 6.16795313 4.66471912 5.64971016 -1.40625 1.734375 C-5.02243147 -0.07371574 -8.57207209 -0.09391579 -12.5625 -0.19921875 C-13.284375 -0.27785156 -14.00625 -0.35648437 -14.75 -0.4375 C-15.08 -1.0975 -15.41 -1.7575 -15.75 -2.4375 C-10.03470679 -4.49500556 -5.11054349 -2.74995912 0 0 Z " fill="#0D1035" transform="translate(133.75,324.4375)"/>
<path d="M0 0 C4.54951717 1.2696327 7.40691022 2.97424018 11 6 C12.31138904 6.70885894 13.63777017 7.39456452 15 8 C9.5814234 8.22577402 5.22512279 7.46670113 0 6 C0 4.02 0 2.04 0 0 Z " fill="#100439" transform="translate(42,326)"/>
<path d="M0 0 C4.58838854 2.02742749 7.60360614 4.32057332 11 8 C11.66 8.66 12.32 9.32 13 10 C11.02006459 9.69240822 9.04106401 9.3787932 7.0625 9.0625 C5.40927734 8.80146484 5.40927734 8.80146484 3.72265625 8.53515625 C1 8 1 8 0 7 C-0.04092937 4.66702567 -0.04241723 2.33294775 0 0 Z " fill="#201943" transform="translate(112,324)"/>
<path d="M0 0 C4.33269429 0.40619009 7.94344769 2.28279059 11.83984375 4.078125 C14.20037363 5.08551207 16.4544547 5.67154254 19 6 C19 6.33 19 6.66 19 7 C11.70254714 7.3964411 5.83176457 7.33734334 0.0625 2.3125 C-0.4634375 1.6628125 -0.4634375 1.6628125 -1 1 C-0.67 0.67 -0.34 0.34 0 0 Z " fill="#589EDE" transform="translate(55,323)"/>
<path d="M0 0 C5.70709064 0.46588495 9.15939723 1.93757784 14 5 C14 5.66 14 6.32 14 7 C7.50966018 6.66429277 4.61192971 5.61192971 0 1 C0 0.67 0 0.34 0 0 Z " fill="#5AA8ED" transform="translate(125,324)"/>
<path d="M0 0 C2.97 0 5.94 0 9 0 C9.33 2.31 9.66 4.62 10 7 C5.61308455 6.49381745 3.15608721 3.86917019 0 1 C0 0.67 0 0.34 0 0 Z " fill="#EDDDEC" transform="translate(130,312)"/>
<path d="M0 0 C0.99 0.33 1.98 0.66 3 1 C2.67 2.32 2.34 3.64 2 5 C-4.4 5.49230769 -4.4 5.49230769 -7.4375 3 C-7.953125 2.34 -8.46875 1.68 -9 1 C-6.03 1.33 -3.06 1.66 0 2 C0 1.34 0 0.68 0 0 Z " fill="#F5C629" transform="translate(57,316)"/>
<path d="M0 0 C0.66 0 1.32 0 2 0 C1.36934845 5.7809725 0.34844868 11.3443706 -1 17 C-1.66 17 -2.32 17 -3 17 C-2.48517081 11.147205 -1.54642808 5.6702363 0 0 Z " fill="#143681" transform="translate(99,192)"/>
<path d="M0 0 C-0.66 0.66 -1.32 1.32 -2 2 C-2.99 1.34 -3.98 0.68 -5 0 C-7.74518321 -0.24187651 -7.74518321 -0.24187651 -10.6875 -0.125 C-11.68136719 -0.10695313 -12.67523438 -0.08890625 -13.69921875 -0.0703125 C-14.45847656 -0.04710937 -15.21773437 -0.02390625 -16 0 C-16.33 -0.66 -16.66 -1.32 -17 -2 C-10.34390765 -3.56613938 -6.02729015 -3.4441658 0 0 Z " fill="#121333" transform="translate(64,324)"/>
<path d="M0 0 C0.66 0 1.32 0 2 0 C2 1.32 2 2.64 2 4 C2.66 4 3.32 4 4 4 C4.33 6.64 4.66 9.28 5 12 C4.34 12 3.68 12 3 12 C2.67 11.01 2.34 10.02 2 9 C1.01 9.495 1.01 9.495 0 10 C0 6.7 0 3.4 0 0 Z " fill="#D8A5A9" transform="translate(138,146)"/>
<path d="M0 0 C4.455 0.99 4.455 0.99 9 2 C9 1.34 9 0.68 9 0 C9.66 0 10.32 0 11 0 C10.67 1.65 10.34 3.3 10 5 C2.25 3.375 2.25 3.375 0 0 Z " fill="#EFC015" transform="translate(119,317)"/>
<path d="M0 0 C1.4540625 0.0309375 1.4540625 0.0309375 2.9375 0.0625 C2.9375 1.3825 2.9375 2.7025 2.9375 4.0625 C1.2875 4.3925 -0.3625 4.7225 -2.0625 5.0625 C-2.7225 3.7425 -3.3825 2.4225 -4.0625 1.0625 C-3.0625 0.0625 -3.0625 0.0625 0 0 Z " fill="#D69F93" transform="translate(107.0625,77.9375)"/>
<path d="M0 0 C1.98 0 3.96 0 6 0 C5.67 1.98 5.34 3.96 5 6 C3.35 5.67 1.7 5.34 0 5 C0 3.35 0 1.7 0 0 Z " fill="#C18E84" transform="translate(93,77)"/>
<path d="M0 0 C2.97 0.33 5.94 0.66 9 1 C9.33 1.99 9.66 2.98 10 4 C8.02 4.66 6.04 5.32 4 6 C3.896875 5.38125 3.79375 4.7625 3.6875 4.125 C3.12474627 1.63473516 3.12474627 1.63473516 0 0 Z " fill="#A66D9A" transform="translate(47,308)"/>
<path d="M0 0 C2.25 -0.25 2.25 -0.25 5 0 C7.3125 1.875 7.3125 1.875 9 4 C9 4.66 9 5.32 9 6 C4.75177626 5.52797514 2.80010291 3.03344482 0 0 Z " fill="#F1E4EC" transform="translate(60,312)"/>
<path d="M0 0 C0.99 0 1.98 0 3 0 C3 3.3 3 6.6 3 10 C0 7 0 7 -0.1875 3.3125 C-0.125625 2.219375 -0.06375 1.12625 0 0 Z " fill="#E5ABA0" transform="translate(83,75)"/>
<path d="M0 0 C0.61875 0.78375 1.2375 1.5675 1.875 2.375 C3.89858661 4.96837647 3.89858661 4.96837647 6 7 C4.02 7.66 2.04 8.32 0 9 C0 6.03 0 3.06 0 0 Z " fill="#C7C2C1" transform="translate(117,314)"/>
<path d="M0 0 C0.7425 0.45375 1.485 0.9075 2.25 1.375 C4.46930578 2.68640796 6.67967822 3.88280803 9 5 C4.17639811 5.19294408 0.50353262 4.75747614 -4 3 C-2.68 2.67 -1.36 2.34 0 2 C0 1.34 0 0.68 0 0 Z " fill="#363655" transform="translate(48,329)"/>
<path d="M0 0 C0.33 0.99 0.66 1.98 1 3 C3.50447516 4.21869929 3.50447516 4.21869929 6 5 C6 5.66 6 6.32 6 7 C4.02 7.33 2.04 7.66 0 8 C0 5.36 0 2.72 0 0 Z " fill="#D8D3D1" transform="translate(46,315)"/>
<path d="M0 0 C2.97 0.33 5.94 0.66 9 1 C8.01 1.33 7.02 1.66 6 2 C6 2.66 6 3.32 6 4 C3.36 4 0.72 4 -2 4 C-1.01 3.34 -0.02 2.68 1 2 C0.67 1.34 0.34 0.68 0 0 Z " fill="#726E7B" transform="translate(71,323)"/>
<path d="M0 0 C1.9375 0.375 1.9375 0.375 4 1 C4.33 1.66 4.66 2.32 5 3 C4.01 3.99 3.02 4.98 2 6 C1.34 5.67 0.68 5.34 0 5 C0 3.35 0 1.7 0 0 Z " fill="#D6D0DE" transform="translate(47,309)"/>
<path d="M0 0 C1.32 0 2.64 0 4 0 C4 0.66 4 1.32 4 2 C4.66 2 5.32 2 6 2 C6 2.66 6 3.32 6 4 C6.66 4.33 7.32 4.66 8 5 C3.48279689 5.36625971 3.48279689 5.36625971 1.1875 3.625 C0 2 0 2 0 0 Z " fill="#CA5E9E" transform="translate(54,311)"/>
<path d="M0 0 C0.99 0.33 1.98 0.66 3 1 C1 4 1 4 -1.625 4.6875 C-2.800625 4.8421875 -2.800625 4.8421875 -4 5 C-2.25 1.125 -2.25 1.125 0 0 Z " fill="#E93631" transform="translate(199,254)"/>
<path d="M0 0 C-0.1875 1.875 -0.1875 1.875 -1 4 C-3.5625 5.25 -3.5625 5.25 -6 6 C-4.90218919 2.70656758 -3.7827394 0 0 0 Z " fill="#797979" transform="translate(86,88)"/>
</svg>
