<?xml version="1.0" encoding="UTF-8"?>
<svg version="1.1" xmlns="http://www.w3.org/2000/svg" width="400" height="323">
<path d="M0 0 C1.82565354 -0.00874829 1.82565354 -0.00874829 3.68818897 -0.01767331 C5.04070265 -0.01404003 6.39321583 -0.01021565 7.74572849 -0.00622082 C9.1810498 -0.00924051 10.6163695 -0.01312908 12.05168635 -0.01781338 C16.00077119 -0.02812557 19.94976558 -0.02590341 23.89885795 -0.02163279 C28.15592014 -0.0191714 32.41296022 -0.02817239 36.67001438 -0.03567028 C45.01181734 -0.04843556 53.35358814 -0.05020871 61.69539922 -0.04787002 C68.4739648 -0.04608879 75.2525206 -0.0478323 82.03108501 -0.05209446 C82.99492515 -0.05268965 83.95876529 -0.05328484 84.9518127 -0.05389806 C86.90969391 -0.05510978 88.86757512 -0.05632392 90.82545633 -0.05754044 C109.19650357 -0.06842296 127.56753248 -0.06625008 145.93858076 -0.06015559 C162.75440707 -0.05498544 179.57017546 -0.0662432 196.38599031 -0.08525381 C213.64256595 -0.10461353 230.89911417 -0.11289152 248.15570074 -0.10913056 C257.84793984 -0.10721572 267.54012963 -0.10973355 277.23235989 -0.1238451 C285.48312063 -0.1357361 293.73380173 -0.13718948 301.98456352 -0.12505493 C306.19579166 -0.11915024 310.40687396 -0.11811052 314.61809254 -0.13005733 C318.47148567 -0.14086219 322.32461022 -0.13787764 326.1779905 -0.12379565 C327.57364365 -0.12113376 328.96931748 -0.12356178 330.36495041 -0.13153151 C332.25928372 -0.14160011 334.15369241 -0.13144697 336.04801941 -0.12025452 C337.62763117 -0.12033704 337.62763117 -0.12033704 339.23915428 -0.12042123 C343.75419175 0.47396302 347.18996726 2.77811997 350.08693027 6.25447559 C351.37635704 10.12275589 351.2349952 13.781375 351.2341013 17.81302357 C351.23777798 18.69748431 351.24145467 19.58194505 351.24524277 20.49320763 C351.25629102 23.46873051 351.26012537 26.44421847 351.26393223 29.4197588 C351.27019594 31.54837118 351.27684265 33.67698246 351.28384495 35.80559254 C351.30126134 41.59695156 351.31180812 47.38830233 351.32005048 53.17968106 C351.32519851 56.79611273 351.33127428 60.41254182 351.33756161 64.02897167 C351.35661412 75.33880347 351.37084602 86.64862874 351.37917358 97.9584735 C351.38895196 111.02368699 351.41528702 124.08873132 351.45567447 137.15388519 C351.48580525 147.2465264 351.5006395 157.33911903 351.50395459 167.43180436 C351.50630822 173.46270445 351.51530971 179.49342384 351.54041576 185.52427578 C351.56364873 191.19680436 351.56794886 196.86903264 351.55765438 202.54159641 C351.55715777 204.62412545 351.56351479 206.70666904 351.57721043 208.7891531 C351.59485803 211.63145629 351.58785825 214.47267342 351.57467747 217.31497669 C351.59113134 218.55219525 351.59113134 218.55219525 351.60791761 219.81440812 C351.54897027 225.07647752 350.59511963 228.09349411 347.08693027 232.25447559 C340.98182757 236.04812999 334.84299786 235.66130681 327.81764317 235.59505177 C325.98731541 235.59570889 325.98731541 235.59570889 324.12001133 235.59637928 C320.7917977 235.59465351 317.46414975 235.57966038 314.13603616 235.55865741 C310.65137716 235.53983985 307.16670976 235.53813618 303.68200779 235.53458118 C297.09125734 235.52527556 290.50065708 235.50068205 283.90997261 235.47053272 C276.4033238 235.43694234 268.89666763 235.42049107 261.38996232 235.40544641 C245.95551665 235.374131 230.52127773 235.3191377 215.08693027 235.25447559 C215.41693027 244.16447559 215.74693027 253.07447559 216.08693027 262.25447559 C218.06693027 263.24447559 220.04693027 264.23447559 222.08693027 265.25447559 C227.26023228 270.8588861 228.08693027 273.41475293 228.08693027 281.25447559 C189.47693027 281.25447559 150.86693027 281.25447559 111.08693027 281.25447559 C111.08693027 271.2954592 111.08693027 271.2954592 115.51661777 266.80525684 C117.96796027 264.6771013 119.99326796 263.28569636 123.08693027 262.25447559 C123.41693027 253.34447559 123.74693027 244.43447559 124.08693027 235.25447559 C118.32566685 235.27804127 118.32566685 235.27804127 112.44801426 235.30208302 C99.75944361 235.35178704 87.07087446 235.38508074 74.38223267 235.40991211 C66.68894005 235.42536848 58.99573978 235.44643439 51.30250645 235.48079395 C44.59559299 235.51073408 37.88874643 235.53005954 31.181768 235.53674108 C27.63180066 235.54064555 24.08202469 235.54979572 20.5321188 235.57166576 C16.5652459 235.59590547 12.59855872 235.59644262 8.63160801 235.59505177 C7.45988041 235.60583759 6.28815281 235.61662342 5.08091831 235.62773609 C-1.66768486 235.6021238 -7.39890771 235.55334757 -12.57030582 230.69876766 C-14.57012023 227.05841772 -14.32955281 223.46595652 -14.30074978 219.41708851 C-14.30613532 218.51473357 -14.31152085 217.61237862 -14.31706959 216.68267959 C-14.33140173 213.65251866 -14.32423246 210.62279134 -14.31712246 207.59261036 C-14.32282327 205.42281714 -14.3297864 203.25302692 -14.33792019 201.08324146 C-14.35589855 195.18452733 -14.35467441 189.28596158 -14.3489778 183.38722825 C-14.34589272 178.46653794 -14.35197081 173.54587642 -14.35801655 168.6251902 C-14.37207552 157.01876565 -14.37048905 145.41241469 -14.35911465 133.80598927 C-14.34763155 121.82371527 -14.36170921 109.84175659 -14.38851112 97.85950524 C-14.41064706 87.5791607 -14.41731026 77.29888651 -14.41143471 67.01851982 C-14.40805896 60.87534666 -14.41052129 54.73231696 -14.42768574 48.58916378 C-14.44311917 42.8131805 -14.4392392 37.03752947 -14.42038059 31.26155949 C-14.41668475 29.13991899 -14.41983199 27.01825407 -14.43026638 24.89663601 C-14.44340973 22.0036531 -14.43198773 19.11178088 -14.41427517 16.21884632 C-14.42388018 15.37623943 -14.43348518 14.53363255 -14.44338125 13.66549212 C-14.3941321 9.76482356 -14.19723096 7.72271731 -12.13174438 4.31920242 C-8.20457822 0.66453169 -5.33436709 0.00439135 0 0 Z " fill="#204FB3" transform="translate(31.91306972503662,20.745524406433105)"/>
<path d="M0 0 C1.82565354 -0.00874829 1.82565354 -0.00874829 3.68818897 -0.01767331 C5.04070265 -0.01404003 6.39321583 -0.01021565 7.74572849 -0.00622082 C9.1810498 -0.00924051 10.6163695 -0.01312908 12.05168635 -0.01781338 C16.00077119 -0.02812557 19.94976558 -0.02590341 23.89885795 -0.02163279 C28.15592014 -0.0191714 32.41296022 -0.02817239 36.67001438 -0.03567028 C45.01181734 -0.04843556 53.35358814 -0.05020871 61.69539922 -0.04787002 C68.4739648 -0.04608879 75.2525206 -0.0478323 82.03108501 -0.05209446 C82.99492515 -0.05268965 83.95876529 -0.05328484 84.9518127 -0.05389806 C86.90969391 -0.05510978 88.86757512 -0.05632392 90.82545633 -0.05754044 C109.19650357 -0.06842296 127.56753248 -0.06625008 145.93858076 -0.06015559 C162.75440707 -0.05498544 179.57017546 -0.0662432 196.38599031 -0.08525381 C213.64256595 -0.10461353 230.89911417 -0.11289152 248.15570074 -0.10913056 C257.84793984 -0.10721572 267.54012963 -0.10973355 277.23235989 -0.1238451 C285.48312063 -0.1357361 293.73380173 -0.13718948 301.98456352 -0.12505493 C306.19579166 -0.11915024 310.40687396 -0.11811052 314.61809254 -0.13005733 C318.47148567 -0.14086219 322.32461022 -0.13787764 326.1779905 -0.12379565 C327.57364365 -0.12113376 328.96931748 -0.12356178 330.36495041 -0.13153151 C332.25928372 -0.14160011 334.15369241 -0.13144697 336.04801941 -0.12025452 C337.62763117 -0.12033704 337.62763117 -0.12033704 339.23915428 -0.12042123 C343.75419175 0.47396302 347.18996726 2.77811997 350.08693027 6.25447559 C351.37635704 10.12275589 351.2349952 13.781375 351.2341013 17.81302357 C351.23777798 18.69748431 351.24145467 19.58194505 351.24524277 20.49320763 C351.25629102 23.46873051 351.26012537 26.44421847 351.26393223 29.4197588 C351.27019594 31.54837118 351.27684265 33.67698246 351.28384495 35.80559254 C351.30126134 41.59695156 351.31180812 47.38830233 351.32005048 53.17968106 C351.32519851 56.79611273 351.33127428 60.41254182 351.33756161 64.02897167 C351.35661412 75.33880347 351.37084602 86.64862874 351.37917358 97.9584735 C351.38895196 111.02368699 351.41528702 124.08873132 351.45567447 137.15388519 C351.48580525 147.2465264 351.5006395 157.33911903 351.50395459 167.43180436 C351.50630822 173.46270445 351.51530971 179.49342384 351.54041576 185.52427578 C351.56364873 191.19680436 351.56794886 196.86903264 351.55765438 202.54159641 C351.55715777 204.62412545 351.56351479 206.70666904 351.57721043 208.7891531 C351.59485803 211.63145629 351.58785825 214.47267342 351.57467747 217.31497669 C351.59113134 218.55219525 351.59113134 218.55219525 351.60791761 219.81440812 C351.54897027 225.07647752 350.59511963 228.09349411 347.08693027 232.25447559 C340.98182757 236.04812999 334.84299786 235.66130681 327.81764317 235.59505177 C325.98731541 235.59570889 325.98731541 235.59570889 324.12001133 235.59637928 C320.7917977 235.59465351 317.46414975 235.57966038 314.13603616 235.55865741 C310.65137716 235.53983985 307.16670976 235.53813618 303.68200779 235.53458118 C297.09125734 235.52527556 290.50065708 235.50068205 283.90997261 235.47053272 C276.4033238 235.43694234 268.89666763 235.42049107 261.38996232 235.40544641 C245.95551665 235.374131 230.52127773 235.3191377 215.08693027 235.25447559 C215.41693027 244.16447559 215.74693027 253.07447559 216.08693027 262.25447559 C218.06693027 263.24447559 220.04693027 264.23447559 222.08693027 265.25447559 C227.26023228 270.8588861 228.08693027 273.41475293 228.08693027 281.25447559 C189.47693027 281.25447559 150.86693027 281.25447559 111.08693027 281.25447559 C111.08693027 271.2954592 111.08693027 271.2954592 115.51661777 266.80525684 C117.96796027 264.6771013 119.99326796 263.28569636 123.08693027 262.25447559 C123.41693027 253.34447559 123.74693027 244.43447559 124.08693027 235.25447559 C118.32566685 235.27804127 118.32566685 235.27804127 112.44801426 235.30208302 C99.75944361 235.35178704 87.07087446 235.38508074 74.38223267 235.40991211 C66.68894005 235.42536848 58.99573978 235.44643439 51.30250645 235.48079395 C44.59559299 235.51073408 37.88874643 235.53005954 31.181768 235.53674108 C27.63180066 235.54064555 24.08202469 235.54979572 20.5321188 235.57166576 C16.5652459 235.59590547 12.59855872 235.59644262 8.63160801 235.59505177 C7.45988041 235.60583759 6.28815281 235.61662342 5.08091831 235.62773609 C-1.66768486 235.6021238 -7.39890771 235.55334757 -12.57030582 230.69876766 C-14.57012023 227.05841772 -14.32955281 223.46595652 -14.30074978 219.41708851 C-14.30613532 218.51473357 -14.31152085 217.61237862 -14.31706959 216.68267959 C-14.33140173 213.65251866 -14.32423246 210.62279134 -14.31712246 207.59261036 C-14.32282327 205.42281714 -14.3297864 203.25302692 -14.33792019 201.08324146 C-14.35589855 195.18452733 -14.35467441 189.28596158 -14.3489778 183.38722825 C-14.34589272 178.46653794 -14.35197081 173.54587642 -14.35801655 168.6251902 C-14.37207552 157.01876565 -14.37048905 145.41241469 -14.35911465 133.80598927 C-14.34763155 121.82371527 -14.36170921 109.84175659 -14.38851112 97.85950524 C-14.41064706 87.5791607 -14.41731026 77.29888651 -14.41143471 67.01851982 C-14.40805896 60.87534666 -14.41052129 54.73231696 -14.42768574 48.58916378 C-14.44311917 42.8131805 -14.4392392 37.03752947 -14.42038059 31.26155949 C-14.41668475 29.13991899 -14.41983199 27.01825407 -14.43026638 24.89663601 C-14.44340973 22.0036531 -14.43198773 19.11178088 -14.41427517 16.21884632 C-14.42388018 15.37623943 -14.43348518 14.53363255 -14.44338125 13.66549212 C-14.3941321 9.76482356 -14.19723096 7.72271731 -12.13174438 4.31920242 C-8.20457822 0.66453169 -5.33436709 0.00439135 0 0 Z M0.08693027 18.25447559 C0.08693027 73.36447559 0.08693027 128.47447559 0.08693027 185.25447559 C110.96693027 185.25447559 221.84693027 185.25447559 336.08693027 185.25447559 C336.08693027 130.14447559 336.08693027 75.03447559 336.08693027 18.25447559 C331.30511433 13.02242355 331.30511433 13.02242355 325.39439487 12.62526989 C324.25193617 12.61223115 323.10947746 12.59919242 321.9323988 12.58575857 C320.05668729 12.60248898 320.05668729 12.60248898 318.14308262 12.61955738 C316.79763516 12.6137956 315.45219556 12.60585409 314.10677242 12.59592116 C310.4105951 12.57503154 306.71506252 12.58537205 303.01888275 12.60085225 C299.03242639 12.6121534 295.0460818 12.59470923 291.05964756 12.58095264 C283.25065126 12.5587024 275.44189504 12.56352932 267.63288927 12.57801585 C261.28720693 12.58930109 254.94159194 12.5908421 248.59590244 12.58539677 C247.69325574 12.5846306 246.79060904 12.58386444 245.86060941 12.58307505 C244.02698372 12.58147645 242.19335804 12.57985539 240.35973239 12.5782121 C223.15988404 12.56394936 205.96016887 12.58035553 188.76034236 12.60721393 C173.9973935 12.62955319 159.23464121 12.62567321 144.4716959 12.60262012 C127.33401915 12.57587136 110.19645917 12.56532271 93.05876446 12.58068144 C91.23182903 12.58227421 89.40489358 12.58384607 87.57795811 12.58539677 C86.67903666 12.58616814 85.78011521 12.58693952 84.85395372 12.58773427 C78.5148157 12.59205405 72.17575166 12.58475875 65.8366251 12.572999 C58.11282872 12.55898571 50.38928645 12.56274915 42.66551924 12.58940272 C38.7235541 12.60255686 34.78201284 12.60766654 30.8400507 12.59115696 C27.23260025 12.57627671 23.62596726 12.58441233 20.01859117 12.61104472 C18.09288057 12.61929143 16.16711341 12.60293442 14.24146175 12.58575857 C13.09900305 12.5987973 11.95654434 12.61183604 10.77946568 12.62526989 C9.79376402 12.62608165 8.80806236 12.62689341 7.79249096 12.62772977 C4.26611823 13.19313937 4.26611823 13.19313937 0.08693027 18.25447559 Z " fill="#55ABF5" transform="translate(31.91306972503662,20.745524406433105)"/>
<path d="M0 0 C0.98912384 -0.01511375 0.98912384 -0.01511375 1.99822998 -0.03053284 C4.16265151 -0.05886111 6.3263718 -0.06488166 8.4909668 -0.06811523 C10.00783058 -0.07776777 11.52469161 -0.08786109 13.04154968 -0.09837341 C16.2164049 -0.11629752 19.39101576 -0.1218984 22.56591797 -0.12011719 C26.61457385 -0.11981273 30.66164636 -0.16074194 34.70992756 -0.21243382 C37.84231112 -0.24595682 40.97431852 -0.25186993 44.10686302 -0.25028801 C45.59829344 -0.25380497 47.08973603 -0.26694379 48.58098793 -0.29028511 C56.36075102 -0.40064907 62.81604881 -0.25897204 69.32243347 4.46400452 C75.07492983 10.74716841 75.71326714 15.86611089 75.64526367 24.109375 C75.65227295 25.16068604 75.65928223 26.21199707 75.66650391 27.29516602 C75.68405583 30.75767723 75.67246957 34.21936576 75.65893555 37.68188477 C75.66163145 40.0965236 75.66551469 42.51116138 75.67053223 44.92579651 C75.67642368 49.98204909 75.66787602 55.03801865 75.64916992 60.09423828 C75.62639333 66.56502819 75.63949824 73.03515396 75.66345978 79.50591946 C75.67793742 84.49116488 75.67330242 89.47625376 75.66294861 94.46150398 C75.66028615 96.84685406 75.66353409 99.2322185 75.67286682 101.6175518 C75.68306295 104.95635303 75.66748649 108.2940902 75.64526367 111.6328125 C75.6533606 112.61228348 75.66145752 113.59175446 75.6697998 114.60090637 C75.58741787 121.30598644 74.42789738 126.96107744 69.68048859 131.95950985 C64.69240973 136.30023874 61.18501511 137.68444066 54.6184082 137.71044922 C53.97397263 137.71556015 53.32953705 137.72067108 52.66557312 137.72593689 C50.54086956 137.73980619 48.41649142 137.73887796 46.29174805 137.73657227 C44.80968099 137.74046115 43.32761505 137.74479621 41.84555054 137.7495575 C38.74034003 137.75701432 35.63524323 137.75673272 32.5300293 137.75146484 C28.55996161 137.74567594 24.59036132 137.76258937 20.62037086 137.78580952 C17.55934957 137.80057715 14.49843999 137.80141437 11.43738937 137.79829979 C9.9742274 137.79881165 8.51105896 137.80402394 7.04793167 137.81411171 C4.9969009 137.82651596 2.94676946 137.81966144 0.89575195 137.80810547 C-0.85153702 137.80904961 -0.85153702 137.80904961 -2.63412476 137.81001282 C-8.17882051 137.16923935 -12.02638852 134.80479204 -15.62231445 130.62329102 C-16.48083008 129.65456055 -16.48083008 129.65456055 -17.35668945 128.66625977 C-21.2686762 122.90918649 -21.1646239 117.01555783 -21.14697266 110.31884766 C-21.15208359 109.31484421 -21.15719452 108.31084076 -21.16246033 107.27641296 C-21.1763307 103.96619666 -21.17540153 100.65618913 -21.1730957 97.34594727 C-21.17698386 95.0395856 -21.18131878 92.73322465 -21.18608093 90.42686462 C-21.19353753 85.59591346 -21.19325577 80.7650354 -21.18798828 75.93408203 C-21.18219266 69.74913381 -21.19912987 63.56448495 -21.22233295 57.37958622 C-21.23707734 52.61744951 -21.23794105 47.85538479 -21.23482323 43.09322929 C-21.23533602 40.81310877 -21.24056591 38.53298417 -21.25063515 36.25288582 C-21.26299638 33.06243653 -21.25620948 29.87256915 -21.24462891 26.68212891 C-21.25227264 25.7442453 -21.25991638 24.80636169 -21.26779175 23.84005737 C-21.19967261 15.33259868 -18.96357298 9.66870672 -12.87231445 3.43579102 C-8.44424142 0.77641076 -5.13765834 0.04956614 0 0 Z " fill="#FCFCFD" transform="translate(75.872314453125,49.564208984375)"/>
<path d="M0 0 C0.64453444 -0.00538554 1.28906887 -0.01077108 1.95313466 -0.01631981 C4.10494924 -0.03058538 6.25614743 -0.02349954 8.4079895 -0.01637268 C9.95400486 -0.02207707 11.500016 -0.0290416 13.04602051 -0.03717041 C17.2403363 -0.05511103 21.43444298 -0.05393157 25.62878561 -0.04822803 C29.13270483 -0.04513696 32.63658383 -0.05122782 36.14049733 -0.05726677 C44.40873188 -0.07131383 52.67686312 -0.06974968 60.94509888 -0.05836487 C69.46858135 -0.04688776 77.99174902 -0.06095196 86.51519001 -0.08776134 C93.83850438 -0.10993154 101.16172004 -0.11655262 108.48506558 -0.11068493 C112.85655385 -0.10731678 117.2278404 -0.10972075 121.59930038 -0.12693596 C125.71163661 -0.14242376 129.82350739 -0.13842948 133.93582535 -0.11963081 C135.44224205 -0.11594974 136.94869336 -0.1190394 138.45507812 -0.1295166 C152.62462569 -0.22051849 152.62462569 -0.22051849 158.44754028 4.38768005 C162.81013156 9.24552746 163.02829066 13.29445889 162.94363403 19.51268005 C162.94508926 20.37780212 162.94654449 21.24292419 162.94804382 22.13426208 C162.94638991 23.95639934 162.9348857 25.77855131 162.91409302 27.60057068 C162.88512896 30.37917318 162.89349648 33.15586626 162.90652466 35.93455505 C162.90028661 37.71060593 162.89189515 39.48665082 162.88113403 41.26268005 C162.88406967 42.08784119 162.88700531 42.91300232 162.89002991 43.76316833 C162.79208989 49.79369175 161.53962236 53.95816538 157.51004028 58.63768005 C153.4433478 62.08820701 150.45125923 62.63871002 145.12922668 62.64837646 C143.82965027 62.65546127 142.53007385 62.66254608 141.19111633 62.66984558 C139.75274623 62.66755178 138.31437647 62.66504208 136.87600708 62.66233826 C135.35969797 62.66668598 133.84339105 62.67186934 132.3270874 62.67782593 C128.20919226 62.69122283 124.09138886 62.69179368 119.97347617 62.68926263 C116.53423346 62.68819307 113.09500933 62.69307606 109.6557706 62.69786805 C101.53955276 62.7089663 93.42338119 62.7093993 85.30715942 62.70335388 C76.93996115 62.69731719 68.57293117 62.7096166 60.20576161 62.73092395 C53.018359 62.74855263 45.83100989 62.75453919 38.64358646 62.75128621 C34.35259701 62.74947473 30.06172752 62.75209572 25.77075768 62.76600075 C21.73319801 62.77859458 17.69590001 62.77662037 13.65834427 62.76358986 C12.17934009 62.76122765 10.70031742 62.76394603 9.22133446 62.77221298 C-6.61828467 62.85434102 -6.61828467 62.85434102 -12.29464722 57.8525238 C-17.83487504 50.38276837 -16.84598654 43.10740473 -16.90255737 34.10423279 C-16.91908323 32.17702633 -16.94632863 30.2498803 -16.98458862 28.32298279 C-17.0395806 25.53823687 -17.06126777 22.75492838 -17.07589722 19.9697113 C-17.09856659 19.11528946 -17.12123596 18.26086761 -17.14459229 17.3805542 C-17.12645062 12.19995388 -16.26251524 9.01782656 -13.11608887 4.87503052 C-9.01814653 0.97699854 -5.59257392 0.01180201 0 0 Z " fill="#FDFDFE" transform="translate(184.55245971679688,124.61231994628906)"/>
<path d="M0 0 C1.2816806 -0.00960754 2.56336121 -0.01921509 3.88388062 -0.02911377 C5.28016989 -0.03396183 6.67646125 -0.03824064 8.07275391 -0.04199219 C9.50997925 -0.0477483 10.9472046 -0.05350597 12.38442993 -0.05926514 C15.3954504 -0.06975734 18.4064443 -0.07561177 21.41748047 -0.07910156 C25.26645323 -0.08458544 29.11507211 -0.10861836 32.96393394 -0.13707352 C35.93229179 -0.15574088 38.90056502 -0.16090764 41.86897659 -0.16243744 C43.28749147 -0.16545479 44.70600518 -0.17345224 46.12446213 -0.18662262 C48.11285085 -0.20376856 50.1013865 -0.19994575 52.08984375 -0.1953125 C53.21917328 -0.19895813 54.34850281 -0.20260376 55.51205444 -0.20635986 C60.44627737 0.36705588 63.67335965 2.05196452 66.98681641 5.72363281 C69.1762473 8.88614411 69.80184968 10.5159263 69.85131836 14.30029297 C69.87057121 15.5827037 69.87057121 15.5827037 69.89021301 16.89102173 C69.89759995 17.81804901 69.90498688 18.74507629 69.91259766 19.70019531 C69.9206694 20.65501801 69.92874115 21.6098407 69.9370575 22.59359741 C69.95090644 24.61950868 69.96162496 26.64544336 69.96948242 28.67138672 C69.98663237 31.75306312 70.03050373 34.83364911 70.07470703 37.91503906 C70.08483958 39.88508327 70.09335392 41.85513659 70.10009766 43.82519531 C70.11760574 44.74007721 70.13511383 45.65495911 70.15315247 46.5975647 C70.13298006 52.62296857 69.07016818 57.11961367 65.67431641 62.16113281 C61.59295366 65.99514024 57.81520132 66.29143352 52.37036133 66.33813477 C51.06858444 66.35097 49.76680756 66.36380524 48.42558289 66.37702942 C47.00198752 66.38519721 45.57838784 66.39264087 44.15478516 66.39941406 C43.43687616 66.40348959 42.71896717 66.40756512 41.97930336 66.41176414 C38.17932042 66.43260755 34.3793734 66.44691664 30.5793457 66.45629883 C26.66186145 66.46735915 22.74494584 66.50175885 18.82766247 66.54147053 C15.80869008 66.5676604 12.78985274 66.57599272 9.77077675 66.57958031 C8.32712273 66.58444028 6.8834745 66.59603759 5.43993187 66.6146183 C3.41557964 66.63905518 1.39094976 66.63562048 -0.63354492 66.63110352 C-2.35871086 66.63990288 -2.35871086 66.63990288 -4.11872864 66.64888 C-8.86164544 65.9275277 -12.00277766 63.66650853 -15.13818359 60.09863281 C-17.05309956 56.97429624 -17.45717399 54.36631118 -17.50268555 50.78491211 C-17.51552078 49.90357101 -17.52835602 49.02222992 -17.5415802 48.11418152 C-17.54896713 47.16416763 -17.55635406 46.21415375 -17.56396484 45.23535156 C-17.57203659 44.25500443 -17.58010834 43.27465729 -17.58842468 42.26460266 C-17.60225639 40.18919641 -17.61298263 38.11376751 -17.62084961 36.03833008 C-17.63806127 32.87114174 -17.68195583 29.70499766 -17.72607422 26.53808594 C-17.73620159 24.52051548 -17.74471755 22.50293616 -17.75146484 20.48535156 C-17.77772697 19.06943977 -17.77772697 19.06943977 -17.80451965 17.62492371 C-17.78535167 11.78851914 -17.09778619 8.6647569 -13.32568359 4.16113281 C-12.83068359 3.56300781 -12.33568359 2.96488281 -11.82568359 2.34863281 C-8.41155895 -0.35421587 -4.1759477 0.02528369 0 0 Z " fill="#FAFAFC" transform="translate(278.32568359375,49.8388671875)"/>
<path d="M0 0 C0.65097656 -0.0115361 1.30195313 -0.0230722 1.97265625 -0.03495789 C4.12014208 -0.06918492 6.26734076 -0.08775157 8.41503906 -0.10327148 C9.15159981 -0.11017439 9.88816055 -0.11707729 10.64704132 -0.12418938 C14.54659734 -0.1599926 18.44600935 -0.18354704 22.34570312 -0.19726562 C26.35877754 -0.21379411 30.37008364 -0.27219478 34.38256454 -0.34040928 C37.4814243 -0.38534877 40.57986614 -0.39877134 43.67902374 -0.40388298 C45.15738071 -0.41174315 46.63572651 -0.43128663 48.1137619 -0.46310616 C61.08933671 -0.72398207 61.08933671 -0.72398207 66.33789062 3.76025391 C69.5533483 7.13236335 70.55030109 9.21813938 70.6394043 13.86035156 C70.65869492 14.79860275 70.67798553 15.73685394 70.69786072 16.70353699 C70.75562255 21.0064208 70.8049009 25.30913633 70.83569336 29.61230469 C70.85725681 31.87906138 70.89133967 34.14573519 70.93823242 36.41210938 C71.00530525 39.68340174 71.03270743 42.95297004 71.05175781 46.22485352 C71.07958847 47.23239182 71.10741913 48.23993011 71.13609314 49.27799988 C71.11867515 55.2671657 70.30373954 58.63330586 66.11195374 63.00227356 C62.1020162 66.18835153 59.04680664 66.59767539 53.93725586 66.64453125 C52.61876144 66.66051865 51.30026703 66.67650604 49.94181824 66.69297791 C48.50451037 66.69935542 47.06719784 66.7047479 45.62988281 66.70922852 C44.1502117 66.71820009 42.67054149 66.72732203 41.19087219 66.73658752 C38.08987223 66.75306584 34.98898006 66.76077532 31.88793945 66.76367188 C27.92668297 66.76905016 23.96644893 66.80671046 20.00548077 66.85241604 C16.94869855 66.88225605 13.8921603 66.88939694 10.83524513 66.89039803 C9.37566261 66.89458776 7.91607852 66.90697194 6.45664024 66.92791557 C-6.35398331 67.09710007 -6.35398331 67.09710007 -10.89428711 64.11572266 C-14.66399661 60.20151393 -15.80623672 56.83840019 -15.87573242 51.45947266 C-15.89171982 50.51822037 -15.90770721 49.57696808 -15.92417908 48.60719299 C-15.92954178 47.60188034 -15.93490448 46.59656769 -15.94042969 45.56079102 C-15.94945816 44.51668564 -15.95848663 43.47258026 -15.9677887 42.39683533 C-15.98227372 40.1921576 -15.99117358 37.98743705 -15.99487305 35.78271484 C-16.0067827 32.41568555 -16.05599857 29.05048144 -16.10644531 25.68383789 C-16.11590856 23.53866452 -16.12314406 21.39347992 -16.12792969 19.24829102 C-16.14746201 18.24500259 -16.16699432 17.24171417 -16.18711853 16.20802307 C-16.15831823 11.73280885 -16.12442974 8.38645082 -13.28442383 4.78125 C-8.83170188 0.77456098 -5.99317394 0.08503779 0 0 Z " fill="#FBFBFD" transform="translate(183.5693359375,49.661865234375)"/>
<path d="M0 0 C30.03 0 60.06 0 91 0 C91.33 9.24 91.66 18.48 92 28 C93.98 28.99 95.96 29.98 98 31 C103.173302 36.6044105 104 39.16027733 104 47 C65.39 47 26.78 47 -13 47 C-13 37.04098361 -13 37.04098361 -8.5703125 32.55078125 C-6.11897001 30.4226257 -4.09366231 29.03122077 -1 28 C-0.67 18.76 -0.34 9.52 0 0 Z " fill="#204EB2" transform="translate(156,255)"/>
<path d="M0 0 C3.85797318 2.71085394 6.25825121 5.8362842 8.640625 9.85546875 C9.300625 10.84546875 9.960625 11.83546875 10.640625 12.85546875 C13.1648097 21.43769674 11.66153073 29.04075163 7.640625 36.85546875 C3.67058111 43.30679007 -2.32559065 46.30012388 -9.359375 48.85546875 C-17.62049229 50.31331298 -24.58128487 47.85006639 -31.484375 43.41796875 C-37.34599162 38.72635861 -40.61619476 32.08999212 -41.90234375 24.76171875 C-42.29535702 16.5190621 -40.02987501 9.92527002 -34.4921875 3.78515625 C-24.04629076 -5.92912127 -12.37464132 -6.81901047 0 0 Z " fill="#DDB1C8" transform="translate(319.359375,59.14453125)"/>
<path d="M0 0 C5.88476069 4.15041043 10.34908487 9.64207476 12.29296875 16.6171875 C13.31229626 25.3444635 12.52523256 32.40857223 7.29296875 39.6171875 C2.06462321 45.51440453 -3.49617242 48.91979436 -11.3046875 49.96484375 C-18.44650608 50.35658907 -23.86750746 48.75558936 -29.70703125 44.6171875 C-32.34901837 42.14934266 -34.60741102 39.55776968 -36.70703125 36.6171875 C-37.25746094 35.86050781 -37.80789062 35.10382813 -38.375 34.32421875 C-41.23623566 28.50944951 -40.47647785 20.30272521 -39.16796875 14.03515625 C-36.69833642 6.93835566 -32.06182722 2.31403271 -25.70703125 -1.3828125 C-16.97608013 -4.90877353 -8.18841847 -4.60842629 0 0 Z " fill="#DCB1C8" transform="translate(224.70703125,58.3828125)"/>
<path d="M0 0 C0.99688339 -0.00145523 1.99376678 -0.00291046 3.02085876 -0.00440979 C5.11948584 -0.00275619 7.21812571 0.00874439 9.31665039 0.02954102 C12.52087079 0.05853518 15.72343866 0.05012997 18.92773438 0.03710938 C20.97266425 0.04334639 23.01758893 0.05173704 25.0625 0.0625 C26.01576675 0.05956436 26.96903351 0.05662872 27.95118713 0.05360413 C33.19536735 0.12768535 36.94946992 0.5304114 41.46484375 3.49609375 C43.83984375 6.18359375 43.83984375 6.18359375 45.46484375 8.49609375 C43.46484375 12.49609375 41.46484375 16.49609375 39.46484375 20.49609375 C37.63953125 20.31046875 37.63953125 20.31046875 35.77734375 20.12109375 C32.3137835 20.16355421 31.70271666 20.28795495 28.96484375 22.68359375 C28.08776066 23.92463648 27.26362733 25.20326484 26.46484375 26.49609375 C25.48644531 28.07390625 25.48644531 28.07390625 24.48828125 29.68359375 C23.07924777 31.96685678 21.70059214 34.26186446 20.33203125 36.5703125 C18.83440859 38.91700575 17.53561189 40.67613293 15.46484375 42.49609375 C11.93530657 41.31958136 11.67747881 40.61231831 9.90234375 37.49609375 C8.25109827 34.41106548 8.25109827 34.41106548 5.46484375 32.49609375 C2.59178147 31.99514352 2.59178147 31.99514352 -0.53515625 32.49609375 C-7.85152218 38.12406754 -12.71997439 47.25530092 -16.53515625 55.49609375 C-20.90397081 50.14077267 -21.70850368 47.28365826 -21.7734375 40.453125 C-21.78150925 39.65130295 -21.78958099 38.8494809 -21.79789734 38.02336121 C-21.81174078 36.32280642 -21.82246178 34.62222382 -21.83032227 32.92163086 C-21.84747525 30.33587909 -21.89134971 27.75142616 -21.93554688 25.16601562 C-21.9456794 23.51172813 -21.95419375 21.85742978 -21.9609375 20.203125 C-21.97844559 19.43619827 -21.99595367 18.66927155 -22.01399231 17.87910461 C-21.99279991 12.56367875 -21.04981305 8.59725585 -17.53515625 4.49609375 C-11.86914743 0.08561843 -7.02047647 -0.08291038 0 0 Z " fill="#FBEAEC" transform="translate(90.53515625,80.50390625)"/>
<path d="M0 0 C18.62761115 -0.02332793 37.25521935 -0.04097865 55.88284206 -0.05181217 C64.53135605 -0.05697536 73.17986097 -0.06401848 81.82836914 -0.07543945 C89.36364579 -0.08538561 96.89891588 -0.09185326 104.43419892 -0.09408849 C108.42655852 -0.09539572 112.41889936 -0.0984823 116.41125298 -0.10573006 C120.16467098 -0.1124892 123.91806239 -0.11461718 127.6714859 -0.11310768 C129.05302894 -0.11338406 130.43457281 -0.11538981 131.81611061 -0.11920547 C133.69437145 -0.12414099 135.57264638 -0.12239796 137.45091248 -0.12025452 C138.50452186 -0.12117631 139.55813124 -0.1220981 140.64366817 -0.12304783 C143 0 143 0 144 1 C144.125 3.5 144.125 3.5 144 6 C143 7 143 7 140.64366817 7.12304783 C139.0632541 7.12166514 139.0632541 7.12166514 137.45091248 7.12025452 C136.24631378 7.12162918 135.04171509 7.12300385 133.8006134 7.12442017 C132.45358252 7.12088056 131.10655188 7.11724575 129.75952148 7.11352539 C128.35052492 7.11324352 126.94152821 7.11340125 125.53253174 7.1139679 C121.6959237 7.11425589 117.85934666 7.10835894 114.02274585 7.10139394 C110.01753059 7.09516063 106.0123147 7.09455662 102.00709534 7.09336853 C94.41747996 7.09025515 86.82787892 7.08204167 79.23826987 7.07201904 C70.59996076 7.06085812 61.96165099 7.05534751 53.32333648 7.05032361 C35.54888285 7.03985906 17.77444258 7.02225948 0 7 C0 4.69 0 2.38 0 0 Z " fill="#EECDDC" transform="translate(184,134)"/>
<path d="M0 0 C6.69858998 1.47042219 10.63209249 5.43772273 14.33203125 11.00390625 C18.03163222 18.1024339 18.45671639 26.17336828 16.15234375 33.80859375 C12.86330855 41.13366536 7.56940615 46.67009892 0.1875 49.9375 C-7.00315822 52.17490637 -13.70858653 51.9644065 -20.5 48.6875 C-23.42018281 47.10889468 -25.85792753 45.5608751 -28 43 C-28 42.34 -28 41.68 -28 41 C-26.25 39.2734375 -26.25 39.2734375 -24 37.375 C-23.2575 36.74335937 -22.515 36.11171875 -21.75 35.4609375 C-21.1725 34.97882813 -20.595 34.49671875 -20 34 C-18.989375 34.66 -17.97875 35.32 -16.9375 36 C-13.1439904 38.14914556 -10.39502395 38.55936669 -6 38 C-0.86040493 36.18602527 1.63292134 33.91624028 4 29 C4.68115368 24.6605153 4.50670796 21.16542832 2.75 17.125 C1.00092422 15.00112226 -0.70372322 13.5044572 -3 12 C-2.40075776 7.80530429 -1.42500059 3.99000166 0 0 Z " fill="#DDB1C8" transform="translate(220,57)"/>
<path d="M0 0 C0.5775 0.226875 1.155 0.45375 1.75 0.6875 C1.20578859 6.30611508 -0.30979054 10.80959805 -2.625 15.9375 C-2.92921875 16.64390625 -3.2334375 17.3503125 -3.546875 18.078125 C-5.06021766 21.4928469 -6.3768594 24.27308087 -9.25 26.6875 C-12.99849077 27.15606135 -14.01746204 26.84252531 -17.25 24.6875 C-17.5903125 25.32558594 -17.930625 25.96367188 -18.28125 26.62109375 C-19.79067045 29.19433446 -21.24949169 31.46991526 -23.25 33.6875 C-27.125 34.1875 -27.125 34.1875 -29.1796875 34.18359375 C-32.25931092 34.93316247 -33.31883145 36.80006656 -35.25 39.25 C-38.67795361 43.52478009 -38.67795361 43.52478009 -41.4609375 44.31640625 C-44.31261819 44.31125881 -46.68784497 43.96857752 -49.25 42.6875 C-54.56850776 42.08312412 -57.0956658 43.41706669 -61.25 46.6875 C-64.30500685 49.46477895 -66.68191999 51.83857633 -68.25 55.6875 C-68.69876413 50.49915683 -67.32530946 47.20832977 -64.6875 42.875 C-64.32760986 42.26624023 -63.96771973 41.65748047 -63.59692383 41.03027344 C-56.10110766 28.58823844 -56.10110766 28.58823844 -50.25 24.6875 C-46.54793356 24.20462177 -44.78169361 24.36601084 -41.5625 26.3125 C-39.02990868 28.91353974 -37.68277684 31.36949047 -36.25 34.6875 C-33.04520786 33.33833671 -31.56824352 32.12258856 -29.8125 29.1328125 C-29.18214844 28.08673828 -29.18214844 28.08673828 -28.5390625 27.01953125 C-28.11367187 26.29121094 -27.68828125 25.56289062 -27.25 24.8125 C-21.63466342 15.30046016 -21.63466342 15.30046016 -18.25 12.6875 C-15.46857957 12.17994153 -13.1042771 12.49721486 -10.25 12.6875 C-10.00765625 12.00042969 -9.7653125 11.31335938 -9.515625 10.60546875 C-9.18046875 9.70441406 -8.8453125 8.80335937 -8.5 7.875 C-8.17515625 6.98167969 -7.8503125 6.08835937 -7.515625 5.16796875 C-5.80285186 1.81114486 -3.95555317 -0.54938238 0 0 Z " fill="#5BACF4" transform="translate(140.25,87.3125)"/>
<path d="M0 0 C13.15149024 -0.0231209 26.30297569 -0.04091379 39.45448208 -0.05181217 C45.56056369 -0.05704156 51.66663144 -0.0641402 57.77270508 -0.07543945 C63.66005147 -0.08626637 69.54738449 -0.09227642 75.43474007 -0.09487724 C77.68632277 -0.09673185 79.93790469 -0.10035313 82.18948174 -0.10573006 C85.33133427 -0.11293789 88.47313083 -0.11399105 91.61499023 -0.11352539 C93.02623421 -0.1189183 93.02623421 -0.1189183 94.46598816 -0.12442017 C100.88594784 -0.11405216 100.88594784 -0.11405216 102 1 C102.125 3.5 102.125 3.5 102 6 C100.04634694 7.95365306 97.06600248 7.12022124 94.46598816 7.12442017 C93.52515884 7.12082489 92.58432953 7.11722961 91.61499023 7.11352539 C90.13710526 7.11374443 90.13710526 7.11374443 88.62936401 7.1139679 C85.35575193 7.11326832 82.08219596 7.10547385 78.80859375 7.09765625 C76.54557832 7.09579223 74.28256249 7.09436825 72.01954651 7.09336853 C66.05021052 7.0895421 60.08089868 7.07971075 54.11157227 7.06866455 C48.02555671 7.05845312 41.93953727 7.05387149 35.85351562 7.04882812 C23.90233311 7.03808859 11.95116856 7.02101068 0 7 C0 4.69 0 2.38 0 0 Z " fill="#EECDDC" transform="translate(184,170)"/>
<path d="M0 0 C5.11762818 2.65358498 8.17705942 5.53117826 10 11 C10.57008592 16.70085919 10.20291274 20.01742738 6.55078125 24.5234375 C3.04779139 27.85877797 -0.78324377 28.80089443 -5.4375 29.5625 C-10.41928647 28.77590214 -13.43986399 26.49343557 -17 23 C-19.48917855 19.05880062 -19.71716412 14.56295673 -19 10 C-14.97744815 1.95489631 -8.81024158 -1.57889634 0 0 Z " fill="#FDFBFC" transform="translate(309,67)"/>
<path d="M0 0 C0.54011719 0.32355469 1.08023438 0.64710937 1.63671875 0.98046875 C1.18795259 2.62893644 0.72741387 4.2742033 0.26171875 5.91796875 C-0.12113281 7.29275391 -0.12113281 7.29275391 -0.51171875 8.6953125 C-1.36328125 10.98046875 -1.36328125 10.98046875 -3.36328125 11.98046875 C-4.78098288 11.94927931 -6.1980357 11.88202332 -7.61328125 11.79296875 C-12.30247875 11.74773533 -14.77677682 12.82092913 -18.36328125 15.98046875 C-21.28285751 19.48396027 -21.76579863 22.36340866 -21.6015625 26.91015625 C-21.23535932 30.09192157 -20.37528478 32.94445815 -19.36328125 35.98046875 C-20.48206508 37.15309779 -21.60851176 38.31842013 -22.73828125 39.48046875 C-23.67800781 40.455 -23.67800781 40.455 -24.63671875 41.44921875 C-26.36328125 42.98046875 -26.36328125 42.98046875 -28.36328125 42.98046875 C-33.10738117 35.01715817 -36.02018182 28.32741163 -34.36328125 18.98046875 C-31.57817731 10.09102741 -25.95160744 4.71581706 -18.11328125 0.04296875 C-12.40678943 -1.5738706 -5.58158956 -2.40792542 0 0 Z " fill="#DCB1C8" transform="translate(312.36328125,56.01953125)"/>
<path d="M0 0 C4.18913372 1.61120528 7.10392634 3.5676164 10 7 C11.35593231 11.06779694 11.53075585 14.74668259 11 19 C8.34641502 24.11762818 5.46882174 27.17705942 0 29 C-5.73421758 29.54096392 -8.50752204 28.57356201 -13 25 C-15.87646349 22.5202901 -16.8622339 20.56311534 -17.203125 16.6953125 C-17.36509827 7.81377804 -17.36509827 7.81377804 -14 4 C-9.44755227 0.08277754 -5.80858656 -0.96422537 0 0 Z " fill="#FEFDFD" transform="translate(214,67)"/>
<path d="M0 0 C0.75152344 0.09023437 1.50304687 0.18046875 2.27734375 0.2734375 C3.0078125 2.421875 3.0078125 2.421875 3.27734375 5.2734375 C1.765625 8.0625 1.765625 8.0625 -0.41015625 10.8984375 C-1.11527344 11.83945313 -1.82039063 12.78046875 -2.546875 13.75 C-5.80737233 17.53147446 -7.51873461 19.11554614 -12.53515625 19.7734375 C-16.69038729 19.64164846 -19.04425135 18.07894847 -22.1796875 15.46484375 C-23.8315873 14.05406963 -23.8315873 14.05406963 -26.72265625 13.2734375 C-26.92890625 13.9953125 -27.13515625 14.7171875 -27.34765625 15.4609375 C-29.20399669 19.2579975 -31.31733428 20.7715683 -34.72265625 23.2734375 C-39.64365361 24.91376995 -44.28138385 24.65949261 -49.22265625 23.3359375 C-53.43520546 23.26071341 -53.89391025 23.98010092 -56.84765625 26.7734375 C-57.46898438 27.44375 -58.0903125 28.1140625 -58.73046875 28.8046875 C-60.72265625 30.2734375 -60.72265625 30.2734375 -63.46484375 29.9921875 C-64.20992188 29.755 -64.955 29.5178125 -65.72265625 29.2734375 C-65.78049978 26.43910431 -65.76291969 24.85909229 -64.72265625 22.2734375 C-60.8446005 18.41810473 -56.33049897 14.38209761 -50.72265625 14.1484375 C-47.72265625 14.2734375 -47.72265625 14.2734375 -45.72265625 15.2734375 C-41.64315889 15.99356779 -41.64315889 15.99356779 -37.72265625 15.2734375 C-35.65346966 13.2618955 -35.65346966 13.2618955 -33.78515625 10.7734375 C-30.33364818 6.48273923 -30.33364818 6.48273923 -27.46484375 5.5 C-21.51730916 5.23790526 -18.15108785 7.50455954 -13.72265625 11.2734375 C-9.12466747 9.44229098 -7.30366571 6.14666255 -4.6015625 2.171875 C-2.72265625 0.2734375 -2.72265625 0.2734375 0 0 Z " fill="#E83737" transform="translate(138.72265625,114.7265625)"/>
<path d="M0 0 C0.95108643 -0.00622879 1.90217285 -0.01245758 2.88208008 -0.01887512 C3.90712646 -0.00966537 4.93217285 -0.00045563 5.98828125 0.0090332 C7.04233154 0.0085347 8.09638184 0.00803619 9.18237305 0.00752258 C11.41164026 0.00986382 13.64091008 0.01959519 15.87011719 0.03613281 C19.28734918 0.05972173 22.70380106 0.05669438 26.12109375 0.05004883 C28.28516091 0.0556256 30.44922478 0.06273547 32.61328125 0.0715332 C33.63832764 0.0706218 34.66337402 0.06971039 35.71948242 0.06877136 C37.14611206 0.08306938 37.14611206 0.08306938 38.6015625 0.09765625 C39.43856689 0.10226364 40.27557129 0.10687103 41.13793945 0.11161804 C43.30078125 0.37231445 43.30078125 0.37231445 46.30078125 2.37231445 C46.96495234 8.46054942 46.96495234 8.46054942 45.0643158 11.06971741 C42.80828984 12.73608269 41.49934324 12.75789804 38.70922852 12.77636719 C37.78139053 12.78905136 36.85355255 12.80173553 35.89759827 12.81480408 C34.39754494 12.81040062 34.39754494 12.81040062 32.8671875 12.8059082 C31.32296364 12.81377098 31.32296364 12.81377098 29.74754333 12.8217926 C27.56957908 12.82821819 25.39158015 12.8268689 23.21362305 12.81835938 C19.879417 12.80985561 16.54692705 12.83859453 13.21289062 12.87036133 C11.09765676 12.87197354 8.98241987 12.87139543 6.8671875 12.8684082 C5.86917618 12.87964218 4.87116486 12.89087616 3.84291077 12.90245056 C-3.05086296 12.83298672 -3.05086296 12.83298672 -6.33227539 10.50146484 C-8.03682578 7.84645788 -8.25526472 6.47028488 -7.69921875 3.37231445 C-5.39688721 0.33199407 -3.73455954 -0.00280838 0 0 Z " fill="#EECCDC" transform="translate(83.69921875,61.627685546875)"/>
<path d="M0 0 C8.57077598 -0.04628427 17.14149997 -0.08184919 25.71236992 -0.10362434 C29.69191773 -0.11407386 33.67138021 -0.12825422 37.65087891 -0.15087891 C41.48933886 -0.17256585 45.32771659 -0.18455982 49.16623306 -0.18975449 C50.63270487 -0.19345773 52.09917205 -0.200689 53.56560898 -0.21146011 C55.61529106 -0.22592019 57.66463082 -0.22798029 59.71435547 -0.22705078 C60.88239716 -0.231492 62.05043884 -0.23593323 63.25387573 -0.24050903 C66 0 66 0 68 2 C67.46428571 5.53571429 67.46428571 5.53571429 66 7 C63.94443339 7.09413687 61.88559819 7.11742998 59.82788086 7.11352539 C58.86205833 7.11374443 58.86205833 7.11374443 57.87672424 7.1139679 C55.73939697 7.11326885 53.60215587 7.10547691 51.46484375 7.09765625 C49.98653715 7.09579204 48.50822993 7.09436815 47.02992249 7.09336853 C43.13201198 7.08954359 39.23413851 7.07971352 35.33624268 7.06866455 C31.36153667 7.05844992 27.38682471 7.0538708 23.41210938 7.04882812 C15.608056 7.03809122 7.80403318 7.02101509 0 7 C0 4.69 0 2.38 0 0 Z " fill="#EECDDC" transform="translate(184,152)"/>
<path d="M0 0 C4.66839559 2.66765462 7.46320247 6.89064717 9 12 C8.64351268 14.29829474 8.1432964 15.7639824 6.9375 17.75 C3.72376275 19.82337887 0.76823038 19.23925272 -3 19 C-3.66 18.67 -4.32 18.34 -5 18 C-10.31850776 17.39562412 -12.8456658 18.72956669 -17 22 C-20.05500685 24.77727895 -22.43191999 27.15107633 -24 31 C-24.44876413 25.81165683 -23.07530946 22.52082977 -20.4375 18.1875 C-20.07760986 17.57874023 -19.71771973 16.96998047 -19.34692383 16.34277344 C-8.86050191 -1.06326023 -8.86050191 -1.06326023 0 0 Z " fill="#5CACF3" transform="translate(96,112)"/>
<path d="M0 0 C4.81826218 0.84530916 6.34029694 1.93125503 9.5625 5.625 C10.42551172 10.0185142 10.0903601 11.82469598 7.625 15.5625 C4.03737333 17.97865674 1.90545081 18.3675028 -2.34375 18.10546875 C-4.4375 17.625 -4.4375 17.625 -7 15.5625 C-8.81531677 11.85293965 -9.09372237 9.70816143 -8.4375 5.625 C-5.86890902 1.96670376 -4.41498801 0.80272509 0 0 Z " fill="#F7E9EC" transform="translate(200.4375,221.375)"/>
<path d="M0 0 C5.88016366 1.29076763 9.28368117 4.45996102 13 9 C14.89112414 12.1068468 15 13.14838581 15 17 C13.73160474 17.50615298 12.46016898 18.00469099 11.1875 18.5 C10.47980469 18.7784375 9.77210938 19.056875 9.04296875 19.34375 C7 20 7 20 4 20 C2.97388051 18.34928604 1.97691857 16.68029994 1 15 C-1.06954847 13.21655822 -1.06954847 13.21655822 -3 12 C-2.40075776 7.80530429 -1.42500059 3.99000166 0 0 Z " fill="#E83838" transform="translate(220,57)"/>
<path d="M0 0 C6.50198836 2.69047794 10.61555923 5.71126404 14 12 C14.33 13.65 14.66 15.3 15 17 C9.555 18.485 9.555 18.485 4 20 C3.4225 19.0925 2.845 18.185 2.25 17.25 C0.33214884 14.47977054 -1.54402845 12.28054501 -4 10 C-2.68 6.7 -1.36 3.4 0 0 Z " fill="#E83636" transform="translate(314,57)"/>
<path d="M0 0 C22.44 0 44.88 0 68 0 C68 0.99 68 1.98 68 3 C45.89 3 23.78 3 1 3 C0.67 2.01 0.34 1.02 0 0 Z " fill="#EFD1DF" transform="translate(69,151)"/>
<path d="M0 0 C22.11 0 44.22 0 67 0 C67 0.99 67 1.98 67 3 C44.89 3 22.78 3 0 3 C0 2.01 0 1.02 0 0 Z " fill="#EFD0DF" transform="translate(70,167)"/>
<path d="M0 0 C1.37432457 3.81756824 0.67975039 7.07255329 0 11 C0.99 11.33 1.98 11.66 3 12 C2.29875 12.165 1.5975 12.33 0.875 12.5 C-2.7547077 14.39376054 -4.24108658 16.76219141 -6.47265625 20.125 C-8 22 -8 22 -12 24 C-14.64 22.02 -17.28 20.04 -20 18 C-18.35 15.03 -16.7 12.06 -15 9 C-14.01 9 -13.02 9 -12 9 C-11.67 9.33 -11.34 9.66 -11 10 C-8.67484501 10.75342517 -8.67484501 10.75342517 -6 10 C-3.50352263 6.95568454 -1.7541038 3.5082076 0 0 Z " fill="#F6E4E7" transform="translate(137,103)"/>
<path d="M0 0 C0.495 0.99 0.495 0.99 1 2 C-0.77761529 5.91075363 -1.84542952 8.14721439 -5.31640625 10.7109375 C-10.95757753 12.68504834 -16.44900678 12.31269704 -22.375 12.1875 C-24.19451172 12.16719727 -24.19451172 12.16719727 -26.05078125 12.14648438 C-29.03431206 12.11124582 -32.01692458 12.06197525 -35 12 C-34.01 11.34 -33.02 10.68 -32 10 C-28.34846743 7.35263888 -26.10977129 4.99746139 -24 1 C-21.04451536 1.45468994 -19.70334126 2.22249406 -17.25 4.0625 C-12.90513485 6.65270807 -10.99854595 6.71407799 -6 6 C-3.03949126 3.70800597 -3.03949126 3.70800597 -1 1 C-0.67 0.67 -0.34 0.34 0 0 Z " fill="#FAE2E3" transform="translate(136,127)"/>
<path d="M0 0 C0.66 1.98 1.32 3.96 2 6 C-0.64 8.31 -3.28 10.62 -6 13 C-8.65269897 10.52414762 -10.68010103 8.40973899 -12 5 C-12 4.01 -12 3.02 -12 2 C-7.8803623 0.70756464 -4.33168317 -0.26252625 0 0 Z " fill="#1EC0D6" transform="translate(198,86)"/>
<path d="M0 0 C0.66 1.98 1.32 3.96 2 6 C0.88121617 7.17262904 -0.24523051 8.33795138 -1.375 9.5 C-2.00148438 10.1496875 -2.62796875 10.799375 -3.2734375 11.46875 C-5 13 -5 13 -7 13 C-7.83848804 11.54462432 -8.67063934 10.08559627 -9.5 8.625 C-10.19609375 7.40683594 -10.19609375 7.40683594 -10.90625 6.1640625 C-12 4 -12 4 -12 2 C-10.7625 1.67 -9.525 1.34 -8.25 1 C-7.55390625 0.814375 -6.8578125 0.62875 -6.140625 0.4375 C-4 0 -4 0 0 0 Z " fill="#19BFD6" transform="translate(291,86)"/>
<path d="M0 0 C3 1 3 1 4.5 3.8125 C4.995 4.864375 5.49 5.91625 6 7 C6.96534522 8.35863401 7.95277149 9.70343137 9 11 C3.47322267 11.19392201 -0.75614911 10.7479503 -6 9 C-2.25 2.25 -2.25 2.25 0 0 Z " fill="#F1E1E8" transform="translate(92,120)"/>
</svg>
