<?xml version="1.0" encoding="UTF-8"?>
<svg version="1.1" xmlns="http://www.w3.org/2000/svg" width="400" height="277">
<path d="M0 0 C1.485 2.97 1.485 2.97 3 6 C3.94101562 5.65066406 4.88203125 5.30132812 5.8515625 4.94140625 C7.10927474 4.48149655 8.36709293 4.02187653 9.625 3.5625 C10.85476563 3.11003906 12.08453125 2.65757813 13.3515625 2.19140625 C27.89966972 -2.55931399 42.51857924 -0.20801009 56.125 6.125 C62.69799076 9.56384947 67.8492584 13.69636069 73 19 C73.56074219 19.54011719 74.12148438 20.08023438 74.69921875 20.63671875 C84.44062048 30.78720822 89.02317748 45.70234896 89.375 59.4375 C88.9395028 76.54382994 82.89315052 91.30421274 70.8203125 103.375 C57.67435858 115.6105693 42.48649836 120.5761321 24.72265625 120.23828125 C11.18044983 119.37146636 -3.03602836 113.29878299 -13 104 C-23.02119924 91.74089748 -29.41992471 77.74326061 -29.3125 61.75 C-29.30976074 60.92097168 -29.30702148 60.09194336 -29.30419922 59.23779297 C-29.15787303 50.58772886 -27.28884848 42.97903241 -24 35 C-27.465 33.02 -27.465 33.02 -31 31 C-30.15478444 25.27467076 -27.33286378 21.60213623 -24 17 C-23.278125 15.989375 -22.55625 14.97875 -21.8125 13.9375 C-17.17864207 8.5513924 -7.38539231 0 0 0 Z " fill="#AFB9C5" transform="translate(295,18)"/>
<path d="M0 0 C0.90621094 0.38929688 1.81242187 0.77859375 2.74609375 1.1796875 C16.86297799 7.94778236 25.48936929 19.70492977 31 34 C35.43445827 47.95812703 34.53435355 61.78648429 28.4921875 75.17578125 C26.06645571 79.76689141 23.14402844 83.87918602 20 88 C19.401875 88.886875 18.80375 89.77375 18.1875 90.6875 C8.04244651 101.41227083 -6.70945306 106.80305018 -21.25 107.3125 C-38.27299186 106.88093119 -52.29168825 100.26179558 -64 88 C-73.58321695 77.19249543 -78.8527596 63.14305639 -78.28125 48.6171875 C-76.48056314 31.86079588 -70.27267367 19.30722334 -58 8 C-41.71285536 -4.58964523 -19.07364311 -8.93286968 0 0 Z M-39 43 C-41.1119795 47.22395901 -40.50003478 52.41347412 -40 57 C-38.11904933 62.24641846 -34.88956175 65.8746716 -29.88671875 68.31640625 C-25.28076001 69.98523188 -21.28629036 70.13539899 -16.4375 69.625 C-10.56057134 66.84681554 -7.22393461 62.29808334 -4.9765625 56.2421875 C-3.65974989 50.68059073 -3.65289798 46.65996898 -6.66015625 41.71875 C-9.90763965 37.55288208 -13.81077059 34.32747729 -19 33 C-28.53279816 31.84826788 -33.38771849 35.62385859 -39 43 Z " fill="#F2F2F2" transform="translate(348,152)"/>
<path d="M0 0 C0.87206123 -0.00297112 1.74412245 -0.00594224 2.64260978 -0.0090034 C5.58211786 -0.01771615 8.52158535 -0.01920082 11.46110535 -0.02069092 C13.56163623 -0.02531727 15.66216626 -0.03034168 17.76269531 -0.03573608 C23.48173815 -0.04887973 29.20076925 -0.05530887 34.91982484 -0.05974674 C38.4901783 -0.06267431 42.06052852 -0.06677851 45.63088036 -0.07125092 C56.79388312 -0.08493104 67.95687851 -0.09459517 79.11988908 -0.09845281 C92.0203909 -0.10293493 104.92078684 -0.12048789 117.82125646 -0.1494534 C127.78307813 -0.17104685 137.74486997 -0.18115584 147.70671481 -0.18249393 C153.66099181 -0.18354363 159.61516934 -0.18948663 165.56942177 -0.20731354 C171.16967039 -0.2237538 176.76974436 -0.2259694 182.37000847 -0.21717453 C184.42715039 -0.21640198 186.48430154 -0.22077539 188.54141998 -0.23063278 C191.34675215 -0.24328859 194.15145978 -0.23751016 196.95678711 -0.22705078 C198.18188884 -0.23913539 198.18188884 -0.23913539 199.43174011 -0.25146413 C204.02171596 -0.21135741 207.02066549 0.28146493 210.66886902 3.14044189 C213.5715505 7.40490224 212.99921062 12.10727115 212.98136902 17.07794189 C212.9974823 17.97190674 213.01359558 18.86587158 213.03019714 19.78692627 C213.03384219 24.69680164 212.95310225 28.21013 209.66886902 32.14044189 C205.80649147 34.71536026 202.62057498 34.42765616 198.14155579 34.41459656 C196.81993165 34.42245158 196.81993165 34.42245158 195.47160804 34.43046528 C192.50753113 34.44551461 189.5436261 34.44617151 186.57951355 34.44683838 C184.45912889 34.45445652 182.33874701 34.46288342 180.21836853 34.47206116 C174.4497941 34.49404644 168.68127268 34.50281042 162.91266108 34.5078876 C159.31097309 34.51152626 155.70929909 34.51776373 152.10761642 34.52488899 C139.54908892 34.54939698 126.99060281 34.56243841 114.43205261 34.565979 C102.71507162 34.56961586 90.99835232 34.59951872 79.28145134 34.64138359 C69.23043132 34.67604071 59.17949821 34.69152665 49.1284188 34.69222504 C43.12155081 34.69301938 37.11494926 34.70183033 31.10814285 34.7302227 C25.45935618 34.75632492 19.81105833 34.7586523 14.16223907 34.74256706 C12.08735212 34.74074635 10.01243756 34.74749905 7.93761063 34.76338577 C5.10787294 34.78373419 2.27986367 34.77336085 -0.54985046 34.75517273 C-1.37368473 34.7683727 -2.19751899 34.78157266 -3.04631793 34.79517263 C-7.3087132 34.73246489 -8.87354139 34.50171417 -12.34051704 31.7644968 C-14.58545784 28.80518471 -14.96297293 27.46304893 -14.96003723 23.79669189 C-14.96197083 22.79766846 -14.96390442 21.79864502 -14.96589661 20.76934814 C-14.94204895 19.73680908 -14.91820129 18.70427002 -14.89363098 17.64044189 C-14.90458801 16.60790283 -14.91554504 15.57536377 -14.92683411 14.51153564 C-14.88226966 9.90654255 -14.83914081 6.97985281 -12.42097473 2.98419189 C-8.51384921 -0.46284221 -4.98270959 -0.00524325 0 0 Z " fill="#89C5CC" transform="translate(31.331130981445313,71.85955810546875)"/>
<path d="M0 0 C0.99085639 -0.00445668 0.99085639 -0.00445668 2.00173008 -0.0090034 C4.21951944 -0.01768856 6.4372548 -0.01919848 8.65505981 -0.02069092 C10.24342972 -0.02531918 11.83179852 -0.03034385 13.42016602 -0.03573608 C17.73836777 -0.04886031 22.05655397 -0.05530495 26.37477255 -0.05974674 C29.07190377 -0.06267711 31.76903074 -0.06678182 34.46615982 -0.07125092 C42.90288202 -0.0849252 51.3395945 -0.09459249 59.77632701 -0.09845281 C69.51919534 -0.10293514 79.26192348 -0.12049143 89.00474918 -0.1494534 C96.53349085 -0.17105787 104.06219304 -0.18115641 111.59096539 -0.18249393 C116.08871225 -0.18354274 120.58632733 -0.18946678 125.0840416 -0.20731354 C129.31444575 -0.22377317 133.54461875 -0.22596005 137.77504349 -0.21717453 C139.32745736 -0.21640305 140.87988356 -0.22076147 142.43226624 -0.23063278 C144.55228819 -0.24332279 146.67148775 -0.23749238 148.79150391 -0.22705078 C149.97764219 -0.22851734 151.16378048 -0.2299839 152.38586235 -0.2314949 C156.82776087 0.2951778 159.45210874 1.8715508 162.31570435 5.26544189 C164.00027046 9.27787122 163.92260351 12.83495104 163.8352356 17.14044189 C163.83845825 17.93450439 163.84168091 18.72856689 163.84500122 19.54669189 C163.79827327 24.64428701 163.44015756 28.80618907 160.0852356 32.89044189 C156.70489041 35.59471804 153.18999709 35.2704888 149.05220032 35.28088379 C148.39233496 35.28385491 147.73246959 35.28682603 147.05260831 35.28988719 C144.83715292 35.29857239 142.62175159 35.30008228 140.40628052 35.30157471 C138.81953313 35.30620301 137.23278685 35.31122769 135.64604187 35.31661987 C131.33190508 35.32974475 127.01778385 35.33618901 122.70363021 35.34063053 C120.0085013 35.34356113 117.31337666 35.34766592 114.61824989 35.3521347 C106.18633105 35.36580991 97.75442194 35.37547644 89.32249278 35.3793366 C79.58812445 35.38381745 69.85389654 35.40136652 60.11957091 35.43033719 C52.59590911 35.45195158 45.07228682 35.46204075 37.5485943 35.46337771 C33.05472786 35.46442592 28.56099341 35.47033709 24.06715965 35.48819733 C19.8392147 35.50467381 15.611501 35.50683561 11.38353539 35.49805832 C9.8331541 35.49728771 8.28276041 35.50163379 6.73241043 35.51151657 C4.61273935 35.52423434 2.49388756 35.51836102 0.3742218 35.50793457 C-0.81099469 35.50940113 -1.99621119 35.51086769 -3.21734333 35.51237869 C-6.9259089 35.08925434 -9.3108015 34.09487413 -12.4772644 32.14044189 C-15.50887366 27.59302802 -14.88517927 23.11706406 -14.9147644 17.76544189 C-14.96407104 16.20309814 -14.96407104 16.20309814 -15.01437378 14.60919189 C-15.06831527 6.93969265 -15.06831527 6.93969265 -12.13742065 2.97637939 C-7.9871008 0.1119883 -4.93518403 0.0123846 0 0 Z " fill="#C1DEE2" transform="translate(31.477264404296875,169.85955810546875)"/>
<path d="M0 0 C1.09915237 -0.00571014 2.19830475 -0.01142029 3.33076477 -0.01730347 C5.14022331 -0.01898026 5.14022331 -0.01898026 6.98623657 -0.02069092 C8.25636093 -0.02565582 9.52648529 -0.03062073 10.83509827 -0.03573608 C14.32068185 -0.04885141 17.80624617 -0.05530323 21.29185057 -0.05974674 C23.46970217 -0.06267859 25.64754853 -0.0667836 27.82539749 -0.07125092 C34.64002215 -0.08492296 41.45463479 -0.0945913 48.26927221 -0.09845281 C56.13477823 -0.10293436 64.00011055 -0.12048787 71.86556375 -0.1494534 C77.94633508 -0.17106915 84.02705754 -0.18115701 90.10786688 -0.18249393 C93.73931089 -0.18354195 97.37059154 -0.18944907 101.00199509 -0.20731354 C105.05283912 -0.22685409 109.10331939 -0.22250572 113.15420532 -0.21600342 C114.35646255 -0.2252182 115.55871979 -0.23443298 116.79740906 -0.243927 C117.90220108 -0.23835785 119.0069931 -0.2327887 120.14526367 -0.22705078 C121.1027973 -0.22851734 122.06033092 -0.2299839 123.04688072 -0.2314949 C126.22220655 0.21371377 128.10544656 1.28770368 130.69961548 3.14044189 C133.66490199 7.48533624 133.10585748 12.44469947 133.13711548 17.51544189 C133.16998657 18.44872314 133.20285767 19.38200439 133.23672485 20.34356689 C133.2438147 21.25364502 133.25090454 22.16372314 133.25820923 23.10137939 C133.27839111 24.3357373 133.27839111 24.3357373 133.29898071 25.59503174 C132.40322767 29.39915446 130.8936175 31.93855329 127.69961548 34.14044189 C123.41853847 35.05839277 119.18285269 34.94934993 114.8187561 34.90093994 C113.50932541 34.90984756 112.19989471 34.91875519 110.8507843 34.92793274 C107.26578122 34.95098382 103.68184476 34.93631406 100.09687614 34.91346335 C96.34224843 34.8945266 92.58769138 34.90570893 88.83303833 34.91236877 C82.5281381 34.91870652 76.22366447 34.9004547 69.91885376 34.86773682 C62.6335163 34.83024284 55.34898692 34.83202149 48.06360674 34.85477799 C41.05026301 34.87573937 34.03721746 34.86844618 27.02388 34.84845924 C24.04146286 34.84048043 21.05929843 34.84245588 18.07688904 34.85248375 C13.91095673 34.8650103 9.74629523 34.83626808 5.58047485 34.80328369 C4.34395676 34.8118338 3.10743866 34.82038391 1.83345032 34.82919312 C-7.46384921 34.70192547 -7.46384921 34.70192547 -10.56599426 31.76148987 C-12.51074444 28.82254144 -12.93209051 27.29325085 -12.92929077 23.79669189 C-12.93122437 22.79766846 -12.93315796 21.79864502 -12.93515015 20.76934814 C-12.91130249 19.73680908 -12.88745483 18.70427002 -12.86288452 17.64044189 C-12.87384155 16.60790283 -12.88479858 15.57536377 -12.89608765 14.51153564 C-12.85191429 9.94695521 -12.78891088 6.97496473 -10.45272827 2.98419189 C-7.07349994 0.08946272 -4.28643646 0.01332669 0 0 Z " fill="#C1DEE2" transform="translate(29.300384521484375,120.85955810546875)"/>
<path d="M0 0 C1.485 2.97 1.485 2.97 3 6 C3.87140625 5.65066406 4.7428125 5.30132812 5.640625 4.94140625 C6.83171875 4.48636719 8.0228125 4.03132813 9.25 3.5625 C10.41015625 3.11003906 11.5703125 2.65757813 12.765625 2.19140625 C16.25523534 1.03352194 19.60330435 0.69719226 23.26464844 0.42553711 C24.87796051 0.30244423 24.87796051 0.30244423 26.52386475 0.17686462 C27.7495517 0.08931664 27.7495517 0.08931664 29 0 C29.16262956 7.70175023 29.28678947 15.40332114 29.3626852 23.10640049 C29.39912449 26.68393931 29.4484948 30.26029836 29.52807617 33.8371582 C29.60448286 37.29320182 29.6460602 40.74811549 29.6641407 44.20493889 C29.68325353 46.15666399 29.73784627 48.10793809 29.79307556 50.05897522 C29.79744844 59.98979127 29.79744844 59.98979127 25.578125 64.22851562 C24.40307313 65.17469989 23.21240205 66.10217326 22 67 C20.8356365 68.29608947 19.68504353 69.60502625 18.5625 70.9375 C16.14382221 73.74576347 13.64100317 76.39970593 11 79 C8.40017817 81.55990134 5.93731602 84.1677954 3.5625 86.9375 C0.21318239 90.84246478 -3.39519187 94.43422273 -7.08203125 98.01953125 C-9.16317067 100.04935277 -9.16317067 100.04935277 -11 103 C-18.28528107 100.03487466 -21.87198076 91.73041171 -24.8125 84.875 C-27.96036509 77.11814472 -29.36833432 70.06254604 -29.3125 61.75 C-29.30976074 60.92097168 -29.30702148 60.09194336 -29.30419922 59.23779297 C-29.15787303 50.58772886 -27.28884848 42.97903241 -24 35 C-27.465 33.02 -27.465 33.02 -31 31 C-30.15478444 25.27467076 -27.33286378 21.60213623 -24 17 C-23.278125 15.989375 -22.55625 14.97875 -21.8125 13.9375 C-17.17864207 8.5513924 -7.38539231 0 0 0 Z " fill="#F1F1F1" transform="translate(295,18)"/>
<path d="M0 0 C16.08900304 0 30.26379953 5.50487491 41.89453125 16.83203125 C42.58933594 17.54746094 43.28414063 18.26289062 44 19 C44.56074219 19.54011719 45.12148438 20.08023438 45.69921875 20.63671875 C55.68138591 31.03808453 60 45.98823412 60 60 C40.2 60 20.4 60 0 60 C0 40.2 0 20.4 0 0 Z " fill="#8991DC" transform="translate(324,18)"/>
<path d="M0 0 C15.76405616 0 28.62777838 4.34435655 40.1875 15.375 C50.60918844 25.83181772 56 39.39685032 56 54 C43.79 54 31.58 54 19 54 C17.35 50.7 15.7 47.4 14 44 C9.74370121 39.38900964 6.56292998 39.18764333 0 37 C0 24.79 0 12.58 0 0 Z " fill="#42A5FE" transform="translate(325,148)"/>
<path d="M0 0 C12.87 0 25.74 0 39 0 C36.97581523 16.19347819 34.46844192 25.57266998 25 38 C24.319375 39.010625 23.63875 40.02125 22.9375 41.0625 C20.4181775 43.5818225 18.4596838 43.54465491 15 44 C14.64284912 43.53215088 14.28569824 43.06430176 13.91772461 42.58227539 C10.48163151 38.08219471 7.04149628 33.58523484 3.59863281 29.09033203 C2.27822874 27.3638049 0.96268105 25.63356491 -0.3515625 23.90234375 C-1.26035156 22.71318359 -1.26035156 22.71318359 -2.1875 21.5 C-2.69667969 20.8296875 -3.20585937 20.159375 -3.73046875 19.46875 C-4.95430379 17.86275144 -4.95430379 17.86275144 -7 17 C-5.49357544 13.86161551 -3.75364368 10.92467031 -1.90234375 7.9765625 C-0.63851333 5.43496873 -0.63851333 5.43496873 0 0 Z " fill="#C4CFD6" transform="translate(343,202)"/>
<path d="M0 0 C0.25869873 0.63276855 0.51739746 1.26553711 0.78393555 1.91748047 C3.51024604 8.52619875 6.33374131 15.08688865 9.20703125 21.6328125 C9.76618729 22.90786652 9.76618729 22.90786652 10.3366394 24.2086792 C11.89264708 27.75535718 13.44963466 31.30158901 15.01147461 34.84570312 C16.16326813 37.46081568 17.31051394 40.07788334 18.45703125 42.6953125 C18.81320023 43.50042267 19.1693692 44.30553284 19.53633118 45.13504028 C22 50.77285369 22 50.77285369 22 53 C17.11433636 52.33039128 12.99047538 50.35553687 8.55078125 48.32421875 C7.73812302 47.95778763 6.92546478 47.59135651 6.08818054 47.21382141 C3.49404817 46.0432598 0.90312473 44.86580164 -1.6875 43.6875 C-5.0859488 42.14687414 -8.4857712 40.60932038 -11.88671875 39.07421875 C-12.6946286 38.70924286 -13.50253845 38.34426697 -14.33493042 37.9682312 C-19.83255998 35.49559644 -25.35896813 33.12987981 -31 31 C-29.97279733 25.26794815 -27.38052962 21.6679549 -24 17 C-23.278125 15.989375 -22.55625 14.97875 -21.8125 13.9375 C-17.17864207 8.5513924 -7.38539231 0 0 0 Z " fill="#8A92DC" transform="translate(295,18)"/>
</svg>
