<?xml version="1.0" encoding="UTF-8"?>
<svg version="1.1" xmlns="http://www.w3.org/2000/svg" width="400" height="364">
<path d="M0 0 C1.16838128 -0.00382555 2.33676256 -0.00765109 3.54054934 -0.01159257 C6.76599663 -0.02009749 9.99129755 -0.01969974 13.2167486 -0.01541197 C16.70216901 -0.0129384 20.18756299 -0.02196668 23.67297363 -0.02944946 C30.4942265 -0.04218061 37.31543996 -0.04399217 44.13670271 -0.0416492 C49.68230132 -0.03986425 55.227888 -0.04161948 60.77348518 -0.04587364 C61.56355607 -0.04646883 62.35362696 -0.04706402 63.16763939 -0.04767724 C64.77279754 -0.04888903 66.37795569 -0.05010316 67.98311383 -0.05131962 C83.02654186 -0.06218888 98.06994746 -0.06003547 113.11337674 -0.05393478 C126.86758463 -0.04876515 140.6217217 -0.06002334 154.37591558 -0.07903299 C168.5092841 -0.09841653 182.64261913 -0.10666655 196.77600104 -0.10290974 C204.70661695 -0.10099861 212.63717258 -0.10347677 220.56777763 -0.11762428 C227.31855492 -0.12954556 234.06923481 -0.13093455 240.82001346 -0.11883412 C244.26217528 -0.11295088 247.70415901 -0.11183047 251.1463089 -0.12383652 C254.88261636 -0.13428481 258.61844604 -0.12621794 262.35473633 -0.11352539 C263.43587501 -0.12089968 264.51701369 -0.12827396 265.63091415 -0.13587171 C272.26109703 -0.08852832 279.43423251 0.20100723 284.82699817 4.53560179 C288.50389663 8.54916284 290.23858942 13.19413358 290.24256897 18.56880188 C290.06061176 21.16533895 289.79465613 23.73811194 289.49085999 26.32319641 C289.39305237 27.24189514 289.29524475 28.16059387 289.19447327 29.10713196 C288.3852722 36.51617696 287.40393582 43.89867384 286.24085999 51.26069641 C286.99109436 51.37413391 287.74132874 51.48757141 288.51429749 51.60444641 C292.80241776 52.63654413 295.41854445 54.92966721 298.24085999 58.26069641 C303.42950042 68.12821612 300.88746178 79.33172773 299.59632874 89.89741516 C299.42367883 91.34102809 299.25151412 92.78469912 299.07980347 94.22842407 C298.62625203 98.03338794 298.16751063 101.83770594 297.70722961 105.64186096 C296.98287485 111.63249207 296.26494258 117.62388709 295.54976273 123.61561966 C295.28406475 125.83294556 295.01511666 128.04986145 294.74595642 130.26676941 C293.89090198 137.36546968 293.10625331 144.46018104 292.48548889 151.58345032 C292.36683975 152.89433121 292.24819061 154.2052121 292.12594604 155.55581665 C291.9109275 157.99148632 291.71222118 160.42868041 291.53387451 162.86730957 C290.78800326 171.22784933 288.85853903 178.54781528 282.86585999 184.69819641 C278.28450695 187.42519226 274.62478209 189.26069641 269.24085999 189.26069641 C269.26406311 190.53042297 269.28726624 191.80014954 269.31117249 193.10835266 C269.2970842 205.11391906 268.7156418 220.02111722 260.24085999 229.26069641 C252.99534758 235.42708995 245.14789522 235.56053892 236.07313538 235.57954407 C234.41837189 235.5946125 234.41837189 235.5946125 232.73017883 235.60998535 C229.09962972 235.64076863 225.4691542 235.65783924 221.83851624 235.67475891 C219.31502654 235.69347443 216.79154308 235.71304813 214.26806641 235.73344421 C208.31490746 235.77949434 202.36173427 235.81691714 196.40849346 235.85011709 C189.62726524 235.8884192 182.84613172 235.93780799 176.06498349 235.98810124 C162.12367933 236.09125172 148.18231411 236.18056668 134.24085999 236.26069641 C134.63026764 236.76080231 135.01967529 237.2609082 135.42088318 237.77616882 C137.22314166 240.09110054 139.02497126 242.40636573 140.82679749 244.72163391 C141.43902161 245.50788147 142.05124573 246.29412903 142.68202209 247.10420227 C148.37211364 254.41681497 154.01970536 261.7610651 159.62660217 269.13764954 C160.73525181 270.59572836 161.8453571 272.05270117 162.9566803 273.50874329 C164.63902725 275.71450818 166.3156929 277.92447586 167.99085999 280.13569641 C168.50471252 280.80810364 169.01856506 281.48051086 169.54798889 282.17329407 C171.566977 284.84985203 173.17299599 287.05710443 174.24085999 290.26069641 C174.85960999 290.05444641 175.47835999 289.84819641 176.11585999 289.63569641 C176.81710999 289.51194641 177.51835999 289.38819641 178.24085999 289.26069641 C180.24085999 291.26069641 180.24085999 291.26069641 180.24085999 294.26069641 C181.13289124 294.1305011 182.02492249 294.00030579 182.94398499 293.86616516 C184.69968811 293.65927063 184.69968811 293.65927063 186.49085999 293.44819641 C187.65101624 293.2973761 188.81117249 293.14655579 190.00648499 292.99116516 C193.24085999 293.26069641 193.24085999 293.26069641 195.66273499 295.59272766 C197.24085999 298.26069641 197.24085999 298.26069641 197.24085999 300.76069641 C194.49424604 307.62723126 188.46717555 311.29223505 182.67835999 315.44819641 C181.81533264 316.07661438 180.9523053 316.70503235 180.06312561 317.35249329 C170.55139798 324.26272276 170.55139798 324.26272276 167.84632874 324.24507141 C164.27834861 322.89704894 162.68036141 320.5230838 160.55335999 317.51069641 C159.67481364 316.31772295 158.79589709 315.12502205 157.91664124 313.93257141 C157.47272034 313.32091125 157.02879944 312.7092511 156.57142639 312.07905579 C154.51304467 309.26606 152.376014 306.51557099 150.24085999 303.76069641 C149.40709345 302.67769644 148.57376128 301.59436194 147.74085999 300.51069641 C147.12210999 299.70632141 147.12210999 299.70632141 146.49085999 298.88569641 C138.57419332 288.59402974 130.65752665 278.30236308 122.74085999 268.01069641 C122.32795715 267.47396301 121.91505432 266.93722961 121.48963928 266.38423157 C120.66021748 265.30590215 119.83095196 264.22745252 119.00184631 263.14888 C116.85996263 260.36295696 114.71502224 257.57946808 112.56507874 254.79975891 C112.12357483 254.22805969 111.68207092 253.65636047 111.22718811 253.06733704 C110.00731365 251.48792062 108.78623762 249.90943246 107.56507874 248.33100891 C105.05985808 245.02159138 102.65340987 241.63826624 100.24085999 238.26069641 C99.91085999 260.04069641 99.58085999 281.82069641 99.24085999 304.26069641 C99.90085999 304.26069641 100.56085999 304.26069641 101.24085999 304.26069641 C101.24085999 307.23069641 101.24085999 310.20069641 101.24085999 313.26069641 C102.57117249 313.16788391 102.57117249 313.16788391 103.92835999 313.07319641 C107.73056097 313.28841533 109.39015604 313.7357872 112.24085999 316.26069641 C113.30335999 319.69819641 113.30335999 319.69819641 113.24085999 323.26069641 C110.91203398 327.00706868 107.98287706 327.87435625 103.80653381 328.86152649 C98.3451641 329.71121147 92.81592904 329.50370188 87.30335999 329.44819641 C86.0600592 329.44755188 84.81675842 329.44690735 83.53578186 329.44624329 C74.3813605 329.40119693 74.3813605 329.40119693 73.24085999 328.26069641 C73.14562093 325.3692649 73.11532971 322.50177577 73.12733459 319.61006165 C73.12718857 318.70283356 73.12704254 317.79560547 73.12689209 316.86088562 C73.12759158 313.84699657 73.13538564 310.83316849 73.14320374 307.81929016 C73.14506779 305.73563674 73.14649175 303.65198288 73.14749146 301.56832886 C73.15131764 296.07246195 73.16114879 290.57662128 73.17219543 285.08076477 C73.18240739 279.47733414 73.18698861 273.87389928 73.19203186 268.27046204 C73.20277097 257.26719527 73.21984859 246.26394802 73.24085999 235.26069641 C72.61947899 235.26346179 71.99809799 235.26622717 71.35788727 235.26907635 C56.21690696 235.33541788 41.07597145 235.38501664 25.93488312 235.41613293 C18.61266856 235.43158168 11.2905512 235.4526329 3.96839905 235.48701477 C-2.41587183 235.51697836 -8.80007228 235.53628589 -15.18441153 235.5429619 C-18.56282873 235.54686243 -21.94104452 235.55598717 -25.31939697 235.57788658 C-29.09695841 235.59969137 -32.8741038 235.60266196 -36.65171814 235.60127258 C-37.76374603 235.61205841 -38.87577393 235.62284424 -40.02149963 235.63395691 C-46.31415191 235.60894462 -51.06246808 235.01014391 -56.75914001 232.26069641 C-61.93841658 226.81581592 -61.93743571 223.1243774 -61.87731743 215.84158707 C-61.70142619 210.51191131 -61.09464646 205.28393792 -60.39805603 200.0004425 C-60.25335876 198.85244171 -60.1086615 197.70444092 -59.95957947 196.52165222 C-59.48526259 192.77476358 -58.99939093 189.02947869 -58.51304626 185.28413391 C-58.17851407 182.66439135 -57.84461609 180.04456773 -57.51132202 177.42466736 C-56.81481689 171.95897816 -56.11220134 166.49410363 -55.40538025 161.02973938 C-54.58866169 154.71550591 -53.77975643 148.4003114 -52.97537667 142.08449495 C-52.19893613 135.98813192 -51.41887136 129.89224064 -50.63674736 123.79660416 C-50.3048032 121.20903604 -49.97348837 118.62138712 -49.64280891 116.03365707 C-49.18156314 112.43102496 -48.71623773 108.82894456 -48.24961853 105.227005 C-48.11295273 104.15482727 -47.97628693 103.08264954 -47.83547974 101.97798157 C-47.70789276 100.99977448 -47.58030579 100.02156738 -47.44885254 99.01371765 C-47.33915917 98.1631951 -47.22946581 97.31267254 -47.1164484 96.43637657 C-46.75914001 94.26069641 -46.75914001 94.26069641 -45.75914001 91.26069641 C-46.90382751 90.88944641 -46.90382751 90.88944641 -48.07164001 90.51069641 C-51.13097647 89.08774922 -52.05553509 88.13614518 -53.75914001 85.26069641 C-54.94482902 76.74413453 -53.58112596 67.49252003 -52.94664001 58.94819641 C-52.87678894 57.93467102 -52.80693787 56.92114563 -52.73497009 55.87690735 C-51.48142425 40.65474467 -51.48142425 40.65474467 -47.12510681 36.82368469 C-44.25661747 35.0935086 -42.12194965 34.26069641 -38.75914001 34.26069641 C-38.66117126 33.34288391 -38.56320251 32.42507141 -38.46226501 31.47944641 C-37.23755884 21.42840955 -35.74121176 13.97289311 -27.75914001 7.26069641 C-18.9777305 0.76434185 -10.66634346 -0.03720944 0 0 Z " fill="#AEDAFB" transform="translate(81.75914001464844,15.739303588867188)"/>
<path d="M0 0 C1.18146606 -0.00700928 2.36293213 -0.01401855 3.5802002 -0.02124023 C6.79926014 -0.03576345 10.01765518 -0.0324531 13.23670435 -0.01972389 C16.61581393 -0.00954398 19.99488146 -0.0190029 23.37399292 -0.02526855 C29.04465626 -0.03252855 34.71511063 -0.02299876 40.38574219 -0.00390625 C46.93202079 0.01788061 53.47780136 0.01079178 60.024068 -0.01121187 C65.65828994 -0.02938806 71.29236235 -0.03191407 76.92660415 -0.0214572 C80.28582984 -0.01523705 83.64482168 -0.0143459 87.00403214 -0.02760315 C90.7478226 -0.03776149 94.49065584 -0.02227642 98.234375 0 C99.89435013 -0.01214539 99.89435013 -0.01214539 101.58786011 -0.02453613 C107.71572578 0.04301381 111.32421447 0.42357126 115.98779297 4.51757812 C120.92902504 9.59606664 122.18866831 14.99312862 122.11489868 21.96450806 C121.82830365 27.72111159 121.04203538 33.43604485 120.34326172 39.15429688 C120.17061181 40.59790981 119.9984471 42.04158083 119.82673645 43.48530579 C119.37318501 47.29026966 118.91444362 51.09458766 118.4541626 54.89874268 C117.72980783 60.88937378 117.01187556 66.8807688 116.29669571 72.87250137 C116.03099773 75.08982727 115.76204964 77.30674316 115.4928894 79.52365112 C114.63783496 86.62235139 113.85318629 93.71706276 113.23242188 100.84033203 C113.11377274 102.15121292 112.9951236 103.46209381 112.87287903 104.81269836 C112.65786049 107.24836803 112.45915417 109.68556212 112.2808075 112.12419128 C111.53493624 120.48473104 109.60547202 127.804697 103.61279297 133.95507812 C99.03143994 136.68207398 95.37171507 138.51757812 89.98779297 138.51757812 C90.01099609 139.78730469 90.03419922 141.05703125 90.05810547 142.36523438 C90.04401718 154.37080077 89.46257478 169.27799893 80.98779297 178.51757812 C73.77040681 184.66003443 65.85846948 184.83290694 56.81103516 184.93505859 C55.70602158 184.95462616 54.601008 184.97419373 53.46250916 184.99435425 C49.81994362 185.05399102 46.17752307 185.09695125 42.53466797 185.13476562 C41.28607246 185.14790928 40.03747696 185.16105293 38.75104523 185.17459488 C33.50087713 185.22629728 28.25073007 185.27326878 23.00039291 185.30358696 C15.51058766 185.34736818 8.02365439 185.4313093 0.53499675 185.57046211 C-5.38995612 185.67677304 -11.31428311 185.71659579 -17.24019623 185.73398209 C-19.74889196 185.75105951 -22.25753859 185.78861968 -24.76560211 185.84746933 C-46.4250375 186.328419 -46.4250375 186.328419 -52.70376205 180.4792347 C-56.17093451 176.60222525 -57.92831096 173.86736639 -58.25445557 168.62008667 C-58.17451355 167.59625885 -58.09457153 166.57243103 -58.01220703 165.51757812 C-55.04220703 165.18757812 -52.07220703 164.85757813 -49.01220703 164.51757812 C-48.9923877 163.31633301 -48.97256836 162.11508789 -48.95214844 160.87744141 C-48.87621083 156.43060958 -48.78747572 151.98411008 -48.69482422 147.53759766 C-48.65648535 145.61123199 -48.62164121 143.68479352 -48.59033203 141.75830078 C-48.54478759 138.99289895 -48.48677666 136.22800043 -48.42626953 133.46289062 C-48.41471832 132.59826202 -48.40316711 131.73363342 -48.39126587 130.84280396 C-48.23995044 124.74532154 -48.23995044 124.74532154 -46.01220703 122.51757812 C-44.10449219 122.01513672 -44.10449219 122.01513672 -41.80126953 121.66601562 C-40.55216797 121.47265625 -40.55216797 121.47265625 -39.27783203 121.27539062 C-38.40642578 121.1490625 -37.53501953 121.02273437 -36.63720703 120.89257812 C-35.77353516 120.75851563 -34.90986328 120.62445313 -34.02001953 120.48632812 C-30.27199683 119.91949753 -26.81880051 119.51757812 -23.01220703 119.51757812 C-23.01220703 121.16757813 -23.01220703 122.81757813 -23.01220703 124.51757812 C-21.03220703 124.51757812 -19.05220703 124.51757812 -17.01220703 124.51757812 C-17.01220703 122.53757812 -17.01220703 120.55757813 -17.01220703 118.51757812 C-10.1818586 116.26447656 -3.17830647 115.39833159 3.92529297 114.39257812 C5.18148437 114.21082031 6.43767578 114.0290625 7.73193359 113.84179688 C10.8166036 113.39610311 13.90211787 112.95625933 16.98779297 112.51757812 C17.31779297 104.59757812 17.64779297 96.67757812 17.98779297 88.51757812 C16.27076172 88.84371094 14.55373047 89.16984375 12.78466797 89.50585938 C1.77016047 91.58225416 -9.24220025 93.64651185 -20.32470703 95.33007812 C-21.12231445 95.45358643 -21.91992188 95.57709473 -22.74169922 95.7043457 C-23.48709961 95.81415771 -24.2325 95.92396973 -25.00048828 96.03710938 C-25.63510986 96.13096924 -26.26973145 96.2248291 -26.92358398 96.3215332 C-29.62514912 96.57511085 -32.30059751 96.5471961 -35.01220703 96.51757812 C-34.06481134 81.64271974 -32.45889837 66.84805901 -30.83001709 52.03518677 C-30.29671374 47.18006751 -29.78701314 42.32344923 -29.30067444 37.46340942 C-29.0033672 34.54259518 -28.68470172 31.62439457 -28.36026001 28.70648193 C-28.14300293 26.69620748 -27.95067109 24.68328843 -27.7590332 22.67041016 C-26.92801181 15.44666035 -25.88721086 9.30140833 -20.01220703 4.51757812 C-13.23382393 0.35988465 -7.85711963 -0.05769854 0 0 Z " fill="#F7FAF7" transform="translate(261.01220703125,66.482421875)"/>
<path d="M0 0 C13.86 0 27.72 0 42 0 C41.48465457 18.6555047 40.25835405 37.09334315 38.56777954 55.67010498 C37.93235537 62.6720193 37.36460294 69.67850458 36.8125 76.6875 C36.7287915 77.74469238 36.64508301 78.80188477 36.55883789 79.89111328 C36.37161913 82.26067 36.1852532 84.63028895 36 87 C46.65558946 85.57691598 57.1946722 84.07556533 67.6796875 81.68359375 C72.50344779 80.69046663 77.36439195 80.13958516 82.25 79.5390625 C87.16451392 78.83260112 91.95611002 77.74626878 96.78125 76.5859375 C100.2493765 75.95460379 103.48242548 75.9022896 107 76 C107.02712325 78.87506421 107.04689851 81.74986908 107.0625 84.625 C107.07087891 85.43324219 107.07925781 86.24148437 107.08789062 87.07421875 C107.1058955 91.50341918 106.89622662 95.63883424 106 100 C98.85213001 101.66858795 91.68094382 102.94613934 84.4375 104.125 C83.33341797 104.30675781 82.22933594 104.48851562 81.09179688 104.67578125 C78.39489051 105.11942818 75.69763087 105.56078388 73 106 C72.67 107.98 72.34 109.96 72 112 C70.02 112 68.04 112 66 112 C66 110.35 66 108.7 66 107 C62.18638791 107.63937875 58.37432822 108.28757767 54.5625 108.9375 C52.92958008 109.21110352 52.92958008 109.21110352 51.26367188 109.49023438 C50.22919922 109.66748047 49.19472656 109.84472656 48.12890625 110.02734375 C47.17056885 110.18968506 46.21223145 110.35202637 45.22485352 110.51928711 C43.03786608 110.78152632 43.03786608 110.78152632 42 112 C41.85205581 114.94363177 41.76489284 117.86675226 41.71875 120.8125 C41.69113586 122.13858276 41.69113586 122.13858276 41.66296387 123.49145508 C41.60401899 126.32756698 41.55128081 129.16373976 41.5 132 C41.43257262 135.72930121 41.3589042 139.45839932 41.28125 143.1875 C41.26767456 144.05415283 41.25409912 144.92080566 41.2401123 145.8137207 C41.11280181 151.88719819 41.11280181 151.88719819 40 153 C38.48071962 153.07179964 36.95832518 153.08392007 35.4375 153.0625 C34.61121094 153.05347656 33.78492188 153.04445312 32.93359375 153.03515625 C32.29550781 153.02355469 31.65742188 153.01195312 31 153 C31.23002919 159.68788565 33.62348747 162.38471354 38.3125 166.9375 C45.0765758 173.8353214 50.81456356 181.13308426 56.48486328 188.93652344 C59.10130495 192.49987583 61.80455181 195.99627765 64.5 199.5 C66.66867114 202.33180229 68.8347147 205.16560815 71 208 C71.85368164 209.11713379 71.85368164 209.11713379 72.72460938 210.25683594 C74.40432776 212.45944971 76.07800768 214.66651799 77.75 216.875 C78.26369141 217.54724609 78.77738281 218.21949219 79.30664062 218.91210938 C81.32588682 221.58878456 82.93205764 223.79617292 84 227 C84.61875 226.79375 85.2375 226.5875 85.875 226.375 C86.57625 226.25125 87.2775 226.1275 88 226 C90 228 90 228 90 231 C90.89203125 230.86980469 91.7840625 230.73960937 92.703125 230.60546875 C93.87359375 230.46753906 95.0440625 230.32960938 96.25 230.1875 C97.41015625 230.03667969 98.5703125 229.88585937 99.765625 229.73046875 C103 230 103 230 105.421875 232.33203125 C107 235 107 235 107 237.5 C104.25338606 244.36653485 98.22631556 248.03153864 92.4375 252.1875 C91.57447266 252.81591797 90.71144531 253.44433594 89.82226562 254.09179688 C80.310538 261.00202635 80.310538 261.00202635 77.60546875 260.984375 C74.03748863 259.63635252 72.43950143 257.26238739 70.3125 254.25 C69.43395365 253.05702654 68.5550371 251.86432563 67.67578125 250.671875 C67.23186035 250.06021484 66.78793945 249.44855469 66.33056641 248.81835938 C64.27218468 246.00536358 62.13515401 243.25487458 60 240.5 C59.16623347 239.41700003 58.3329013 238.33366553 57.5 237.25 C56.88125 236.445625 56.88125 236.445625 56.25 235.625 C48.33333333 225.33333333 40.41666667 215.04166667 32.5 204.75 C32.08709717 204.2132666 31.67419434 203.6765332 31.2487793 203.12353516 C30.4193575 202.04520574 29.59009198 200.96675611 28.76098633 199.88818359 C26.61910264 197.10226055 24.47416226 194.31877167 22.32421875 191.5390625 C21.88271484 190.96736328 21.44121094 190.39566406 20.98632812 189.80664062 C19.76645366 188.22722421 18.54537763 186.64873605 17.32421875 185.0703125 C14.8189981 181.76089497 12.41254988 178.37756983 10 175 C9.67 196.78 9.34 218.56 9 241 C9.66 241 10.32 241 11 241 C11 243.97 11 246.94 11 250 C11.886875 249.938125 12.77375 249.87625 13.6875 249.8125 C17.48970099 250.02771892 19.14929605 250.47509079 22 253 C23.0625 256.4375 23.0625 256.4375 23 260 C20.671174 263.74637227 17.74201708 264.61365983 13.56567383 265.60083008 C8.10430412 266.45051506 2.57506906 266.24300546 -2.9375 266.1875 C-4.18080078 266.18685547 -5.42410156 266.18621094 -6.70507812 266.18554688 C-15.85949948 266.14050052 -15.85949948 266.14050052 -17 265 C-17.0956161 263.54518505 -17.12188351 262.08574514 -17.12025452 260.62779236 C-17.12231651 259.21215248 -17.12231651 259.21215248 -17.12442017 257.76791382 C-17.11902725 256.20238266 -17.11902725 256.20238266 -17.11352539 254.60522461 C-17.11367142 253.51267868 -17.11381744 252.42013275 -17.1139679 251.29447937 C-17.11326822 247.66374767 -17.10547329 244.03306654 -17.09765625 240.40234375 C-17.09579226 237.89270557 -17.09436827 235.38306702 -17.09336853 232.87342834 C-17.08993348 226.93065407 -17.08204273 220.98789616 -17.07201904 215.04513031 C-17.05976253 207.61798075 -17.05437792 200.19082895 -17.04882812 192.76367188 C-17.03808811 179.50910527 -17.02120082 166.25455379 -17 153 C-19.05356731 153.12982112 -21.10661856 153.26781941 -23.15942383 153.40917969 C-24.30276688 153.48513367 -25.44610992 153.56108765 -26.62409973 153.63934326 C-31.57180376 154.16792013 -36.01295689 155.60752274 -40.6875 157.25 C-42.5903675 157.88385184 -44.49402781 158.51532812 -46.3984375 159.14453125 C-47.33526367 159.45729004 -48.27208984 159.77004883 -49.23730469 160.09228516 C-53.40487664 161.46158814 -57.59639014 162.72687609 -61.8125 163.9375 C-62.85893677 164.25412598 -62.85893677 164.25412598 -63.92651367 164.57714844 C-69.99268703 166.29554503 -76.29743742 167.37885846 -82.0625 164.4375 C-84 162 -84 162 -84.625 158.5625 C-83.83181006 154.04131736 -82.54064874 152.86265217 -79 150 C-78.37609375 149.60167969 -77.7521875 149.20335937 -77.109375 148.79296875 C-75.26258433 147.61057228 -73.58263507 146.52022129 -72 145 C-71.33112827 141.82876903 -71.33112827 141.82876903 -72 139 C-73.90667768 137.09332232 -77.1892267 137.15828186 -79.7734375 136.6953125 C-82.32592424 135.89822015 -83.39362733 135.12162428 -85 133 C-85.5 129.625 -85.5 129.625 -85 126 C-82.5 123.0625 -82.5 123.0625 -80 121 C-90.43434785 120.05626529 -100.84345215 119.70081144 -111.3125 119.4375 C-112.93946106 119.39417711 -114.56641429 119.35055916 -116.19335938 119.30664062 C-120.12882453 119.20103469 -124.06437315 119.09938936 -128 119 C-128.1791866 111.84000212 -127.49178644 105.02234482 -126.5 97.9375 C-126.005 94.328125 -125.51 90.71875 -125 87 C-112.13 87 -99.26 87 -86 87 C-85.67 82.71 -85.34 78.42 -85 74 C-84.68800998 71.33075208 -84.36543533 68.66245737 -84 66 C-55.64207904 65.79361047 -55.64207904 65.79361047 -45 67 C-44.93941406 65.85402344 -44.87882812 64.70804687 -44.81640625 63.52734375 C-44.73193011 61.99738703 -44.64728573 60.46743959 -44.5625 58.9375 C-44.52318359 58.18533203 -44.48386719 57.43316406 -44.44335938 56.65820312 C-44.40146484 55.91376953 -44.35957031 55.16933594 -44.31640625 54.40234375 C-44.27974854 53.72679443 -44.24309082 53.05124512 -44.20532227 52.35522461 C-43.93225629 49.22292081 -43.44465475 46.11258322 -43 43 C-29.8 43 -16.6 43 -3 43 C-2.01 28.81 -1.02 14.62 0 0 Z " fill="#232D68" transform="translate(172,79)"/>
<path d="M0 0 C1.16838128 -0.00382555 2.33676256 -0.00765109 3.54054934 -0.01159257 C6.76599663 -0.02009749 9.99129755 -0.01969974 13.2167486 -0.01541197 C16.70216901 -0.0129384 20.18756299 -0.02196668 23.67297363 -0.02944946 C30.4942265 -0.04218061 37.31543996 -0.04399217 44.13670271 -0.0416492 C49.68230132 -0.03986425 55.227888 -0.04161948 60.77348518 -0.04587364 C61.56355607 -0.04646883 62.35362696 -0.04706402 63.16763939 -0.04767724 C64.77279754 -0.04888903 66.37795569 -0.05010316 67.98311383 -0.05131962 C83.02654186 -0.06218888 98.06994746 -0.06003547 113.11337674 -0.05393478 C126.86758463 -0.04876515 140.6217217 -0.06002334 154.37591558 -0.07903299 C168.5092841 -0.09841653 182.64261913 -0.10666655 196.77600104 -0.10290974 C204.70661695 -0.10099861 212.63717258 -0.10347677 220.56777763 -0.11762428 C227.31855492 -0.12954556 234.06923481 -0.13093455 240.82001346 -0.11883412 C244.26217528 -0.11295088 247.70415901 -0.11183047 251.1463089 -0.12383652 C254.88261636 -0.13428481 258.61844604 -0.12621794 262.35473633 -0.11352539 C263.43587501 -0.12089968 264.51701369 -0.12827396 265.63091415 -0.13587171 C272.26109703 -0.08852832 279.43423251 0.20100723 284.82699817 4.53560179 C288.5792312 8.63139516 290.25814936 13.2775472 290.22645569 18.74604797 C290.02811626 21.51224201 289.74739904 24.25588017 289.42835999 27.01069641 C289.33232483 27.95557922 289.23628967 28.90046204 289.13734436 29.87397766 C288.75182892 33.51179454 288.40120434 36.77966334 287.24085999 40.26069641 C203.09085999 40.26069641 118.94085999 40.26069641 32.24085999 40.26069641 C32.57085999 40.92069641 32.90085999 41.58069641 33.24085999 42.26069641 C33.22877504 45.3393366 33.14389344 48.37562778 32.99085999 51.44819641 C32.92306335 52.8296283 32.92306335 52.8296283 32.85389709 54.2389679 C32.44603985 61.47038019 31.71833802 68.63924295 30.80335999 75.82319641 C30.68122131 76.80377014 30.55908264 77.78434387 30.4332428 78.79463196 C30.2471344 80.17195496 30.2471344 80.17195496 30.05726624 81.57710266 C29.94842102 82.38606995 29.83957581 83.19503723 29.72743225 84.02851868 C29.21141043 86.39579792 28.49659746 88.19139863 27.24085999 90.26069641 C24.72918861 91.5165321 22.8930618 91.43532767 20.08460999 91.50679016 C19.06238342 91.53966125 18.04015686 91.57253235 16.98695374 91.60639954 C14.82299809 91.66759443 12.65892856 91.72488666 10.49476624 91.77827454 C9.47253967 91.81243469 8.45031311 91.84659485 7.39710999 91.88179016 C6.45673889 91.90684631 5.5163678 91.93190247 4.54750061 91.9577179 C2.04764535 92.04791312 2.04764535 92.04791312 0.24085999 94.26069641 C-0.69472282 96.54304172 -1.55670239 98.81439085 -2.38414001 101.13569641 C-4.83599398 107.84841798 -7.41108045 114.50289862 -10.07164001 121.13569641 C-10.42113708 122.00951965 -10.77063416 122.8833429 -11.13072205 123.78364563 C-13.62143194 129.98528027 -13.62143194 129.98528027 -14.75914001 132.26069641 C-15.74914001 132.26069641 -16.73914001 132.26069641 -17.75914001 132.26069641 C-17.81448914 131.08450745 -17.86983826 129.90831848 -17.92686462 128.69648743 C-18.13271892 124.34843134 -18.34475638 120.00069532 -18.55870056 115.6530304 C-18.65056893 113.76834682 -18.74074165 111.88357983 -18.82920837 109.99873352 C-18.95637972 107.29545437 -19.08957048 104.59253016 -19.22398376 101.88960266 C-19.28186317 100.6177285 -19.28186317 100.6177285 -19.34091187 99.32015991 C-19.18121276 95.47484358 -19.18121276 95.47484358 -20.75914001 92.26069641 C-22.69964224 92.15115193 -24.64377507 92.10480803 -26.58726501 92.08491516 C-27.77964783 92.0610675 -28.97203064 92.03721985 -30.20054626 92.01264954 C-32.72381596 91.96994805 -35.24730431 91.93855339 -37.77085876 91.91889954 C-38.96839783 91.89118469 -40.16593689 91.86346985 -41.39976501 91.83491516 C-42.49836853 91.82033264 -43.59697205 91.80575012 -44.72886658 91.79072571 C-48.41373139 91.14620093 -50.09277033 89.83355674 -52.75914001 87.26069641 C-56.41872565 79.94152515 -53.55174569 66.9375492 -52.94664001 58.94819641 C-52.87662781 57.93483215 -52.8066156 56.9214679 -52.73448181 55.87739563 C-51.48376457 40.65680281 -51.48376457 40.65680281 -47.12510681 36.82368469 C-44.25661747 35.0935086 -42.12194965 34.26069641 -38.75914001 34.26069641 C-38.66117126 33.34288391 -38.56320251 32.42507141 -38.46226501 31.47944641 C-37.23755884 21.42840955 -35.74121176 13.97289311 -27.75914001 7.26069641 C-18.9777305 0.76434185 -10.66634346 -0.03720944 0 0 Z " fill="#70A0E6" transform="translate(81.75914001464844,15.739303588867188)"/>
<path d="M0 0 C8.05703313 5.82538697 14.14174293 14.5407991 16.5546875 24.2265625 C18.78472445 38.1153891 16.88032773 53.14162221 9 65 C2.84198328 72.62960159 -3.93087913 77.3842847 -13 81 C-14.22203125 81.50853516 -14.22203125 81.50853516 -15.46875 82.02734375 C-27.27792812 86.08207738 -44.52159917 86.05299167 -56 81 C-56.91136719 80.6596875 -57.82273437 80.319375 -58.76171875 79.96875 C-61 78 -61 78 -61.39501953 76.0715332 C-61.49379957 73.63332117 -61.43501037 71.24951407 -61.3125 68.8125 C-61.28994141 67.96751953 -61.26738281 67.12253906 -61.24414062 66.25195312 C-61.18524963 64.16721202 -61.09556798 62.08338196 -61 60 C-62.10408203 60.2165625 -62.10408203 60.2165625 -63.23046875 60.4375 C-64.69419922 60.7159375 -64.69419922 60.7159375 -66.1875 61 C-67.15042969 61.185625 -68.11335938 61.37125 -69.10546875 61.5625 C-71.7934206 61.96877612 -74.28771019 62.07933572 -77 62 C-83.23030162 49.20671076 -85.58694387 34.45063722 -81.875 20.4375 C-77.74863961 9.14840081 -68.7394659 -0.29419669 -57.95703125 -5.45703125 C-38.20914351 -13.80358063 -18.28713878 -10.84830266 0 0 Z " fill="#FDCB72" transform="translate(340,95)"/>
<path d="M0 0 C0.23074219 0.53109375 0.46148437 1.0621875 0.69921875 1.609375 C3.53222961 7.74569892 6.2022056 10.73453092 12.48974609 13.57844543 C17.60785148 15.44209845 22.5162926 15.44019387 27.9140625 15.43237305 C29.51052361 15.44766052 29.51052361 15.44766052 31.13923645 15.46325684 C34.63454516 15.49329552 38.12957937 15.50263906 41.625 15.51171875 C44.05738225 15.52857215 46.48975582 15.54672328 48.92211914 15.56611633 C55.30724375 15.61355032 61.69233317 15.64340259 68.07757568 15.66955566 C74.59996486 15.69939434 81.12223292 15.74591337 87.64453125 15.79101562 C100.42962155 15.87697376 113.21474128 15.94491941 126 16 C126.00487864 17.60615746 126.00836571 19.21231919 126.01126099 20.81848145 C126.01335131 21.71291206 126.01544163 22.60734268 126.01759529 23.52887726 C125.93744659 34.78514294 124.89281587 48.39490562 117 57 C109.78261384 63.14245631 101.87067651 63.31532882 92.82324219 63.41748047 C91.71822861 63.43704803 90.61321503 63.4566156 89.47471619 63.47677612 C85.83215065 63.5364129 82.1897301 63.57937313 78.546875 63.6171875 C77.2982795 63.63033115 76.04968399 63.64347481 74.76325226 63.65701675 C69.51308416 63.70871916 64.2629371 63.75569065 59.01259995 63.78600883 C51.52279469 63.82979005 44.03586142 63.91373117 36.54720378 64.05288398 C30.62225091 64.15919491 24.69792392 64.19901767 18.7720108 64.21640396 C16.26331507 64.23348138 13.75466844 64.27104155 11.24660492 64.3298912 C-10.41283047 64.81084088 -10.41283047 64.81084088 -16.69155502 58.96165657 C-20.15872748 55.08464713 -21.91610393 52.34978827 -22.24224854 47.10250854 C-22.16230652 46.07868073 -22.0823645 45.05485291 -22 44 C-17.545 43.505 -17.545 43.505 -13 43 C-12.98018066 41.79875488 -12.96036133 40.59750977 -12.93994141 39.35986328 C-12.8640038 34.91303146 -12.77526868 30.46653195 -12.68261719 26.02001953 C-12.64427832 24.09365386 -12.60943418 22.1672154 -12.578125 20.24072266 C-12.53258055 17.47532082 -12.47456963 14.71042231 -12.4140625 11.9453125 C-12.40251129 11.0806839 -12.39096008 10.2160553 -12.37905884 9.32522583 C-12.22774341 3.22774341 -12.22774341 3.22774341 -10 1 C-6.61691776 0.38489414 -3.43885893 0 0 0 Z " fill="#AEDBFC" transform="translate(225,188)"/>
<path d="M0 0 C5.79809319 -0.26491196 11.59225191 -0.47234516 17.39501953 -0.60424805 C19.36443663 -0.65926781 21.33341049 -0.73411716 23.30126953 -0.82983398 C40.55563185 -1.6475141 40.55563185 -1.6475141 45.45776367 2.35693359 C47.96911467 5.11733091 49.99144627 7.8627225 52 11 C53.16266858 12.35504088 54.34522094 13.69379721 55.5625 15 C62.45168934 22.9465998 68.91866461 31.15145251 75.19262695 39.5859375 C79.74445153 45.69434085 84.40893328 51.71065399 89.10424805 57.70922852 C90.74108652 59.8023803 92.37186634 61.90007201 94 64 C94.5765332 64.73863281 95.15306641 65.47726562 95.74707031 66.23828125 C96.29717773 66.95371094 96.84728516 67.66914063 97.4140625 68.40625 C97.91115723 69.04884766 98.40825195 69.69144531 98.92041016 70.35351562 C100 72 100 72 100 74 C100.61875 73.79375 101.2375 73.5875 101.875 73.375 C102.57625 73.25125 103.2775 73.1275 104 73 C106 75 106 75 106 78 C106.89203125 77.86980469 107.7840625 77.73960937 108.703125 77.60546875 C109.87359375 77.46753906 111.0440625 77.32960938 112.25 77.1875 C113.41015625 77.03667969 114.5703125 76.88585937 115.765625 76.73046875 C119 77 119 77 121.421875 79.33203125 C123 82 123 82 123 84.5 C120.25338606 91.36653485 114.22631556 95.03153864 108.4375 99.1875 C107.57447266 99.81591797 106.71144531 100.44433594 105.82226562 101.09179688 C96.310538 108.00202635 96.310538 108.00202635 93.60546875 107.984375 C90.03748863 106.63635252 88.43950143 104.26238739 86.3125 101.25 C85.43395365 100.05702654 84.5550371 98.86432563 83.67578125 97.671875 C83.23186035 97.06021484 82.78793945 96.44855469 82.33056641 95.81835938 C80.27218468 93.00536358 78.13515401 90.25487458 76 87.5 C75.16623347 86.41700003 74.3329013 85.33366553 73.5 84.25 C73.0875 83.71375 72.675 83.1775 72.25 82.625 C64.33333333 72.33333333 56.41666667 62.04166667 48.5 51.75 C48.08709717 51.2132666 47.67419434 50.6765332 47.2487793 50.12353516 C46.4193575 49.04520574 45.59009198 47.96675611 44.76098633 46.88818359 C42.61910264 44.10226055 40.47416226 41.31877167 38.32421875 38.5390625 C37.88271484 37.96736328 37.44121094 37.39566406 36.98632812 36.80664062 C35.76645366 35.22722421 34.54537763 33.64873605 33.32421875 32.0703125 C30.8189981 28.76089497 28.41254988 25.37756983 26 22 C25.67 43.78 25.34 65.56 25 88 C25.66 88 26.32 88 27 88 C27 90.97 27 93.94 27 97 C27.886875 96.938125 28.77375 96.87625 29.6875 96.8125 C33.48970099 97.02771892 35.14929605 97.47509079 38 100 C39.0625 103.4375 39.0625 103.4375 39 107 C36.671174 110.74637227 33.74201708 111.61365983 29.56567383 112.60083008 C24.10430412 113.45051506 18.57506906 113.24300546 13.0625 113.1875 C11.81919922 113.18685547 10.57589844 113.18621094 9.29492188 113.18554688 C0.14050052 113.14050052 0.14050052 113.14050052 -1 112 C-1.10061564 109.17310203 -1.13615091 106.3706047 -1.12939453 103.54321289 C-1.13114685 102.6551445 -1.13289917 101.76707611 -1.13470459 100.85209656 C-1.13913257 97.89226365 -1.1361776 94.93248985 -1.1328125 91.97265625 C-1.13348628 89.90970346 -1.13445693 87.84675074 -1.13571167 85.78379822 C-1.13719073 81.43992362 -1.13503117 77.09606949 -1.13037109 72.75219727 C-1.12473407 67.23304346 -1.12791266 61.71393893 -1.13394356 56.19478703 C-1.1375956 51.92117457 -1.13638848 47.64757334 -1.13381577 43.37396049 C-1.13315609 41.3429711 -1.13394073 39.31198064 -1.13629532 37.28099251 C-1.14755205 24.81714363 -0.84413103 12.43652291 0 0 Z " fill="#12183B" transform="translate(156,232)"/>
<path d="M0 0 C0.02712325 2.87506421 0.04689851 5.74986908 0.0625 8.625 C0.07087891 9.43324219 0.07925781 10.24148437 0.08789062 11.07421875 C0.1058955 15.50341918 -0.10377338 19.63883424 -1 24 C-8.14786999 25.66858795 -15.31905618 26.94613934 -22.5625 28.125 C-23.66658203 28.30675781 -24.77066406 28.48851562 -25.90820312 28.67578125 C-28.60510949 29.11942818 -31.30236913 29.56078388 -34 30 C-34.33 31.98 -34.66 33.96 -35 36 C-36.98 36 -38.96 36 -41 36 C-41 34.35 -41 32.7 -41 31 C-44.81361209 31.63937875 -48.62567178 32.28757767 -52.4375 32.9375 C-53.52611328 33.11990234 -54.61472656 33.30230469 -55.73632812 33.49023438 C-57.28803711 33.75610352 -57.28803711 33.75610352 -58.87109375 34.02734375 C-59.82943115 34.18968506 -60.78776855 34.35202637 -61.77514648 34.51928711 C-63.96213392 34.78152632 -63.96213392 34.78152632 -65 36 C-65.14794419 38.94363177 -65.23510716 41.86675226 -65.28125 44.8125 C-65.29965942 45.69655518 -65.31806885 46.58061035 -65.33703613 47.49145508 C-65.39598101 50.32756698 -65.44871919 53.16373976 -65.5 56 C-65.56742738 59.72930121 -65.6410958 63.45839932 -65.71875 67.1875 C-65.73232544 68.05415283 -65.74590088 68.92080566 -65.7598877 69.8137207 C-65.88719819 75.88719819 -65.88719819 75.88719819 -67 77 C-68.51928038 77.07179964 -70.04167482 77.08392007 -71.5625 77.0625 C-72.80193359 77.04896484 -72.80193359 77.04896484 -74.06640625 77.03515625 C-75.02353516 77.01775391 -75.02353516 77.01775391 -76 77 C-76 78.98 -76 80.96 -76 83 C-76.93815552 81.78437378 -76.93815552 81.78437378 -77.89526367 80.54418945 C-80.9904415 77.47123084 -83.73859792 77.3799444 -87.970047 77.28105164 C-88.8629393 77.28498428 -89.7558316 77.28891693 -90.67578125 77.29296875 C-92.06351997 77.27028679 -92.06351997 77.27028679 -93.47929382 77.24714661 C-96.42394402 77.20428033 -99.36756891 77.19543264 -102.3125 77.1875 C-104.31317828 77.16435487 -106.31383219 77.1389895 -108.31445312 77.11132812 C-113.20972601 77.04848622 -118.10435937 77.01614261 -123 77 C-123 82.94 -123 88.88 -123 95 C-123.33 95 -123.66 95 -124 95 C-124 89.06 -124 83.12 -124 77 C-127.3 77 -130.6 77 -134 77 C-133.46246904 70.81839396 -131.45417612 65.673142 -129 60 C-127.98679688 59.90203125 -126.97359375 59.8040625 -125.9296875 59.703125 C-124.57802945 59.55294077 -123.22647183 59.40185077 -121.875 59.25 C-120.87726563 59.1571875 -120.87726563 59.1571875 -119.859375 59.0625 C-114.7849688 58.46551104 -111.95039809 57.02740788 -108 54 C-108.99 53.34 -109.98 52.68 -111 52 C-108.525 51.505 -108.525 51.505 -106 51 C-106 50.01 -106 49.02 -106 48 C-109.96 48.66 -113.92 49.32 -118 50 C-118 49.34 -118 48.68 -118 48 C-112.06 47.505 -112.06 47.505 -106 47 C-106.33 46.01 -106.66 45.02 -107 44 C-110.63 44.33 -114.26 44.66 -118 45 C-115.3144406 42.3144406 -112.62378672 41.93950026 -109 41 C-112.73974432 39.13012784 -117.46790828 39.69358166 -121.5 40.5 C-122.2425 40.7475 -122.2425 40.7475 -123 41 C-122.125 36.25 -122.125 36.25 -121 34 C-129.415 34.495 -129.415 34.495 -138 35 C-138.33 36.65 -138.66 38.3 -139 40 C-137.18884044 41.81115956 -134.38721773 41.38199448 -131.9375 41.5625 C-130.83277344 41.64628906 -129.72804687 41.73007813 -128.58984375 41.81640625 C-127.73519531 41.87699219 -126.88054687 41.93757813 -126 42 C-127.58356515 49.76186858 -129.39547042 56.91902057 -133 64 C-142.18978029 64.52792355 -151.09422854 63.46028936 -158.4609375 57.47265625 C-163.45000185 52.6988561 -165.24478668 48.66855624 -165.59179688 41.77172852 C-165.68461804 35.42098645 -165.67311283 29.71681819 -161.53125 24.5625 C-160.77328125 23.7890625 -160.77328125 23.7890625 -160 23 C-159.27296875 22.195625 -159.27296875 22.195625 -158.53125 21.375 C-147.92605311 10.97774814 -133.37303579 10.68999396 -119.48364258 10.60400391 C-111.21208262 10.69450898 -105.16675698 11.67636233 -98 16 C-96.6707676 16.67480623 -95.33880223 17.34438518 -94 18 C-93.62446352 24.38412017 -93.62446352 24.38412017 -95.5625 27.5625 C-97.30757351 29.98881526 -97.30757351 29.98881526 -96.75 33.1875 C-96.12093174 35.92618063 -96.12093174 35.92618063 -95 38 C-94.01 38 -93.02 38 -92 38 C-91.34 37.01 -90.68 36.02 -90 35 C-86.375 34.8125 -86.375 34.8125 -83 35 C-83.37106227 28.73059552 -83.37106227 28.73059552 -87 24 C-87.3984375 21.1484375 -87.3984375 21.1484375 -87 18 C-79.66160318 10.59090572 -70.01130661 9.97240196 -60.24414062 9.21240234 C-56.504869 8.85848956 -52.82265881 8.21126884 -49.125 7.5625 C-47.6224847 7.30287059 -46.11987957 7.04376058 -44.6171875 6.78515625 C-43.48555176 6.59010498 -43.48555176 6.59010498 -42.33105469 6.39111328 C-39.12022617 5.85238818 -35.90240748 5.36364305 -32.68408203 4.87207031 C-25.06361613 3.70721675 -17.57838102 2.35195111 -10.078125 0.55078125 C-6.66615089 -0.05973696 -3.4590783 -0.09125709 0 0 Z " fill="#4A47D7" transform="translate(279,155)"/>
<path d="M0 0 C1.9068029 0.03466873 1.9068029 0.03466873 3.85212708 0.07003784 C6.53831374 0.12292676 9.22291092 0.1834646 11.90844727 0.2578125 C15.31582001 0.35183202 18.72306756 0.42037242 22.13120556 0.47952461 C25.42103847 0.53845653 28.71048545 0.61311683 32 0.6875 C33.20665817 0.71159943 34.41331635 0.73569885 35.65653992 0.76052856 C55.22882807 1.3147094 55.22882807 1.3147094 60.5859375 5.28125 C62.37427578 9.53065569 62.13359569 13.07543098 61.76953125 17.6171875 C61.71079834 18.52460693 61.65206543 19.43202637 61.59155273 20.36694336 C61.07875905 27.53566467 60.28543803 34.67402634 59.39453125 41.8046875 C59.27263428 42.78550293 59.1507373 43.76631836 59.02514648 44.77685547 C58.90083252 45.6948291 58.77651855 46.61280273 58.6484375 47.55859375 C58.53959229 48.36756104 58.43074707 49.17652832 58.31860352 50.01000977 C57.80258169 52.37728901 57.08776872 54.17288972 55.83203125 56.2421875 C53.32035987 57.49802319 51.48423306 57.41681876 48.67578125 57.48828125 C47.65355469 57.52115234 46.63132812 57.55402344 45.578125 57.58789062 C43.41416936 57.64908552 41.25009983 57.70637775 39.0859375 57.75976562 C38.06371094 57.79392578 37.04148438 57.82808594 35.98828125 57.86328125 C35.04791016 57.8883374 34.10753906 57.91339355 33.13867188 57.93920898 C30.63881662 58.02940421 30.63881662 58.02940421 28.83203125 60.2421875 C27.89644845 62.52453281 27.03446888 64.79588194 26.20703125 67.1171875 C23.75517728 73.82990907 21.18009081 80.48438971 18.51953125 87.1171875 C18.17003418 87.99101074 17.82053711 88.86483398 17.46044922 89.76513672 C14.96973932 95.96677136 14.96973932 95.96677136 13.83203125 98.2421875 C12.84203125 98.2421875 11.85203125 98.2421875 10.83203125 98.2421875 C10.77668213 97.06599854 10.72133301 95.88980957 10.66430664 94.67797852 C10.45845234 90.32992242 10.24641488 85.98218641 10.0324707 81.63452148 C9.94060234 79.74983791 9.85042962 77.86507092 9.76196289 75.98022461 C9.63479155 73.27694546 9.50160078 70.57402125 9.3671875 67.87109375 C9.30930809 66.59921959 9.30930809 66.59921959 9.2502594 65.301651 C9.40995851 61.45633467 9.40995851 61.45633467 7.83203125 58.2421875 C5.89152902 58.13264302 3.9473962 58.08629911 2.00390625 58.06640625 C0.81152344 58.04255859 -0.38085938 58.01871094 -1.609375 57.99414062 C-4.1326447 57.95143914 -6.65613304 57.92004448 -9.1796875 57.90039062 C-10.37722656 57.87267578 -11.57476562 57.84496094 -12.80859375 57.81640625 C-14.45649902 57.79453247 -14.45649902 57.79453247 -16.13769531 57.7722168 C-19.82256012 57.12769202 -21.50159907 55.81504783 -24.16796875 53.2421875 C-27.82755438 45.92301623 -24.96057443 32.91904029 -24.35546875 24.9296875 C-24.28545654 23.91632324 -24.21544434 22.90295898 -24.14331055 21.85888672 C-23.05134624 8.57023635 -23.05134624 8.57023635 -20.16796875 4.2421875 C-13.89424804 -0.77974992 -7.76919453 -0.23142487 0 0 Z " fill="#FD5C4F" transform="translate(53.16796875,49.7578125)"/>
<path d="M0 0 C0.00386719 1.46759766 0.00386719 1.46759766 0.0078125 2.96484375 C0.25357776 11.29628593 0.83408203 17.83408203 7 24 C14.28787153 29.92565255 23.02391281 30.33108518 32 30 C32.33773437 28.90300781 32.67546875 27.80601562 33.0234375 26.67578125 C33.47385102 25.22132093 33.92437784 23.76689569 34.375 22.3125 C34.70757812 21.2306543 34.70757812 21.2306543 35.046875 20.12695312 C36.22052719 16.3471027 37.45903232 12.65079726 39 9 C38.15695313 9.02320313 37.31390625 9.04640625 36.4453125 9.0703125 C34.80175781 9.09738281 34.80175781 9.09738281 33.125 9.125 C32.03445312 9.14820313 30.94390625 9.17140625 29.8203125 9.1953125 C27 9 27 9 25 7 C25.55555556 2.44444444 25.55555556 2.44444444 27 1 C29.86267567 0.92674832 32.700719 0.90761795 35.5625 0.9375 C36.36880859 0.94201172 37.17511719 0.94652344 38.00585938 0.95117188 C40.00393756 0.96299482 42.00197783 0.98093086 44 1 C43.34 3.31 42.68 5.62 42 8 C42.495 7.67 42.99 7.34 43.5 7 C47.21669939 5.51332025 49.9941956 5.68207902 54 6 C56 7.5 56 7.5 57 9 C54.36 9.66 51.72 10.32 49 11 C53.455 10.505 53.455 10.505 58 10 C58.495 11.98 58.495 11.98 59 14 C54.9472484 14.98248524 51.16138263 15.08159574 47 15 C47 15.66 47 16.32 47 17 C49.9296875 16.21875 49.9296875 16.21875 52.859375 15.4375 C55 15 55 15 59 15 C59 15.99 59 16.98 59 18 C57.515 18.495 57.515 18.495 56 19 C56.99 19.99 56.99 19.99 58 21 C51.33513299 27.05897001 44.58775375 27.31102529 36 27 C35.54105193 28.52064794 35.08287786 30.04152948 34.625 31.5625 C34.36976563 32.40941406 34.11453125 33.25632813 33.8515625 34.12890625 C32.915475 37.10733319 32.915475 37.10733319 32.3046875 40.67578125 C31 44 31 44 28.15625 45.6015625 C26.9496875 45.93929687 25.743125 46.27703125 24.5 46.625 C23.84362549 46.81755371 23.18725098 47.01010742 22.51098633 47.20849609 C20.34783977 47.83507666 18.17552089 48.41797139 16 49 C14.45120346 49.43530197 12.90303183 49.87283303 11.35546875 50.3125 C8.27842224 51.18224678 5.19658339 52.03037363 2.109375 52.86328125 C-1.15063256 53.74934597 -4.35463891 54.75151489 -7.5625 55.8125 C-13.37717865 57.5569036 -18.54108229 58.25454985 -24.0625 55.4375 C-26 53 -26 53 -26.625 49.5625 C-25.83181006 45.04131736 -24.54064874 43.86265217 -21 41 C-20.37609375 40.60167969 -19.7521875 40.20335937 -19.109375 39.79296875 C-17.26258433 38.61057228 -15.58263507 37.52022129 -14 36 C-13.33112827 32.82876903 -13.33112827 32.82876903 -14 30 C-15.90667768 28.09332232 -19.1892267 28.15828186 -21.7734375 27.6953125 C-24.32241809 26.89931505 -25.38046312 26.10388435 -27 24 C-27.6875 20.8125 -27.6875 20.8125 -27 17 C-22.61167851 10.22789893 -8.53302453 0 0 0 Z " fill="#E03451" transform="translate(114,188)"/>
<path d="M0 0 C0.88602402 0.00222061 1.77204803 0.00444122 2.68492126 0.00672913 C3.68588333 0.00680466 4.6868454 0.00688019 5.71813965 0.00695801 C6.80666733 0.01211929 7.89519501 0.01728058 9.01670837 0.02259827 C10.67928932 0.02472069 10.67928932 0.02472069 12.37545776 0.02688599 C15.93168281 0.03250418 19.48784596 0.04505977 23.04405212 0.05775452 C25.44834809 0.06276717 27.85264504 0.06733048 30.25694275 0.07142639 C36.16516716 0.08247952 42.07335522 0.09923535 47.98155212 0.12025452 C47.33186462 0.87048889 46.68217712 1.62072327 46.01280212 2.39369202 C43.6946198 5.04798365 43.6946198 5.04798365 43.48155212 8.74525452 C43.70165569 12.06132895 43.70165569 12.06132895 45.41905212 14.05775452 C52.29236197 16.90766348 59.53785831 14.71037774 66.29405212 12.49525452 C67.57904602 12.09572571 67.57904602 12.09572571 68.88999939 11.68812561 C72.48362333 10.56943936 76.06651055 9.42045531 79.64268494 8.24720764 C90.14770882 4.80408945 98.82443971 2.32331792 109.98155212 3.12025452 C109.98155212 9.06025452 109.98155212 15.00025452 109.98155212 21.12025452 C72.69155212 21.12025452 35.40155212 21.12025452 -3.01844788 21.12025452 C-3.01844788 0.17983223 -3.01844788 0.17983223 0 0 Z " fill="#71A0E5" transform="translate(45.01844787597656,228.87974548339844)"/>
<path d="M0 0 C9.80391669 7.16332022 19.0552146 14.98265312 28.22900391 22.92626953 C31.08350639 25.39155884 33.93953124 27.7892437 37 30 C33.87866564 37.14985457 27.28169784 40.07855164 20.3125 42.8125 C12.80770201 45.58972465 6.30946828 46.18209505 -1.625 46.1875 C-2.57890625 46.19974609 -3.5328125 46.21199219 -4.515625 46.22460938 C-5.88847656 46.22750977 -5.88847656 46.22750977 -7.2890625 46.23046875 C-8.53743896 46.23663208 -8.53743896 46.23663208 -9.81103516 46.24291992 C-12 46 -12 46 -15 44 C-13.20963542 43.05598958 -11.41927083 42.11197917 -9.62890625 41.16796875 C-7.67732013 40.00980201 -7.67732013 40.00980201 -7 37 C-6.09594663 30.79105561 -6.09594663 30.79105561 -8.33984375 25.234375 C-10.15294213 23.69098885 -10.15294213 23.69098885 -13 22 C-12.38252846 18.99227571 -11.41836266 16.77273493 -9.78515625 14.1796875 C-9.34623047 13.47972656 -8.90730469 12.77976563 -8.45507812 12.05859375 C-7.99552734 11.33800781 -7.53597656 10.61742187 -7.0625 9.875 C-6.60681641 9.14667969 -6.15113281 8.41835937 -5.68164062 7.66796875 C-2.28148496 2.28148496 -2.28148496 2.28148496 0 0 Z " fill="#FE03BE" transform="translate(307,133)"/>
<path d="M0 0 C8.58 0 17.16 0 26 0 C26 1.32 26 2.64 26 4 C26.66 4 27.32 4 28 4 C28 6.97 28 9.94 28 13 C28.886875 12.938125 29.77375 12.87625 30.6875 12.8125 C34.48970099 13.02771892 36.14929605 13.47509079 39 16 C40.0625 19.4375 40.0625 19.4375 40 23 C37.671174 26.74637227 34.74201708 27.61365983 30.56567383 28.60083008 C25.10430412 29.45051506 19.57506906 29.24300546 14.0625 29.1875 C12.81919922 29.18685547 11.57589844 29.18621094 10.29492188 29.18554688 C1.14050052 29.14050052 1.14050052 29.14050052 0 28 C-0.08767112 25.92737924 -0.10695873 23.85179706 -0.09765625 21.77734375 C-0.09443359 20.51728516 -0.09121094 19.25722656 -0.08789062 17.95898438 C-0.07953403 16.61848891 -0.07106907 15.27799412 -0.0625 13.9375 C-0.0574866 12.59310058 -0.05292342 11.2486994 -0.04882812 9.90429688 C-0.03699497 6.60284567 -0.01905886 3.3014174 0 0 Z " fill="#7CB8CA" transform="translate(155,316)"/>
<path d="M0 0 C0 0.66 0 1.32 0 2 C0.61875 1.79375 1.2375 1.5875 1.875 1.375 C2.926875 1.189375 2.926875 1.189375 4 1 C6 3 6 3 6 6 C6.89203125 5.86980469 7.7840625 5.73960937 8.703125 5.60546875 C9.87359375 5.46753906 11.0440625 5.32960938 12.25 5.1875 C13.41015625 5.03667969 14.5703125 4.88585937 15.765625 4.73046875 C19 5 19 5 21.421875 7.33203125 C23 10 23 10 23 12.5 C20.25338606 19.36653485 14.22631556 23.03153864 8.4375 27.1875 C7.57447266 27.81591797 6.71144531 28.44433594 5.82226562 29.09179688 C-3.6838047 35.99791634 -3.6838047 35.99791634 -6.37109375 36.015625 C-10.09800559 34.57580765 -11.82881636 31.90546654 -14.0625 28.75 C-14.90721165 27.59870848 -15.7522593 26.4476634 -16.59765625 25.296875 C-16.99871582 24.73806641 -17.39977539 24.17925781 -17.81298828 23.60351562 C-18.91786752 22.11095148 -20.11061457 20.68455127 -21.30859375 19.265625 C-23 17 -23 17 -23 14 C-21.59472656 12.69726562 -21.59472656 12.69726562 -19.640625 11.40625 C-18.93679687 10.93316406 -18.23296875 10.46007812 -17.5078125 9.97265625 C-16.76273438 9.48667969 -16.01765625 9.00070312 -15.25 8.5 C-13.79648004 7.53184271 -12.34334352 6.56310945 -10.890625 5.59375 C-10.20677734 5.14386719 -9.52292969 4.69398438 -8.81835938 4.23046875 C-7.39336188 3.26618473 -6.02072001 2.22446283 -4.671875 1.15625 C-3 0 -3 0 0 0 Z " fill="#7EBBCD" transform="translate(256,304)"/>
<path d="M0 0 C-0.22874672 12.70584055 -2.81981044 23.81981044 -12 33 C-15.39875805 31.06969491 -18.2568682 29.02502292 -21.125 26.375 C-24.52701895 23.28997449 -27.99609347 20.33118629 -31.5625 17.4375 C-32.47773438 16.68984375 -33.39296875 15.9421875 -34.3359375 15.171875 C-36.04383818 13.77951023 -37.75694302 12.39349045 -39.4765625 11.015625 C-40.20617187 10.41234375 -40.93578125 9.8090625 -41.6875 9.1875 C-42.33074219 8.66542969 -42.97398437 8.14335937 -43.63671875 7.60546875 C-45 6 -45 6 -45 2 C-45.66 1.67 -46.32 1.34 -47 1 C-31.32340614 0.29920351 -15.69255861 -0.1499289 0 0 Z " fill="#FDF566" transform="translate(357,131)"/>
<path d="M0 0 C0.75067245 0.00045319 1.50134491 0.00090637 2.27476501 0.00137329 C3.06173767 -0.00198532 3.84871033 -0.00534393 4.65953064 -0.00880432 C7.27421119 -0.01834283 9.88882789 -0.02025888 12.50352478 -0.02133179 C14.31334459 -0.02454235 16.12316414 -0.02790626 17.9329834 -0.03141785 C21.73197532 -0.03741638 25.53094447 -0.03925701 29.3299408 -0.03866577 C34.20725876 -0.03856411 39.08443128 -0.05221764 43.96171474 -0.06943798 C47.70110754 -0.08053529 51.44046493 -0.08258568 55.17987251 -0.08205605 C56.97847559 -0.08323955 58.77707948 -0.08768189 60.57566643 -0.09538841 C63.08744988 -0.10514276 65.59891436 -0.10232847 68.11070251 -0.09628296 C68.85935074 -0.10190247 69.60799896 -0.10752197 70.3793335 -0.11331177 C75.52911543 -0.08167864 75.52911543 -0.08167864 77.75743103 2.14663696 C78.08495337 4.86118652 77.88827353 7.39894455 77.75743103 10.14663696 C76.10238352 11.80168447 74.17078941 11.27667459 71.89024353 11.27944946 C70.80066345 11.28154419 69.71108337 11.28363892 68.58848572 11.28579712 C67.36548767 11.28112427 66.14248962 11.27645142 64.88243103 11.27163696 C62.97059021 11.26656128 62.97059021 11.26656128 61.02012634 11.26138306 C48.34811817 11.20808747 35.67620661 11.03421115 23.00590515 10.82723999 C20.66989354 10.79011257 18.33382959 10.75614623 15.99772644 10.72531128 C12.68300791 10.68017434 9.36875713 10.62215182 6.05430603 10.56069946 C5.04413422 10.54913818 4.0339624 10.5375769 2.99317932 10.52566528 C2.06814606 10.50580566 1.14311279 10.48594604 0.19004822 10.46548462 C-0.62103394 10.45216095 -1.43211609 10.43883728 -2.26777649 10.42510986 C-4.24256897 10.14663696 -4.24256897 10.14663696 -6.24256897 8.14663696 C-6.43006897 4.58413696 -6.43006897 4.58413696 -6.24256897 1.14663696 C-4.51638283 -0.57954918 -2.30200155 0.01443758 0 0 Z " fill="#71A1E6" transform="translate(243.24256896972656,213.85336303710938)"/>
<path d="M0 0 C0.75067245 0.00045319 1.50134491 0.00090637 2.27476501 0.00137329 C3.06173767 -0.00198532 3.84871033 -0.00534393 4.65953064 -0.00880432 C7.27421119 -0.01834283 9.88882789 -0.02025888 12.50352478 -0.02133179 C14.31334459 -0.02454235 16.12316414 -0.02790626 17.9329834 -0.03141785 C21.73197532 -0.03741638 25.53094447 -0.03925701 29.3299408 -0.03866577 C34.20725876 -0.03856411 39.08443128 -0.05221764 43.96171474 -0.06943798 C47.70110754 -0.08053529 51.44046493 -0.08258568 55.17987251 -0.08205605 C56.97847559 -0.08323955 58.77707948 -0.08768189 60.57566643 -0.09538841 C63.08744988 -0.10514276 65.59891436 -0.10232847 68.11070251 -0.09628296 C68.85935074 -0.10190247 69.60799896 -0.10752197 70.3793335 -0.11331177 C75.52911543 -0.08167864 75.52911543 -0.08167864 77.75743103 2.14663696 C77.94493103 5.70913696 77.94493103 5.70913696 77.75743103 9.14663696 C75.94842262 10.95564537 73.46696367 10.27532977 71.05879211 10.28543091 C70.24391327 10.28345703 69.42903442 10.28148315 68.58946228 10.27944946 C67.31300339 10.28156433 67.31300339 10.28156433 66.01075745 10.28372192 C63.19710807 10.28587912 60.38356926 10.27951258 57.56993103 10.27163696 C56.13739487 10.26931061 56.13739487 10.26931061 54.67591858 10.26693726 C41.34814111 10.24158789 28.02183611 10.12662649 14.69721985 9.82723999 C13.03063864 9.79020711 11.36398683 9.75622485 9.69728088 9.72531128 C7.38231681 9.68061221 5.06807797 9.62283857 2.75352478 9.56069946 C1.44569031 9.52927856 0.13785583 9.49785767 -1.20960999 9.46548462 C-4.24256897 9.14663696 -4.24256897 9.14663696 -6.24256897 7.14663696 C-6.43006897 4.08413696 -6.43006897 4.08413696 -6.24256897 1.14663696 C-4.51638283 -0.57954918 -2.30200155 0.01443758 0 0 Z " fill="#71A1E6" transform="translate(243.24256896972656,231.85336303710938)"/>
<path d="M0 0 C1.8125 0.125 1.8125 0.125 4 1 C5.625 3.9375 5.625 3.9375 7 7 C7.66 7.66 8.32 8.32 9 9 C9 9.99 9 10.98 9 12 C6.03 11.34 3.06 10.68 0 10 C0.99 11.485 0.99 11.485 2 13 C0.68 13.33 -0.64 13.66 -2 14 C0.97 14.495 0.97 14.495 4 15 C3.4375 16.9375 3.4375 16.9375 2 19 C-1.625 19.75 -1.625 19.75 -5 20 C-4.34 20.66 -3.68 21.32 -3 22 C-3.99 22.33 -4.98 22.66 -6 23 C-3.525 24.98 -3.525 24.98 -1 27 C1.18954675 26.01847904 2.76467978 25.27362817 4.34375 23.4375 C6.54412246 21.52774277 7.82107764 21.68787294 10.6875 21.8125 C11.49574219 21.83957031 12.30398437 21.86664063 13.13671875 21.89453125 C13.75160156 21.92933594 14.36648437 21.96414062 15 22 C6.55172414 29 6.55172414 29 3 29 C4.12697043 33.96911366 4.12697043 33.96911366 7 38 C7.26991906 40.68839385 7.08737357 43.29141936 7 46 C5.329375 46.1546875 5.329375 46.1546875 3.625 46.3125 C2.42875 46.539375 1.2325 46.76625 0 47 C-0.66 47.99 -1.32 48.98 -2 50 C-4.57547398 49.65660347 -5.68894113 49.39993284 -7.3125 47.3125 C-8.23397949 44.21297808 -7.79406762 42.11009818 -7 39 C-6.34 38.01 -5.68 37.02 -5 36 C-4.60612212 33.67612053 -4.26513915 31.34206251 -4 29 C-7.57847037 27.54767747 -11.18060107 26.18773455 -14.8125 24.875 C-15.78832031 24.52179688 -16.76414063 24.16859375 -17.76953125 23.8046875 C-18.50558594 23.53914063 -19.24164063 23.27359375 -20 23 C-20 22.67 -20 22.34 -20 22 C-17.69 22 -15.38 22 -13 22 C-13.0825 20.741875 -13.165 19.48375 -13.25 18.1875 C-13.26171875 15.9609375 -13.26171875 15.9609375 -13 14 C-11.0625 12.3125 -11.0625 12.3125 -9 11 C-8.855625 10.154375 -8.71125 9.30875 -8.5625 8.4375 C-8.376875 7.633125 -8.19125 6.82875 -8 6 C-5.625 4.9375 -5.625 4.9375 -3 4 C-1.19651922 1.98682781 -1.19651922 1.98682781 0 0 Z " fill="#DC3455" transform="translate(189,144)"/>
<path d="M0 0 C1.58206057 0.00667536 3.16410534 0.0186375 4.74609375 0.03515625 C5.55240234 0.03966797 6.35871094 0.04417969 7.18945312 0.04882812 C9.18753131 0.06065107 11.18557158 0.07858711 13.18359375 0.09765625 C12.52359375 2.40765625 11.86359375 4.71765625 11.18359375 7.09765625 C11.67859375 6.76765625 12.17359375 6.43765625 12.68359375 6.09765625 C16.40029314 4.6109765 19.17778935 4.77973527 23.18359375 5.09765625 C25.18359375 6.59765625 25.18359375 6.59765625 26.18359375 8.09765625 C23.54359375 8.75765625 20.90359375 9.41765625 18.18359375 10.09765625 C22.63859375 9.60265625 22.63859375 9.60265625 27.18359375 9.09765625 C27.67859375 11.07765625 27.67859375 11.07765625 28.18359375 13.09765625 C24.13084215 14.08014149 20.34497638 14.17925199 16.18359375 14.09765625 C16.18359375 14.75765625 16.18359375 15.41765625 16.18359375 16.09765625 C18.13671875 15.57682292 20.08984375 15.05598958 22.04296875 14.53515625 C24.18359375 14.09765625 24.18359375 14.09765625 28.18359375 14.09765625 C28.18359375 15.08765625 28.18359375 16.07765625 28.18359375 17.09765625 C27.19359375 17.42765625 26.20359375 17.75765625 25.18359375 18.09765625 C25.84359375 18.75765625 26.50359375 19.41765625 27.18359375 20.09765625 C19.84876923 26.76567855 12.62516075 26.37671734 3.18359375 26.09765625 C4.28288325 19.78644122 5.76497317 14.03427041 8.18359375 8.09765625 C7.34054688 8.12085938 6.4975 8.1440625 5.62890625 8.16796875 C3.98535156 8.19503906 3.98535156 8.19503906 2.30859375 8.22265625 C1.21804687 8.24585938 0.1275 8.2690625 -0.99609375 8.29296875 C-3.81640625 8.09765625 -3.81640625 8.09765625 -5.81640625 6.09765625 C-5.0886691 0.13021159 -5.0886691 0.13021159 0 0 Z " fill="#E39688" transform="translate(144.81640625,188.90234375)"/>
<path d="M0 0 C1.43626762 0.0022191 2.87254813 0.01761945 4.30859375 0.04296875 C5.47092529 0.05589966 5.47092529 0.05589966 6.65673828 0.0690918 C9.35364479 0.10821926 12.0496124 0.16874152 14.74609375 0.23046875 C15.8129541 0.24980469 16.87981445 0.26914063 17.97900391 0.2890625 C21.36042351 0.35548935 24.74043197 0.44566412 28.12109375 0.54296875 C29.75220093 0.57644409 29.75220093 0.57644409 31.41625977 0.6105957 C32.95237915 0.66413208 32.95237915 0.66413208 34.51953125 0.71875 C35.43138184 0.74493408 36.34323242 0.77111816 37.28271484 0.7980957 C40.17611974 1.30594705 41.4713939 2.43076084 43.74609375 4.23046875 C46.07524198 4.5918883 48.40862853 4.927464 50.74609375 5.23046875 C52.74609375 7.23046875 52.74609375 7.23046875 52.74609375 10.23046875 C14.60696444 10.4203901 14.60696444 10.4203901 2.93359375 9.79296875 C1.80957153 9.73411499 1.80957153 9.73411499 0.6628418 9.67407227 C-4.11430851 9.37006649 -4.11430851 9.37006649 -5.25390625 8.23046875 C-5.44140625 5.29296875 -5.44140625 5.29296875 -5.25390625 2.23046875 C-3.25390625 0.23046875 -3.25390625 0.23046875 0 0 Z " fill="#72A1E6" transform="translate(48.25390625,210.76953125)"/>
<path d="M0 0 C0.33 0.66 0.66 1.32 1 2 C1.61875 2.309375 2.2375 2.61875 2.875 2.9375 C5.17289698 4.08644849 6.39731407 4.99664259 8 7 C8.7716849 11.46366758 8.49167594 15.71617949 6.875 19.9375 C4.38078732 22.68113395 2.55027463 23.86123266 -1 25 C-3.85123525 24.77078305 -6.36004715 24.08853547 -9 23 C-9.89976562 22.66613281 -10.79953125 22.33226562 -11.7265625 21.98828125 C-14 20 -14 20 -14.3972168 18.0703125 C-14.49369137 15.63284229 -14.43496911 13.24869323 -14.3125 10.8125 C-14.28994141 9.96751953 -14.26738281 9.12253906 -14.24414062 8.25195312 C-14.18524963 6.16721202 -14.09556798 4.08338196 -14 2 C-14.66 1.67 -15.32 1.34 -16 1 C-8.08 0.505 -8.08 0.505 0 0 Z " fill="#E69786" transform="translate(293,153)"/>
<path d="M0 0 C2.9375 2.0625 2.9375 2.0625 5 5 C5.0625 8.625 5.0625 8.625 4 12 C1.06721958 14.76652302 -1.60700049 15.55148087 -5.5 16.375 C-10.29967212 17.57332451 -12.22780341 18.78626118 -15 23 C-17.25 23.8125 -17.25 23.8125 -19 24 C-19 25.65 -19 27.3 -19 29 C-20.65 29.33 -22.3 29.66 -24 30 C-26.02003591 25.95992818 -25.71570636 21.37113225 -25 17 C-23.14545443 13.76967879 -20.77033106 11.46251649 -18 9 C-17.08541016 8.14921875 -17.08541016 8.14921875 -16.15234375 7.28125 C-6.77338099 -1.12889683 -6.77338099 -1.12889683 0 0 Z " fill="#150756" transform="translate(200,127)"/>
<path d="M0 0 C1.8125 0.125 1.8125 0.125 4 1 C5.625 3.9375 5.625 3.9375 7 7 C7.66 7.66 8.32 8.32 9 9 C9 9.99 9 10.98 9 12 C6.03 11.34 3.06 10.68 0 10 C0.99 11.485 0.99 11.485 2 13 C0.68 13.33 -0.64 13.66 -2 14 C0.97 14.495 0.97 14.495 4 15 C3.4375 16.9375 3.4375 16.9375 2 19 C-1.625 19.75 -1.625 19.75 -5 20 C-4.34 20.66 -3.68 21.32 -3 22 C-6.3 22 -9.6 22 -13 22 C-13.35176374 16.63560295 -13.35176374 16.63560295 -13 14 C-11.0625 12.3125 -11.0625 12.3125 -9 11 C-8.855625 10.154375 -8.71125 9.30875 -8.5625 8.4375 C-8.376875 7.633125 -8.19125 6.82875 -8 6 C-5.625 4.9375 -5.625 4.9375 -3 4 C-1.19651922 1.98682781 -1.19651922 1.98682781 0 0 Z " fill="#E29585" transform="translate(189,144)"/>
<path d="M0 0 C1.58206057 0.00667536 3.16410534 0.0186375 4.74609375 0.03515625 C5.55240234 0.03966797 6.35871094 0.04417969 7.18945312 0.04882812 C9.18753131 0.06065107 11.18557158 0.07858711 13.18359375 0.09765625 C12.52359375 2.73765625 11.86359375 5.37765625 11.18359375 8.09765625 C8.72496974 8.15149473 6.26751825 8.19124663 3.80859375 8.22265625 C2.76058594 8.24779297 2.76058594 8.24779297 1.69140625 8.2734375 C-0.14538111 8.29109892 -1.98242588 8.20068886 -3.81640625 8.09765625 C-4.47640625 7.43765625 -5.13640625 6.77765625 -5.81640625 6.09765625 C-5.0886691 0.13021159 -5.0886691 0.13021159 0 0 Z " fill="#DA3459" transform="translate(144.81640625,188.90234375)"/>
<path d="M0 0 C1.97909398 -0.02686553 3.95828971 -0.04633375 5.9375 -0.0625 C7.03964844 -0.07410156 8.14179688 -0.08570313 9.27734375 -0.09765625 C12 0 12 0 13 1 C13 2.65 13 4.3 13 6 C9.04 5.67 5.08 5.34 1 5 C0.67 3.35 0.34 1.7 0 0 Z " fill="#A5695F" transform="translate(288,159)"/>
<path d="M0 0 C0.763125 0.20625 1.52625 0.4125 2.3125 0.625 C2.9375 3 2.9375 3 3.3125 5.625 C1.3125 7.625 1.3125 7.625 -1.75 7.8125 C-4.6875 7.625 -4.6875 7.625 -5.6875 6.625 C-5.9375 4.1875 -5.9375 4.1875 -5.6875 1.625 C-2.6875 -0.375 -2.6875 -0.375 0 0 Z " fill="#3567D0" transform="translate(68.6875,34.375)"/>
<path d="M0 0 C0.66 0 1.32 0 2 0 C4 2 4 2 4 5 C4.66 5 5.32 5 6 5 C4.9024777 7.99324263 4.32317108 8.84610901 1.375 10.25 C0.59125 10.4975 -0.1925 10.745 -1 11 C-1.66 8.36 -2.32 5.72 -3 3 C-2.34 3 -1.68 3 -1 3 C-0.67 2.01 -0.34 1.02 0 0 Z " fill="#365159" transform="translate(258,305)"/>
<path d="M0 0 C3.0625 0.1875 3.0625 0.1875 5.0625 2.1875 C4.52678571 5.72321429 4.52678571 5.72321429 3.0625 7.1875 C0.0625 7.3125 0.0625 7.3125 -2.9375 7.1875 C-3.9375 6.1875 -3.9375 6.1875 -4.0625 3.6875 C-3.88162605 0.07002102 -3.66418153 0.23388393 0 0 Z " fill="#3366CF" transform="translate(92.9375,34.8125)"/>
<path d="M0 0 C3 0.125 3 0.125 4 1.125 C4.125 3.625 4.125 3.625 4 6.125 C3 7.125 3 7.125 0 7.25 C-3 7.125 -3 7.125 -4 6.125 C-4.125 3.625 -4.125 3.625 -4 1.125 C-3 0.125 -3 0.125 0 0 Z " fill="#3164CF" transform="translate(120,34.875)"/>
<path d="M0 0 C4.29 0 8.58 0 13 0 C11.35 1.98 9.7 3.96 8 6 C4.33759908 4.43039961 3.06096354 3.06096354 0 0 Z " fill="#5646D0" transform="translate(182,166)"/>
<path d="M0 0 C0.66 0.99 1.32 1.98 2 3 C2.70125 3.825 3.4025 4.65 4.125 5.5 C6 8 6 8 6 11 C1.545 10.01 1.545 10.01 -3 9 C-2.67 7.02 -2.34 5.04 -2 3 C-1.34 3 -0.68 3 0 3 C0 2.01 0 1.02 0 0 Z " fill="#D18B7E" transform="translate(192,145)"/>
<path d="M0 0 C1.67542976 0.28604898 3.34385343 0.61781233 5 1 C5.625 2.875 5.625 2.875 6 5 C5.34 5.66 4.68 6.32 4 7 C1.375 6.625 1.375 6.625 -1 6 C-1.042721 4.33388095 -1.04063832 2.66617115 -1 1 C-0.67 0.67 -0.34 0.34 0 0 Z " fill="#CBDCD4" transform="translate(161,328)"/>
<path d="M0 0 C2.125 0.375 2.125 0.375 4 1 C4.38218767 2.65614657 4.71395102 4.32457024 5 6 C4 7 4 7 1.4375 7.0625 C0.2309375 7.0315625 0.2309375 7.0315625 -1 7 C-1.625 4.625 -1.625 4.625 -2 2 C-1.34 1.34 -0.68 0.68 0 0 Z " fill="#CBDCD4" transform="translate(248,323)"/>
<path d="M0 0 C0.99 0 1.98 0 3 0 C2.67 5.61 2.34 11.22 2 17 C1.34 17 0.68 17 0 17 C0 11.39 0 5.78 0 0 Z " fill="#29297E" transform="translate(212,174)"/>
<path d="M0 0 C5.875 1.875 5.875 1.875 7 3 C7.04063832 4.66617115 7.042721 6.33388095 7 8 C4.36 7.34 1.72 6.68 -1 6 C-0.67 5.34 -0.34 4.68 0 4 C0 3.67 0 3.34 0 3 C0 2.01 0 1.02 0 0 Z " fill="#6F4859" transform="translate(188,152)"/>
<path d="M0 0 C0 1.98 0 3.96 0 6 C-1.98 6 -3.96 6 -6 6 C-6 4.35 -6 2.7 -6 1 C-1.125 0 -1.125 0 0 0 Z " fill="#FD09BF" transform="translate(244,185)"/>
<path d="M0 0 C0 0.99 0 1.98 0 3 C-2.64 3 -5.28 3 -8 3 C-8 2.34 -8 1.68 -8 1 C-2.25 0 -2.25 0 0 0 Z " fill="#324C54" transform="translate(183,323)"/>
</svg>
