<?xml version="1.0" encoding="UTF-8"?>
<svg version="1.1" xmlns="http://www.w3.org/2000/svg" width="369" height="400">
<path d="M0 0 C2.4375 0.8125 2.4375 0.8125 4.4375 2.8125 C4.5625 5.4375 4.5625 5.4375 4.4375 7.8125 C5.035625 7.874375 5.63375 7.93625 6.25 8 C9.52128907 9.21505022 9.97440857 10.63186645 11.4375 13.8125 C11.61539063 15.06546875 11.61539063 15.06546875 11.796875 16.34375 C12.3095262 19.56107819 12.88662519 21.93170835 14.4375 24.8125 C17.17047845 26.58748997 19.88875048 27.90307189 22.88330078 29.17480469 C31.02515285 32.71254563 37.27517921 38.96355223 41.4375 46.8125 C41.4375 47.4725 41.4375 48.1325 41.4375 48.8125 C42.01491943 48.75715088 42.59233887 48.70180176 43.18725586 48.64477539 C53.80563399 47.6341523 64.41101187 46.64644603 75.06811523 46.15454102 C78.61392145 45.97879353 81.97724731 45.61612874 85.4375 44.8125 C85.1075 44.4825 84.7775 44.1525 84.4375 43.8125 C84.31082236 40.82231839 84.25229162 37.86555892 84.25 34.875 C84.23775391 34.03775391 84.22550781 33.20050781 84.21289062 32.33789062 C84.21095703 31.53673828 84.20902344 30.73558594 84.20703125 29.91015625 C84.20292236 29.17289307 84.19881348 28.43562988 84.19458008 27.67602539 C84.4375 25.8125 84.4375 25.8125 86.4375 23.8125 C89.1875 23.546875 89.1875 23.546875 92.4375 23.5625 C93.51 23.55734375 94.5825 23.5521875 95.6875 23.546875 C98.4375 23.8125 98.4375 23.8125 100.4375 25.8125 C100.68041992 27.67602539 100.68041992 27.67602539 100.66796875 29.91015625 C100.66603516 30.71130859 100.66410156 31.51246094 100.66210938 32.33789062 C100.64986328 33.17513672 100.63761719 34.01238281 100.625 34.875 C100.6240332 36.13666992 100.6240332 36.13666992 100.62304688 37.42382812 C100.57773184 43.67226816 100.57773184 43.67226816 99.4375 44.8125 C100.0975 45.1425 100.7575 45.4725 101.4375 45.8125 C101.581875 45.173125 101.72625 44.53375 101.875 43.875 C102.4375 41.8125 102.4375 41.8125 103.4375 40.8125 C105.41369447 40.68735072 107.39488173 40.6367724 109.375 40.625 C110.45652344 40.61082031 111.53804687 40.59664062 112.65234375 40.58203125 C115.4375 40.8125 115.4375 40.8125 117.4375 42.8125 C117.5625 45.9375 117.5625 45.9375 117.4375 48.8125 C118.38625 48.895 119.335 48.9775 120.3125 49.0625 C129.50596146 50.43410514 136.54844772 54.77490362 143.4375 60.8125 C144.04335937 61.31265625 144.64921875 61.8128125 145.2734375 62.328125 C155.29582397 71.30745768 161.2588531 85.78251563 163.4375 98.8125 C163.55428799 101.48928073 163.4829506 104.13091457 163.4375 106.8125 C164.3965625 107.18375 164.3965625 107.18375 165.375 107.5625 C167.4375 108.8125 167.4375 108.8125 168.3125 110.75 C168.4375 112.8125 168.4375 112.8125 166.4375 115.8125 C166.0711141 118.22963479 166.0711141 118.22963479 166.0234375 120.91796875 C165.96542969 122.39233398 165.96542969 122.39233398 165.90625 123.89648438 C165.8753125 124.92064453 165.844375 125.94480469 165.8125 127 C165.75449219 128.55364258 165.75449219 128.55364258 165.6953125 130.13867188 C165.60101704 132.69643622 165.51541798 135.25419287 165.4375 137.8125 C162.9625 138.8025 162.9625 138.8025 160.4375 139.8125 C160.4375 141.1325 160.4375 142.4525 160.4375 143.8125 C161.66082031 143.76609375 162.88414062 143.7196875 164.14453125 143.671875 C176.46139457 143.35668937 187.50838393 144.78973756 199.4375 147.8125 C199.4375 148.4725 199.4375 149.1325 199.4375 149.8125 C214.84198559 148.70039464 214.84198559 148.70039464 227.0625 140.0625 C233.25931546 131.47792078 237.05828831 120.35458509 237.4375 109.8125 C237.61742602 107.79097824 237.80516423 105.77013926 238 103.75 C238.14674064 102.10424731 238.29290319 100.45844243 238.4375 98.8125 C239.9225 98.3175 239.9225 98.3175 241.4375 97.8125 C241.7675 95.5025 242.0975 93.1925 242.4375 90.8125 C244.09447379 90.12209426 245.7630761 89.4594365 247.4375 88.8125 C248.076875 88.565 248.71625 88.3175 249.375 88.0625 C253.49422419 87.5632001 256.68628801 89.35038417 260.1171875 91.4609375 C262.4375 93.8125 262.4375 93.8125 262.91796875 96.96484375 C261.21520661 118.96453056 254.1968715 144.43701086 237.7421875 160.02734375 C229.22878005 166.62162715 219.33780509 169.84772228 208.6875 170.5 C206.74617187 170.62955078 206.74617187 170.62955078 204.765625 170.76171875 C201.4375 170.8125 201.4375 170.8125 198.4375 169.8125 C198.4375 170.4725 198.4375 171.1325 198.4375 171.8125 C194.1475 171.4825 189.8575 171.1525 185.4375 170.8125 C185.36198036 176.83664365 185.3082689 182.8604975 185.27270508 188.88500977 C185.25784205 190.92412122 185.23754581 192.96320208 185.21118164 195.00219727 C184.75451306 231.29391792 191.5998226 271.71487744 216.4375 299.8125 C216.953125 300.48152344 217.46875 301.15054687 218 301.83984375 C223.48514973 308.76484528 231.52939791 314.85844895 239.4375 318.8125 C239.1075 320.4625 238.7775 322.1125 238.4375 323.8125 C239.0975 323.895 239.7575 323.9775 240.4375 324.0625 C244.43336012 325.06146503 247.81178417 326.90081552 251.4375 328.8125 C249.20696204 336.64653051 246.53896508 344.28675051 243.75 351.9375 C243.12641602 353.65839844 243.12641602 353.65839844 242.49023438 355.4140625 C241.47509802 358.21443865 240.45747571 361.01388366 239.4375 363.8125 C234.60058594 363.02929688 234.60058594 363.02929688 233.1328125 361.078125 C232.32781114 358.45508686 232.24040475 356.30211932 232.3125 353.5625 C232.33054687 352.67046875 232.34859375 351.7784375 232.3671875 350.859375 C232.40199219 349.84617187 232.40199219 349.84617187 232.4375 348.8125 C230.4575 348.1525 228.4775 347.4925 226.4375 346.8125 C225.7775 347.8025 225.1175 348.7925 224.4375 349.8125 C214.61974492 346.21555257 206.9310091 338.88366962 199.4375 331.8125 C198.70917969 331.16023438 197.98085938 330.50796875 197.23046875 329.8359375 C172.38051611 306.64264837 160.64622807 271.71880375 155.0625 239.125 C154.89476074 238.15828369 154.72702148 237.19156738 154.55419922 236.19555664 C153.51484887 229.69204889 153.2503334 223.39292564 153.4375 216.8125 C151.4575 216.8125 149.4775 216.8125 147.4375 216.8125 C147.17706909 217.65835159 146.91663818 218.50420319 146.64831543 219.37568665 C145.37153843 222.99972721 143.79127187 226.37880727 142.06445312 229.80151367 C141.72909546 230.47412735 141.39373779 231.14674103 141.04821777 231.83973694 C139.94228948 234.05528541 138.8306382 236.26790607 137.71875 238.48046875 C136.93814313 240.04048771 136.1578343 241.60065583 135.37780762 243.16096497 C133.73937149 246.43627407 132.09826323 249.7102252 130.45507812 252.9831543 C128.3778742 257.12076183 126.30582488 261.26092242 124.23556519 265.40200806 C109.61033425 294.65137236 109.61033425 294.65137236 102.68811035 307.65065002 C99.97715298 312.74937486 97.37184879 317.89389011 94.8125 323.0703125 C94.44684937 323.80947403 94.08119873 324.54863556 93.70446777 325.31019592 C92.23295075 328.28958988 90.76438007 331.27038347 89.30224609 334.25439453 C88.20675869 336.48734024 87.10396925 338.71655097 86 340.9453125 C85.5047583 341.96372726 85.5047583 341.96372726 84.99951172 343.00271606 C82.66445602 347.69902199 82.66445602 347.69902199 80.4375 348.8125 C79.4475 348.4825 78.4575 348.1525 77.4375 347.8125 C77.0971875 349.0190625 77.0971875 349.0190625 76.75 350.25 C75.10118412 354.72535739 72.83205588 358.69971318 70.4375 362.8125 C60.00432478 357.65760659 49.67620784 352.34375596 39.4375 346.8125 C40.25 344.375 40.25 344.375 41.4375 341.8125 C44.53228879 340.78090374 45.96381393 340.83767138 49.125 341.25 C49.93324219 341.35183594 50.74148437 341.45367187 51.57421875 341.55859375 C52.18910156 341.64238281 52.80398437 341.72617187 53.4375 341.8125 C54.0975 339.8325 54.7575 337.8525 55.4375 335.8125 C54.4475 335.1525 53.4575 334.4925 52.4375 333.8125 C53.76653419 329.50490115 55.43280797 325.64513802 57.52734375 321.65625 C57.82778595 321.08039154 58.12822815 320.50453308 58.43777466 319.91122437 C59.08036008 318.68038062 59.72486 317.45053478 60.37112427 316.22161865 C62.07674003 312.97796732 63.76846692 309.7270867 65.4609375 306.4765625 C65.8002681 305.82559601 66.13959869 305.17462952 66.48921204 304.50393677 C70.00005173 297.75642365 73.39814132 290.95395941 76.75952148 284.13085938 C78.94971271 279.70551827 81.21931044 275.33926592 83.59155273 271.00830078 C84.12618637 270.03128204 84.66082001 269.05426331 85.21165466 268.04763794 C85.61618362 267.31004242 86.02071259 266.5724469 86.4375 265.8125 C85.37562973 265.80663376 84.31375946 265.80076752 83.2197113 265.79472351 C73.20004957 265.73744689 63.18060384 265.66465933 53.16116238 265.57678509 C48.01037099 265.53210654 42.85965824 265.49284477 37.70874023 265.46606445 C32.73542762 265.44000653 27.76241801 265.39958626 22.78929329 265.34931374 C20.8943872 265.3326619 18.99942871 265.32113716 17.10445976 265.31488609 C14.44488832 265.30522672 11.78608917 265.27714565 9.12670898 265.24487305 C8.3477124 265.24630814 7.56871582 265.24774323 6.76611328 265.2492218 C1.6252895 265.16131551 -1.99252366 264.21460808 -6.5625 261.8125 C-9.59121205 258.17558817 -9.81500891 255.44586243 -9.75 250.8125 C-9.87630742 246.47824078 -9.87630742 246.47824078 -12.29296875 243.1328125 C-13.71435385 242.34056507 -15.15651967 241.58443299 -16.6171875 240.8671875 C-19.77198963 239.15675261 -20.52976129 237.16890082 -21.5625 233.8125 C-22.3441825 228.40009079 -21.91056308 223.96585605 -18.91796875 219.3203125 C-16.53011027 216.66407799 -13.76229142 215.35086126 -10.5625 213.8125 C-9.77492624 208.4460767 -9.77492624 208.4460767 -12.0625 203.74609375 C-14.15230789 201.66036751 -16.31163934 199.72302434 -18.5625 197.8125 C-19.53316406 196.95011719 -19.53316406 196.95011719 -20.5234375 196.0703125 C-21.82283844 194.91941452 -23.13046783 193.77775341 -24.4453125 192.64453125 C-27.62337938 189.89450659 -30.74147475 187.08001905 -33.85546875 184.2578125 C-35.74290981 182.55285131 -37.64234124 180.86111046 -39.55078125 179.1796875 C-46.26745756 173.22012102 -52.12623711 166.99800355 -57.5625 159.8125 C-58.51962891 158.57886719 -58.51962891 158.57886719 -59.49609375 157.3203125 C-70.07450763 143.079265 -72.75668815 128.19865189 -70.5625 110.8125 C-68.44116208 96.7361645 -61.28171502 83.12787505 -51.5625 72.8125 C-50.84835938 72.04550781 -50.13421875 71.27851562 -49.3984375 70.48828125 C-43.06839321 64.25350518 -31.87082873 55.8125 -22.5625 55.8125 C-22.645 54.69875 -22.7275 53.585 -22.8125 52.4375 C-22.8125 45.13227979 -19.33541863 37.24832399 -14.5625 31.8125 C-11.91828099 30.47513538 -9.42179199 29.6702876 -6.5625 28.8125 C-7.2225 27.8225 -7.8825 26.8325 -8.5625 25.8125 C-8.41787545 19.88289365 -5.29916945 14.92229609 -2.5625 9.8125 C-3.2225 9.8125 -3.8825 9.8125 -4.5625 9.8125 C-5.89328101 3.40055513 -5.89328101 3.40055513 -4.4375 0.8125 C-2.5625 -0.1875 -2.5625 -0.1875 0 0 Z M111.98046875 190.8671875 C109.4375 192.8125 109.4375 192.8125 105.4375 194.8125 C105.4375 206.0325 105.4375 217.2525 105.4375 228.8125 C109.17291456 223.83194726 111.85136324 218.46870917 114.64526367 212.93237305 C115.61995052 211.00995929 116.6134228 209.09802963 117.60742188 207.18554688 C118.23296192 205.95112369 118.85734926 204.71611556 119.48046875 203.48046875 C120.04789795 202.36953857 120.61532715 201.2586084 121.19995117 200.11401367 C122.56765751 196.46526781 122.66915624 193.67721156 122.4375 189.8125 C121.7775 189.8125 121.1175 189.8125 120.4375 189.8125 C120.4375 188.1625 120.4375 186.5125 120.4375 184.8125 C117.65214039 184.8125 114.0560847 189.15641394 111.98046875 190.8671875 Z M-10.5625 226.8125 C-10.5625 228.4625 -10.5625 230.1125 -10.5625 231.8125 C-10.2325 231.8125 -9.9025 231.8125 -9.5625 231.8125 C-9.5625 230.1625 -9.5625 228.5125 -9.5625 226.8125 C-9.8925 226.8125 -10.2225 226.8125 -10.5625 226.8125 Z " fill="#BD70FB" transform="translate(90.5625,17.1875)"/>
<path d="M0 0 C0.82437561 -0.00845947 1.64875122 -0.01691895 2.49810791 -0.02563477 C3.39898132 -0.01956207 4.29985474 -0.01348938 5.22802734 -0.00723267 C6.17949646 -0.01248962 7.13096558 -0.01774658 8.11126709 -0.02316284 C11.2623324 -0.03638716 14.41289423 -0.02761603 17.56396484 -0.01748657 C19.74967547 -0.0195066 21.93538544 -0.02241745 24.12109375 -0.02618408 C28.70432953 -0.03061074 33.28739004 -0.02416529 37.87060547 -0.01016235 C43.75226797 0.00692959 49.63351981 -0.00290975 55.51516724 -0.02087975 C60.0292471 -0.03170829 64.54322924 -0.02827549 69.05731201 -0.02049637 C71.22629851 -0.01849179 73.39529381 -0.02096262 75.56427002 -0.02793503 C78.59305403 -0.0355341 81.62116835 -0.02396671 84.64990234 -0.00723267 C85.55077576 -0.01330536 86.45164917 -0.01937805 87.37982178 -0.02563477 C88.20419739 -0.01717529 89.028573 -0.00871582 89.87792969 0 C90.59395355 0.00113108 91.30997742 0.00226215 92.04769897 0.00342751 C94.57629979 0.508172 95.43875453 1.29843411 96.93896484 3.38095093 C97.3237257 5.49923992 97.3237257 5.49923992 97.33769226 7.9936676 C97.35023041 8.94017685 97.36276855 9.8866861 97.37568665 10.86187744 C97.37425156 11.89837433 97.37281647 12.93487122 97.37133789 14.0027771 C97.38662537 15.64203407 97.38662537 15.64203407 97.40222168 17.31440735 C97.43246725 20.93429616 97.44163547 24.55392086 97.45068359 28.17391968 C97.46752166 30.6807087 97.48567071 33.18748922 97.50508118 35.69425964 C97.54781387 41.62276832 97.57730276 47.55124961 97.60040456 53.4798587 C97.63009495 60.89164249 97.68029581 68.30326324 97.72998047 75.7149353 C97.81612803 88.9368761 97.88399241 102.15884566 97.93896484 115.38095093 C99.10492188 114.19952515 99.10492188 114.19952515 100.29443359 112.99423218 C102.42965826 110.88423912 104.49360445 109.10176009 106.93896484 107.38095093 C108.96213599 108.87725459 110.95351306 110.39846536 112.93896484 111.94345093 C113.51130859 112.36175171 114.08365234 112.78005249 114.67333984 113.21102905 C117.77653281 115.66772348 118.87424584 117.01765102 119.57568359 120.95516968 C118.82414775 124.99870915 117.91675651 126.09045583 114.75146484 128.63095093 C113.97416016 129.27548218 113.19685547 129.92001343 112.39599609 130.58407593 C107.28362234 134.32285483 103.08684288 136.02633373 96.93896484 137.38095093 C96.94943848 138.30955933 96.95991211 139.23816772 96.97070312 140.19491577 C97.00475689 143.63520783 97.02984977 147.07532119 97.04882812 150.51571655 C97.05889527 152.00565412 97.07255002 153.4955719 97.08984375 154.98544312 C97.11406137 157.12514121 97.12544048 159.26457846 97.13427734 161.40438843 C97.14475098 162.69264526 97.15522461 163.9809021 97.16601562 165.30819702 C96.93896484 168.38095093 96.93896484 168.38095093 94.93896484 170.38095093 C93.13671875 170.63542652 93.13671875 170.63542652 90.91552734 170.64164734 C90.07425293 170.64873215 89.23297852 170.65581696 88.36621094 170.66311646 C87.44146973 170.66063904 86.51672852 170.65816162 85.56396484 170.65560913 C84.10531006 170.66327553 84.10531006 170.66327553 82.6171875 170.6710968 C79.39105132 170.6850387 76.16512763 170.68403273 72.93896484 170.68173218 C70.70458903 170.68561628 68.47021395 170.68995035 66.23583984 170.69471741 C61.54831551 170.70218931 56.86086649 170.7018811 52.17333984 170.69662476 C46.15368924 170.69082567 40.13434587 170.7077672 34.11474609 170.73096943 C29.49949325 170.74566951 24.88431507 170.74658362 20.26904297 170.7434597 C18.04898469 170.74397469 15.82892242 170.7492454 13.60888672 170.75927162 C10.5103736 170.77154804 7.41246756 170.7648976 4.31396484 170.75326538 C3.38922363 170.76090912 2.46448242 170.76855286 1.51171875 170.77642822 C0.67044434 170.76941391 -0.17083008 170.7623996 -1.03759766 170.75517273 C-2.1370874 170.75542434 -2.1370874 170.75542434 -3.25878906 170.75568104 C-5.06103516 170.38095093 -5.06103516 170.38095093 -7.06103516 167.38095093 C-7.31551075 164.4589386 -7.31551075 164.4589386 -7.32173157 160.81430054 C-7.32555711 160.14415137 -7.32938266 159.47400221 -7.33332413 158.78354549 C-7.34365992 156.53338257 -7.33966099 154.28347454 -7.33569336 152.03329468 C-7.34003948 150.42197432 -7.34522229 148.81065603 -7.35118103 147.19934082 C-7.36459199 142.81926822 -7.36514745 138.43928179 -7.36261773 134.05919266 C-7.36154959 130.40588527 -7.36642726 126.75259544 -7.37122315 123.0992918 C-7.38232526 114.48320394 -7.38275157 105.86715967 -7.37670898 97.25106812 C-7.37066534 88.3538364 -7.38298848 79.45676267 -7.40427905 70.55955791 C-7.42187322 62.92723168 -7.42789994 55.29495583 -7.42464131 47.66261005 C-7.42282506 43.10122191 -7.42549869 38.5399465 -7.43935585 33.97857666 C-7.45189438 29.69071095 -7.45002804 25.4030923 -7.43694496 21.11523056 C-7.43457105 19.53940626 -7.43734289 17.96356478 -7.44556808 16.38776016 C-7.45596887 14.24075045 -7.44798989 12.0945801 -7.43525696 9.94760132 C-7.4354247 8.74487076 -7.43559244 7.5421402 -7.43576527 6.30296326 C-7.06103516 3.38095093 -7.06103516 3.38095093 -5.79146099 1.49434471 C-3.68937228 0.14181492 -2.49090172 0.00393479 0 0 Z " fill="#FEFDFE" transform="translate(93.06103515625,76.61904907226563)"/>
<path d="M0 0 C14.85 0 29.7 0 45 0 C45.103125 3.980625 45.20625 7.96125 45.3125 12.0625 C46.83686682 56.25844036 57.80759114 101.58724955 90.75 133.12109375 C96.06113312 137.98137508 102.02681672 142.00609639 108 146 C106 151 104 156 102 161 C92.18224492 157.40305257 84.4935091 150.07116962 77 143 C76.27167969 142.34773437 75.54335938 141.69546875 74.79296875 141.0234375 C49.94301611 117.83014837 38.20872807 82.90630375 32.625 50.3125 C32.45726074 49.34578369 32.28952148 48.37906738 32.11669922 47.38305664 C31.07734887 40.87954889 30.8128334 34.58042564 31 28 C29.02 28 27.04 28 25 28 C24.73956909 28.84585159 24.47913818 29.69170319 24.21081543 30.56318665 C22.93403843 34.18722721 21.35377187 37.56630727 19.62695312 40.98901367 C19.29159546 41.66162735 18.95623779 42.33424103 18.61071777 43.02723694 C17.50478948 45.24278541 16.3931382 47.45540607 15.28125 49.66796875 C14.50064313 51.22798771 13.7203343 52.78815583 12.94030762 54.34846497 C11.30187149 57.62377407 9.66076323 60.8977252 8.01757812 64.1706543 C5.9403742 68.30826183 3.86832488 72.44842242 1.79806519 76.58950806 C-12.82716575 105.83887236 -12.82716575 105.83887236 -19.74938965 118.83815002 C-22.46034702 123.93687486 -25.06565121 129.08139011 -27.625 134.2578125 C-27.99065063 134.99697403 -28.35630127 135.73613556 -28.73303223 136.49769592 C-30.20454925 139.47708988 -31.67311993 142.45788347 -33.13525391 145.44189453 C-34.23074131 147.67484024 -35.33353075 149.90405097 -36.4375 152.1328125 C-36.76766113 152.81175568 -37.09782227 153.49069885 -37.43798828 154.19021606 C-39.77304398 158.88652199 -39.77304398 158.88652199 -42 160 C-42.99 159.67 -43.98 159.34 -45 159 C-45.3403125 160.2065625 -45.3403125 160.2065625 -45.6875 161.4375 C-47.33631588 165.91285739 -49.60544412 169.88721318 -52 174 C-62.43317522 168.84510659 -72.76129216 163.53125596 -83 158 C-82.1875 155.5625 -82.1875 155.5625 -81 153 C-77.90521121 151.96840374 -76.47368607 152.02517138 -73.3125 152.4375 C-72.50425781 152.53933594 -71.69601563 152.64117187 -70.86328125 152.74609375 C-70.24839844 152.82988281 -69.63351563 152.91367187 -69 153 C-68.34 151.02 -67.68 149.04 -67 147 C-67.99 146.34 -68.98 145.68 -70 145 C-68.67096581 140.69240115 -67.00469203 136.83263802 -64.91015625 132.84375 C-64.45956093 131.98009827 -64.45956093 131.98009827 -63.99986267 131.09899902 C-63.35732211 129.86824731 -62.71286783 128.63849308 -62.06665039 127.40966797 C-60.35960341 124.16324893 -58.66652563 120.90955868 -56.97265625 117.65625 C-56.46335068 116.67918091 -56.46335068 116.67918091 -55.9437561 115.68237305 C-52.89443777 109.82189408 -49.93388383 103.91907398 -47 98 C-43.15172448 90.24565435 -39.18852734 82.57651704 -35 75 C-34.34 75 -33.68 75 -33 75 C-32.77183594 74.21753906 -32.54367188 73.43507813 -32.30859375 72.62890625 C-30.59116155 67.86623607 -28.34942922 63.44865765 -26.0625 58.9375 C-25.61970703 58.05255859 -25.17691406 57.16761719 -24.72070312 56.25585938 C-21.34508212 49.54989396 -21.34508212 49.54989396 -19.43359375 46.50390625 C-18.10688011 44.18667615 -17.18543359 41.99476248 -16.23046875 39.5078125 C-13.25880247 31.87285078 -9.32497946 24.69892948 -5.51367188 17.45703125 C-4.94841797 16.35488281 -4.38316406 15.25273437 -3.80078125 14.1171875 C-3.02988159 12.64161377 -3.02988159 12.64161377 -2.2434082 11.13623047 C-0.57450993 7.30882554 -0.57450993 7.30882554 0 0 Z " fill="#050F25" transform="translate(213,206)"/>
<path d="M0 0 C2.4375 0.8125 2.4375 0.8125 4.4375 2.8125 C4.5625 5.4375 4.5625 5.4375 4.4375 7.8125 C5.035625 7.874375 5.63375 7.93625 6.25 8 C9.52128907 9.21505022 9.97440857 10.63186645 11.4375 13.8125 C11.61539063 15.06546875 11.61539063 15.06546875 11.796875 16.34375 C12.3095262 19.56107819 12.88662519 21.93170835 14.4375 24.8125 C17.17194131 26.58844005 19.89726475 27.90136009 22.88769531 29.18579102 C32.25785803 33.29218388 38.36377014 40.41501677 42.6953125 49.5859375 C43.4375 51.8125 43.4375 51.8125 43.4375 55.8125 C41.31277424 55.86636629 39.18766348 55.90523071 37.0625 55.9375 C35.87914063 55.96070313 34.69578125 55.98390625 33.4765625 56.0078125 C30.4375 55.8125 30.4375 55.8125 28.4375 53.8125 C27.4475 54.8025 27.4475 54.8025 26.4375 55.8125 C23.62768555 56.05200195 23.62768555 56.05200195 20.07421875 56.05078125 C18.15512695 56.07495117 18.15512695 56.07495117 16.19726562 56.09960938 C14.16293729 56.11603304 12.12935958 56.1250152 10.0949707 56.11791992 C8.12962717 56.11529022 6.16432586 56.1451844 4.19921875 56.17578125 C3.02319092 56.17876221 1.84716309 56.18174316 0.63549805 56.18481445 C-3.56376582 57.00902297 -4.87480334 58.52878782 -7.5625 61.8125 C-8.30851946 64.84405979 -8.30851946 64.84405979 -8.20173645 68.1842804 C-8.21702393 69.47010513 -8.2323114 70.75592987 -8.24806213 72.08071899 C-8.23981077 73.49823274 -8.23108205 74.91574377 -8.22192383 76.33325195 C-8.2303792 77.83152093 -8.24102431 79.32977891 -8.25369263 80.82801819 C-8.28183875 84.88972936 -8.27936756 88.95091242 -8.27139878 93.01269174 C-8.26827395 97.25953224 -8.29330736 101.50620447 -8.31535339 105.75297546 C-8.35280916 113.7922637 -8.36494228 121.83138277 -8.3679778 129.87074965 C-8.37266697 139.02434009 -8.40558573 148.17776089 -8.44087565 157.33127654 C-8.51282792 176.15833469 -8.54932976 194.98531359 -8.5625 213.8125 C-8.8925 213.8125 -9.2225 213.8125 -9.5625 213.8125 C-9.5625 212.6575 -9.5625 211.5025 -9.5625 210.3125 C-10.30066241 204.41759736 -14.25845143 201.52314571 -18.5625 197.8125 C-19.53123047 196.95011719 -19.53123047 196.95011719 -20.51953125 196.0703125 C-21.8208309 194.92008022 -23.12972485 193.77839376 -24.4453125 192.64453125 C-27.62337938 189.89450659 -30.74147475 187.08001905 -33.85546875 184.2578125 C-35.74290981 182.55285131 -37.64234124 180.86111046 -39.55078125 179.1796875 C-46.26745756 173.22012102 -52.12623711 166.99800355 -57.5625 159.8125 C-58.51962891 158.57886719 -58.51962891 158.57886719 -59.49609375 157.3203125 C-70.07450763 143.079265 -72.75668815 128.19865189 -70.5625 110.8125 C-68.44116208 96.7361645 -61.28171502 83.12787505 -51.5625 72.8125 C-50.84835938 72.04550781 -50.13421875 71.27851562 -49.3984375 70.48828125 C-43.06839321 64.25350518 -31.87082873 55.8125 -22.5625 55.8125 C-22.645 54.69875 -22.7275 53.585 -22.8125 52.4375 C-22.8125 45.13227979 -19.33541863 37.24832399 -14.5625 31.8125 C-11.91828099 30.47513538 -9.42179199 29.6702876 -6.5625 28.8125 C-7.2225 27.8225 -7.8825 26.8325 -8.5625 25.8125 C-8.41787545 19.88289365 -5.29916945 14.92229609 -2.5625 9.8125 C-3.2225 9.8125 -3.8825 9.8125 -4.5625 9.8125 C-5.89328101 3.40055513 -5.89328101 3.40055513 -4.4375 0.8125 C-2.5625 -0.1875 -2.5625 -0.1875 0 0 Z " fill="#BC6FFB" transform="translate(90.5625,17.1875)"/>
<path d="M0 0 C6.37483101 0.21609597 9.41354896 1.18520503 14 6 C17.18472212 23.90330271 6.56546076 49.00068085 -3.1328125 63.46484375 C-10.52723295 73.5045485 -19.87929294 79.0517199 -32 82 C-34.5760861 82.29984808 -37.16137229 82.52895955 -39.75 82.6875 C-41.04421875 82.77386719 -42.3384375 82.86023438 -43.671875 82.94921875 C-47 83 -47 83 -50 82 C-50 82.66 -50 83.32 -50 84 C-54.29 83.67 -58.58 83.34 -63 83 C-63.07551964 89.02414365 -63.1292311 95.0479975 -63.16479492 101.07250977 C-63.17965795 103.11162122 -63.19995419 105.15070208 -63.22631836 107.18969727 C-63.68298694 143.48141792 -56.8376774 183.90237744 -32 212 C-31.484375 212.66902344 -30.96875 213.33804688 -30.4375 214.02734375 C-24.95235027 220.95234528 -16.90810209 227.04594895 -9 231 C-9.33 232.65 -9.66 234.3 -10 236 C-9.34 236.0825 -8.68 236.165 -8 236.25 C-4.00413988 237.24896503 -0.62571583 239.08831552 3 241 C0.76946204 248.83403051 -1.89853492 256.47425051 -4.6875 264.125 C-5.10322266 265.27226562 -5.51894531 266.41953125 -5.94726562 267.6015625 C-6.96240198 270.40193865 -7.98002429 273.20138366 -9 276 C-13.83691406 275.21679687 -13.83691406 275.21679687 -15.3046875 273.265625 C-16.10968886 270.64258686 -16.19709525 268.48961932 -16.125 265.75 C-16.10695313 264.85796875 -16.08890625 263.9659375 -16.0703125 263.046875 C-16.04710937 262.37140625 -16.02390625 261.6959375 -16 261 C-16.969375 260.731875 -17.93875 260.46375 -18.9375 260.1875 C-19.948125 259.795625 -20.95875 259.40375 -22 259 C-23 256 -23 256 -22.1875 254.28125 C-21.39583333 253.09375 -20.60416667 251.90625 -19.8125 250.71875 C-18.67455333 248.82410557 -18.67455333 248.82410557 -20 246 C-21.85003448 244.66337222 -23.75717521 243.40530442 -25.6875 242.1875 C-55.38862851 222.48082614 -70.49320346 187.5637257 -77.46386719 153.7578125 C-80.90026786 136.08131799 -81.2796816 118.99284965 -81 101 C-96.51 101.33 -112.02 101.66 -128 102 C-128 97.71 -128 93.42 -128 89 C-130.18978305 85.73797662 -130.18978305 85.73797662 -133.4375 83.875 C-138.95272128 80.14183617 -138.95272128 80.14183617 -140 77 C-135.94217535 69.09244427 -129.79020117 59.93006706 -121 57 C-119.00550155 56.80609043 -117.002886 56.68881745 -115 56.625 C-113.948125 56.57601562 -112.89625 56.52703125 -111.8125 56.4765625 C-109 57 -109 57 -107.375 59.3359375 C-106.92125 60.21507812 -106.4675 61.09421875 -106 62 C-102.84538962 65.10045398 -100.48544217 65.40828582 -96.125 65.375 C-91.40541437 65.23686579 -87.82193014 65.01731327 -84 62 C-83.27118911 60.02179902 -82.59723158 58.02182068 -82 56 C-70.44461332 55.32138023 -60.18047537 57.33003573 -49 60 C-49 60.66 -49 61.32 -49 62 C-33.59551441 60.88789464 -33.59551441 60.88789464 -21.375 52.25 C-15.17818454 43.66542078 -11.37921169 32.54208509 -11 22 C-10.82007398 19.97847824 -10.63233577 17.95763926 -10.4375 15.9375 C-10.29075936 14.29174731 -10.14459681 12.64594243 -10 11 C-9.01 10.67 -8.02 10.34 -7 10 C-6.67 7.69 -6.34 5.38 -6 3 C-5.195625 2.690625 -4.39125 2.38125 -3.5625 2.0625 C-1.10919595 1.23664655 -1.10919595 1.23664655 0 0 Z " fill="#55AFEA" transform="translate(339,105)"/>
<path d="M0 0 C11.54660878 -0.26674128 21.39589894 5.53944884 31.25976562 10.91674805 C40.03900693 15.65408133 48.9287856 19.15145897 58.92382812 16.3684082 C64.1608533 14.46262685 67.60258235 12.35270483 71.31445312 8.0949707 C72.63198678 7.07424408 73.96302293 6.07037534 75.31445312 5.0949707 C77.33762427 6.59127436 79.32900134 8.11248514 81.31445312 9.6574707 C81.88679688 10.07577148 82.45914063 10.49407227 83.04882812 10.92504883 C86.15202109 13.38174326 87.24973413 14.7316708 87.95117188 18.66918945 C87.19963603 22.71272892 86.29224479 23.8044756 83.12695312 26.3449707 C82.34964844 26.98950195 81.57234375 27.6340332 80.77148438 28.2980957 C69.79517381 36.32528626 57.68742455 38.50463092 44.26757812 36.6809082 C40.5148715 36.01574592 36.93290423 35.30112107 33.31445312 34.0949707 C33.17007813 34.8993457 33.02570313 35.7037207 32.87695312 36.5324707 C32.31445312 39.0949707 32.31445312 39.0949707 31.31445312 40.0949707 C29.38683495 40.19417933 27.45555958 40.22296435 25.52539062 40.22436523 C24.28740723 40.2275174 23.04942383 40.23066956 21.77392578 40.23391724 C20.41243454 40.23212745 19.05094361 40.2300765 17.68945312 40.2277832 C16.30322248 40.22845629 14.91699196 40.22942636 13.53076172 40.23068237 C10.62205891 40.2321591 7.71338675 40.2300056 4.8046875 40.2253418 C1.06848714 40.21964451 -2.66764139 40.22292365 -6.40383911 40.22891426 C-9.26733953 40.23252055 -12.13082281 40.23138098 -14.99432373 40.22878647 C-16.37229419 40.22811739 -17.75026619 40.22894497 -19.12823486 40.23126602 C-21.05098442 40.23379362 -22.97373939 40.22926094 -24.89648438 40.22436523 C-26.54076416 40.22317184 -26.54076416 40.22317184 -28.21826172 40.22195435 C-30.68554688 40.0949707 -30.68554688 40.0949707 -31.68554688 39.0949707 C-31.78654175 36.36772792 -31.82525217 33.66634547 -31.81835938 30.9387207 C-31.8193161 30.12125366 -31.82027283 29.30378662 -31.82125854 28.46154785 C-31.82194033 26.72981693 -31.82008617 24.99808346 -31.81591797 23.26635742 C-31.81056967 20.60630588 -31.815863 17.9464232 -31.82226562 15.28637695 C-31.82160484 13.60799116 -31.82032368 11.92960548 -31.81835938 10.2512207 C-31.82038361 9.45018921 -31.82240784 8.64915771 -31.82449341 7.82385254 C-31.80049766 2.20992149 -31.80049766 2.20992149 -30.68554688 1.0949707 C-28.72037886 0.93617878 -26.74979666 0.84360924 -24.77929688 0.77856445 C-23.55984375 0.73666992 -22.34039062 0.69477539 -21.08398438 0.65161133 C-19.7975 0.61229492 -18.51101562 0.57297852 -17.18554688 0.5324707 C-15.93 0.48928711 -14.67445312 0.44610352 -13.38085938 0.40161133 C-8.92088186 0.25434792 -4.45956285 0.15770636 0 0 Z " fill="#E5D1FE" transform="translate(124.685546875,178.905029296875)"/>
<path d="M0 0 C14.85 0 29.7 0 45 0 C45.1546875 5.9709375 45.1546875 5.9709375 45.3125 12.0625 C46.83686682 56.25844036 57.80759114 101.58724955 90.75 133.12109375 C96.06113312 137.98137508 102.02681672 142.00609639 108 146 C106 151 104 156 102 161 C92.18224492 157.40305257 84.4935091 150.07116962 77 143 C76.27167969 142.34773437 75.54335938 141.69546875 74.79296875 141.0234375 C49.94301611 117.83014837 38.20872807 82.90630375 32.625 50.3125 C32.45726074 49.34578369 32.28952148 48.37906738 32.11669922 47.38305664 C31.07734887 40.87954889 30.8128334 34.58042564 31 28 C30.32469238 27.97478271 29.64938477 27.94956543 28.95361328 27.92358398 C20.84742237 27.54699456 15.21899065 24.86132503 9.1875 19.5 C3.56875269 13.0785745 0 8.84901965 0 0 Z " fill="#0A1A44" transform="translate(213,206)"/>
<path d="M0 0 C1.23475571 -0.00637985 2.46951141 -0.0127597 3.74168396 -0.01933289 C5.10000571 -0.02086145 6.45832798 -0.02197547 7.81665039 -0.02270508 C9.20048559 -0.02591603 10.58432044 -0.02927997 11.96815491 -0.03279114 C14.87265815 -0.03878857 17.77713162 -0.04063042 20.68164062 -0.04003906 C24.4088281 -0.03993742 28.13582517 -0.05358905 31.86296749 -0.07081127 C34.72222272 -0.08191413 37.58143167 -0.0839588 40.44070625 -0.08342934 C41.8150657 -0.08461207 43.18942625 -0.0890502 44.56376457 -0.0967617 C46.48389116 -0.1065263 48.40407326 -0.10242848 50.32421875 -0.09765625 C51.96516762 -0.09979378 51.96516762 -0.09979378 53.63926697 -0.10197449 C56.22680664 0.14526367 56.22680664 0.14526367 58.22680664 2.14526367 C58.42646037 4.77466563 58.50664774 7.2964653 58.49243164 9.92651367 C58.49434509 10.695802 58.49625854 11.46509033 58.49822998 12.25769043 C58.49959172 13.88509447 58.49589603 15.51250937 58.48754883 17.13989258 C58.47684885 19.63541998 58.48744415 22.13022749 58.50024414 24.62573242 C58.49892254 26.2051611 58.49636015 27.78458933 58.49243164 29.36401367 C58.4964801 30.11299927 58.50052856 30.86198486 58.50469971 31.63366699 C58.45672907 36.91534124 58.45672907 36.91534124 56.22680664 39.14526367 C53.63926697 39.39250183 53.63926697 39.39250183 50.32421875 39.38818359 C48.46735695 39.39279854 48.46735695 39.39279854 46.57298279 39.39750671 C45.21670344 39.3906095 43.86042593 39.38334257 42.50415039 39.37573242 C41.1193496 39.3745407 39.73454799 39.37408744 38.3497467 39.37434387 C35.44698022 39.37277885 32.54433704 39.36448706 29.64160156 39.35107422 C25.91326807 39.33406846 22.18506997 39.33026031 18.45670223 39.3310194 C15.59748533 39.33074804 12.73829827 39.32527254 9.87909126 39.31801796 C8.50391427 39.3148271 7.12873389 39.31286292 5.75355339 39.31212425 C3.83568996 39.30996602 1.91783904 39.30043662 0 39.29052734 C-1.09317032 39.28671555 -2.18634064 39.28290375 -3.31263733 39.27897644 C-5.77319336 39.14526367 -5.77319336 39.14526367 -6.77319336 38.14526367 C-6.87418824 35.41802089 -6.91289865 32.71663844 -6.90600586 29.98901367 C-6.90696259 29.17154663 -6.90791931 28.35407959 -6.90890503 27.51184082 C-6.90958681 25.7801099 -6.90773265 24.04837643 -6.90356445 22.31665039 C-6.89821615 19.65659885 -6.90350948 16.99671617 -6.90991211 14.33666992 C-6.90925133 12.65828413 -6.90797016 10.97989844 -6.90600586 9.30151367 C-6.90803009 8.50048218 -6.91005432 7.69945068 -6.91213989 6.87414551 C-6.88347883 0.16873825 -6.59642352 0.02300121 0 0 Z " fill="#E5D2FE" transform="translate(99.773193359375,83.854736328125)"/>
<path d="M0 0 C1.21465942 -0.00630432 2.42931885 -0.01260864 3.68078613 -0.019104 C5.65734192 -0.01303131 5.65734192 -0.01303131 7.67382812 -0.00683594 C9.03381418 -0.0081827 10.39379977 -0.01012333 11.75378418 -0.01263428 C14.6052712 -0.01558503 17.45663299 -0.01128958 20.30810547 -0.00195312 C23.96690589 0.00944152 27.62541292 0.00288177 31.28420258 -0.00909805 C34.09285704 -0.01631805 36.90144172 -0.01402811 39.71009827 -0.00884247 C41.71652415 -0.00685555 43.72295272 -0.01293957 45.72937012 -0.019104 C46.94402954 -0.01279968 48.15868896 -0.00649536 49.41015625 0 C50.48334106 0.00159119 51.55652588 0.00318237 52.66223145 0.00482178 C55.20507812 0.25878906 55.20507812 0.25878906 57.20507812 2.25878906 C57.40473186 4.88819102 57.48491922 7.40999069 57.47070312 10.04003906 C57.47261658 10.80932739 57.47453003 11.57861572 57.47650146 12.37121582 C57.47786321 13.99861986 57.47416751 15.62603477 57.46582031 17.25341797 C57.45512033 19.74894537 57.46571564 22.24375288 57.47851562 24.73925781 C57.47719403 26.31868649 57.47463163 27.89811472 57.47070312 29.47753906 C57.47475159 30.22652466 57.47880005 30.97551025 57.48297119 31.74719238 C57.43500056 37.02886663 57.43500056 37.02886663 55.20507812 39.25878906 C52.66223145 39.51275635 52.66223145 39.51275635 49.41015625 39.51757812 C48.19549683 39.52388245 46.9808374 39.53018677 45.72937012 39.53668213 C43.75281433 39.53060944 43.75281433 39.53060944 41.73632812 39.52441406 C40.37634207 39.52576083 39.01635648 39.52770145 37.65637207 39.5302124 C34.80488505 39.53316315 31.95352326 39.52886771 29.10205078 39.51953125 C25.44325036 39.5081366 21.78474333 39.51469636 18.12595367 39.52667618 C15.31729921 39.53389618 12.50871453 39.53160624 9.70005798 39.52642059 C7.6936321 39.52443367 5.68720353 39.53051769 3.68078613 39.53668213 C2.46612671 39.53037781 1.25146729 39.52407349 0 39.51757812 C-1.07318481 39.51598694 -2.14636963 39.51439575 -3.2520752 39.51275635 C-5.79492188 39.25878906 -5.79492188 39.25878906 -7.79492188 37.25878906 C-7.99457561 34.6293871 -8.07476297 32.10758743 -8.06054688 29.47753906 C-8.06246033 28.70825073 -8.06437378 27.9389624 -8.06634521 27.1463623 C-8.06770696 25.51895826 -8.06401126 23.89154336 -8.05566406 22.26416016 C-8.04496408 19.76863275 -8.05555939 17.27382524 -8.06835938 14.77832031 C-8.06703778 13.19889164 -8.06447538 11.61946341 -8.06054688 10.04003906 C-8.06459534 9.29105347 -8.0686438 8.54206787 -8.07281494 7.77038574 C-8.01144575 1.01350089 -6.55753295 0.0097227 0 0 Z " fill="#F3EAFF" transform="translate(126.794921875,131.7412109375)"/>
<path d="M0 0 C2.47923801 -0.02685095 4.9581884 -0.04676547 7.4375 -0.0625 C8.14455078 -0.07087891 8.85160156 -0.07925781 9.58007812 -0.08789062 C11.38693559 -0.09653588 13.19387603 -0.05220011 15 0 C16.67403684 1.67403684 16.16844825 3.74777797 16.2109375 6.046875 C16.23712158 7.10914307 16.26330566 8.17141113 16.2902832 9.26586914 C16.31823975 10.41563232 16.34619629 11.56539551 16.375 12.75 C17.47248319 47.02108648 24.60558045 84.53506289 48 111 C48.7734375 112.00353516 48.7734375 112.00353516 49.5625 113.02734375 C55.04764973 119.95234528 63.09189791 126.04594895 71 130 C70.67 131.32 70.34 132.64 70 134 C69.34 134 68.68 134 68 134 C67.71125 134.9075 67.4225 135.815 67.125 136.75 C66.23468224 139.32202908 65.28505587 141.61346766 64 144 C51.7022081 142.48505462 39.38268227 127.58776039 31.90625 118.4375 C30.1530023 116.01483045 28.55750342 113.55278609 27 111 C26.36835938 109.989375 25.73671875 108.97875 25.0859375 107.9375 C5.62162021 75.47192059 -0.67223259 37.42094733 0 0 Z " fill="#0A1A44" transform="translate(259,206)"/>
<path d="M0 0 C2.4375 0.8125 2.4375 0.8125 4.4375 2.8125 C4.5625 5.4375 4.5625 5.4375 4.4375 7.8125 C5.035625 7.874375 5.63375 7.93625 6.25 8 C9.52128907 9.21505022 9.97440857 10.63186645 11.4375 13.8125 C11.55609375 14.6478125 11.6746875 15.483125 11.796875 16.34375 C12.3095262 19.56107819 12.88662519 21.93170835 14.4375 24.8125 C17.17194131 26.58844005 19.89726475 27.90136009 22.88769531 29.18579102 C32.25785803 33.29218388 38.36377014 40.41501677 42.6953125 49.5859375 C43.4375 51.8125 43.4375 51.8125 43.4375 55.8125 C41.31277424 55.86636629 39.18766348 55.90523071 37.0625 55.9375 C35.28746094 55.97230469 35.28746094 55.97230469 33.4765625 56.0078125 C30.4375 55.8125 30.4375 55.8125 28.4375 53.8125 C27.7775 54.4725 27.1175 55.1325 26.4375 55.8125 C23.62768555 56.05200195 23.62768555 56.05200195 20.07421875 56.05078125 C18.15512695 56.07495117 18.15512695 56.07495117 16.19726562 56.09960938 C14.16293729 56.11603304 12.12935958 56.1250152 10.0949707 56.11791992 C8.12962717 56.11529022 6.16432586 56.1451844 4.19921875 56.17578125 C3.02319092 56.17876221 1.84716309 56.18174316 0.63549805 56.18481445 C-3.46572918 56.98978088 -4.93643801 58.63995346 -7.5625 61.8125 C-8.77943876 64.24637753 -8.88209896 66.23088846 -9.125 68.9375 C-9.20878906 69.84757812 -9.29257813 70.75765625 -9.37890625 71.6953125 C-9.43949219 72.39398438 -9.50007813 73.09265625 -9.5625 73.8125 C-14.82566302 72.41930979 -17.54218904 69.11940868 -20.5625 64.8125 C-23.56259897 58.81230206 -23.58593068 51.48946485 -21.8046875 45.08984375 C-17.23608738 33.16471823 -17.23608738 33.16471823 -12.53125 30.78515625 C-10.57380926 30.03733118 -8.56955558 29.41461667 -6.5625 28.8125 C-7.2225 27.8225 -7.8825 26.8325 -8.5625 25.8125 C-8.41787545 19.88289365 -5.29916945 14.92229609 -2.5625 9.8125 C-3.2225 9.8125 -3.8825 9.8125 -4.5625 9.8125 C-5.89328101 3.40055513 -5.89328101 3.40055513 -4.4375 0.8125 C-2.5625 -0.1875 -2.5625 -0.1875 0 0 Z " fill="#A0806A" transform="translate(90.5625,17.1875)"/>
<path d="M0 0 C6.37483101 0.21609597 9.41354896 1.18520503 14 6 C17.18472212 23.90330271 6.56546076 49.00068085 -3.1328125 63.46484375 C-10.52723295 73.5045485 -19.87929294 79.0517199 -32 82 C-34.5760861 82.29984808 -37.16137229 82.52895955 -39.75 82.6875 C-41.04421875 82.77386719 -42.3384375 82.86023438 -43.671875 82.94921875 C-47 83 -47 83 -50 82 C-50 75.4 -50 68.8 -50 62 C-47.36 61.7525 -44.72 61.505 -42 61.25 C-33.33021461 60.27241993 -27.33592833 58.99458485 -21.375 52.25 C-15.17818454 43.66542078 -11.37921169 32.54208509 -11 22 C-10.82007398 19.97847824 -10.63233577 17.95763926 -10.4375 15.9375 C-10.29075936 14.29174731 -10.14459681 12.64594243 -10 11 C-9.01 10.67 -8.02 10.34 -7 10 C-6.67 7.69 -6.34 5.38 -6 3 C-5.195625 2.690625 -4.39125 2.38125 -3.5625 2.0625 C-1.10919595 1.23664655 -1.10919595 1.23664655 0 0 Z " fill="#FEDBB4" transform="translate(339,105)"/>
<path d="M0 0 C12.62908419 -1.08871415 23.20182603 4.96495231 33.9453125 10.82177734 C42.72455381 15.55911062 51.61433247 19.05648826 61.609375 16.2734375 C66.84640018 14.36765615 70.28812923 12.25773412 74 8 C75.31753366 6.97927338 76.64856981 5.97540464 78 5 C80.02317115 6.49630366 82.01454822 8.01751443 84 9.5625 C84.57234375 9.98080078 85.1446875 10.39910156 85.734375 10.83007812 C88.83756796 13.28677255 89.935281 14.6367001 90.63671875 18.57421875 C89.88518291 22.61775822 88.97779166 23.7095049 85.8125 26.25 C85.03519531 26.89453125 84.25789063 27.5390625 83.45703125 28.203125 C71.75076985 36.76414288 58.75166436 38.48284837 44.5625 36.3125 C37.53091852 34.89815907 31.16757247 31.94581058 24.69921875 28.92578125 C18.31887631 25.97472707 11.74527741 23.95998787 5 22 C5 20.35 5 18.7 5 17 C7.64 17 10.28 17 13 17 C13.042721 15.33388095 13.04063832 13.66617115 13 12 C11.96593327 10.74050951 11.96593327 10.74050951 9.71484375 10.90234375 C8.79832031 10.91394531 7.88179687 10.92554688 6.9375 10.9375 C6.01839844 10.94652344 5.09929687 10.95554688 4.15234375 10.96484375 C3.44207031 10.97644531 2.73179688 10.98804688 2 11 C1.4465236 8.92446352 1 7.15634036 1 5 C0.34 4.67 -0.32 4.34 -1 4 C-0.67 2.68 -0.34 1.36 0 0 Z " fill="#DBB285" transform="translate(122,179)"/>
<path d="M0 0 C0.33 0 0.66 0 1 0 C1.03963867 0.80816162 1.07927734 1.61632324 1.12011719 2.44897461 C2.8264939 35.78695606 6.57929813 68.84329924 22 99 C22.32613281 99.64001953 22.65226562 100.28003906 22.98828125 100.93945312 C31.58875849 117.50650789 46.47156073 137.82385358 65 144 C65.28875 143.0925 65.5775 142.185 65.875 141.25 C66.76841716 138.66901709 67.75227117 136.41157674 69 134 C74.23272633 135.63958758 79.15196636 137.38952035 84 140 C81.76946204 147.83403051 79.10146508 155.47425051 76.3125 163.125 C75.89677734 164.27226562 75.48105469 165.41953125 75.05273438 166.6015625 C74.03759802 169.40193865 73.01997571 172.20138366 72 175 C67.16308594 174.21679688 67.16308594 174.21679688 65.6953125 172.265625 C64.89031114 169.64258686 64.80290475 167.48961932 64.875 164.75 C64.89304687 163.85796875 64.91109375 162.9659375 64.9296875 162.046875 C64.95289063 161.37140625 64.97609375 160.6959375 65 160 C64.030625 159.731875 63.06125 159.46375 62.0625 159.1875 C60.5465625 158.5996875 60.5465625 158.5996875 59 158 C58 155 58 155 58.8125 153.28125 C59.60416667 152.09375 60.39583333 150.90625 61.1875 149.71875 C62.32544667 147.82410557 62.32544667 147.82410557 61 145 C59.14996552 143.66337222 57.24282479 142.40530442 55.3125 141.1875 C25.61137149 121.48082614 10.50679654 86.5637257 3.53613281 52.7578125 C0.11446207 35.1570872 -0.40310628 17.8958514 0 0 Z " fill="#979AA4" transform="translate(258,206)"/>
<path d="M0 0 C10.28736075 4.19114697 17.53639576 11.77705861 22.2578125 21.7734375 C23 24 23 24 23 28 C20.87527424 28.05386629 18.75016348 28.09273071 16.625 28.125 C15.44164062 28.14820312 14.25828125 28.17140625 13.0390625 28.1953125 C10 28 10 28 8 26 C7.34 26.66 6.68 27.32 6 28 C3.38623047 28.22705078 3.38623047 28.22705078 0.1171875 28.1953125 C-1.04941406 28.18886719 -2.21601562 28.18242188 -3.41796875 28.17578125 C-4.64128906 28.15902344 -5.86460938 28.14226562 -7.125 28.125 C-8.35605469 28.11597656 -9.58710937 28.10695313 -10.85546875 28.09765625 C-13.90383815 28.07402548 -16.95182382 28.04108054 -20 28 C-20 27.67 -20 27.34 -20 27 C-11.42 25.68 -2.84 24.36 6 23 C-1.45586798 23.62132233 -8.60960684 24.30198175 -15.9375 25.5625 C-25.55057413 27.206741 -25.55057413 27.206741 -30 27 C-30 25.68 -30 24.36 -30 23 C-25.51656644 22.28399124 -21.03251622 21.57202663 -16.54785156 20.86376953 C-15.02293649 20.62236245 -13.49819448 20.37985948 -11.97363281 20.13623047 C-9.77974528 19.78583774 -7.58526154 19.43941639 -5.390625 19.09375 C-4.7113092 18.9843811 -4.03199341 18.87501221 -3.33209229 18.7623291 C-0.15332663 18.26541263 2.76819315 18 6 18 C6 17.34 6 16.68 6 16 C5.36610352 16.11593506 4.73220703 16.23187012 4.07910156 16.35131836 C-19.17916857 20.57759865 -19.17916857 20.57759865 -29 21 C-28.67 19.68 -28.34 18.36 -28 17 C-12.655 14.525 -12.655 14.525 3 12 C-6.00042883 12.80511811 -6.00042883 12.80511811 -14.875 14.0625 C-18.64504744 14.69701658 -22.17512959 15.10585435 -26 15 C-25.67 13.68 -25.34 12.36 -25 11 C-17.08 9.68 -9.16 8.36 -1 7 C-4.3 7 -7.6 7 -11 7 C-10.67 5.68 -10.34 4.36 -10 3 C-9.04287109 2.80083984 -9.04287109 2.80083984 -8.06640625 2.59765625 C-7.24011719 2.42105469 -6.41382812 2.24445312 -5.5625 2.0625 C-4.32693359 1.80146484 -4.32693359 1.80146484 -3.06640625 1.53515625 C-1.02338796 1.19247006 -1.02338796 1.19247006 0 0 Z " fill="#8A6146" transform="translate(111,45)"/>
<path d="M0 0 C1.00730415 -0.00262848 1.00730415 -0.00262848 2.03495789 -0.00531006 C4.26486765 -0.00972777 6.49469874 -0.00679089 8.72460938 -0.00341797 C10.26778173 -0.00409103 11.81095398 -0.00506108 13.35412598 -0.00631714 C16.59237678 -0.007794 19.83060005 -0.00563993 23.06884766 -0.00097656 C27.2287846 0.00472073 31.38865704 0.00144166 35.54859161 -0.00454903 C38.73635345 -0.00815496 41.92409989 -0.00701591 45.11186218 -0.00442123 C46.6461335 -0.00375205 48.1804062 -0.00458008 49.7146759 -0.00690079 C51.85539478 -0.00942784 53.9960078 -0.00558601 56.13671875 0 C57.96752991 0.00119339 57.96752991 0.00119339 59.83532715 0.00241089 C62.56835938 0.12939453 62.56835938 0.12939453 63.56835938 1.12939453 C63.66626507 2.62677577 63.69810802 4.12882345 63.69335938 5.62939453 C63.69722656 6.85142578 63.69722656 6.85142578 63.70117188 8.09814453 C63.56835938 10.12939453 63.56835938 10.12939453 62.56835938 11.12939453 C60.42635614 11.22891746 58.28103233 11.25739132 56.13671875 11.25878906 C55.1294146 11.26141754 55.1294146 11.26141754 54.10176086 11.26409912 C51.8718511 11.26851683 49.64202001 11.26557995 47.41210938 11.26220703 C45.86893702 11.26288009 44.32576477 11.26385014 42.78259277 11.2651062 C39.54434197 11.26658306 36.3061187 11.264429 33.06787109 11.25976562 C28.90793415 11.25406834 24.74806171 11.2573474 20.58812714 11.26333809 C17.4003653 11.26694402 14.21261886 11.26580497 11.02485657 11.2632103 C9.49058525 11.26254112 7.95631255 11.26336914 6.42204285 11.26568985 C4.28132397 11.26821691 2.14071095 11.26437508 0 11.25878906 C-1.83081116 11.25759567 -1.83081116 11.25759567 -3.6986084 11.25637817 C-6.43164062 11.12939453 -6.43164062 11.12939453 -7.43164062 10.12939453 C-7.52954632 8.63201329 -7.56138927 7.12996561 -7.55664062 5.62939453 C-7.55921875 4.81470703 -7.56179687 4.00001953 -7.56445312 3.16064453 C-7.27400409 -1.28151724 -3.68675729 0.00240316 0 0 Z " fill="#F4ECFF" transform="translate(100.431640625,229.87060546875)"/>
<path d="M0 0 C0.5775 0.78375 1.155 1.5675 1.75 2.375 C4.24507592 5.2859219 6.1135537 6.74611444 9.94460678 7.26171303 C10.62673359 7.26724379 11.3088604 7.27277454 12.01165771 7.2784729 C12.7996727 7.28963638 13.58768768 7.30079987 14.39958191 7.31230164 C15.68243828 7.31554192 15.68243828 7.31554192 16.99121094 7.31884766 C18.35271019 7.33391609 18.35271019 7.33391609 19.74171448 7.34928894 C22.7392616 7.38015821 25.73671924 7.39716657 28.734375 7.4140625 C30.8137489 7.43277112 32.89311519 7.45234431 34.97247314 7.4727478 C40.44357822 7.52410721 45.91470792 7.56371263 51.38592529 7.60089111 C56.96958527 7.64090682 62.55314248 7.69201028 68.13671875 7.7421875 C79.09107368 7.83899193 90.04548659 7.92338233 101 8 C100.39816251 10.02045442 99.72693904 12.02111039 99 14 C95.82173799 15.589131 92.3886293 15.1562262 88.89770508 15.16113281 C88.06009644 15.16609772 87.22248779 15.17106262 86.35949707 15.17617798 C83.57950018 15.19082032 80.79956042 15.19760627 78.01953125 15.203125 C76.0885976 15.20887629 74.15766396 15.21463402 72.22673035 15.22039795 C68.17222833 15.23091489 64.11774617 15.23675251 60.06323242 15.24023438 C54.87586274 15.24570992 49.68875676 15.26971492 44.50146961 15.29820633 C40.50967147 15.31686408 36.51793631 15.32204006 32.52609825 15.32357025 C30.61439261 15.32659199 28.70268795 15.33460432 26.79102516 15.34775543 C24.11023796 15.36487578 21.43008779 15.36292072 18.74926758 15.35644531 C17.96406235 15.3656601 17.17885712 15.37487488 16.36985779 15.3843689 C11.19443823 15.34535412 7.59857371 14.42077046 3 12 C-0.30895436 8.15734332 -0.29130183 4.95213111 0 0 Z " fill="#9332EB" transform="translate(81,267)"/>
<path d="M0 0 C0.90105469 0.01804688 1.80210937 0.03609375 2.73046875 0.0546875 C3.41753906 0.07789063 4.10460937 0.10109375 4.8125 0.125 C4.8125 1.115 4.8125 2.105 4.8125 3.125 C3.8225 3.125 2.8325 3.125 1.8125 3.125 C1.8125 3.785 1.8125 4.445 1.8125 5.125 C2.781875 5.269375 3.75125 5.41375 4.75 5.5625 C7.8125 6.125 7.8125 6.125 8.8125 7.125 C9.05599011 9.64106449 9.19613366 12.15586024 9.3359375 14.6796875 C9.88746948 17.50967945 10.7398028 18.22823466 12.8125 20.125 C13 22.8125 13 22.8125 12.8125 25.125 C14.7925 25.125 16.7725 25.125 18.8125 25.125 C18.32303485 30.63148298 18.32303485 30.63148298 15.9375 32.9375 C10.58647894 35.92777647 4.77623191 35.9473187 -1.1875 35.125 C-4.13219434 33.61829807 -6.37318497 31.91035687 -8.1875 29.125 C-8.1875 27.805 -8.1875 26.485 -8.1875 25.125 C-5.8775 25.125 -3.5675 25.125 -1.1875 25.125 C-1.1875 24.135 -1.1875 23.145 -1.1875 22.125 C-1.97125 22.021875 -2.755 21.91875 -3.5625 21.8125 C-6.1875 21.125 -6.1875 21.125 -8.1875 18.125 C-8.40835401 15.39157306 -8.51207463 12.79378189 -8.5 10.0625 C-8.51611328 9.32966797 -8.53222656 8.59683594 -8.54882812 7.84179688 C-8.55078125 5.71484375 -8.55078125 5.71484375 -8.1875 2.125 C-4.87379 -0.08414 -3.8428979 -0.09981553 0 0 Z " fill="#F9D7B1" transform="translate(238.1875,135.875)"/>
<path d="M0 0 C1.54618502 -0.14561674 3.08878174 -0.33462762 4.625 -0.5625 C8.31665613 -1.06734186 10.64879422 -0.83775801 14 1 C14.66 0.34 15.32 -0.32 16 -1 C19.29714793 -0.67028521 20.6226839 -0.3773161 23 2 C22.44444444 6.55555556 22.44444444 6.55555556 21 8 C20.84285346 9.63256758 20.74914586 11.27135338 20.68359375 12.91015625 C20.64169922 13.89951172 20.59980469 14.88886719 20.55664062 15.90820312 C20.51732422 16.94912109 20.47800781 17.99003906 20.4375 19.0625 C20.39431641 20.10728516 20.35113281 21.15207031 20.30664062 22.22851562 C20.20018775 24.81886884 20.0981724 27.40932186 20 30 C18.35 30.66 16.7 31.32 15 32 C12.37200898 30.13497412 11.13634249 28.69589209 10.51171875 25.5078125 C10.27406427 23.0035728 10.0959336 20.51346021 10 18 C8.02 17.34 6.04 16.68 4 16 C4 15.34 4 14.68 4 14 C4.99 14 5.98 14 7 14 C7 13.01 7 12.02 7 11 C5.3745692 11.14095064 3.74965949 11.28792087 2.125 11.4375 C1.22007812 11.51871094 0.31515625 11.59992188 -0.6171875 11.68359375 C-3.01110861 11.86989285 -3.01110861 11.86989285 -5 13 C-5 18.94 -5 24.88 -5 31 C-5.99 30.34 -6.98 29.68 -8 29 C-8.41650391 26.83276367 -8.41650391 26.83276367 -8.4765625 24.16796875 C-8.5075 23.20439453 -8.5384375 22.24082031 -8.5703125 21.24804688 C-8.58835938 20.23806641 -8.60640625 19.22808594 -8.625 18.1875 C-8.67627871 16.20173196 -8.73085771 14.21604585 -8.7890625 12.23046875 C-8.80662598 11.34770264 -8.82418945 10.46493652 -8.84228516 9.55541992 C-8.93976409 6.95657566 -8.93976409 6.95657566 -9.57568359 4.2902832 C-10 2 -10 2 -9 0.125 C-5.92586705 -1.60419979 -3.43400361 -0.55387155 0 0 Z " fill="#57ACE8" transform="translate(236,125)"/>
<path d="M0 0 C5.01370652 0.39229383 8.98646344 2.98750013 13.25 5.4375 C13.9821875 5.84548828 14.714375 6.25347656 15.46875 6.67382812 C20.8696772 9.7393544 20.8696772 9.7393544 22 12 C20.75874818 14.61161731 19.4689476 17.10501786 18.0625 19.625 C17.67642578 20.33140625 17.29035156 21.0378125 16.89257812 21.765625 C15.93551304 23.51433651 14.96865969 25.25768432 14 27 C3.56682478 21.84510659 -6.76129216 16.53125596 -17 11 C-16.1875 8.5625 -16.1875 8.5625 -15 6 C-11.90521121 4.96840374 -10.47368607 5.02517138 -7.3125 5.4375 C-6.50425781 5.53933594 -5.69601563 5.64117187 -4.86328125 5.74609375 C-4.24839844 5.82988281 -3.63351563 5.91367187 -3 6 C-2.690625 5.195625 -2.38125 4.39125 -2.0625 3.5625 C-1 1 -1 1 0 0 Z " fill="#0B1B44" transform="translate(147,353)"/>
<path d="M0 0 C2.4375 0.8125 2.4375 0.8125 4.4375 2.8125 C4.5625 5.4375 4.5625 5.4375 4.4375 7.8125 C5.035625 7.874375 5.63375 7.93625 6.25 8 C9.52128907 9.21505022 9.97440857 10.63186645 11.4375 13.8125 C12.14895891 16.6624481 12.81408977 19.50783225 13.3984375 22.38671875 C14.2378079 25.05982601 14.2378079 25.05982601 17.0390625 26.14453125 C17.83054687 26.36496094 18.62203125 26.58539063 19.4375 26.8125 C16.23369983 28.94836678 15.41810033 29.04382175 11.75 28.9375 C10.94175781 28.91945313 10.13351563 28.90140625 9.30078125 28.8828125 C8.68589844 28.85960938 8.07101563 28.83640625 7.4375 28.8125 C7.4375 28.1525 7.4375 27.4925 7.4375 26.8125 C5.1275 26.4825 2.8175 26.1525 0.4375 25.8125 C0.1075 27.1325 -0.2225 28.4525 -0.5625 29.8125 C-1.5525 29.8125 -2.5425 29.8125 -3.5625 29.8125 C-3.5625 30.4725 -3.5625 31.1325 -3.5625 31.8125 C-5.8725 31.4825 -8.1825 31.1525 -10.5625 30.8125 C-9.2425 30.1525 -7.9225 29.4925 -6.5625 28.8125 C-7.2225 27.8225 -7.8825 26.8325 -8.5625 25.8125 C-8.41787545 19.88289365 -5.29916945 14.92229609 -2.5625 9.8125 C-3.2225 9.8125 -3.8825 9.8125 -4.5625 9.8125 C-5.89328101 3.40055513 -5.89328101 3.40055513 -4.4375 0.8125 C-2.5625 -0.1875 -2.5625 -0.1875 0 0 Z " fill="#A77853" transform="translate(90.5625,17.1875)"/>
<path d="M0 0 C4.455 0.99 4.455 0.99 9 2 C6.73910241 9.82899812 4.10293188 17.47022675 1.3125 25.125 C0.89677734 26.27226562 0.48105469 27.41953125 0.05273438 28.6015625 C-0.96240198 31.40193865 -1.98002429 34.20138366 -3 37 C-7.83935547 36.21435547 -7.83935547 36.21435547 -9.28515625 34.28515625 C-11.89106919 25.95477882 -9.92886866 18.52677503 -6.09375 10.984375 C-5.7328125 10.32953125 -5.371875 9.6746875 -5 9 C-3.68 9 -2.36 9 -1 9 C-0.67 6.03 -0.34 3.06 0 0 Z " fill="#0B1B45" transform="translate(333,344)"/>
<path d="M0 0 C1.0725 0.00515625 2.145 0.0103125 3.25 0.015625 C4.85875 0.00789063 4.85875 0.00789063 6.5 0 C9.25 0.265625 9.25 0.265625 11.25 2.265625 C11.69293542 5.24530076 11.57414428 8.25674366 11.5625 11.265625 C11.57861328 12.09835938 11.59472656 12.93109375 11.61132812 13.7890625 C11.61229492 14.98402344 11.61229492 14.98402344 11.61328125 16.203125 C11.61626221 16.93402344 11.61924316 17.66492188 11.62231445 18.41796875 C11.25 20.265625 11.25 20.265625 8.25 22.265625 C5.875 22.53125 5.875 22.53125 3.25 22.515625 C2.38375 22.52078125 1.5175 22.5259375 0.625 22.53125 C-1.75 22.265625 -1.75 22.265625 -4.75 20.265625 C-5.12231445 18.41796875 -5.12231445 18.41796875 -5.11328125 16.203125 C-5.11263672 15.40648437 -5.11199219 14.60984375 -5.11132812 13.7890625 C-5.09521484 12.95632812 -5.07910156 12.12359375 -5.0625 11.265625 C-5.06572266 10.43289062 -5.06894531 9.60015625 -5.07226562 8.7421875 C-4.99876006 0.48283478 -4.99876006 0.48283478 0 0 Z " fill="#EEEEEF" transform="translate(179.75,40.734375)"/>
<path d="M0 0 C0.99 0.33 1.98 0.66 3 1 C3 2.65 3 4.3 3 6 C4.98 6 6.96 6 9 6 C8.51053485 11.50648298 8.51053485 11.50648298 6.125 13.8125 C0.77397894 16.80277647 -5.03626809 16.8223187 -11 16 C-13.94469434 14.49329807 -16.18568497 12.78535687 -18 10 C-18 8.68 -18 7.36 -18 6 C-15.69 6 -13.38 6 -11 6 C-11 5.34 -11 4.68 -11 4 C-9.741875 3.896875 -8.48375 3.79375 -7.1875 3.6875 C-4.39500343 3.35141192 -3.25566879 3.19974124 -1 1.4375 C-0.67 0.963125 -0.34 0.48875 0 0 Z " fill="#F9D8B6" transform="translate(248,155)"/>
<path d="M0 0 C0 10.23 0 20.46 0 31 C-9.27746479 26.36126761 -9.27746479 26.36126761 -11.375 21.98828125 C-12.98021218 16.8817 -12.82133049 12.00675904 -10.4375 7.1875 C-8.33518791 3.9357223 -4.12571233 0 0 0 Z " fill="#F2F3F2" transform="translate(81,231)"/>
<path d="M0 0 C1.0725 0.00515625 2.145 0.0103125 3.25 0.015625 C4.85875 0.00789063 4.85875 0.00789063 6.5 0 C9.25 0.265625 9.25 0.265625 11.25 2.265625 C11.515625 5.234375 11.515625 5.234375 11.5 8.765625 C11.50515625 9.9309375 11.5103125 11.09625 11.515625 12.296875 C11.25 15.265625 11.25 15.265625 9.25 17.265625 C6.5 17.53125 6.5 17.53125 3.25 17.515625 C1.64125 17.52335937 1.64125 17.52335937 0 17.53125 C-2.75 17.265625 -2.75 17.265625 -4.75 15.265625 C-5.015625 12.296875 -5.015625 12.296875 -5 8.765625 C-5.00515625 7.6003125 -5.0103125 6.435 -5.015625 5.234375 C-4.66388484 1.30316144 -3.95776841 0.38228445 0 0 Z " fill="#ECEAEF" transform="translate(196.75,57.734375)"/>
<path d="M0 0 C0 0.66 0 1.32 0 2 C-1 3 -2 4 -3 5 C-3.99455909 7.98367726 -4.19559632 10.2004192 -4.31640625 13.32421875 C-4.35830078 14.35224609 -4.40019531 15.38027344 -4.44335938 16.43945312 C-4.48267578 17.51130859 -4.52199219 18.58316406 -4.5625 19.6875 C-4.60568359 20.77095703 -4.64886719 21.85441406 -4.69335938 22.97070312 C-4.79946838 25.64700791 -4.90152361 28.32340526 -5 31 C-8.43264715 29.0462166 -11.37572063 26.95062384 -14.3125 24.3125 C-15.00988281 23.68988281 -15.70726562 23.06726563 -16.42578125 22.42578125 C-16.94527344 21.95527344 -17.46476563 21.48476562 -18 21 C-15.59074737 14.40687451 -8.19656168 0 0 0 Z " fill="#418FD4" transform="translate(217,163)"/>
<path d="M0 0 C2.4375 0.8125 2.4375 0.8125 4.4375 2.8125 C4.5625 5.4375 4.5625 5.4375 4.4375 7.8125 C5.05625 7.895 5.675 7.9775 6.3125 8.0625 C8.4375 8.8125 8.4375 8.8125 10.4375 12.8125 C4.4975 13.3075 4.4975 13.3075 -1.5625 13.8125 C-1.5625 15.1325 -1.5625 16.4525 -1.5625 17.8125 C-2.2225 18.1425 -2.8825 18.4725 -3.5625 18.8125 C-3.5625 19.8025 -3.5625 20.7925 -3.5625 21.8125 C-2.9025 22.1425 -2.2425 22.4725 -1.5625 22.8125 C-1.15520772 25.13406597 -0.81811323 27.4693787 -0.5625 29.8125 C-1.5525 29.8125 -2.5425 29.8125 -3.5625 29.8125 C-3.5625 30.4725 -3.5625 31.1325 -3.5625 31.8125 C-5.8725 31.4825 -8.1825 31.1525 -10.5625 30.8125 C-9.2425 30.1525 -7.9225 29.4925 -6.5625 28.8125 C-7.2225 27.8225 -7.8825 26.8325 -8.5625 25.8125 C-8.41787545 19.88289365 -5.29916945 14.92229609 -2.5625 9.8125 C-3.2225 9.8125 -3.8825 9.8125 -4.5625 9.8125 C-5.89328101 3.40055513 -5.89328101 3.40055513 -4.4375 0.8125 C-2.5625 -0.1875 -2.5625 -0.1875 0 0 Z " fill="#020103" transform="translate(90.5625,17.1875)"/>
<path d="M0 0 C5.01370652 0.39229383 8.98646344 2.98750013 13.25 5.4375 C13.9821875 5.84548828 14.714375 6.25347656 15.46875 6.67382812 C20.8696772 9.7393544 20.8696772 9.7393544 22 12 C21 14.5625 21 14.5625 19 17 C15.5625 18.0625 15.5625 18.0625 12 18 C9.5625 16.25 9.5625 16.25 8 14 C8 13.01 8 12.02 8 11 C7.29875 10.731875 6.5975 10.46375 5.875 10.1875 C2.8350176 8.9318551 -0.0727774 7.49764877 -3 6 C-1.125 1.125 -1.125 1.125 0 0 Z " fill="#EFEEEE" transform="translate(147,353)"/>
<path d="M0 0 C1.48199902 0.44909061 2.96055236 0.90956564 4.4375 1.375 C5.26121094 1.63023437 6.08492188 1.88546875 6.93359375 2.1484375 C9 3 9 3 10 5 C9.01 5 8.02 5 7 5 C7.04125 5.763125 7.0825 6.52625 7.125 7.3125 C7 10 7 10 5 13 C3.68 13 2.36 13 1 13 C0.731875 13.845625 0.46375 14.69125 0.1875 15.5625 C-1.0478595 19.13854067 -2.476988 22.53860908 -4 26 C-6.9375 25.1875 -6.9375 25.1875 -10 24 C-11 21 -11 21 -9.9609375 18.90625 C-9.43757813 18.1121875 -8.91421875 17.318125 -8.375 16.5 C-5.03610432 11.21081478 -2.46586683 5.73914138 0 0 Z " fill="#F2F1F0" transform="translate(327,340)"/>
<path d="M0 0 C1.12535156 0.00580078 1.12535156 0.00580078 2.2734375 0.01171875 C3.02367187 0.00785156 3.77390625 0.00398437 4.546875 0 C10.14682697 0.01010822 10.14682697 0.01010822 11.2734375 1.13671875 C11.3713432 2.63409999 11.40318614 4.13614767 11.3984375 5.63671875 C11.40230469 6.85875 11.40230469 6.85875 11.40625 8.10546875 C11.2734375 10.13671875 11.2734375 10.13671875 10.2734375 11.13671875 C7.5961237 11.23653089 4.95039575 11.2755175 2.2734375 11.26171875 C1.14808594 11.26751953 1.14808594 11.26751953 0 11.2734375 C-5.59995197 11.26332928 -5.59995197 11.26332928 -6.7265625 10.13671875 C-6.8244682 8.63933751 -6.85631114 7.13728983 -6.8515625 5.63671875 C-6.85414063 4.82203125 -6.85671875 4.00734375 -6.859375 3.16796875 C-6.57958559 -1.11116346 -3.61029598 0.00651678 0 0 Z " fill="#C27AFB" transform="translate(172.7265625,229.86328125)"/>
<path d="M0 0 C2.5 1.5625 2.5 1.5625 4 4 C4 7.77684879 3.78395245 10.03513544 1.375 13 C-2.07663304 14.45331917 -4.42809484 13.92604949 -8 13 C-10.46324069 9.30513897 -10.38991688 7.36706908 -10 3 C-7.7773391 -1.05308751 -4.20075589 -0.5158823 0 0 Z " fill="#9130E9" transform="translate(142,254)"/>
<path d="M0 0 C17.16 0 34.32 0 52 0 C52 0.99 52 1.98 52 3 C34.84 3 17.68 3 0 3 C0 2.01 0 1.02 0 0 Z " fill="#C077FB" transform="translate(99,92)"/>
<path d="M0 0 C17.16 0 34.32 0 52 0 C51.67 0.99 51.34 1.98 51 3 C34.5 3 18 3 1 3 C0.67 2.01 0.34 1.02 0 0 Z " fill="#C27AFB" transform="translate(99,105)"/>
<path d="M0 0 C16.5 0 33 0 50 0 C50.495 1.485 50.495 1.485 51 3 C33.84 3 16.68 3 -1 3 C-0.67 2.01 -0.34 1.02 0 0 Z " fill="#BD6BFB" transform="translate(100,98)"/>
<path d="M0 0 C16.83 0 33.66 0 51 0 C51 0.99 51 1.98 51 3 C34.17 3 17.34 3 0 3 C0 2.01 0 1.02 0 0 Z " fill="#D0ABFF" transform="translate(126,153)"/>
<path d="M0 0 C16.83 0 33.66 0 51 0 C51 0.99 51 1.98 51 3 C34.17 3 17.34 3 0 3 C0 2.01 0 1.02 0 0 Z " fill="#CFA9FF" transform="translate(126,146)"/>
<path d="M0 0 C16.83 0 33.66 0 51 0 C51 0.99 51 1.98 51 3 C34.17 3 17.34 3 0 3 C0 2.01 0 1.02 0 0 Z " fill="#CEA7FF" transform="translate(126,140)"/>
<path d="M0 0 C0 1.32 0 2.64 0 4 C-4.32249895 4.71717395 -8.64582201 5.42908856 -12.9699707 6.13623047 C-14.43960702 6.3773136 -15.90901229 6.6198098 -17.37817383 6.86376953 C-19.4950071 7.21502192 -21.61263063 7.56111456 -23.73046875 7.90625 C-25.63928833 8.22045898 -25.63928833 8.22045898 -27.58666992 8.54101562 C-30.45503911 8.92672009 -33.11438566 9.09642822 -36 9 C-36 7.68 -36 6.36 -36 5 C-31.51656644 4.28399124 -27.03251622 3.57202663 -22.54785156 2.86376953 C-21.02293649 2.62236245 -19.49819448 2.37985948 -17.97363281 2.13623047 C-15.77974528 1.78583774 -13.58526154 1.43941639 -11.390625 1.09375 C-10.7113092 0.9843811 -10.03199341 0.87501221 -9.33209229 0.7623291 C-6.15332663 0.26541263 -3.23180685 0 0 0 Z " fill="#07123F" transform="translate(117,63)"/>
<path d="M0 0 C0 1.32 0 2.64 0 4 C-22.88769717 9.21756015 -22.88769717 9.21756015 -34 9 C-33.67 7.68 -33.34 6.36 -33 5 C-28.62206864 4.28591784 -24.24381012 3.57388718 -19.86523438 2.86376953 C-18.37523342 2.621823 -16.88532392 2.3793126 -15.39550781 2.13623047 C-13.25609656 1.78725859 -11.11636641 1.44030496 -8.9765625 1.09375 C-7.68830566 0.88427734 -6.40004883 0.67480469 -5.07275391 0.45898438 C-2 0 -2 0 0 0 Z " fill="#09123F" transform="translate(116,57)"/>
<path d="M0 0 C3.45826342 -0.05789006 6.91640293 -0.09355821 10.375 -0.125 C11.35984375 -0.14175781 12.3446875 -0.15851563 13.359375 -0.17578125 C14.77089844 -0.18544922 14.77089844 -0.18544922 16.2109375 -0.1953125 C17.51490479 -0.21102295 17.51490479 -0.21102295 18.84521484 -0.22705078 C21 0 21 0 23 2 C23.1953125 4.1640625 23.1953125 4.1640625 23.125 6.625 C23.10695312 7.44226563 23.08890625 8.25953125 23.0703125 9.1015625 C23.04710937 9.72804687 23.02390625 10.35453125 23 11 C18.37060228 9.58211402 14.11488883 7.69481522 9.8125 5.5 C9.19697266 5.19191406 8.58144531 4.88382813 7.94726562 4.56640625 C5.17763435 3.16808754 2.58540147 1.72360098 0 0 Z " fill="#E7D4FA" transform="translate(135,180)"/>
<path d="M0 0 C1.0725 0.00515625 2.145 0.0103125 3.25 0.015625 C4.85875 0.00789063 4.85875 0.00789063 6.5 0 C9.25 0.265625 9.25 0.265625 11.25 2.265625 C11.25 4.575625 11.25 6.885625 11.25 9.265625 C5.97 8.935625 0.69 8.605625 -4.75 8.265625 C-4.75 0.45880682 -4.75 0.45880682 0 0 Z " fill="#E8E2F0" transform="translate(179.75,64.734375)"/>
<path d="M0 0 C0 1.32 0 2.64 0 4 C-3.89470563 4.67336904 -7.79092933 5.33751584 -11.6875 6 C-13.34168945 6.28617188 -13.34168945 6.28617188 -15.02929688 6.578125 C-16.09599609 6.75859375 -17.16269531 6.9390625 -18.26171875 7.125 C-19.24100342 7.29257812 -20.22028809 7.46015625 -21.22924805 7.6328125 C-23.85911357 7.98132935 -26.35123122 8.06764613 -29 8 C-28.67 6.68 -28.34 5.36 -28 4 C-24.08422732 3.3280098 -20.1672478 2.66333258 -16.25 2 C-15.13882813 1.80921875 -14.02765625 1.6184375 -12.8828125 1.421875 C-11.81289062 1.24140625 -10.74296875 1.0609375 -9.640625 0.875 C-8.16384277 0.62363281 -8.16384277 0.62363281 -6.65722656 0.3671875 C-4 0 -4 0 0 0 Z " fill="#07113F" transform="translate(114,52)"/>
<path d="M0 0 C0.90105469 0.01804688 1.80210937 0.03609375 2.73046875 0.0546875 C3.41753906 0.07789063 4.10460937 0.10109375 4.8125 0.125 C4.8125 1.115 4.8125 2.105 4.8125 3.125 C3.8225 3.125 2.8325 3.125 1.8125 3.125 C1.8125 4.115 1.8125 5.105 1.8125 6.125 C3.1325 6.455 4.4525 6.785 5.8125 7.125 C5.8125 7.785 5.8125 8.445 5.8125 9.125 C3.8325 9.125 1.8525 9.125 -0.1875 9.125 C-0.1875 10.775 -0.1875 12.425 -0.1875 14.125 C-1.1775 14.125 -2.1675 14.125 -3.1875 14.125 C-3.1875 12.475 -3.1875 10.825 -3.1875 9.125 C-4.8375 9.125 -6.4875 9.125 -8.1875 9.125 C-8.375 5.75 -8.375 5.75 -8.1875 2.125 C-4.87379 -0.08414 -3.8428979 -0.09981553 0 0 Z " fill="#EFD0AC" transform="translate(238.1875,135.875)"/>
<path d="M0 0 C4.14427102 -0.04976954 8.28837953 -0.08589288 12.43286133 -0.10986328 C13.84011876 -0.11986557 15.2473557 -0.13347178 16.65454102 -0.15087891 C18.68771448 -0.17538366 20.72061106 -0.18654083 22.75390625 -0.1953125 C23.97408447 -0.20578613 25.1942627 -0.21625977 26.45141602 -0.22705078 C30.30506028 0.01951882 33.34213 0.81421825 37 2 C37 2.33 37 2.66 37 3 C25.12 3 13.24 3 1 3 C0.67 2.01 0.34 1.02 0 0 Z " fill="#C27CF9" transform="translate(99,201)"/>
<path d="M0 0 C11.55 0 23.1 0 35 0 C35 0.66 35 1.32 35 2 C27.50009325 3.20263656 20.0817215 3.11258251 12.5 3.0625 C11.200625 3.05798828 9.90125 3.05347656 8.5625 3.04882812 C5.37495175 3.0371092 2.18750045 3.02070219 -1 3 C-0.67 2.01 -0.34 1.02 0 0 Z " fill="#C27AFA" transform="translate(100,194)"/>
<path d="M0 0 C3.89581756 -0.02911003 7.791607 -0.04683587 11.6875 -0.0625 C12.79029297 -0.07087891 13.89308594 -0.07925781 15.02929688 -0.08789062 C16.6293457 -0.09272461 16.6293457 -0.09272461 18.26171875 -0.09765625 C19.24100342 -0.10289307 20.22028809 -0.10812988 21.22924805 -0.11352539 C23.92989399 -0.00287244 26.36178705 0.44076139 29 1 C30.9996441 1.03772913 33.00054061 1.04649906 35 1 C35.495 1.99 35.495 1.99 36 3 C24.12 3 12.24 3 0 3 C0 2.01 0 1.02 0 0 Z " fill="#C177F9" transform="translate(99,188)"/>
<path d="M0 0 C9.9 0 19.8 0 30 0 C30 0.99 30 1.98 30 3 C20.1 3 10.2 3 0 3 C0 2.01 0 1.02 0 0 Z " fill="#C076FB" transform="translate(99,207)"/>
<path d="M0 0 C9.9 0 19.8 0 30 0 C30 0.99 30 1.98 30 3 C20.1 3 10.2 3 0 3 C0 2.01 0 1.02 0 0 Z " fill="#C077FB" transform="translate(99,111)"/>
<path d="M0 0 C9.57 0 19.14 0 29 0 C29 0.99 29 1.98 29 3 C19.43 3 9.86 3 0 3 C0 2.01 0 1.02 0 0 Z " fill="#CEA7FF" transform="translate(126,159)"/>
<path d="M0 0 C5.05992125 0.56774707 8.91753858 2.94789312 13.25 5.4375 C13.9821875 5.84548828 14.714375 6.25347656 15.46875 6.67382812 C20.8696772 9.7393544 20.8696772 9.7393544 22 12 C21.34 12.66 20.68 13.32 20 14 C18.98679688 13.38511719 17.97359375 12.77023437 16.9296875 12.13671875 C15.57819703 11.32019326 14.22663048 10.50379369 12.875 9.6875 C12.20984375 9.28337891 11.5446875 8.87925781 10.859375 8.46289062 C6.98262085 6.12543592 3.08361945 3.96548039 -1 2 C-0.67 1.34 -0.34 0.68 0 0 Z " fill="#D7B086" transform="translate(147,353)"/>
<path d="M0 0 C0 0.99 0 1.98 0 3 C-2 5 -2 5 -4.61376953 5.22705078 C-5.69255371 5.21657715 -6.77133789 5.20610352 -7.8828125 5.1953125 C-9.04941406 5.18886719 -10.21601562 5.18242188 -11.41796875 5.17578125 C-12.64128906 5.15902344 -13.86460938 5.14226562 -15.125 5.125 C-16.35605469 5.11597656 -17.58710937 5.10695313 -18.85546875 5.09765625 C-21.90383815 5.07402548 -24.95182382 5.04108054 -28 5 C-28 4.67 -28 4.34 -28 4 C-23.70870842 3.33090374 -19.41690747 2.6651333 -15.125 2 C-13.29001953 1.71382813 -13.29001953 1.71382813 -11.41796875 1.421875 C-10.25136719 1.24140625 -9.08476563 1.0609375 -7.8828125 0.875 C-6.80402832 0.70742187 -5.72524414 0.53984375 -4.61376953 0.3671875 C-2 0 -2 0 0 0 Z " fill="#1C1C51" transform="translate(119,68)"/>
<path d="M0 0 C1.12451172 1.70214844 1.12451172 1.70214844 2 4 C1.30908203 6.29003906 1.30908203 6.29003906 0.0078125 8.765625 C-0.67861328 10.09980469 -0.67861328 10.09980469 -1.37890625 11.4609375 C-1.87261719 12.38132812 -2.36632812 13.30171875 -2.875 14.25 C-3.60396484 15.65378906 -3.60396484 15.65378906 -4.34765625 17.0859375 C-5.55110083 19.39843885 -6.76880351 21.70218856 -8 24 C-8.99 23.67 -9.98 23.34 -11 23 C-10.06715199 19.73503197 -9.09412151 17.13955949 -7.1875 14.3125 C-4.20483729 9.79589647 -2.15113131 4.9546549 0 0 Z " fill="#E7C8A7" transform="translate(327,340)"/>
<path d="M0 0 C4.95 0 9.9 0 15 0 C15.33 0.66 15.66 1.32 16 2 C11.38 2 6.76 2 2 2 C2 10.25 2 18.5 2 27 C1.67 27 1.34 27 1 27 C0.30896591 17.96719726 -0.11191923 9.06545775 0 0 Z " fill="#14224C" transform="translate(259,206)"/>
<path d="M0 0 C16.5 0 33 0 50 0 C50 0.33 50 0.66 50 1 C49.40531418 1.01030746 48.81062836 1.02061493 48.19792175 1.03123474 C42.01749631 1.13927885 35.83721728 1.25387866 29.65698242 1.37231445 C27.34939635 1.41566999 25.04177806 1.4573446 22.73413086 1.49731445 C19.42031133 1.55500183 16.10665403 1.61870092 12.79296875 1.68359375 C11.7585112 1.70030624 10.72405365 1.71701874 9.6582489 1.73423767 C8.6974794 1.75418289 7.7367099 1.77412811 6.74682617 1.79467773 C5.47774666 1.81799416 5.47774666 1.81799416 4.18302917 1.84178162 C1.82040513 1.92274103 1.82040513 1.92274103 -1 3 C-0.67 2.01 -0.34 1.02 0 0 Z " fill="#C78BFB" transform="translate(100,98)"/>
<path d="M0 0 C2 2 2 2 2.3125 4.5 C2.539375 5.325 2.76625 6.15 3 7 C5.47636012 8.37466625 5.47636012 8.37466625 8 9 C4.79619983 11.13586678 3.98060033 11.23132175 0.3125 11.125 C-0.89986328 11.09792969 -0.89986328 11.09792969 -2.13671875 11.0703125 C-3.05904297 11.03550781 -3.05904297 11.03550781 -4 11 C-3.625 9.0625 -3.625 9.0625 -3 7 C-2.34 6.67 -1.68 6.34 -1 6 C-0.34227572 2.97065509 -0.34227572 2.97065509 0 0 Z " fill="#0D0C15" transform="translate(102,35)"/>
<path d="M0 0 C0.33 0.99 0.66 1.98 1 3 C-3.53701494 4.45184478 -7.18061476 5.23509196 -12 5 C-11.67 3.68 -11.34 2.36 -11 1 C-7.32589215 -0.17571451 -3.83070817 -0.07366746 0 0 Z " fill="#0D1540" transform="translate(112,47)"/>
<path d="M0 0 C-0.33 1.32 -0.66 2.64 -1 4 C-1.66 4 -2.32 4 -3 4 C-2.67 4.99 -2.34 5.98 -2 7 C-3.98 7.99 -3.98 7.99 -6 9 C-5.34 7.35 -4.68 5.7 -4 4 C-5.32 4.33 -6.64 4.66 -8 5 C-8.33 4.34 -8.66 3.68 -9 3 C-9.99 2.34 -10.98 1.68 -12 1 C-7.93631321 0.22596442 -4.13574827 -0.0984702 0 0 Z " fill="#926948" transform="translate(101,30)"/>
<path d="M0 0 C1.1484375 1.671875 1.1484375 1.671875 2 4 C1.1015625 6.578125 1.1015625 6.578125 -0.375 9.25 C-1.09816406 10.58804687 -1.09816406 10.58804687 -1.8359375 11.953125 C-2.22007812 12.62859375 -2.60421875 13.3040625 -3 14 C-3.66 13.67 -4.32 13.34 -5 13 C-4.54554036 11.58208592 -4.08625056 10.16571954 -3.625 8.75 C-3.24214844 7.56664062 -3.24214844 7.56664062 -2.8515625 6.359375 C-2.04826333 4.13372042 -1.10288338 2.09068328 0 0 Z " fill="#F2D3B1" transform="translate(327,340)"/>
<path d="M0 0 C4.62 0 9.24 0 14 0 C14 3.3 14 6.6 14 10 C13.67 10 13.34 10 13 10 C12.690625 8.865625 12.38125 7.73125 12.0625 6.5625 C11.37075469 3.21224901 11.37075469 3.21224901 10 2 C8.31816052 1.76712992 6.6287584 1.58735834 4.9375 1.4375 C4.01839844 1.35371094 3.09929687 1.26992187 2.15234375 1.18359375 C1.08693359 1.09271484 1.08693359 1.09271484 0 1 C0 0.67 0 0.34 0 0 Z " fill="#B228FD" transform="translate(178,63)"/>
<path d="M0 0 C0.66 0.33 1.32 0.66 2 1 C1.67 1.66 1.34 2.32 1 3 C1.66 3.33 2.32 3.66 3 4 C3.40729228 6.32156597 3.74438677 8.6568787 4 11 C3.01 11 2.02 11 1 11 C1.0928125 9.824375 1.0928125 9.824375 1.1875 8.625 C1.125625 7.75875 1.06375 6.8925 1 6 C0.01 5.34 -0.98 4.68 -2 4 C-2 3.01 -2 2.02 -2 1 C-1.34 0.67 -0.68 0.34 0 0 Z " fill="#A38C72" transform="translate(234,139)"/>
<path d="M0 0 C0 1.32 0 2.64 0 4 C-3.85645121 4.22036864 -6.49223216 3.60355101 -10 2 C-10 1.67 -10 1.34 -10 1 C-6.56484998 0.37542727 -3.50935186 0 0 0 Z " fill="#030B3C" transform="translate(117,63)"/>
<path d="M0 0 C0 0.66 0 1.32 0 2 C-1.5625 3.3125 -1.5625 3.3125 -4 5 C-5.25086604 5.89462367 -6.50082033 6.79052312 -7.75 7.6875 C-8.8225 8.450625 -9.895 9.21375 -11 10 C-9.63088196 6.8510285 -8.1247864 4.9521513 -5.5 2.75 C-4.8915625 2.22921875 -4.283125 1.7084375 -3.65625 1.171875 C-2 0 -2 0 0 0 Z " fill="#4D8ED9" transform="translate(217,163)"/>
<path d="M0 0 C4.54195365 -0.37849614 5.0144396 0.0108297 9 3 C5.7 3.33 2.4 3.66 -1 4 C-0.67 2.68 -0.34 1.36 0 0 Z " fill="#040D3C" transform="translate(103,59)"/>
<path d="M0 0 C3.82097239 0.53069061 6.06171403 1.49701566 9 4 C7.375 4.6875 7.375 4.6875 5 5 C1.75 3.5625 1.75 3.5625 -1 2 C-0.67 1.34 -0.34 0.68 0 0 Z " fill="#CAA47B" transform="translate(147,353)"/>
<path d="M0 0 C1.98 0.495 1.98 0.495 4 1 C4 2.32 4 3.64 4 5 C2.35 4.67 0.7 4.34 -1 4 C-0.67 2.68 -0.34 1.36 0 0 Z " fill="#4293D7" transform="translate(252,126)"/>
<path d="M0 0 C1.98 0 3.96 0 6 0 C5.67 1.32 5.34 2.64 5 4 C4.34 4 3.68 4 3 4 C3.33 4.99 3.66 5.98 4 7 C2.02 7.99 2.02 7.99 0 9 C1.875 3.125 1.875 3.125 3 2 C2.01 1.34 1.02 0.68 0 0 Z " fill="#7E5A3D" transform="translate(95,30)"/>
<path d="M0 0 C1.32 0.99 2.64 1.98 4 3 C3.67 3.99 3.34 4.98 3 6 C1.02 5.34 -0.96 4.68 -3 4 C-3 3.34 -3 2.68 -3 2 C-2.01 2 -1.02 2 0 2 C0 1.34 0 0.68 0 0 Z " fill="#7A6855" transform="translate(243,137)"/>
<path d="M0 0 C0.66 0 1.32 0 2 0 C2 1.32 2 2.64 2 4 C-2.29 4 -6.58 4 -11 4 C-11 3.67 -11 3.34 -11 3 C-10.28972656 2.95101562 -9.57945313 2.90203125 -8.84765625 2.8515625 C-7.46900391 2.73941406 -7.46900391 2.73941406 -6.0625 2.625 C-5.14597656 2.55539063 -4.22945313 2.48578125 -3.28515625 2.4140625 C-2.15400391 2.20910156 -2.15400391 2.20910156 -1 2 C-0.67 1.34 -0.34 0.68 0 0 Z " fill="#916460" transform="translate(132,69)"/>
<path d="M0 0 C0.66 0.66 1.32 1.32 2 2 C0.375 4 0.375 4 -2 6 C-5.25 6.25 -5.25 6.25 -8 6 C-6 4 -6 4 -3.4375 3 C-0.85158559 2.25129886 -0.85158559 2.25129886 0 0 Z " fill="#E0C4A6" transform="translate(247,153)"/>
<path d="M0 0 C0.66 0 1.32 0 2 0 C1.67 1.65 1.34 3.3 1 5 C-1.97 4.505 -1.97 4.505 -5 4 C-4.67 3.34 -4.34 2.68 -4 2 C-2.68 2 -1.36 2 0 2 C0 1.34 0 0.68 0 0 Z " fill="#122149" transform="translate(101,59)"/>
<path d="M0 0 C0.99 0 1.98 0 3 0 C3 0.66 3 1.32 3 2 C3.99 2.33 4.98 2.66 6 3 C6 3.33 6 3.66 6 4 C4.02 4 2.04 4 0 4 C0 2.68 0 1.36 0 0 Z " fill="#161B43" transform="translate(86,50)"/>
</svg>
