<?xml version="1.0" encoding="UTF-8"?>
<svg version="1.1" xmlns="http://www.w3.org/2000/svg" width="400" height="286">
<path d="M0 0 C6.81929991 3.78394236 10.64741044 8.59066882 13.09765625 15.94140625 C14.08889519 23.65890942 12.46969972 29.52529051 8.09765625 35.94140625 C6.18252703 38.02510431 4.47989573 39.3532466 2.09765625 40.94140625 C1.43765625 40.94140625 0.77765625 40.94140625 0.09765625 40.94140625 C-0.23234375 63.05140625 -0.56234375 85.16140625 -0.90234375 107.94140625 C12.14046645 107.86259977 12.14046645 107.86259977 25.18310547 107.76123047 C26.83951558 107.75537966 28.49592861 107.75028551 30.15234375 107.74609375 C31.40349976 107.73074585 31.40349976 107.73074585 32.67993164 107.71508789 C39.66360917 107.71305716 46.98200202 108.0189813 53.03515625 111.75390625 C57.14905673 116.11713403 58.47609368 119.32464066 58.390625 125.3359375 C58.38095703 126.53798828 58.37128906 127.74003906 58.36132812 128.97851562 C58.33619141 130.22439453 58.31105469 131.47027344 58.28515625 132.75390625 C58.27162109 134.01912109 58.25808594 135.28433594 58.24414062 136.58789062 C58.20883943 139.70616268 58.15952444 142.82356667 58.09765625 145.94140625 C57.494375 145.63460937 56.89109375 145.3278125 56.26953125 145.01171875 C53.92290052 143.85528562 51.53502595 142.88927225 49.09765625 141.94140625 C47.44765625 143.59140625 45.79765625 145.24140625 44.09765625 146.94140625 C42.09765625 145.94140625 40.09765625 144.94140625 38.09765625 143.94140625 C38.09765625 143.28140625 38.09765625 142.62140625 38.09765625 141.94140625 C34.76953054 142.51522103 33.3992317 143.53521373 31.09765625 145.94140625 C30.43765625 145.94140625 29.77765625 145.94140625 29.09765625 145.94140625 C29.1440625 146.81023437 29.19046875 147.6790625 29.23828125 148.57421875 C29.53308298 157.98681688 29.53308298 157.98681688 27.47265625 162.50390625 C22.6703863 167.43255173 18.55153223 169.78969003 11.74725342 170.08857727 C10.39893221 170.1036088 9.05054328 170.11317674 7.70214844 170.1184082 C6.96338974 170.1249794 6.22463104 170.1315506 5.46348572 170.13832092 C3.02383309 170.15799618 0.58424187 170.16970398 -1.85546875 170.1796875 C-2.69132256 170.18376303 -3.52717636 170.18783855 -4.38835907 170.19203758 C-8.81310273 170.21287434 -13.2378156 170.22718605 -17.66259766 170.23657227 C-22.21991296 170.24762805 -26.77673885 170.282025 -31.33388138 170.32174397 C-34.84961827 170.34795675 -38.36523936 170.35626825 -41.88106537 170.35985374 C-43.56030327 170.36470814 -45.2395364 170.37628928 -46.91867828 170.39489174 C-64.98711733 170.58261325 -64.98711733 170.58261325 -71.43536377 164.49385071 C-76.33551631 159.07745834 -75.92326423 154.84516484 -75.90234375 147.94140625 C-76.48672211 147.94584747 -77.07110046 147.9502887 -77.67318726 147.9548645 C-83.73978233 147.99901387 -89.80633198 148.02923759 -95.87304688 148.05126953 C-98.13901624 148.06134484 -100.40497256 148.07500543 -102.67089844 148.09228516 C-105.92255876 148.11646636 -109.17404762 148.12787388 -112.42578125 148.13671875 C-113.95239883 148.15220261 -113.95239883 148.15220261 -115.50985718 148.16799927 C-116.45068146 148.16815033 -117.39150574 148.16830139 -118.36083984 148.16845703 C-119.19134857 148.17289825 -120.0218573 148.17733948 -120.87753296 148.18191528 C-122.90234375 147.94140625 -122.90234375 147.94140625 -124.90234375 145.94140625 C-125.16304016 143.8608551 -125.16304016 143.8608551 -125.17700195 141.26391602 C-125.18653397 140.29273331 -125.19606598 139.3215506 -125.20588684 138.32093811 C-125.20497543 137.26885666 -125.20406403 136.21677521 -125.203125 135.1328125 C-125.20741013 134.05515121 -125.21169525 132.97748993 -125.21611023 131.86717224 C-125.22186101 129.58487654 -125.22234832 127.30256251 -125.21801758 125.02026367 C-125.21485977 121.52165544 -125.23830077 118.02389408 -125.26367188 114.52539062 C-125.26594494 112.31119899 -125.26664833 110.09700507 -125.265625 107.8828125 C-125.27483475 106.83275528 -125.28404449 105.78269806 -125.29353333 104.70082092 C-125.28730453 103.72648605 -125.28107574 102.75215118 -125.2746582 101.74829102 C-125.27528763 100.89050552 -125.27591705 100.03272003 -125.27656555 99.14894104 C-124.90234375 96.94140625 -124.90234375 96.94140625 -123.66427612 95.16226196 C-121.40565022 93.59724371 -120.07543639 93.57833974 -117.33911133 93.60083008 C-116.4055481 93.60119263 -115.47198486 93.60155518 -114.51013184 93.60192871 C-113.53225708 93.61727661 -112.55438232 93.63262451 -111.546875 93.6484375 C-110.19499084 93.65296936 -110.19499084 93.65296936 -108.8157959 93.65759277 C-105.44869538 93.67329054 -102.08175809 93.71517457 -98.71484375 93.75390625 C-91.18671875 93.81578125 -83.65859375 93.87765625 -75.90234375 93.94140625 C-75.90234375 77.77140625 -75.90234375 61.60140625 -75.90234375 44.94140625 C-85.47234375 44.94140625 -95.04234375 44.94140625 -104.90234375 44.94140625 C-104.90234375 29.22969454 -104.90234375 29.22969454 -100.6015625 24.515625 C-90.54431882 15.65626642 -68.43759254 20.07392702 -56.08984375 20.37890625 C-53.74024765 20.43222881 -51.39063824 20.48496818 -49.04101562 20.53710938 C-43.32795404 20.66514678 -37.61509922 20.80040108 -31.90234375 20.94140625 C-31.76957031 19.69617188 -31.63679688 18.4509375 -31.5 17.16796875 C-30.92390727 11.76500195 -28.99632422 7.81585651 -24.96484375 4.20703125 C-17.53664548 -1.52797477 -9.1085641 -3.32223536 0 0 Z " fill="#B5B1FC" transform="translate(151.90234375,18.05859375)"/>
<path d="M0 0 C6.30886848 0.87653233 9.11639373 4.13262074 13 9 C13.72433371 10.4472104 14.41789464 11.91005805 15.0871582 13.38354492 C17.64250457 18.6497478 20.28001332 23.39614536 25 27 C33.73902229 30.01101905 43.54658942 28.83350558 52.625 28.375 C56.36453028 28.26103704 60.10324243 28.17286948 63.84384155 28.10269165 C66.15985482 28.05127924 68.47547495 27.97079731 70.78921509 27.85604858 C78.74644269 27.56838702 85.84962037 28.48433987 92.11245728 33.78939819 C98.55290273 40.26842722 101.20620485 49.0698046 102 58 C101.34 58 100.68 58 100 58 C100.30035156 58.85722656 100.60070312 59.71445313 100.91015625 60.59765625 C104.8510158 72.4469526 104.8510158 72.4469526 103 78 C99.83759418 80.10827055 98.49342531 80.33817465 94.8125 80.625 C93.46091797 80.73714844 93.46091797 80.73714844 92.08203125 80.8515625 C91.39496094 80.90054688 90.70789063 80.94953125 90 81 C90.10022461 81.96973251 90.20044922 82.93946503 90.30371094 83.93858337 C91.25032116 93.10345277 92.19209651 102.26880798 93.12921143 111.43465328 C93.61107666 116.14622177 94.09460904 120.85760641 94.58203125 125.56860352 C95.05286756 130.11990766 95.51922026 134.67165143 95.98254395 139.22372627 C96.15956953 140.95529944 96.33817591 142.68671179 96.51843262 144.41795158 C96.77175831 146.85365926 97.01931841 149.28989222 97.265625 151.72631836 C97.34043091 152.43266922 97.41523682 153.13902008 97.49230957 153.86677551 C97.99567795 158.9300559 98.05863778 163.91163279 98 169 C97.34 169 96.68 169 96 169 C96.2165625 169.84304687 96.433125 170.68609375 96.65625 171.5546875 C97.07390625 173.19824219 97.07390625 173.19824219 97.5 174.875 C97.91765625 176.51082031 97.91765625 176.51082031 98.34375 178.1796875 C99 181 99 181 99 183 C86.79 183 74.58 183 62 183 C62 182.01 62 181.02 62 180 C63.28913487 179.32845067 64.58140204 178.66291141 65.875 178 C66.59429687 177.62875 67.31359375 177.2575 68.0546875 176.875 C70 176 70 176 72 176 C71.67 174.02 71.34 172.04 71 170 C70.01 170 69.02 170 68 170 C68 168.68 68 167.36 68 166 C67.401875 166.495 66.80375 166.99 66.1875 167.5 C64 169 64 169 61 169 C60.24120459 160.77866122 59.76809084 152.58302179 59.5 144.33203125 C59.4166775 141.9511715 59.33334384 139.57031213 59.25 137.18945312 C59.12405353 133.4900215 58.99926282 129.790553 58.875 126.09106445 C58.75282443 122.48378314 58.6265511 118.87666131 58.5 115.26953125 C58.46455078 114.17244339 58.42910156 113.07535553 58.39257812 111.94502258 C58.17987021 105.91372118 57.75195947 99.98865219 57 94 C51.7202116 91.3601058 47.92227175 90.1262222 42 91 C38.31685825 95.32085887 37.47246092 98.45006392 37.5625 104.0625 C37.56378906 105.24972656 37.56507813 106.43695313 37.56640625 107.66015625 C37.7813248 111.20951684 38.60184713 114.43347355 39.5078125 117.8671875 C40.81720781 123.26080662 41.26376299 128.2695834 41.30078125 133.78515625 C41.30644608 134.54169998 41.3121109 135.29824371 41.31794739 136.07771301 C41.32907749 139.20510579 41.32091573 142.33152353 41.28491211 145.45874023 C41.26425192 147.77671803 41.28014531 150.09223074 41.30078125 152.41015625 C41.28227615 153.11431168 41.26377106 153.8184671 41.2447052 154.54396057 C41.21527611 156.80303334 41.21527611 156.80303334 42 160 C44.83854362 162.43039659 44.83854362 162.43039659 48 164 C53.26930153 169.71693637 55.30512414 175.21933446 55 183 C51.04 183 47.08 183 43 183 C42.505 180.525 42.505 180.525 42 178 C41.67 179.65 41.34 181.3 41 183 C10.31 183 -20.38 183 -52 183 C-52 171.45 -52 159.9 -52 148 C-42.43 148 -32.86 148 -23 148 C-23 140.74 -23 133.48 -23 126 C-14.09 126 -5.18 126 4 126 C4.495 124.02 4.495 124.02 5 122 C7.03125 120.9453125 7.03125 120.9453125 9.5 120.125 C11.94210065 119.22213949 11.94210065 119.22213949 14 118 C15.21790719 114.883975 15.21790719 114.883975 15 112 C13.68 112 12.36 112 11 112 C10.67 111.34 10.34 110.68 10 110 C9.01 110.66 8.02 111.32 7 112 C4.3125 111.625 4.3125 111.625 2 111 C-1.74206827 97.72653139 0.36436475 80.68279211 6.90234375 68.67578125 C9.74944781 64.32913483 13.83653407 61.03820487 18 58 C18.66 58 19.32 58 20 58 C19.99392104 55.9787463 19.94332382 53.95760775 19.875 51.9375 C19.85179687 50.81214844 19.82859375 49.68679687 19.8046875 48.52734375 C18.87224768 44.43999832 17.47545952 42.92132771 14.68457031 39.93969727 C11.55111986 36.33168802 9.32250283 32.12374683 6.9375 28 C2.79745504 20.86504073 2.79745504 20.86504073 -1.83984375 14.05078125 C-4 11 -4 11 -4.5 8.1875 C-4 6 -4 6 -1 4 C-0.27617533 1.94074861 -0.27617533 1.94074861 0 0 Z " fill="#16084F" transform="translate(220,83)"/>
<path d="M0 0 C7.59 0 15.18 0 23 0 C25.05666335 7.46150952 26.25197458 14.08603377 26.30078125 21.78515625 C26.30641083 22.54106049 26.31204041 23.29696472 26.31784058 24.07577515 C26.32910811 27.20381522 26.32092318 30.33087599 26.28491211 33.45874023 C26.26425192 35.77671803 26.28014531 38.09223074 26.30078125 40.41015625 C26.27302361 41.46638939 26.27302361 41.46638939 26.2447052 42.54396057 C26.21527611 44.80303334 26.21527611 44.80303334 27 48 C29.83854362 50.43039659 29.83854362 50.43039659 33 52 C38.26930153 57.71693637 40.30512414 63.21933446 40 71 C36.04 71 32.08 71 28 71 C27.67 69.35 27.34 67.7 27 66 C26.67 67.65 26.34 69.3 26 71 C-4.69 71 -35.38 71 -67 71 C-67 59.45 -67 47.9 -67 36 C-57.43 36 -47.86 36 -38 36 C-38 28.74 -38 21.48 -38 14 C-29.09 14 -20.18 14 -11 14 C-10.67 12.68 -10.34 11.36 -10 10 C-7.73481072 8.82384403 -5.45543533 8.11047418 -3.03125 7.3203125 C-2.3609375 6.88460937 -1.690625 6.44890625 -1 6 C-0.67 4.02 -0.34 2.04 0 0 Z " fill="#30C776" transform="translate(235,195)"/>
<path d="M0 0 C1.36270775 -0.00450165 1.36270775 -0.00450165 2.75294495 -0.00909424 C4.22476479 0.00942596 4.22476479 0.00942596 5.72631836 0.02832031 C6.74157089 0.03019348 7.75682343 0.03206665 8.80284119 0.03399658 C10.9556709 0.04072492 13.10848823 0.0546548 15.26123047 0.07519531 C18.52900789 0.106094 21.79630053 0.11614348 25.06420898 0.12207031 C27.15991788 0.13125186 29.25562195 0.14163126 31.35131836 0.15332031 C32.31836197 0.15757019 33.28540558 0.16182007 34.28175354 0.16619873 C51.49109738 0.34388058 51.49109738 0.34388058 54.50366211 3.35644531 C54.76435852 5.44372559 54.76435852 5.44372559 54.77832031 8.04980469 C54.79261833 9.51142029 54.79261833 9.51142029 54.8072052 11.00256348 C54.80629379 12.05778198 54.80538239 13.11300049 54.80444336 14.20019531 C54.80872849 15.28022827 54.81301361 16.36026123 54.81742859 17.47302246 C54.82317889 19.75951434 54.82366703 22.04602452 54.81933594 24.33251953 C54.81617502 27.84211219 54.83963052 31.35086318 54.86499023 34.86035156 C54.86726295 37.07779841 54.86796685 39.29524754 54.86694336 41.51269531 C54.87615311 42.56791382 54.88536285 43.62313232 54.89485168 44.71032715 C54.88862289 45.68473755 54.8823941 46.65914795 54.87597656 47.66308594 C54.87660599 48.52309204 54.87723541 49.38309814 54.87788391 50.26916504 C54.75439072 50.95796753 54.63089752 51.64677002 54.50366211 52.35644531 C51.11244969 54.61725359 49.93793115 54.60890796 45.96240234 54.61523438 C44.26065102 54.62469086 44.26065102 54.62469086 42.52452087 54.63433838 C41.29947342 54.63028992 40.07442596 54.62624146 38.81225586 54.62207031 C36.9279763 54.62494049 36.9279763 54.62494049 35.00563049 54.62786865 C32.34834042 54.62923064 29.69141739 54.62653512 27.03417969 54.6171875 C23.62538438 54.6057814 20.2169036 54.61236208 16.80811977 54.62433243 C13.55948708 54.63328782 10.31089265 54.62702248 7.06225586 54.62207031 C5.22164833 54.62814301 5.22164833 54.62814301 3.34385681 54.63433838 C2.21250809 54.62803406 1.08115936 54.62172974 -0.08447266 54.61523438 C-1.0835817 54.61364319 -2.08269073 54.612052 -3.11207581 54.6104126 C-5.49633789 54.35644531 -5.49633789 54.35644531 -7.49633789 52.35644531 C-7.7570343 50.27589417 -7.7570343 50.27589417 -7.77099609 47.67895508 C-7.78052811 46.70777237 -7.79006012 45.73658966 -7.79988098 44.73597717 C-7.79896957 43.68389572 -7.79805817 42.63181427 -7.79711914 41.54785156 C-7.80140427 40.47019028 -7.80568939 39.39252899 -7.81010437 38.2822113 C-7.81585515 35.9999156 -7.81634246 33.71760157 -7.81201172 31.43530273 C-7.80885391 27.9366945 -7.83229491 24.43893314 -7.85766602 20.94042969 C-7.85993908 18.72623805 -7.86064247 16.51204413 -7.85961914 14.29785156 C-7.86882889 13.24779434 -7.87803864 12.19773712 -7.88752747 11.11585999 C-7.88129868 10.14152512 -7.87506989 9.16719025 -7.86865234 8.16333008 C-7.86928177 7.30554459 -7.86991119 6.44775909 -7.87055969 5.5639801 C-7.49633789 3.35644531 -7.49633789 3.35644531 -6.25408936 1.57829285 C-4.0169653 0.02322402 -2.71300587 -0.0123923 0 0 Z " fill="#5439B6" transform="translate(34.496337890625,111.6435546875)"/>
<path d="M0 0 C6.30886848 0.87653233 9.11639373 4.13262074 13 9 C13.72433371 10.4472104 14.41789464 11.91005805 15.0871582 13.38354492 C17.64250457 18.6497478 20.28001332 23.39614536 25 27 C33.73902229 30.01101905 43.54658942 28.83350558 52.625 28.375 C56.36453028 28.26103704 60.10324243 28.17286948 63.84384155 28.10269165 C66.15985482 28.05127924 68.47547495 27.97079731 70.78921509 27.85604858 C78.74644269 27.56838702 85.84962037 28.48433987 92.11245728 33.78939819 C98.55290273 40.26842722 101.20620485 49.0698046 102 58 C101.34 58 100.68 58 100 58 C100.30035156 58.85722656 100.60070312 59.71445313 100.91015625 60.59765625 C104.8510158 72.4469526 104.8510158 72.4469526 103 78 C96.71379516 82.19080323 88.43208662 80.05710823 81.375 78.6875 C77.7734375 77.94921875 77.7734375 77.94921875 75 77 C74.67 76.01 74.34 75.02 74 74 C72.68 74 71.36 74 70 74 C69.5387729 71.6046939 69.08102024 69.20879868 68.625 66.8125 C68.49867188 66.15830078 68.37234375 65.50410156 68.2421875 64.83007812 C66.99402615 58.24602699 65.99470021 51.62643994 65 45 C63.09323486 45.02356567 63.09323486 45.02356567 61.14794922 45.04760742 C56.41803356 45.1020325 51.68814544 45.13639592 46.95800781 45.16479492 C44.91336406 45.17985288 42.86875245 45.20030357 40.82421875 45.22631836 C37.88012748 45.26283311 34.93646443 45.27975651 31.9921875 45.29296875 C31.0825827 45.30845261 30.17297791 45.32393646 29.23580933 45.33988953 C24.06956623 45.34125003 20.4440532 44.94045532 16 42 C14.31190626 39.82918572 12.93866225 37.84669886 11.5625 35.5 C10.99172729 34.56994141 10.99172729 34.56994141 10.40942383 33.62109375 C9.63417611 32.35760698 8.86450569 31.09068034 8.10058594 29.8203125 C6.50727113 27.18505181 4.84764325 24.59352852 3.1875 22 C2.63320312 21.12085937 2.07890625 20.24171875 1.5078125 19.3359375 C0.2466843 17.38216893 -1.07231214 15.50571335 -2.4375 13.625 C-4.1492931 10.74918759 -4.63833464 9.28286385 -4 6 C-3.01 5.34 -2.02 4.68 -1 4 C-0.27617533 1.94074861 -0.27617533 1.94074861 0 0 Z " fill="#EEA7FE" transform="translate(220,83)"/>
<path d="M0 0 C4.59627951 2.25477863 8.03873744 5.2183954 10 10 C10.62626616 14.28731526 10.69626805 18.54713595 10.75 22.875 C10.77964844 24.0403125 10.80929688 25.205625 10.83984375 26.40625 C10.91028601 29.27090195 10.96311113 32.13475205 11 35 C13.475 32.525 13.475 32.525 16 30 C18.27292941 31.01889939 19.83024561 31.80902631 21.5 33.6875 C22.90330318 35.2169639 22.90330318 35.2169639 24.875 34.9375 C27.64685934 33.71462088 29.71393087 31.96855953 32 30 C35.36591866 31.44253657 37.51047079 33.33264727 40 36 C41.98 34.02 43.96 32.04 46 30 C49.47667956 31.54519091 52.26337869 33.34386755 55 36 C56.18656057 41.70433465 55.7877185 47.27307868 53.375 52.5625 C48.65620054 57.40547839 44.53438011 59.86619502 37.82354736 60.12025452 C36.57112244 60.11803391 35.31869751 60.11581329 34.02832031 60.11352539 C33.3352327 60.11367142 32.64214508 60.11381744 31.92805481 60.1139679 C29.64471267 60.11327307 27.36145283 60.10550085 25.078125 60.09765625 C23.49200485 60.09579054 21.90588412 60.09436736 20.31976318 60.09336853 C16.15063885 60.08955538 11.9815495 60.07973537 7.81243896 60.06866455 C3.55595371 60.05842457 -0.70053722 60.05386537 -4.95703125 60.04882812 C-13.30470353 60.03811202 -21.65234741 60.02105004 -30 60 C-29 57 -29 57 -26.125 55.25 C-22.49180653 52.6341007 -21.21642596 50.18473386 -20 46 C-19.60958271 43.12514855 -19.58219072 40.29669691 -19.59375 37.3984375 C-19.57749573 36.19920151 -19.57749573 36.19920151 -19.56091309 34.97573853 C-19.51535661 31.58414195 -19.50356705 28.19262885 -19.48876953 24.80078125 C-19.47304933 22.31222605 -19.44005785 19.82430216 -19.40625 17.3359375 C-19.40927124 16.57437347 -19.41229248 15.81280945 -19.41540527 15.02816772 C-19.35166362 10.50308142 -18.81773293 7.58313465 -16 4 C-10.82126784 0.1677382 -6.42227038 -1.14850821 0 0 Z " fill="#766CFD" transform="translate(126,128)"/>
<path d="M0 0 C6.81929991 3.78394236 10.64741044 8.59066882 13.09765625 15.94140625 C14.09228861 23.68532963 12.44140049 29.48882575 8.09765625 35.94140625 C4.3071563 40.50068366 -0.19517796 42.15601646 -5.90234375 42.94140625 C-6.61519531 43.04839844 -7.32804687 43.15539063 -8.0625 43.265625 C-14.84089223 43.80359264 -19.73331406 41.18868589 -24.90234375 36.94140625 C-29.36912394 31.86931473 -31.82977522 25.66743197 -31.93359375 18.90625 C-31.47805878 12.99568376 -29.40094517 8.17805752 -24.96484375 4.20703125 C-17.53664548 -1.52797477 -9.1085641 -3.32223536 0 0 Z " fill="#FEBA06" transform="translate(151.90234375,18.05859375)"/>
<path d="M0 0 C15.18 0 30.36 0 46 0 C47.60487369 4.01218422 48.36360814 6.59066921 48.8515625 10.73828125 C48.98046875 11.80498047 49.109375 12.87167969 49.2421875 13.97070312 C49.36851562 15.07349609 49.49484375 16.17628906 49.625 17.3125 C49.7590625 18.43462891 49.893125 19.55675781 50.03125 20.71289062 C50.36030417 23.47459528 50.68299993 26.23689016 51 29 C52.32 29 53.64 29 55 29 C55 29.66 55 30.32 55 31 C47.89755001 31.02526787 40.79511152 31.04283201 33.69262695 31.05493164 C31.27432828 31.05997349 28.85603267 31.06680678 26.43774414 31.07543945 C22.97020717 31.08751157 19.50271034 31.09322963 16.03515625 31.09765625 C14.94662857 31.10281754 13.85810089 31.10797882 12.73658752 31.11329651 C11.23514442 31.11340981 11.23514442 31.11340981 9.70336914 31.11352539 C8.37433311 31.11685631 8.37433311 31.11685631 7.01844788 31.12025452 C5 31 5 31 4 30 C3.64602072 28.02782972 3.3426225 26.04650815 3.0625 24.0625 C2.34336225 19.12586269 1.48376423 14.2754658 0.3671875 9.4140625 C-0.1050481 6.3093646 0 3.1404069 0 0 Z " fill="#04DAA7" transform="translate(239,128)"/>
<path d="M0 0 C13.2 0 26.4 0 40 0 C40 10.56 40 21.12 40 32 C38.02 31.67 36.04 31.34 34 31 C26.84045262 30.37070261 20.87831835 30.54785593 15 35 C8.56133708 41.0950979 6.03684927 46.18678121 5 55 C3.35 55 1.7 55 0 55 C0 36.85 0 18.7 0 0 Z " fill="#55D5A8" transform="translate(220,211)"/>
<path d="M0 0 C4.599375 -0.020625 9.19875 -0.04125 13.9375 -0.0625 C15.36956787 -0.071604 16.80163574 -0.08070801 18.27709961 -0.09008789 C19.43218018 -0.09258545 20.58726074 -0.09508301 21.77734375 -0.09765625 C23.52905884 -0.10551147 23.52905884 -0.10551147 25.31616211 -0.11352539 C29.55835578 0.01720693 33.78175111 0.53130568 38 1 C38 12.22 38 23.44 38 35 C25.46 35 12.92 35 0 35 C0 23.45 0 11.9 0 0 Z " fill="#9F73E6" transform="translate(168,231)"/>
<path d="M0 0 C1.39533439 5.1162261 2.2576272 9.81263705 2.4609375 15.1171875 C2.8320995 17.21250909 2.8320995 17.21250909 5.0390625 18.2578125 C5.68617188 18.50273437 6.33328125 18.74765625 7 19 C2.51750177 22.51546181 -1.77138032 25.64712114 -7 28 C-5.948125 29.0828125 -5.948125 29.0828125 -4.875 30.1875 C-4.48054687 30.59355469 -4.08609375 30.99960938 -3.6796875 31.41796875 C-1.85893567 33.18020691 -1.85893567 33.18020691 0.875 35.2578125 C4.19332656 38.00124231 6.50075503 41.12209471 8.875 44.6875 C9.2771875 45.26822266 9.679375 45.84894531 10.09375 46.44726562 C13 50.72261639 13 50.72261639 13 53 C13.99 53.33 14.98 53.66 16 54 C7.42 54 -1.16 54 -10 54 C-10.33 53.34 -10.66 52.68 -11 52 C-11.99 52.66 -12.98 53.32 -14 54 C-16.6875 53.625 -16.6875 53.625 -19 53 C-22.74206827 39.72653139 -20.63563525 22.68279211 -14.09765625 10.67578125 C-12.38057141 8.05432433 -10.34726178 6.06101034 -8 4 C-6.700625 2.8553125 -6.700625 2.8553125 -5.375 1.6875 C-3 0 -3 0 0 0 Z " fill="#15084E" transform="translate(241,141)"/>
<path d="M0 0 C2.875 2.375 2.875 2.375 5 5 C5.721875 5.825 6.44375 6.65 7.1875 7.5 C10.71642778 12.3674866 11.23496716 16.00833752 11 22 C7.04 22 3.08 22 -1 22 C-1.33 20.35 -1.66 18.7 -2 17 C-2.495 19.475 -2.495 19.475 -3 22 C-14.88 22 -26.76 22 -39 22 C-39 14.16206683 -38.23515113 10.42225875 -32.90625 4.78515625 C-23.15349743 -4.2036307 -12.24711884 -5.56888918 0 0 Z " fill="#7D41D5" transform="translate(264,244)"/>
<path d="M0 0 C30.17747289 -0.43947776 30.17747289 -0.43947776 36 2 C38.06255919 4.86746034 38.22696415 7.28321901 38.125 10.75 C38.10695313 11.54921875 38.08890625 12.3484375 38.0703125 13.171875 C38.04710937 13.77515625 38.02390625 14.3784375 38 15 C37.34 15 36.68 15 36 15 C36.2165625 15.84304687 36.433125 16.68609375 36.65625 17.5546875 C36.9346875 18.65039062 37.213125 19.74609375 37.5 20.875 C37.7784375 21.96554687 38.056875 23.05609375 38.34375 24.1796875 C39 27 39 27 39 29 C26.79 29 14.58 29 2 29 C2 28.01 2 27.02 2 26 C3.28913487 25.32845067 4.58140204 24.66291141 5.875 24 C6.59429687 23.62875 7.31359375 23.2575 8.0546875 22.875 C10 22 10 22 12 22 C11.67 20.02 11.34 18.04 11 16 C10.01 16 9.02 16 8 16 C8 14.68 8 13.36 8 12 C7.401875 12.495 6.80375 12.99 6.1875 13.5 C4 15 4 15 1 15 C0.67 10.05 0.34 5.1 0 0 Z " fill="#180B51" transform="translate(280,237)"/>
<path d="M0 0 C6.33800745 0.8805808 9.05934502 4.15641261 13 9 C15.70072724 12.87394253 18.2795475 16.826622 20.78735352 20.82788086 C21.27518311 21.59366455 21.7630127 22.35944824 22.265625 23.1484375 C22.91192871 24.18750244 22.91192871 24.18750244 23.57128906 25.24755859 C25.19252722 27.23615181 26.65062486 28.02475218 29 29 C29.02685095 31.47923801 29.04676547 33.9581884 29.0625 36.4375 C29.07087891 37.14455078 29.07925781 37.85160156 29.08789062 38.58007812 C29.09653588 40.38693559 29.05220011 42.19387603 29 44 C28 45 28 45 26.109375 45.0546875 C24.94148438 44.96574219 24.94148438 44.96574219 23.75 44.875 C22.98171875 44.83117187 22.2134375 44.78734375 21.421875 44.7421875 C15.34680097 42.88047126 12.27063399 36.58940088 9.1875 31.4375 C5.46146556 25.30791293 1.57491526 19.38629464 -2.6015625 13.55078125 C-4.15769472 10.7123613 -4.55307297 9.1828807 -4 6 C-3.01 5.34 -2.02 4.68 -1 4 C-0.27617533 1.94074861 -0.27617533 1.94074861 0 0 Z " fill="#AA7879" transform="translate(220,83)"/>
<path d="M0 0 C3.94425773 2.61964944 7.85113955 5.70227909 10 10 C10 14.62 10 19.24 10 24 C0.1 24 -9.8 24 -20 24 C-20 8.11666667 -20 8.11666667 -15.59375 3.5390625 C-10.94062088 -0.43365623 -5.93713288 -1.61266584 0 0 Z " fill="#766CFC" transform="translate(67,39)"/>
<path d="M0 0 C3.32029857 0.5533831 4.79223462 0.95257841 7 3.5 C7.25 6.6875 7.25 6.6875 7 9.5 C7.66 9.5 8.32 9.5 9 9.5 C9.0825 8.88125 9.165 8.2625 9.25 7.625 C10 5.5 10 5.5 11.6875 4.1875 C14.84995207 3.24731155 16.85087784 3.56196361 20 4.5 C22.27605184 6.62431505 22.90218604 7.94106306 23.4375 11 C22.85386541 14.33505482 21.64365659 15.44382265 19 17.5 C16.75 18.25 16.75 18.25 15 18.5 C15 19.82 15 21.14 15 22.5 C12.18003748 25.4890066 8.68549137 27.31027911 4.60546875 27.76953125 C0.57348756 27.52212942 -1.42317501 27.03245384 -4.4375 24.25 C-8.15398705 17.70898279 -8.50902784 12.84687276 -7 5.5 C-5.0021459 1.72627559 -4.21599074 0.70266512 0 0 Z " fill="#3D3027" transform="translate(290,81.5)"/>
<path d="M0 0 C4.62 0 9.24 0 14 0 C18.88265306 14.35204082 18.88265306 14.35204082 17 20 C10.71379516 24.19080323 2.43208662 22.05710823 -4.625 20.6875 C-8.2265625 19.94921875 -8.2265625 19.94921875 -11 19 C-11.33 18.01 -11.66 17.02 -12 16 C-13.32 16 -14.64 16 -16 16 C-16.33 13.36 -16.66 10.72 -17 8 C-11.39 8 -5.78 8 0 8 C0 5.36 0 2.72 0 0 Z " fill="#A8787A" transform="translate(306,141)"/>
<path d="M0 0 C9.39882779 5.99370718 15.05262733 13.10525465 20 23 C9.605 23.495 9.605 23.495 -1 24 C-1.33 23.34 -1.66 22.68 -2 22 C-2.99 22.66 -3.98 23.32 -5 24 C-7.6875 23.625 -7.6875 23.625 -10 23 C-10.81434143 20.14839609 -11.11881242 17.63373869 -11.09765625 14.671875 C-11.09282227 13.47304687 -11.09282227 13.47304687 -11.08789062 12.25 C-11.07951172 11.425 -11.07113281 10.6 -11.0625 9.75 C-11.05798828 8.90953125 -11.05347656 8.0690625 -11.04882812 7.203125 C-11.03707961 5.13538599 -11.01914522 3.06768376 -11 1 C-3.36049042 -1.49753198 -3.36049042 -1.49753198 0 0 Z " fill="#15074E" transform="translate(232,171)"/>
<path d="M0 0 C9.57 0 19.14 0 29 0 C29 0.66 29 1.32 29 2 C24.05 2 19.1 2 14 2 C14 12.89 14 23.78 14 35 C9.38 35 4.76 35 0 35 C0 23.45 0 11.9 0 0 Z " fill="#B68CF4" transform="translate(168,231)"/>
<path d="M0 0 C7.59 0 15.18 0 23 0 C23.515625 2.289375 24.03125 4.57875 24.5625 6.9375 C24.81108765 8.02019165 24.81108765 8.02019165 25.06469727 9.12475586 C25.4196841 10.74094671 25.71197485 12.37054303 26 14 C25 15 25 15 21.58178711 15.11352539 C20.06363012 15.11336628 18.54546771 15.10767226 17.02734375 15.09765625 C16.22970108 15.0962413 15.43205841 15.09482635 14.61024475 15.09336853 C12.05262565 15.08775316 9.49509282 15.07519812 6.9375 15.0625 C5.20768355 15.05748698 3.47786574 15.05292373 1.74804688 15.04882812 C-2.50133553 15.03777875 -6.75065312 15.02050386 -11 15 C-10.62695312 12.57202148 -10.62695312 12.57202148 -10 10 C-7.73721198 8.71630295 -5.50800679 8.06502113 -3.03125 7.28515625 C-2.3609375 6.86105469 -1.690625 6.43695313 -1 6 C-0.67 4.02 -0.34 2.04 0 0 Z " fill="#B58BF4" transform="translate(235,195)"/>
<path d="M0 0 C8.25 0 16.5 0 25 0 C28 12 28 12 28 14 C15.79 14 3.58 14 -9 14 C-9 13.01 -9 12.02 -9 11 C-7.71086513 10.32845067 -6.41859796 9.66291141 -5.125 9 C-4.40570313 8.62875 -3.68640625 8.2575 -2.9453125 7.875 C-1 7 -1 7 1 7 C0.67 4.69 0.34 2.38 0 0 Z " fill="#AB7DEF" transform="translate(291,252)"/>
<path d="M0 0 C6.81929991 3.78394236 10.64741044 8.59066882 13.09765625 15.94140625 C14.09228861 23.68532963 12.44140049 29.48882575 8.09765625 35.94140625 C4.3071563 40.50068366 -0.19517796 42.15601646 -5.90234375 42.94140625 C-6.61519531 43.04839844 -7.32804687 43.15539063 -8.0625 43.265625 C-14.84089223 43.80359264 -19.73331406 41.18868589 -24.90234375 36.94140625 C-29.36912394 31.86931473 -31.82977522 25.66743197 -31.93359375 18.90625 C-31.47805878 12.99568376 -29.40094517 8.17805752 -24.96484375 4.20703125 C-17.53664548 -1.52797477 -9.1085641 -3.32223536 0 0 Z M-26.2734375 9.4765625 C-29.95242862 14.65770224 -29.81625807 20.85942775 -28.90234375 26.94140625 C-26.26660052 34.3263458 -20.60556606 37.58979509 -13.90234375 40.94140625 C-7.63736273 41.59400844 -2.3297269 40.163915 3.09765625 36.94140625 C7.84824726 32.18123743 10.21797414 27.56373476 10.53515625 20.81640625 C10.45960989 14.47890631 8.47056667 10.47418651 4.09765625 5.94140625 C-1.11914199 1.5645007 -7.15516285 1.20728893 -13.7734375 1.4296875 C-19.50516416 2.36708599 -22.52644922 5.28121665 -26.2734375 9.4765625 Z " fill="#FDE224" transform="translate(151.90234375,18.05859375)"/>
<path d="M0 0 C2.70934696 1.24225245 4.88072164 2.88072164 7 5 C7 8.3 7 11.6 7 15 C-1.58 15 -10.16 15 -19 15 C-17.93447307 7.54131151 -17.80731527 6.80731527 -13 2 C-8.78952884 -0.54364547 -4.80402645 -0.70647448 0 0 Z " fill="#55D1A7" transform="translate(254,251)"/>
<path d="M0 0 C0.66 0 1.32 0 2 0 C2 0.99 2 1.98 2 3 C4.475 3.99 4.475 3.99 7 5 C7 6.32 7 7.64 7 9 C6.360625 9.103125 5.72125 9.20625 5.0625 9.3125 C4.381875 9.539375 3.70125 9.76625 3 10 C2.67 10.99 2.34 11.98 2 13 C2.78375 13.28875 3.5675 13.5775 4.375 13.875 C7 15 7 15 9 17 C9.48408063 20.71128487 9.48899662 22.35924581 7.1875 25.375 C5 27 5 27 2 27 C2 27.99 2 28.98 2 30 C1.34 30 0.68 30 0 30 C0 29.01 0 28.02 0 27 C-0.94875 26.87625 -1.8975 26.7525 -2.875 26.625 C-6 26 -6 26 -8 24 C-8 23.01 -8 22.02 -8 21 C-6.35 20.34 -4.7 19.68 -3 19 C-2.67 19.33 -2.34 19.66 -2 20 C-1.67 19.01 -1.34 18.02 -1 17 C-1.928125 16.566875 -1.928125 16.566875 -2.875 16.125 C-5 15 -5 15 -7 13 C-7.55776892 6.86454183 -7.55776892 6.86454183 -5.75 4.0625 C-4 3 -4 3 0 3 C0 2.01 0 1.02 0 0 Z " fill="#FFF8EB" transform="translate(142,24)"/>
<path d="M0 0 C10.34615385 0 10.34615385 0 16 3 C18 5 18 5 18.375 8.3125 C17.92616158 12.72607782 17.32231253 14.08284753 14 17 C9.18366889 19.2374374 5.34743028 20 0 20 C0 13.4 0 6.8 0 0 Z " fill="#16084E" transform="translate(279,190)"/>
<path d="M0 0 C6.62422783 -0.53904205 11.29166379 -0.72685987 16.49609375 3.6875 C17.24052734 4.3371875 17.24052734 4.3371875 18 5 C19.65411668 6.02062519 21.31558871 7.03018744 23 8 C21.79973373 11.73416173 19.49224734 13.49284241 16.0703125 15.296875 C12.26636103 16.58878305 8.77713696 16.26636568 5 15 C1.90881945 12.14660257 0.11537925 9.05592453 -1 5 C-0.71179122 3.32494042 -0.38359839 1.65582039 0 0 Z " fill="#A87878" transform="translate(283,93)"/>
<path d="M0 0 C0.99 0.33 1.98 0.66 3 1 C3.66 4.3 4.32 7.6 5 11 C7.31 11.66 9.62 12.32 12 13 C12 13.66 12 14.32 12 15 C9.69 15.33 7.38 15.66 5 16 C4.86722656 16.62648438 4.73445313 17.25296875 4.59765625 17.8984375 C4.42105469 18.71570313 4.24445313 19.53296875 4.0625 20.375 C3.88847656 21.18710938 3.71445312 21.99921875 3.53515625 22.8359375 C3 25 3 25 2 27 C1.34 27 0.68 27 0 27 C-0.66 23.7 -1.32 20.4 -2 17 C-4.31 16.34 -6.62 15.68 -9 15 C-9 14.34 -9 13.68 -9 13 C-6.09399739 11.74335022 -4.20395416 11 -1 11 C-0.67 7.37 -0.34 3.74 0 0 Z " fill="#FFCB20" transform="translate(334,102)"/>
<path d="M0 0 C0.99 0.33 1.98 0.66 3 1 C-1.48249823 4.51546181 -5.77138032 7.64712114 -11 10 C-10.29875 10.721875 -9.5975 11.44375 -8.875 12.1875 C-8.48054687 12.59355469 -8.08609375 12.99960938 -7.6796875 13.41796875 C-5.85893567 15.18020691 -5.85893567 15.18020691 -3.125 17.2578125 C0.19332656 20.00124231 2.50075503 23.12209471 4.875 26.6875 C5.2771875 27.26822266 5.679375 27.84894531 6.09375 28.44726562 C9 32.72261639 9 32.72261639 9 35 C9.99 35.33 10.98 35.66 12 36 C5.07 36 -1.86 36 -9 36 C-9 35.67 -9 35.34 -9 35 C-4.05 34.67 0.9 34.34 6 34 C0.67158139 24.84902022 -5.14213239 17.90524507 -14 12 C-16.5254223 11.9744911 -16.5254223 11.9744911 -19.1875 12.375 C-20.08855469 12.48585937 -20.98960937 12.59671875 -21.91796875 12.7109375 C-22.60503906 12.80632812 -23.29210937 12.90171875 -24 13 C-23.67 10.36 -23.34 7.72 -23 5 C-20 5 -20 5 -17.6875 6.625 C-15.08372631 8.29043545 -15.08372631 8.29043545 -12.25 7.5625 C-8.5414327 5.77953495 -5.35731311 3.58302711 -2.05078125 1.14453125 C-1.37402344 0.76683594 -0.69726562 0.38914063 0 0 Z " fill="#372188" transform="translate(245,159)"/>
<path d="M0 0 C15.84 0 31.68 0 48 0 C48 0.99 48 1.98 48 3 C32.16 3 16.32 3 0 3 C0 2.01 0 1.02 0 0 Z " fill="#F2F1FE" transform="translate(93,101)"/>
<path d="M0 0 C15.84 0 31.68 0 48 0 C48 0.99 48 1.98 48 3 C32.16 3 16.32 3 0 3 C0 2.01 0 1.02 0 0 Z " fill="#F2F1FE" transform="translate(93,88)"/>
<path d="M0 0 C11.55 0 23.1 0 35 0 C35.495 1.485 35.495 1.485 36 3 C24.12 3 12.24 3 0 3 C0 2.01 0 1.02 0 0 Z " fill="#7066BB" transform="translate(224,207)"/>
<path d="M0 0 C0.495 1.485 0.495 1.485 1 3 C2.32 3 3.64 3 5 3 C5 3.66 5 4.32 5 5 C-11.5 5 -28 5 -45 5 C-45.33 3.68 -45.66 2.36 -46 1 C-45.67 1.66 -45.34 2.32 -45 3 C-30.15 3 -15.3 3 0 3 C0 2.01 0 1.02 0 0 Z " fill="#0EA187" transform="translate(289,154)"/>
<path d="M0 0 C6.18651231 -0.37876606 10.49132923 0.07703184 16 3 C18 5 18 5 18.375 8.3125 C17.92616158 12.72607782 17.32231253 14.08284753 14 17 C9.49853049 19.09116774 5.00627182 20.48447792 0 20 C0 19.01 0 18.02 0 17 C1.24716797 16.80083984 1.24716797 16.80083984 2.51953125 16.59765625 C3.60621094 16.42105469 4.69289063 16.24445313 5.8125 16.0625 C6.89144531 15.88847656 7.97039062 15.71445313 9.08203125 15.53515625 C12.04933356 15.06128079 12.04933356 15.06128079 15 14 C15.061875 12.72125 15.12375 11.4425 15.1875 10.125 C15.22230469 9.40570313 15.25710938 8.68640625 15.29296875 7.9453125 C15.19628906 7.30335938 15.09960938 6.66140625 15 6 C11.7188698 3.81257986 9.66915644 3.45557194 5.8125 2.875 C4.18248047 2.62363281 4.18248047 2.62363281 2.51953125 2.3671875 C1.27236328 2.18542969 1.27236328 2.18542969 0 2 C0 1.34 0 0.68 0 0 Z " fill="#2C1783" transform="translate(279,190)"/>
<path d="M0 0 C3.6875 0.3125 3.6875 0.3125 6.125 1.9375 C8.15911336 5.02935231 8.29355429 6.67617425 7.6875 10.3125 C6.0625 12.6875 6.0625 12.6875 3.6875 14.3125 C0.6875 14.8125 0.6875 14.8125 -2.3125 14.3125 C-4.68562298 12.51662315 -5.95861144 11.04386969 -7.25 8.375 C-7.34124 5.36407997 -6.00914528 3.72695674 -4.3125 1.3125 C-3.3125 0.3125 -3.3125 0.3125 0 0 Z M-2.3125 2.3125 C-4.62813087 4.19750271 -4.62813087 4.19750271 -4.5625 7.3125 C-4.62813087 10.42749729 -4.62813087 10.42749729 -2.3125 12.3125 C0.14491537 12.81264953 0.14491537 12.81264953 2.6875 12.3125 C4.69715774 10.71633995 4.69715774 10.71633995 5.6875 8.3125 C5.46552187 5.6140411 5.46552187 5.6140411 4.6875 3.3125 C1.28429066 2.63576553 1.28429066 2.63576553 -2.3125 2.3125 Z " fill="#BC78FF" transform="translate(38.3125,66.6875)"/>
<path d="M0 0 C26.17654243 -0.41277905 26.17654243 -0.41277905 36 2 C36.495 3.485 36.495 3.485 37 5 C35.92105469 4.86722656 34.84210938 4.73445312 33.73046875 4.59765625 C22.49610882 3.25944945 11.3021467 2.47614365 0 2 C0 1.34 0 0.68 0 0 Z " fill="#2D1782" transform="translate(280,237)"/>
<path d="M0 0 C2.64 0 5.28 0 8 0 C8 2.64 8 5.28 8 8 C5.36 8 2.72 8 0 8 C0 5.36 0 2.72 0 0 Z " fill="#BC7DFE" transform="translate(187,49)"/>
<path d="M0 0 C2.97 0 5.94 0 9 0 C9.09765625 6.15234375 9.09765625 6.15234375 9 8 C8 9 8 9 4.5 9.125 C1 9 1 9 0 8 C-0.14115161 5.32941149 -0.04247107 2.67567762 0 0 Z M2 2 C2 3.32 2 4.64 2 6 C3.32 6 4.64 6 6 6 C6.33 4.68 6.66 3.36 7 2 C5.35 2 3.7 2 2 2 Z " fill="#BC7DFF" transform="translate(191,185)"/>
<path d="M0 0 C2.31 0 4.62 0 7 0 C7 2.64 7 5.28 7 8 C4.69 8 2.38 8 0 8 C0 5.36 0 2.72 0 0 Z " fill="#CCC6E6" transform="translate(41,146)"/>
<path d="M0 0 C2.31 0 4.62 0 7 0 C7 2.64 7 5.28 7 8 C4.69 8 2.38 8 0 8 C0 5.36 0 2.72 0 0 Z " fill="#CCC6E6" transform="translate(41,125)"/>
<path d="M0 0 C2.97 0 5.94 0 9 0 C9 2.64 9 5.28 9 8 C6.03 8 3.06 8 0 8 C0 5.36 0 2.72 0 0 Z M2 2 C2 3.32 2 4.64 2 6 C3.65 6 5.3 6 7 6 C7 4.68 7 3.36 7 2 C5.35 2 3.7 2 2 2 Z " fill="#BB7CFF" transform="translate(21,84)"/>
<path d="M0 0 C1.33855056 0.78281305 2.67073644 1.57651877 4 2.375 C5.11375 3.03628906 5.11375 3.03628906 6.25 3.7109375 C6.8275 4.13632813 7.405 4.56171875 8 5 C8 5.66 8 6.32 8 7 C4.38026598 8.31626692 1.90432869 9 -2 9 C-1.125 1.125 -1.125 1.125 0 0 Z " fill="#271376" transform="translate(223,163)"/>
<path d="M0 0 C2.31 0 4.62 0 7 0 C7 2.31 7 4.62 7 7 C4.69 7 2.38 7 0 7 C0 4.69 0 2.38 0 0 Z " fill="#9584D1" transform="translate(41,136)"/>
<path d="M0 0 C2.475 0.495 2.475 0.495 5 1 C5.33 3.31 5.66 5.62 6 8 C4.35 7.67 2.7 7.34 1 7 C0.67 4.69 0.34 2.38 0 0 Z " fill="#DC40F6" transform="translate(259,140)"/>
<path d="M0 0 C0.99 0.33 1.98 0.66 3 1 C1.75312408 1.96239452 0.50235031 2.91974009 -0.75 3.875 C-1.44609375 4.40867188 -2.1421875 4.94234375 -2.859375 5.4921875 C-4.8819213 6.91682778 -6.69165075 8.10856432 -9 9 C-9.99 8.67 -10.98 8.34 -12 8 C-11.21753906 7.50628906 -10.43507812 7.01257813 -9.62890625 6.50390625 C-8.61699219 5.86324219 -7.60507813 5.22257813 -6.5625 4.5625 C-5.55316406 3.92441406 -4.54382813 3.28632813 -3.50390625 2.62890625 C-1.15446165 1.22350458 -1.15446165 1.22350458 0 0 Z " fill="#2F1688" transform="translate(245,159)"/>
<path d="M0 0 C1.65 0 3.3 0 5 0 C5 1.65 5 3.3 5 5 C3.35 5 1.7 5 0 5 C0 3.35 0 1.7 0 0 Z " fill="#583AB9" transform="translate(42,148)"/>
<path d="M0 0 C1.65 0 3.3 0 5 0 C5 1.65 5 3.3 5 5 C3.35 5 1.7 5 0 5 C0 3.35 0 1.7 0 0 Z " fill="#5738B8" transform="translate(42,127)"/>
</svg>
