<?xml version="1.0" encoding="UTF-8"?>
<svg version="1.1" xmlns="http://www.w3.org/2000/svg" width="400" height="296">
<path d="M0 0 C5.28 0 10.56 0 16 0 C20 12.625 20 12.625 20 16 C20.79664063 16.33644531 20.79664063 16.33644531 21.609375 16.6796875 C24.8110886 18.44795416 27.48147104 20.76049081 30.25 23.125 C31.08144531 23.82689453 31.08144531 23.82689453 31.9296875 24.54296875 C33.28947326 25.69175328 34.64515165 26.84539653 36 28 C36.67095703 26.57107422 36.67095703 26.57107422 37.35546875 25.11328125 C37.9655978 23.84609015 38.57630585 22.57917772 39.1875 21.3125 C39.47947266 20.68666016 39.77144531 20.06082031 40.07226562 19.41601562 C42.76290731 13.89007409 45.64333557 9.85327505 51.625 7.6875 C57.86166591 6.45906581 64.17476851 6.20040618 70.3125 7.9375 C79.58336895 15.05235291 83.01820638 27.75205298 84.53125 38.921875 C84.76949589 41.95289212 84.94275244 44.96067498 85 48 C82.36 48 79.72 48 77 48 C77.24234375 48.62003906 77.4846875 49.24007812 77.734375 49.87890625 C79.76401161 55.24183068 81.43678433 60.55662705 82.8125 66.125 C87.67967483 84.72590845 96.38662753 101.46720128 109 116 C109.69351563 116.80308594 110.38703125 117.60617188 111.1015625 118.43359375 C113.96073343 121.69433363 116.81395649 124.86877529 120 127.8125 C122 130 122 130 122 134 C122.804375 134.2475 123.60875 134.495 124.4375 134.75 C127 136 127 136 128.125 137.75 C127.9141746 141.54485727 125.58978972 143.41021028 123 146 C122.01 146 121.02 146 120 146 C119.89421631 146.74491699 119.78843262 147.48983398 119.67944336 148.25732422 C118.94876063 151.20683548 118.06781619 152.58174729 116.12890625 154.8828125 C115.26749023 155.92115234 115.26749023 155.92115234 114.38867188 156.98046875 C113.78603516 157.68816406 113.18339844 158.39585937 112.5625 159.125 C111.37533603 160.54346287 110.18910026 161.96270322 109.00390625 163.3828125 C108.21222046 164.31697998 108.21222046 164.31697998 107.40454102 165.27001953 C105.82724605 167.15751011 105.82724605 167.15751011 104 170 C99.125 168.125 99.125 168.125 98 167 C98.47098176 161.34821884 100.08282481 156.31744817 102 151 C101.34 151 100.68 151 100 151 C99.443125 151.680625 98.88625 152.36125 98.3125 153.0625 C96 155 96 155 92.65234375 154.9140625 C88.358688 153.83950053 87.07930749 152.65400971 84.25 149.3125 C82.96996094 147.80623047 82.96996094 147.80623047 81.6640625 146.26953125 C80.77528491 145.18030456 79.88727045 144.09045474 79 143 C78.11200366 141.9413857 77.22398272 140.88279204 76.3359375 139.82421875 C69.07977493 131.01007297 63.0665417 121.50051258 57.15405273 111.74902344 C55.98732937 109.85348148 55.98732937 109.85348148 54 108 C53.69296143 108.90129639 53.38592285 109.80259277 53.06958008 110.73120117 C51.90725187 114.14092859 50.7415588 117.54949829 49.57495117 120.95776367 C49.07471299 122.42067605 48.5753347 123.88388281 48.0769043 125.34741211 C46.41000365 130.24068036 44.71778335 135.12436392 43 140 C42.77068787 140.65647522 42.54137573 141.31295044 42.30511475 141.98931885 C41.65798443 143.82699666 40.99158045 145.6578535 40.32421875 147.48828125 C39.94740967 148.53153564 39.57060059 149.57479004 39.18237305 150.6496582 C38 153 38 153 35 154 C35.33 154.66 35.66 155.32 36 156 C36.23029956 158.37123246 36.41119942 160.74741943 36.5625 163.125 C36.64628906 164.40632812 36.73007812 165.68765625 36.81640625 167.0078125 C36.87699219 167.99523437 36.93757813 168.98265625 37 170 C23.33333333 170 9.66666667 170 -4 170 C-4 167.69 -4 165.38 -4 163 C1.5626148 160.33961901 6.93267948 159.03767051 13 158 C13.144375 156.783125 13.28875 155.56625 13.4375 154.3125 C13.82780953 151.17329623 14.32351856 148.0924866 15 145 C13.824375 144.6596875 13.824375 144.6596875 12.625 144.3125 C9.55476681 143.20086384 6.64361388 142.00338883 3.6875 140.625 C2.82511719 140.22539062 1.96273437 139.82578125 1.07421875 139.4140625 C-1 138 -1 138 -1.9921875 136.19921875 C-2.00400858 132.87158448 -0.55382827 131.00629685 1.1875 128.1875 C1.94249027 126.92015865 2.69352738 125.65045712 3.44140625 124.37890625 C3.85406738 123.67910645 4.26672852 122.97930664 4.69189453 122.25830078 C12.55880082 108.67694894 19.26124341 94.5465344 25.5625 80.1875 C25.86399963 79.50431702 26.16549927 78.82113403 26.47613525 78.11724854 C29.80639757 70.54590046 32.91287179 63.02732501 35 55 C34.40574219 54.51273438 33.81148438 54.02546875 33.19921875 53.5234375 C27.85628201 48.95327388 23.32397046 44.21807583 19 38.6875 C18.53166748 38.08921387 18.06333496 37.49092773 17.58081055 36.87451172 C15.79148688 34.53798524 14.15613572 32.35410404 12.96484375 29.65234375 C12.11491089 27.79444433 12.11491089 27.79444433 9.94140625 27.2421875 C9.15636719 27.12101562 8.37132812 26.99984375 7.5625 26.875 C4.22861739 26.33674548 2.92062747 25.94708498 0 24 C0.08378906 23.44054687 0.16757813 22.88109375 0.25390625 22.3046875 C1.21503224 14.7373411 0.66982877 7.59139276 0 0 Z " fill="#15084D" transform="translate(223,107)"/>
<path d="M0 0 C39.6 0 79.2 0 120 0 C120 24.42 120 48.84 120 74 C111.97300781 74.03738281 103.94601563 74.07476562 95.67578125 74.11328125 C90.59437944 74.14355265 85.51301302 74.17469516 80.43164062 74.20898438 C72.36403105 74.26334152 64.29649467 74.31489152 56.22875977 74.34643555 C49.72531376 74.37187894 43.22207216 74.41278961 36.71877098 74.46318626 C34.23607485 74.47988735 31.75333812 74.49138138 29.27059364 74.49761391 C25.79643716 74.50721947 22.32288525 74.53523751 18.84887695 74.56762695 C17.81957062 74.56619186 16.79026428 74.56475677 15.72976685 74.5632782 C10.56520034 74.63149364 7.28418253 74.8360091 3 78 C-0.36742108 78.4898067 -2.75992466 78.7490388 -5.74609375 76.9453125 C-7.93918102 75.16770219 -9.72792969 73.54414063 -11 71 C-11.45914859 66.40851413 -11.72130538 63.33020552 -8.875 59.5625 C-6 57 -6 57 0 56 C0 37.52 0 19.04 0 0 Z " fill="#F7F9FC" transform="translate(48,83)"/>
<path d="M0 0 C1.87992897 -0.01268921 1.87992897 -0.01268921 3.7978363 -0.02563477 C5.17385996 -0.01980275 6.54988231 -0.0136583 7.92590332 -0.00723267 C9.38501884 -0.01130083 10.84413128 -0.01664408 12.30323792 -0.02316284 C16.25571593 -0.03681326 20.20795843 -0.03154727 24.16044044 -0.02202559 C28.30162809 -0.01441717 32.44279591 -0.02147788 36.58398438 -0.02618408 C43.53767508 -0.03163819 50.49127012 -0.02445908 57.44494629 -0.01016235 C65.47821262 0.00616353 73.51125052 0.00087478 81.54451132 -0.01564157 C88.44829812 -0.02926627 95.35201626 -0.0311713 102.25581217 -0.02332556 C106.37626291 -0.01865445 110.49660637 -0.01800871 114.61705017 -0.02793503 C118.4913188 -0.03661677 122.3652936 -0.03056094 126.23953056 -0.01325226 C127.65928599 -0.00929384 129.07906625 -0.01041044 130.49881172 -0.01704025 C132.44068631 -0.02527052 134.3826151 -0.01310715 136.32446289 0 C137.40991646 0.00113108 138.49537003 0.00226215 139.61371613 0.00342751 C144.47914753 0.60595501 147.70616928 2.32153069 150.97473145 5.94345093 C153.29169642 9.29017812 153.78909783 10.9662956 153.80940247 14.9848938 C153.82013542 16.44007416 153.82013542 16.44007416 153.83108521 17.9246521 C153.83377411 18.99272095 153.83646301 20.06078979 153.8392334 21.16122437 C153.8458046 22.28329285 153.85237579 23.40536133 153.85914612 24.56143188 C153.87891344 28.28773052 153.89054939 32.01398879 153.9005127 35.74032593 C153.90458822 37.01078011 153.90866375 38.28123428 153.91286278 39.59018707 C153.93158389 45.6204666 153.94614616 51.65072157 153.95447475 57.68102241 C153.96424233 64.63818836 153.990548 71.59503573 154.03097564 78.55208945 C154.06480085 84.58022765 154.07662199 90.60821149 154.08067894 96.63645172 C154.08555596 99.19931447 154.09720143 101.76217355 154.11571693 104.32497406 C154.14001619 107.9112748 154.13915964 111.49674182 154.13220215 115.08309937 C154.15141724 116.67305725 154.15141724 116.67305725 154.17102051 118.2951355 C154.12969775 124.13545825 153.79659851 127.88757224 149.66223145 132.38095093 C145.78787187 135.19295518 143.08546597 135.75820852 138.33082581 135.76863098 C136.41509514 135.78348793 136.41509514 135.78348793 134.46066284 135.79864502 C133.05267237 135.79440724 131.64468284 135.78984941 130.23669434 135.78500366 C128.74816882 135.79070833 127.25964768 135.79767296 125.77113342 135.80580139 C121.73390218 135.82373758 117.69688822 135.82256358 113.65962911 135.81685901 C110.28733743 135.81376776 106.91508753 135.8198589 103.5428018 135.82589775 C95.58623842 135.83994292 87.6297824 135.83838182 79.67321777 135.82699585 C71.46894777 135.81551474 63.26500465 135.82959007 55.06077772 135.85639232 C48.01263505 135.87855441 40.96459496 135.88518556 33.91641992 135.87931591 C29.70872224 135.87594631 25.50123409 135.87836147 21.29356575 135.89556694 C17.33635283 135.91104219 13.37962388 135.9070745 9.42243004 135.8882618 C7.97203285 135.88457745 6.52159975 135.88767996 5.07123566 135.89814758 C3.08773424 135.91136757 1.10410766 135.89739566 -0.87937927 135.88215637 C-1.98825469 135.88194709 -3.09713011 135.8817378 -4.23960781 135.88152218 C-8.94841153 135.1207186 -11.9398323 132.8481554 -15.18853855 129.43847466 C-16.5856338 126.93718543 -16.71736215 125.31821913 -16.72544861 122.46057129 C-16.73535324 121.47087341 -16.74525787 120.48117554 -16.75546265 119.46148682 C-16.750961 118.38190704 -16.74645935 117.30232727 -16.74182129 116.19003296 C-16.74868454 115.04816528 -16.75554779 113.90629761 -16.76261902 112.72982788 C-16.78094332 108.94934711 -16.77704099 105.16927915 -16.7713623 101.38876343 C-16.7759217 98.76326359 -16.78122655 96.13776496 -16.7872467 93.51226807 C-16.79727797 88.00605311 -16.79397547 82.49995558 -16.78381348 76.9937439 C-16.77233922 70.63614784 -16.78639575 64.27897397 -16.81320995 57.92143357 C-16.8380656 51.79821792 -16.84054014 45.67519658 -16.83409309 39.5519371 C-16.83393964 36.95001397 -16.84000383 34.3480828 -16.85238457 31.74618912 C-16.86725779 28.10735929 -16.8566426 24.46945866 -16.83947754 20.83065796 C-16.84914551 19.75512665 -16.85881348 18.67959534 -16.86877441 17.57147217 C-16.81103425 11.72744619 -16.55040927 7.82411807 -12.33776855 3.38095093 C-8.06892924 0.84996975 -4.9409871 0.00514866 0 0 Z M-14.33776855 36.38095093 C-14.39964355 50.96282593 -14.46151855 65.54470093 -14.52526855 80.56845093 C-14.55258057 85.16935669 -14.57989258 89.77026245 -14.60803223 94.5105896 C-14.61806675 98.641911 -14.61806675 98.641911 -14.62409973 102.77323914 C-14.62870052 104.61054158 -14.63923949 106.44783508 -14.65449524 108.28507996 C-14.67647079 111.07134695 -14.67948606 113.85706136 -14.67834473 116.6434021 C-14.68913905 117.45919581 -14.69993338 118.27498953 -14.7110548 119.11550426 C-14.68575635 123.7324672 -14.26702488 126.75240456 -11.33776855 130.38095093 C-7.99927015 133.50622021 -5.63296839 133.75875782 -1.11988831 133.76863098 C0.15733597 133.77853561 1.43456024 133.78844025 2.75048828 133.79864502 C4.16369725 133.79440699 5.57690529 133.78984913 6.9901123 133.78500366 C8.48011284 133.79070662 9.970109 133.7976706 11.46009827 133.80580139 C15.50558556 133.82375655 19.55085623 133.82256 23.59637141 133.81685901 C26.97367784 133.81377046 30.35094245 133.8198559 33.72824293 133.82589775 C41.69577637 133.83994919 49.66320261 133.83837665 57.6307373 133.82699585 C65.85034311 133.81551443 74.06962265 133.82958915 82.28918546 133.85639232 C89.34663407 133.87854427 96.40398022 133.88518784 103.46146113 133.87931591 C107.67640752 133.87594384 111.89114477 133.87837781 116.10606194 133.89556694 C120.06982458 133.91102602 124.03310369 133.90709248 127.99684715 133.8882618 C129.45088864 133.88457295 130.90496587 133.88769307 132.35897446 133.89814758 C134.34506885 133.91133669 136.33128798 133.89741474 138.31736755 133.88215637 C139.42846358 133.88194709 140.53955961 133.8817378 141.68432522 133.88152218 C145.35435434 133.26460851 147.00940202 131.93928895 149.66223145 129.38095093 C152.18575857 125.08606709 151.93251281 120.57972268 151.88928223 115.73519897 C151.88964383 114.42588645 151.88964383 114.42588645 151.89001274 113.09012318 C151.88852402 110.27420043 151.8733115 107.45854486 151.85754395 104.64266968 C151.85460214 102.9003614 151.85256255 101.15805136 151.85144043 99.41574097 C151.84096901 92.96661727 151.8130465 86.51753146 151.78723145 80.06845093 C151.72535645 58.44313843 151.72535645 58.44313843 151.66223145 36.38095093 C96.88223145 36.38095093 42.10223145 36.38095093 -14.33776855 36.38095093 Z " fill="#F8F8FE" transform="translate(37.3377685546875,35.619049072265625)"/>
<path d="M0 0 C5.28 0 10.56 0 16 0 C20 12.625 20 12.625 20 16 C20.52078125 16.2165625 21.0415625 16.433125 21.578125 16.65625 C24.97991484 18.54369469 27.79409409 20.98585585 30.75 23.5 C31.35199219 23.99886719 31.95398438 24.49773437 32.57421875 25.01171875 C34.09048277 26.29418243 35.55043376 27.64260271 37 29 C37 29.66 37 30.32 37 31 C37.5775 31.268125 38.155 31.53625 38.75 31.8125 C41 33 41 33 43.0625 34.6875 C43.701875 35.120625 44.34125 35.55375 45 36 C48.50655845 34.83114718 48.86170161 34.09909352 50.77734375 31.0703125 C51.29103516 30.27496094 51.80472656 29.47960937 52.33398438 28.66015625 C53.12772461 27.40525391 53.12772461 27.40525391 53.9375 26.125 C54.98159202 24.47751247 56.0321688 22.83411299 57.08984375 21.1953125 C57.55253662 20.46328613 58.01522949 19.73125977 58.49194336 18.97705078 C60.14000447 16.81645521 61.70276079 15.44461811 64 14 C67.30771442 13.5865357 69.22587916 13.56587416 72.15234375 15.20703125 C74 17 74 17 74.56640625 19.34765625 C74.54906943 31.39674835 69.01554016 38.85439357 60.83984375 47.21484375 C50.7033754 57.15611189 50.7033754 57.15611189 44.73046875 57.171875 C43.49941406 57.11515625 42.26835937 57.0584375 41 57 C44.51928879 78.18298319 44.51928879 78.18298319 52.6484375 97.89453125 C55.29193072 103.96845353 53.89455044 109.17754073 51.76953125 115.2265625 C51.53723312 115.89609955 51.304935 116.5656366 51.06559753 117.25546265 C50.32462858 119.38232341 49.56865718 121.50349849 48.8125 123.625 C48.3239229 125.02440935 47.83628538 126.42414712 47.34960938 127.82421875 C46.15889213 131.23550056 44.94256192 134.63676832 43.71051025 138.0333252 C43.23743513 139.34278543 42.76895252 140.65391409 42.30511475 141.9666748 C41.65604214 143.80210434 40.9905128 145.63168927 40.32421875 147.4609375 C39.94740967 148.50813965 39.57060059 149.5553418 39.18237305 150.63427734 C38.79218994 151.41496582 38.40200684 152.1956543 38 153 C37.01 153.33 36.02 153.66 35 154 C35.33 154.66 35.66 155.32 36 156 C36.23029956 158.37123246 36.41119942 160.74741943 36.5625 163.125 C36.64628906 164.40632812 36.73007812 165.68765625 36.81640625 167.0078125 C36.87699219 167.99523437 36.93757813 168.98265625 37 170 C23.33333333 170 9.66666667 170 -4 170 C-4 167.69 -4 165.38 -4 163 C1.5626148 160.33961901 6.93267948 159.03767051 13 158 C13.144375 156.783125 13.28875 155.56625 13.4375 154.3125 C13.82780953 151.17329623 14.32351856 148.0924866 15 145 C13.824375 144.6596875 13.824375 144.6596875 12.625 144.3125 C9.55476681 143.20086384 6.64361388 142.00338883 3.6875 140.625 C2.82511719 140.22539062 1.96273437 139.82578125 1.07421875 139.4140625 C-1 138 -1 138 -1.9921875 136.19921875 C-2.00400858 132.87158448 -0.55382827 131.00629685 1.1875 128.1875 C1.94249027 126.92015865 2.69352738 125.65045712 3.44140625 124.37890625 C3.85406738 123.67910645 4.26672852 122.97930664 4.69189453 122.25830078 C12.55880082 108.67694894 19.26124341 94.5465344 25.5625 80.1875 C25.86399963 79.50431702 26.16549927 78.82113403 26.47613525 78.11724854 C29.80639757 70.54590046 32.91287179 63.02732501 35 55 C34.40574219 54.51273438 33.81148438 54.02546875 33.19921875 53.5234375 C27.85628201 48.95327388 23.32397046 44.21807583 19 38.6875 C18.53166748 38.08921387 18.06333496 37.49092773 17.58081055 36.87451172 C15.79148688 34.53798524 14.15613572 32.35410404 12.96484375 29.65234375 C12.11491089 27.79444433 12.11491089 27.79444433 9.94140625 27.2421875 C9.15636719 27.12101562 8.37132812 26.99984375 7.5625 26.875 C4.22861739 26.33674548 2.92062747 25.94708498 0 24 C0.08378906 23.44054687 0.16757813 22.88109375 0.25390625 22.3046875 C1.21503224 14.7373411 0.66982877 7.59139276 0 0 Z " fill="#B4B0FC" transform="translate(223,107)"/>
<path d="M0 0 C5.28 0 10.56 0 16 0 C20 12.625 20 12.625 20 16 C20.52078125 16.2165625 21.0415625 16.433125 21.578125 16.65625 C24.97991484 18.54369469 27.79409409 20.98585585 30.75 23.5 C31.35199219 23.99886719 31.95398438 24.49773437 32.57421875 25.01171875 C34.09048277 26.29418243 35.55043376 27.64260271 37 29 C37 29.66 37 30.32 37 31 C37.5775 31.268125 38.155 31.53625 38.75 31.8125 C41 33 41 33 43.0625 34.6875 C43.701875 35.120625 44.34125 35.55375 45 36 C48.50655845 34.83114718 48.86170161 34.09909352 50.77734375 31.0703125 C51.29103516 30.27496094 51.80472656 29.47960937 52.33398438 28.66015625 C53.12772461 27.40525391 53.12772461 27.40525391 53.9375 26.125 C54.98159202 24.47751247 56.0321688 22.83411299 57.08984375 21.1953125 C57.55253662 20.46328613 58.01522949 19.73125977 58.49194336 18.97705078 C60.14000447 16.81645521 61.70276079 15.44461811 64 14 C67.30771442 13.5865357 69.22587916 13.56587416 72.15234375 15.20703125 C74 17 74 17 74.56640625 19.34765625 C74.54906943 31.39674835 69.01554016 38.85439357 60.83984375 47.21484375 C50.47042161 57.38457964 50.47042161 57.38457964 44.4375 57.4375 C43.303125 57.293125 42.16875 57.14875 41 57 C40.67 58.32 40.34 59.64 40 61 C40 59.35 40 57.7 40 56 C39.195625 55.835 38.39125 55.67 37.5625 55.5 C27.76335984 51.37404625 17.27459493 39.41092536 12.9609375 29.6484375 C12.11430758 27.79400121 12.11430758 27.79400121 9.94140625 27.2421875 C9.15636719 27.12101562 8.37132812 26.99984375 7.5625 26.875 C4.22861739 26.33674548 2.92062747 25.94708498 0 24 C0.08378906 23.44054687 0.16757813 22.88109375 0.25390625 22.3046875 C1.21503224 14.7373411 0.66982877 7.59139276 0 0 Z " fill="#D09E80" transform="translate(223,107)"/>
<path d="M0 0 C1 2 1 2 0 7 C-0.33 14.26 -0.66 21.52 -1 29 C54.44 29 109.88 29 167 29 C167 20.75 167 12.5 167 4 C167.33 4 167.66 4 168 4 C168.09350696 19.02082866 168.16401032 34.04163473 168.20724869 49.06269264 C168.22786011 56.03749963 168.2559532 63.01212561 168.30175781 69.98681641 C168.34593628 76.71711086 168.36913441 83.44717836 168.37950897 90.17762375 C168.38690285 92.74607682 168.40134118 95.31451954 168.42292023 97.88289261 C168.45193365 101.47895853 168.45595669 105.07424613 168.45410156 108.67041016 C168.46848267 109.73352417 168.48286377 110.79663818 168.49768066 111.89196777 C168.46500304 117.74144223 168.14471282 121.50093267 164 126 C160.12548141 128.81182831 157.42331097 129.37725743 152.66859436 129.38768005 C150.75286369 129.402537 150.75286369 129.402537 148.7984314 129.41769409 C147.39044093 129.41345631 145.9824514 129.40889848 144.57446289 129.40405273 C143.08593737 129.4097574 141.59741623 129.41672203 140.10890198 129.42485046 C136.07167073 129.44278666 132.03465678 129.44161265 127.99739766 129.43590808 C124.62510598 129.43281683 121.25285608 129.43890797 117.88057035 129.44494683 C109.92400697 129.45899199 101.96755096 129.45743089 94.01098633 129.44604492 C85.80671632 129.43456381 77.60277321 129.44863914 69.39854628 129.4754414 C62.35040361 129.49760348 55.30236351 129.50423464 48.25418848 129.49836498 C44.04649079 129.49499539 39.83900264 129.49741054 35.6313343 129.51461601 C31.67412139 129.53009126 27.71739243 129.52612357 23.76019859 129.50731087 C22.3098014 129.50362653 20.85936831 129.50672903 19.40900421 129.51719666 C17.42550279 129.53041664 15.44187621 129.51644473 13.45838928 129.50120544 C12.34951386 129.50099616 11.24063845 129.50078688 10.09816074 129.50057125 C5.38935402 128.73976719 2.39882557 126.46651774 -0.85161114 123.05878544 C-2.2517701 120.54863668 -2.37477931 118.92633751 -2.3742218 116.05943298 C-2.38123611 115.06539963 -2.38825043 114.07136627 -2.39547729 113.04721069 C-2.38783356 111.96291779 -2.38018982 110.87862488 -2.37231445 109.76147461 C-2.37779045 108.04144478 -2.37779045 108.04144478 -2.38337708 106.28666687 C-2.39149117 102.49174243 -2.37786562 98.69724377 -2.36328125 94.90234375 C-2.36276278 92.26965841 -2.36327996 89.63697268 -2.36479187 87.00428772 C-2.36567441 81.48547263 -2.354602 75.96678048 -2.33618164 70.44799805 C-2.31500409 64.06659337 -2.31150658 57.68536865 -2.3177436 51.30393595 C-2.32343675 45.16471494 -2.3176884 39.0255675 -2.30657005 32.88635445 C-2.30271317 30.27358824 -2.30157185 27.6608166 -2.3031559 25.04804802 C-2.30352552 21.40163634 -2.29093542 17.75550113 -2.2746582 14.10913086 C-2.27713562 13.02281372 -2.27961304 11.93649658 -2.28216553 10.81726074 C-2.27508072 9.82604721 -2.26799591 8.83483368 -2.26069641 7.81358337 C-2.25864354 6.95137145 -2.25659067 6.08915953 -2.25447559 5.20081997 C-2 3 -2 3 0 0 Z M0 30 C-0.061875 44.581875 -0.12375 59.16375 -0.1875 74.1875 C-0.21481201 78.78840576 -0.24212402 83.38931152 -0.27026367 88.12963867 C-0.2802982 92.26096008 -0.2802982 92.26096008 -0.28633118 96.39228821 C-0.29093197 98.22959066 -0.30147094 100.06688416 -0.31672668 101.90412903 C-0.33870224 104.69039602 -0.3417175 107.47611044 -0.34057617 110.26245117 C-0.3513705 111.07824489 -0.36216482 111.8940386 -0.37328625 112.73455334 C-0.34798779 117.35151628 0.07074368 120.37145363 3 124 C6.3384984 127.12526928 8.70480017 127.37780689 13.21788025 127.38768005 C14.49510452 127.39758469 15.7723288 127.40748932 17.08825684 127.41769409 C18.5014658 127.41345606 19.91467384 127.4088982 21.32788086 127.40405273 C22.81788139 127.40975569 24.30787756 127.41671967 25.79786682 127.42485046 C29.84335411 127.44280563 33.88862478 127.44160908 37.93413997 127.43590808 C41.31144639 127.43281953 44.68871101 127.43890497 48.06601149 127.44494683 C56.03354493 127.45899826 64.00097116 127.45742572 71.96850586 127.44604492 C80.18811167 127.43456351 88.40739121 127.44863822 96.62695402 127.4754414 C103.68440262 127.49759335 110.74174878 127.50423691 117.79922968 127.49836498 C122.01417608 127.49499292 126.22891333 127.49742688 130.44383049 127.51461601 C134.40759313 127.53007509 138.37087224 127.52614155 142.33461571 127.50731087 C143.7886572 127.50362202 145.24273443 127.50674215 146.69674301 127.51719666 C148.6828374 127.53038577 150.66905653 127.51646381 152.65513611 127.50120544 C153.76623214 127.50099616 154.87732817 127.50078688 156.02209377 127.50057125 C159.69212289 126.88365758 161.34717057 125.55833802 164 123 C166.52352712 118.70511616 166.27028137 114.19877175 166.22705078 109.35424805 C166.22741239 108.04493553 166.22741239 108.04493553 166.2277813 106.70917225 C166.22629258 103.8932495 166.21108005 101.07759393 166.1953125 98.26171875 C166.1923707 96.51941048 166.1903311 94.77710044 166.18920898 93.03479004 C166.17873756 86.58566634 166.15081506 80.13658053 166.125 73.6875 C166.063125 52.0621875 166.063125 52.0621875 166 30 C111.22 30 56.44 30 0 30 Z " fill="#B5B1FE" transform="translate(23,42)"/>
<path d="M0 0 C9.26044971 10.02419814 11.55378944 24.91115699 12 38 C3.75 38 -4.5 38 -13 38 C-7 30 -7 30 -4.8125 27.4375 C-0.36970901 21.46271211 0.33800677 16.65751544 0.3984375 9.35546875 C0.20121094 8.18951172 0.20121094 8.18951172 0 7 C-3.51824511 4.65450326 -4.85775694 4.42008597 -9 5 C-14.1102913 9.37053199 -17.42310135 14.93124958 -20.98242188 20.55664062 C-21.44326172 21.25595703 -21.90410156 21.95527344 -22.37890625 22.67578125 C-22.7869751 23.31427002 -23.19504395 23.95275879 -23.61547852 24.6105957 C-24.07237061 25.06909912 -24.5292627 25.52760254 -25 26 C-29.13643553 26 -29.69802433 25.84767359 -32.75 23.5 C-33.67039062 22.80390625 -33.67039062 22.80390625 -34.609375 22.09375 C-35.06828125 21.7328125 -35.5271875 21.371875 -36 21 C-35.49922852 13.32150398 -32.35736697 7.05820579 -27.6875 1 C-20.54400058 -4.31609259 -7.2483927 -5.56271998 0 0 Z " fill="#5035B3" transform="translate(296,117)"/>
<path d="M0 0 C2.4375 0.375 2.4375 0.375 5 1 C5.33 1.66 5.66 2.32 6 3 C7.2375 3.2475 7.2375 3.2475 8.5 3.5 C9.7375 3.7475 9.7375 3.7475 11 4 C11.33 4.66 11.66 5.32 12 6 C13.85744207 6.61067144 13.85744207 6.61067144 16 7 C18.1875 7.4375 18.1875 7.4375 20 8 C21.4807848 10.9615696 21.35314037 13.83506295 21.5625 17.125 C21.64628906 18.40632813 21.73007812 19.68765625 21.81640625 21.0078125 C21.87699219 21.99523437 21.93757813 22.98265625 22 24 C8.33333333 24 -5.33333333 24 -19 24 C-19 21.69 -19 19.38 -19 17 C-13.4373852 14.33961901 -8.06732052 13.03767051 -2 12 C-1.855625 10.7625 -1.71125 9.525 -1.5625 8.25 C-1.21311498 5.43495501 -0.79620634 2.7298503 0 0 Z " fill="#FD3E81" transform="translate(238,253)"/>
<path d="M0 0 C2.8125 1.375 2.8125 1.375 4.8125 3.375 C4.54769205 7.21471532 2.38245974 9.65386616 -0.1875 12.375 C-1.1775 12.375 -2.1675 12.375 -3.1875 12.375 C-3.29328369 13.11991699 -3.39906738 13.86483398 -3.50805664 14.63232422 C-4.23873937 17.58183548 -5.11968381 18.95674729 -7.05859375 21.2578125 C-7.63287109 21.95003906 -8.20714844 22.64226562 -8.79882812 23.35546875 C-9.40146484 24.06316406 -10.00410156 24.77085937 -10.625 25.5 C-11.81216397 26.91846287 -12.99839974 28.33770322 -14.18359375 29.7578125 C-14.71138428 30.38059082 -15.2391748 31.00336914 -15.78295898 31.64501953 C-17.36025395 33.53251011 -17.36025395 33.53251011 -19.1875 36.375 C-24.0625 34.5 -24.0625 34.5 -25.1875 33.375 C-24.77017761 28.36713131 -23.49761028 24.0785921 -21.7109375 19.390625 C-20.94526905 17.19414355 -20.94526905 17.19414355 -22.1875 14.375 C-21 12.1875 -21 12.1875 -19.1875 10.375 C-17.8675 10.375 -16.5475 10.375 -15.1875 10.375 C-15.1875 9.385 -15.1875 8.395 -15.1875 7.375 C-14.135625 6.7975 -13.08375 6.22 -12 5.625 C-9.49131067 4.224567 -7.76883055 2.9869649 -5.625 1 C-3.1875 -0.625 -3.1875 -0.625 0 0 Z " fill="#F93D80" transform="translate(346.1875,240.625)"/>
<path d="M0 0 C1.1149585 -0.00430527 1.1149585 -0.00430527 2.25244141 -0.00869751 C3.8225989 -0.01073726 5.39278186 -0.0052135 6.96289062 0.00732422 C9.36646332 0.02338047 11.76835461 0.00747398 14.171875 -0.01171875 C15.69792038 -0.0097363 17.22396471 -0.00589259 18.75 0 C19.46881348 -0.00607269 20.18762695 -0.01214539 20.92822266 -0.0184021 C23.83275282 0.02254424 25.89438887 0.08303645 28.359375 1.70068359 C29.375 3.3984375 29.375 3.3984375 29.25 6.9609375 C28.375 10.3984375 28.375 10.3984375 25.375 12.3984375 C20.8235345 12.78731869 16.26259972 12.72757761 11.6965332 12.71411133 C9.44888737 12.7109535 7.20256104 12.73440789 4.95507812 12.75976562 C3.52343916 12.76203897 2.09179666 12.76274195 0.66015625 12.76171875 C-0.64042725 12.76469971 -1.94101074 12.76768066 -3.28100586 12.77075195 C-6.78309678 12.38083528 -8.22542718 11.93962201 -10.625 9.3984375 C-11.06951633 6.35032555 -11.25069663 4.38844541 -9.57421875 1.73583984 C-6.58396891 -0.31583709 -3.50090872 -0.02957644 0 0 Z " fill="#FEFEFE" transform="translate(89.625,47.6015625)"/>
<path d="M0 0 C5.0755384 3.18465155 6.93199793 6.34285882 9.12109375 11.84765625 C10.1630494 14.39928987 11.57419579 16.64742306 13 19 C13 19.66 13 20.32 13 21 C9.99744223 21.5325049 7.05316882 21.97335804 4 22 C2.65210653 21.01971384 1.31787285 20.02028865 0 19 C-2.01582394 19.25597764 -4.03232502 19.51624563 -6.03515625 19.859375 C-9.08769594 20.07784703 -10.69890392 18.8950203 -13 17 C-15.46141247 13.3078813 -15.68650207 10.28645195 -15 6 C-11.06598985 -0.46301667 -7.29510829 -1.88666594 0 0 Z " fill="#D3A082" transform="translate(297,93)"/>
<path d="M0 0 C0.33 0 0.66 0 1 0 C1.09350696 15.02082866 1.16401032 30.04163473 1.20724869 45.06269264 C1.22786011 52.03749963 1.2559532 59.01212561 1.30175781 65.98681641 C1.34593628 72.71711086 1.36913441 79.44717836 1.37950897 86.17762375 C1.38690285 88.74607682 1.40134118 91.31451954 1.42292023 93.88289261 C1.45193365 97.47895853 1.45595669 101.07424613 1.45410156 104.67041016 C1.46848267 105.73352417 1.48286377 106.79663818 1.49768066 107.89196777 C1.46405774 113.91065579 1.06754479 117.44682199 -3 122 C-3.99 122.66 -4.98 123.32 -6 124 C-6.99 123.67 -7.98 123.34 -9 123 C-8.21625 122.443125 -7.4325 121.88625 -6.625 121.3125 C-2.70982574 117.86341791 -2.08813005 115.24757861 -1.7215271 110.0579071 C-1.69808458 108.49013825 -1.68537566 106.92218647 -1.68115234 105.35424805 C-1.67099909 104.48137303 -1.66084583 103.60849802 -1.6503849 102.70917225 C-1.61983339 99.89335843 -1.60261678 97.0776453 -1.5859375 94.26171875 C-1.56899667 92.51940039 -1.55117934 90.77709032 -1.5324707 89.03479004 C-1.46936034 82.58578854 -1.4232037 76.13663014 -1.375 69.6875 C-1.25125 55.270625 -1.1275 40.85375 -1 26 C-55.78 26 -110.56 26 -167 26 C-167 25.67 -167 25.34 -167 25 C-111.89 25 -56.78 25 0 25 C0 16.75 0 8.5 0 0 Z " fill="#A7A5FD" transform="translate(190,46)"/>
<path d="M0 0 C2.76101146 1.82109266 4.52100548 3.04201097 6 6 C6.40104417 11.21357417 5.87196113 14.58948826 3 19 C0.53663875 20.93549813 -1.23435451 21.03037929 -4.375 21.4375 C-9.1853299 20.85694294 -10.61392593 19.38607407 -14 16 C-15.61429923 12.77140153 -15.59570657 9.49006347 -15 6 C-11.24489592 -0.54340897 -7.13352575 -1.80388007 0 0 Z " fill="#5CD7AC" transform="translate(52,140)"/>
<path d="M0 0 C1.98 0 3.96 0 6 0 C6 16.5 6 33 6 50 C4.02 50 2.04 50 0 50 C0 33.5 0 17 0 0 Z " fill="#3AB688" transform="translate(146,95)"/>
<path d="M0 0 C2.31 0 4.62 0 7 0 C7 12.54 7 25.08 7 38 C4.69 38 2.38 38 0 38 C0 25.46 0 12.92 0 0 Z " fill="#4DBA91" transform="translate(132,108)"/>
<path d="M0 0 C2.31 0 4.62 0 7 0 C7 9.9 7 19.8 7 30 C4.69 30 2.38 30 0 30 C0 20.1 0 10.2 0 0 Z " fill="#50BC92" transform="translate(118,116)"/>
<path d="M0 0 C5.0755384 3.18465155 6.93199793 6.34285882 9.12109375 11.84765625 C10.1630494 14.39928987 11.57419579 16.64742306 13 19 C13 19.66 13 20.32 13 21 C11.56589632 21.24954005 10.12739928 21.47392642 8.6875 21.6875 C7.48673828 21.87892578 7.48673828 21.87892578 6.26171875 22.07421875 C4 22 4 22 2.15625 20.84375 C1 19 1 19 1.14453125 16.51953125 C1.36496094 15.62621094 1.58539063 14.73289062 1.8125 13.8125 C2.02519531 12.91144531 2.23789062 12.01039062 2.45703125 11.08203125 C2.72580078 10.05142578 2.72580078 10.05142578 3 9 C2.236875 8.731875 1.47375 8.46375 0.6875 8.1875 C-2 7 -2 7 -3.3125 5.375 C-6.18462626 3.03474898 -9.40460302 3.8231772 -13 4 C-8.41636849 -0.73641923 -6.63193 -1.54745033 0 0 Z " fill="#7590FB" transform="translate(297,93)"/>
<path d="M0 0 C3.375 0.875 3.375 0.875 5.375 2.875 C5.65422749 5.80688861 5.84643881 8.02890647 5.375 10.875 C3.30244557 13.33136081 2.01130966 13.76364581 -1.125 14.3125 C-4.52334723 13.71778924 -5.63741034 12.67234842 -7.625 9.875 C-8.23475382 6.21647708 -8.07043026 4.56987121 -6.0625 1.4375 C-3.625 -0.125 -3.625 -0.125 0 0 Z " fill="#5437B7" transform="translate(39.625,47.125)"/>
<path d="M0 0 C5.28 0 10.56 0 16 0 C16 1.65 16 3.3 16 5 C15.34 5 14.68 5 14 5 C14 7.31 14 9.62 14 12 C8.06 11.01 8.06 11.01 2 10 C0 3.375 0 3.375 0 0 Z " fill="#0A0405" transform="translate(223,107)"/>
<path d="M0 0 C2.31 0 4.62 0 7 0 C7 6.27 7 12.54 7 19 C4.69 19 2.38 19 0 19 C0 12.73 0 6.46 0 0 Z " fill="#53BD95" transform="translate(77,127)"/>
<path d="M0 0 C1.98 0 3.96 0 6 0 C6 7.26 6 14.52 6 22 C4.02 22 2.04 22 0 22 C0 14.74 0 7.48 0 0 Z " fill="#39B688" transform="translate(105,123)"/>
<path d="M0 0 C2.31 0 4.62 0 7 0 C7 4.62 7 9.24 7 14 C4.69 14 2.38 14 0 14 C0 9.38 0 4.76 0 0 Z " fill="#53BC94" transform="translate(91,132)"/>
<path d="M0 0 C2.31 0 4.62 0 7 0 C7 4.29 7 8.58 7 13 C4.69 13 2.38 13 0 13 C0 8.71 0 4.42 0 0 Z " fill="#53BE96" transform="translate(64,133)"/>
<path d="M0 0 C1.258125 -0.04125 2.51625 -0.0825 3.8125 -0.125 C4.52019531 -0.14820312 5.22789062 -0.17140625 5.95703125 -0.1953125 C8 0 8 0 11 2 C10.01 2 9.02 2 8 2 C8 2.99 8 3.98 8 5 C5.36 4.67 2.72 4.34 0 4 C0 2.68 0 1.36 0 0 Z " fill="#99735C" transform="translate(225,117)"/>
<path d="M0 0 C1.65 0 3.3 0 5 0 C5 1.65 5 3.3 5 5 C3.35 5 1.7 5 0 5 C0 3.35 0 1.7 0 0 Z " fill="#31B687" transform="translate(64,101)"/>
</svg>
